ply
format ascii 1.0
Created by Blender3D 246 - www.blender.org, source file: mega-asleep.blend
element vertex 312
property float x
property float y
property float z
property float nx
property float ny
property float nz
element face 104
property list uchar uint vertex_indices
end_header
-0.463763 -0.067204 2.577172 -0.000003 -0.000003 1.000000 
-0.456422 -0.152270 2.577172 -0.000003 -0.000003 1.000000 
-0.403824 -0.117215 2.577172 -0.000003 -0.000003 1.000000 
-1.167473 -0.191663 2.310176 -0.152371 -0.000192 0.988323 
-1.167603 -0.088151 2.310176 -0.152371 -0.000192 0.988323 
-1.211736 -0.122413 2.303365 -0.152371 -0.000192 0.988323 
-0.463763 -0.067204 2.577172 -0.353720 -0.030528 0.934853 
-1.167603 -0.088151 2.310176 -0.353720 -0.030528 0.934853 
-0.456422 -0.152270 2.577172 -0.353720 -0.030528 0.934853 
-1.167603 -0.088151 2.310176 -0.351508 -0.000442 0.936185 
-1.167473 -0.191663 2.310176 -0.351508 -0.000442 0.936185 
-0.456422 -0.152270 2.577172 -0.351508 -0.000442 0.936185 
0.974637 -0.057371 2.395322 0.371535 0.020672 0.928189 
0.466185 -0.071349 2.599156 0.371535 0.020672 0.928189 
0.980020 -0.154119 2.395322 0.371535 0.020672 0.928189 
0.458994 0.017228 2.599157 0.371222 0.030134 0.928055 
0.466185 -0.071349 2.599156 0.371222 0.030134 0.928055 
0.974637 -0.057371 2.395322 0.371222 0.030134 0.928055 
0.980020 -0.154119 2.395322 0.095618 0.005320 0.995404 
1.006673 -0.096780 2.392455 0.095618 0.005320 0.995404 
0.974637 -0.057371 2.395322 0.095618 0.005320 0.995404 
0.458994 0.017228 2.599157 -0.132081 -0.010725 0.991181 
0.429122 -0.036691 2.594593 -0.132081 -0.010725 0.991181 
0.466185 -0.071349 2.599156 -0.132081 -0.010725 0.991181 
0.057460 0.564098 2.541262 -0.091848 0.163971 0.982180 
0.127098 0.211136 2.606700 -0.091848 0.163971 0.982180 
0.159997 0.641480 2.537932 -0.091848 0.163971 0.982180 
0.057460 0.564098 2.541262 -0.089279 0.164506 0.982327 
0.020908 0.133127 2.610112 -0.089279 0.164506 0.982327 
0.127098 0.211136 2.606700 -0.089279 0.164506 0.982327 
0.206025 0.576685 2.537932 -0.008198 0.158845 0.987270 
0.266073 0.215952 2.596470 -0.008198 0.158845 0.987270 
0.294838 0.643304 2.527951 -0.008198 0.158845 0.987270 
0.206025 0.576685 2.537932 -0.009110 0.158696 0.987286 
0.173243 0.146981 2.606700 -0.009110 0.158696 0.987286 
0.266073 0.215952 2.596470 -0.009110 0.158696 0.987286 
0.341495 0.591787 2.527951 0.076979 0.154518 0.984986 
0.404283 0.232237 2.579448 0.076979 0.154518 0.984986 
0.428397 0.654367 2.511342 0.076979 0.154518 0.984986 
0.341495 0.591787 2.527951 0.071944 0.153712 0.985493 
0.313060 0.165799 2.596470 0.071944 0.153712 0.985493 
0.404283 0.232237 2.579448 0.071944 0.153712 0.985493 
0.475707 0.615512 2.511342 0.164743 0.151018 0.974707 
0.541322 0.257806 2.555674 0.164743 0.151018 0.974707 
0.560370 0.672869 2.488146 0.164743 0.151018 0.974707 
0.475707 0.615512 2.511342 0.155522 0.149542 0.976448 
0.452108 0.195353 2.579448 0.155522 0.149542 0.976448 
0.541322 0.257806 2.555674 0.155522 0.149542 0.976448 
0.613278 0.638130 2.488146 0.253900 0.148229 0.955805 
0.676773 0.290404 2.525205 0.253900 0.148229 0.955805 
0.690354 0.697795 2.458418 0.253900 0.148229 0.955805 
0.613278 0.638130 2.488146 0.241702 0.146369 0.959248 
0.594971 0.225808 2.555674 0.241702 0.146369 0.959248 
0.676773 0.290404 2.525205 0.241702 0.146369 0.959248 
0.738124 0.674174 2.458418 0.320112 0.146693 0.935954 
0.809747 0.328395 2.488116 0.320112 0.146693 0.935954 
0.817403 0.732060 2.422231 0.320112 0.146693 0.935954 
0.738124 0.674174 2.458418 0.310509 0.145004 0.939446 
0.725471 0.268570 2.525205 0.310509 0.145004 0.939446 
0.809747 0.328395 2.488116 0.310509 0.145004 0.939446 
0.870548 0.721754 2.422231 0.438980 0.142068 0.887194 
0.937786 0.374955 2.444495 0.438980 0.142068 0.887194 
0.939502 0.774473 2.379671 0.438980 0.142068 0.887194 
0.870548 0.721754 2.422231 0.425649 0.139921 0.894005 
0.864183 0.320150 2.488116 0.425649 0.139921 0.894005 
0.937786 0.374955 2.444495 0.425649 0.139921 0.894005 
0.987118 0.770885 2.379671 0.497903 0.141954 0.855536 
1.058827 0.430298 2.394449 0.497903 0.141954 0.855536 
1.056661 0.821255 2.330840 0.497903 0.141954 0.855536 
0.987118 0.770885 2.379671 0.486394 0.139832 0.862478 
0.986320 0.373824 2.444495 0.486394 0.139832 0.862478 
1.058827 0.430298 2.394449 0.486394 0.139832 0.862478 
1.107668 0.819260 2.330840 0.596930 0.136823 0.790541 
1.173492 0.490164 2.338096 0.596930 0.136823 0.790541 
1.169402 0.867608 2.275857 0.596930 0.136823 0.790541 
1.107668 0.819260 2.330840 0.588237 0.135233 0.797301 
1.110368 0.432498 2.394449 0.588237 0.135233 0.797301 
1.173492 0.490164 2.338096 0.588237 0.135233 0.797301 
1.215951 0.863285 2.275857 0.641234 0.135179 0.755345 
1.282629 0.548582 2.275573 0.641234 0.135179 0.755345 
1.278097 0.909357 2.214855 0.641234 0.135179 0.755345 
1.215951 0.863285 2.275857 0.636748 0.134225 0.759299 
1.220308 0.490538 2.338096 0.636748 0.134225 0.759299 
1.282629 0.548582 2.275573 0.636748 0.134225 0.759299 
1.318863 0.903618 2.214855 0.675542 0.132802 0.725264 
1.386835 0.600588 2.207030 0.675542 0.132802 0.725264 
1.382900 0.943097 2.147979 0.675542 0.132802 0.725264 
1.318863 0.903618 2.214855 0.674661 0.132582 0.726123 
1.323527 0.547344 2.275573 0.674661 0.132582 0.726123 
1.386835 0.600588 2.207030 0.674661 0.132582 0.726123 
1.423429 0.934608 2.147979 0.736195 0.123682 0.665372 
1.486393 0.642378 2.132633 0.736195 0.123682 0.665372 
1.483719 0.966247 2.075391 0.736195 0.123682 0.665372 
1.423429 0.934608 2.147979 0.739316 0.124545 0.661741 
1.427502 0.596675 2.207030 0.739316 0.124545 0.661741 
1.486393 0.642378 2.132633 0.739316 0.124545 0.661741 
1.519629 0.960790 2.075391 0.771240 0.117001 0.625700 
1.581345 0.676060 2.052561 0.771240 0.117001 0.625700 
1.580298 0.978678 1.997265 0.771240 0.117001 0.625700 
1.519629 0.960790 2.075391 0.773940 0.117867 0.622194 
1.522313 0.640998 2.132633 0.773940 0.117867 0.622194 
1.581345 0.676060 2.052561 0.773940 0.117867 0.622194 
1.620363 0.965852 1.997265 0.830142 0.101278 0.548277 
1.671878 0.707406 1.967007 0.830142 0.101278 0.548277 
1.672818 0.987787 1.913791 0.830142 0.101278 0.548277 
1.620363 0.965852 1.997265 0.836768 0.103846 0.537619 
1.621717 0.668670 2.052561 0.836768 0.103846 0.537619 
1.671878 0.707406 1.967007 0.836768 0.103846 0.537619 
1.713096 0.981213 1.913791 0.869570 0.085283 0.486389 
1.758241 0.735427 1.876176 0.869570 0.085283 0.486389 
1.761415 0.993969 1.825169 0.869570 0.085283 0.486389 
1.713096 0.981213 1.913791 0.876623 0.088637 0.472943 
1.712219 0.705937 1.967007 0.876623 0.088637 0.472943 
1.758241 0.735427 1.876176 0.876623 0.088637 0.472943 
1.802509 0.986190 1.825169 0.901268 0.066681 0.428099 
1.840606 0.759401 1.780289 0.901268 0.066681 0.428099 
1.846135 0.997171 1.731613 0.901268 0.066681 0.428099 
1.802509 0.986190 1.825169 0.909234 0.071584 0.410084 
1.799490 0.732330 1.876176 0.909234 0.071584 0.410084 
1.840606 0.759401 1.780289 0.909234 0.071584 0.410084 
1.887302 0.988905 1.731613 0.924863 0.046401 0.377460 
1.919075 0.778934 1.679575 0.924863 0.046401 0.377460 
1.926979 0.997438 1.633347 0.924863 0.046401 0.377460 
1.887302 0.988905 1.731613 0.932987 0.052950 0.355995 
1.881990 0.755259 1.780289 0.932987 0.052950 0.355995 
1.919075 0.778934 1.679575 0.932987 0.052950 0.355995 
1.962901 0.989297 1.633347 0.927613 0.033664 0.372022 
1.993682 0.793917 1.574277 0.927613 0.033664 0.372022 
2.003897 0.995005 1.530610 0.927613 0.033664 0.372022 
1.962901 0.989297 1.633347 0.936006 0.041797 0.349492 
1.955261 0.773862 1.679575 0.936006 0.041797 0.349492 
1.993682 0.793917 1.574277 0.936006 0.041797 0.349492 
2.038459 0.982733 1.530610 0.940996 0.011881 0.338210 
2.064417 0.804466 1.464650 0.940996 0.011881 0.338210 
2.076808 0.990280 1.423647 0.940996 0.011881 0.338210 
2.038459 0.982733 1.530610 0.949536 0.022508 0.312851 
2.028782 0.783995 1.574277 0.949536 0.022508 0.312851 
2.064417 0.804466 1.464650 0.949536 0.022508 0.312851 
2.111362 0.978103 1.423647 0.955612 -0.014277 0.294283 
2.131249 0.810837 1.350956 0.955612 -0.014277 0.294283 
2.145608 0.983777 1.312718 0.955612 -0.014277 0.294283 
2.111362 0.978103 1.423647 0.963282 -0.002153 0.268484 
2.099523 0.794068 1.464650 0.963282 -0.002153 0.268484 
2.131249 0.810837 1.350956 0.963282 -0.002153 0.268484 
2.174768 0.972492 1.312718 0.955224 -0.030145 0.294346 
2.194164 0.813327 1.233471 0.955224 -0.030145 0.294346 
2.210202 0.976054 1.198089 0.955224 -0.030145 0.294346 
2.174768 0.972492 1.312718 0.962613 -0.017286 0.270328 
2.160942 0.800555 1.350956 0.962613 -0.017286 0.270328 
2.194164 0.813327 1.233471 0.962613 -0.017286 0.270328 
2.235576 0.968822 1.198089 0.957643 -0.047437 0.284025 
2.253208 0.812170 1.112476 0.957643 -0.047437 0.284025 
2.270530 0.967631 1.080036 0.957643 -0.047437 0.284025 
2.235576 0.968822 1.198089 0.963783 -0.035941 0.264256 
2.219827 0.806639 1.233471 0.963783 -0.035941 0.264256 
2.253208 0.812170 1.112476 0.963783 -0.035941 0.264256 
2.297638 0.963299 1.080036 0.969689 -0.069786 0.234163 
2.308594 0.807607 0.988265 0.969689 -0.069786 0.234163 
2.326588 0.958911 0.958844 0.969689 -0.069786 0.234163 
2.297638 0.963299 1.080036 0.973245 -0.061933 0.221265 
2.280388 0.808121 1.112476 0.973245 -0.061933 0.221265 
2.308594 0.807607 0.988265 0.973245 -0.061933 0.221265 
2.352068 0.951612 0.958844 0.975148 -0.076912 0.207776 
2.360969 0.800503 0.861134 0.975148 -0.076912 0.207776 
2.378407 0.950469 0.834805 0.975148 -0.076912 0.207776 
2.352068 0.951612 0.958844 0.976252 -0.074123 0.203563 
2.334434 0.800154 0.988265 0.976252 -0.074123 0.203563 
2.360969 0.800503 0.861134 0.976252 -0.074123 0.203563 
-2.371361 0.941651 0.958844 -0.975441 -0.076464 0.206565 
-2.397539 0.940507 0.834805 -0.975441 -0.076464 0.206565 
-2.380208 0.790542 0.861134 -0.975441 -0.076464 0.206565 
-2.371361 0.941651 0.958844 -0.976532 -0.073690 0.202374 
-2.380208 0.790542 0.861134 -0.976532 -0.073690 0.202374 
-2.353835 0.790193 0.988265 -0.976532 -0.073690 0.202374 
-2.317264 0.953337 1.080036 -0.970044 -0.069382 0.232812 
-2.346037 0.948949 0.958844 -0.970044 -0.069382 0.232812 
-2.328154 0.797646 0.988265 -0.970044 -0.069382 0.232812 
-2.317264 0.953337 1.080036 -0.973559 -0.061573 0.219980 
-2.328154 0.797646 0.988265 -0.973559 -0.061573 0.219980 
-2.300120 0.798160 1.112476 -0.973559 -0.061573 0.219980 
-2.255583 0.958860 1.198089 -0.958127 -0.047170 0.282430 
-2.290323 0.957670 1.080036 -0.958127 -0.047170 0.282430 
-2.273107 0.802208 1.112476 -0.958127 -0.047170 0.282430 
-2.255583 0.958860 1.198089 -0.964202 -0.035735 0.262751 
-2.273107 0.802208 1.112476 -0.964202 -0.035735 0.262751 
-2.239930 0.796677 1.233471 -0.964202 -0.035735 0.262751 
-2.195147 0.962531 1.312718 -0.955735 -0.029975 0.292698 
-2.230364 0.966092 1.198089 -0.955735 -0.029975 0.292698 
-2.214425 0.803365 1.233471 -0.955735 -0.029975 0.292698 
-2.195147 0.962531 1.312718 -0.963045 -0.017188 0.268793 
-2.214425 0.803365 1.233471 -0.963045 -0.017188 0.268793 
-2.181406 0.790593 1.350956 -0.963045 -0.017188 0.268793 
-2.132130 0.968141 1.423647 -0.956119 -0.014197 0.292635 
-2.166166 0.973815 1.312718 -0.956119 -0.014197 0.292635 
-2.151895 0.800875 1.350956 -0.956119 -0.014197 0.292635 
-2.132130 0.968141 1.423647 -0.963706 -0.002141 0.266957 
-2.151895 0.800875 1.350956 -0.963706 -0.002141 0.266957 
-2.120363 0.784106 1.464650 -0.963706 -0.002141 0.266957 
-2.059673 0.972771 1.530610 -0.941654 0.011816 0.336375 
-2.097787 0.980318 1.423647 -0.941654 0.011816 0.336375 
-2.085472 0.794505 1.464650 -0.941654 0.011816 0.336375 
-2.059673 0.972771 1.530610 -0.950107 0.022384 0.311120 
-2.085472 0.794505 1.464650 -0.950107 0.022384 0.311120 
-2.050056 0.774033 1.574277 -0.950107 0.022384 0.311120 
-1.984579 0.979335 1.633347 -0.928404 0.033486 0.370060 
-2.025324 0.985044 1.530610 -0.928404 0.033486 0.370060 
-2.015171 0.783956 1.574277 -0.928404 0.033486 0.370060 
-1.984579 0.979335 1.633347 -0.936716 0.041573 0.347614 
-2.015171 0.783956 1.574277 -0.936716 0.041573 0.347614 
-1.976985 0.763901 1.679575 -0.936716 0.041573 0.347614 
-1.909443 0.978943 1.731613 -0.925681 0.046158 0.375479 
-1.948877 0.987476 1.633347 -0.925681 0.046158 0.375479 
-1.941021 0.768972 1.679575 -0.925681 0.046158 0.375479 
-1.909443 0.978943 1.731613 -0.933726 0.052668 0.354094 
-1.941021 0.768972 1.679575 -0.933726 0.052668 0.354094 
-1.904163 0.745298 1.780289 -0.933726 0.052668 0.354094 
-1.825169 0.976228 1.825169 -0.902303 0.066349 0.425965 
-1.868528 0.987209 1.731613 -0.902303 0.066349 0.425965 
-1.863033 0.749440 1.780289 -0.902303 0.066349 0.425965 
-1.825169 0.976228 1.825169 -0.910198 0.071221 0.408005 
-1.863033 0.749440 1.780289 -0.910198 0.071221 0.408005 
-1.822169 0.722369 1.876176 -0.910198 0.071221 0.408005 
-1.736304 0.971251 1.913791 -0.870869 0.084887 0.484130 
-1.784327 0.984008 1.825169 -0.870869 0.084887 0.484130 
-1.781172 0.725466 1.876176 -0.870869 0.084887 0.484130 
-1.736304 0.971251 1.913791 -0.877865 0.088218 0.470712 
-1.781172 0.725466 1.876176 -0.877865 0.088218 0.470712 
-1.735432 0.695975 1.967007 -0.877865 0.088218 0.470712 
-1.644139 0.955890 1.997265 -0.831722 0.100849 0.545956 
-1.696273 0.977826 1.913791 -0.831722 0.100849 0.545956 
-1.695339 0.697444 1.967007 -0.831722 0.100849 0.545956 
-1.644139 0.955890 1.997265 -0.838305 0.103399 0.535308 
-1.695339 0.697444 1.967007 -0.838305 0.103399 0.535308 
-1.645485 0.658709 2.052561 -0.838305 0.103399 0.535308 
-1.544022 0.950828 2.075391 -0.773156 0.116573 0.623410 
-1.604319 0.968716 1.997265 -0.773156 0.116573 0.623410 
-1.605360 0.666098 2.052561 -0.773156 0.116573 0.623410 
-1.544022 0.950828 2.075391 -0.775843 0.117433 0.619901 
-1.605360 0.666098 2.052561 -0.775843 0.117433 0.619901 
-1.546690 0.631036 2.132633 -0.775843 0.117433 0.619901 
-1.448411 0.924647 2.147979 -0.738263 0.123269 0.663154 
-1.508332 0.956285 2.075391 -0.738263 0.123269 0.663154 
-1.510990 0.632417 2.132633 -0.738263 0.123269 0.663154 
-1.448411 0.924647 2.147979 -0.741372 0.124126 0.659515 
-1.510990 0.632417 2.132633 -0.741372 0.124126 0.659515 
-1.452459 0.586714 2.207030 -0.741372 0.124126 0.659515 
-1.344486 0.893656 2.214855 -0.677797 0.132428 0.723225 
-1.408131 0.933135 2.147979 -0.677797 0.132428 0.723225 
-1.412041 0.590627 2.207030 -0.677797 0.132428 0.723225 
-1.344486 0.893656 2.214855 -0.676918 0.132210 0.724087 
-1.412041 0.590627 2.207030 -0.676918 0.132210 0.724087 
-1.349122 0.537382 2.275573 -0.676918 0.132210 0.724087 
-1.242205 0.853323 2.275857 -0.643552 0.134837 0.753432 
-1.303970 0.899395 2.214855 -0.643552 0.134837 0.753432 
-1.308475 0.538620 2.275573 -0.643552 0.134837 0.753432 
-1.242205 0.853323 2.275857 -0.639073 0.133890 0.757403 
-1.308475 0.538620 2.275573 -0.639073 0.133890 0.757403 
-1.246535 0.480576 2.338096 -0.639073 0.133890 0.757403 
-1.134585 0.809299 2.330840 -0.599289 0.136522 0.788805 
-1.195941 0.857646 2.275857 -0.599289 0.136522 0.788805 
-1.200006 0.480203 2.338096 -0.599289 0.136522 0.788805 
-1.134585 0.809299 2.330840 -0.590601 0.134945 0.795601 
-1.200006 0.480203 2.338096 -0.590601 0.134945 0.795601 
-1.137269 0.422536 2.394449 -0.590601 0.134945 0.795601 
-1.014773 0.760923 2.379671 -0.500206 0.141737 0.854228 
-1.083891 0.811293 2.330840 -0.500206 0.141737 0.854228 
-1.086044 0.420337 2.394449 -0.500206 0.141737 0.854228 
-1.014773 0.760923 2.379671 -0.488678 0.139628 0.861219 
-1.086044 0.420337 2.394449 -0.488678 0.139628 0.861219 
-1.013980 0.363862 2.444495 -0.488678 0.139628 0.861219 
-0.898918 0.711793 2.422231 -0.441160 0.141899 0.886139 
-0.967450 0.764512 2.379671 -0.441160 0.141899 0.886139 
-0.965744 0.364993 2.444495 -0.441160 0.141899 0.886139 
-0.898918 0.711793 2.422231 -0.427794 0.139765 0.893005 
-0.965744 0.364993 2.444495 -0.427794 0.139765 0.893005 
-0.892593 0.310188 2.488116 -0.427794 0.139765 0.893005 
-0.767305 0.664213 2.458418 -0.321882 0.146600 0.935361 
-0.846099 0.722098 2.422231 -0.321882 0.146600 0.935361 
-0.838490 0.318433 2.488116 -0.321882 0.146600 0.935361 
-0.767305 0.664213 2.458418 -0.312237 0.144917 0.938886 
-0.838490 0.318433 2.488116 -0.312237 0.144917 0.938886 
-0.754730 0.258608 2.525205 -0.312237 0.144917 0.938886 
-0.643225 0.628168 2.488146 -0.255363 0.148170 0.955424 
-0.719828 0.687834 2.458418 -0.255363 0.148170 0.955424 
-0.706330 0.280443 2.525205 -0.255363 0.148170 0.955424 
-0.643225 0.628168 2.488146 -0.243104 0.146316 0.958901 
-0.706330 0.280443 2.525205 -0.243104 0.146316 0.958901 
-0.625030 0.215847 2.555674 -0.243104 0.146316 0.958901 
-0.506496 0.605550 2.511342 -0.165730 0.150993 0.974543 
-0.590640 0.662907 2.488146 -0.165730 0.150993 0.974543 
-0.571709 0.247845 2.555674 -0.165730 0.150993 0.974543 
-0.506496 0.605550 2.511342 -0.156458 0.149520 0.976302 
-0.571709 0.247845 2.555674 -0.156458 0.149520 0.976302 
-0.483041 0.185392 2.579448 -0.156458 0.149520 0.976302 
-0.373106 0.581826 2.527951 -0.077451 0.154513 0.984950 
-0.459476 0.644406 2.511342 -0.077451 0.154513 0.984950 
-0.435510 0.222275 2.579448 -0.077451 0.154513 0.984950 
-0.373106 0.581826 2.527951 -0.072385 0.153707 0.985462 
-0.435510 0.222275 2.579448 -0.072385 0.153707 0.985462 
-0.344846 0.155837 2.596470 -0.072385 0.153707 0.985462 
-0.238466 0.566723 2.537932 0.008249 0.158845 0.987269 
-0.326735 0.633343 2.527951 0.008249 0.158845 0.987269 
-0.298146 0.205991 2.596470 0.008249 0.158845 0.987269 
-0.238466 0.566723 2.537932 0.009166 0.158695 0.987285 
-0.298146 0.205991 2.596470 0.009166 0.158695 0.987285 
-0.205885 0.137019 2.606700 0.009166 0.158695 0.987285 
-0.090812 0.554137 2.541262 0.092409 0.163963 0.982129 
-0.192721 0.631518 2.537932 0.092409 0.163963 0.982129 
-0.160023 0.201175 2.606700 0.092409 0.163963 0.982129 
-0.090812 0.554137 2.541262 0.089825 0.164498 0.982279 
-0.160023 0.201175 2.606700 0.089825 0.164498 0.982279 
-0.054484 0.123165 2.610112 0.089825 0.164498 0.982279 
3 0 1 2 
3 3 4 5 
3 6 7 8 
3 9 10 11 
3 12 13 14 
3 15 16 17 
3 18 19 20 
3 21 22 23 
3 24 25 26 
3 27 28 29 
3 30 31 32 
3 33 34 35 
3 36 37 38 
3 39 40 41 
3 42 43 44 
3 45 46 47 
3 48 49 50 
3 51 52 53 
3 54 55 56 
3 57 58 59 
3 60 61 62 
3 63 64 65 
3 66 67 68 
3 69 70 71 
3 72 73 74 
3 75 76 77 
3 78 79 80 
3 81 82 83 
3 84 85 86 
3 87 88 89 
3 90 91 92 
3 93 94 95 
3 96 97 98 
3 99 100 101 
3 102 103 104 
3 105 106 107 
3 108 109 110 
3 111 112 113 
3 114 115 116 
3 117 118 119 
3 120 121 122 
3 123 124 125 
3 126 127 128 
3 129 130 131 
3 132 133 134 
3 135 136 137 
3 138 139 140 
3 141 142 143 
3 144 145 146 
3 147 148 149 
3 150 151 152 
3 153 154 155 
3 156 157 158 
3 159 160 161 
3 162 163 164 
3 165 166 167 
3 168 169 170 
3 171 172 173 
3 174 175 176 
3 177 178 179 
3 180 181 182 
3 183 184 185 
3 186 187 188 
3 189 190 191 
3 192 193 194 
3 195 196 197 
3 198 199 200 
3 201 202 203 
3 204 205 206 
3 207 208 209 
3 210 211 212 
3 213 214 215 
3 216 217 218 
3 219 220 221 
3 222 223 224 
3 225 226 227 
3 228 229 230 
3 231 232 233 
3 234 235 236 
3 237 238 239 
3 240 241 242 
3 243 244 245 
3 246 247 248 
3 249 250 251 
3 252 253 254 
3 255 256 257 
3 258 259 260 
3 261 262 263 
3 264 265 266 
3 267 268 269 
3 270 271 272 
3 273 274 275 
3 276 277 278 
3 279 280 281 
3 282 283 284 
3 285 286 287 
3 288 289 290 
3 291 292 293 
3 294 295 296 
3 297 298 299 
3 300 301 302 
3 303 304 305 
3 306 307 308 
3 309 310 311 
