ply
format ascii 1.0
Created by Blender3D 246 - www.blender.org, source file: mega-normal.blend
element vertex 371
property float x
property float y
property float z
property float nx
property float ny
property float nz
element face 125
property list uchar uint vertex_indices
end_header
0.087667 0.541451 2.511209 -0.047316 0.162039 0.985649 
0.121027 0.201774 2.568653 -0.047316 0.162039 0.985649 
0.152382 0.612134 2.502696 -0.047316 0.162039 0.985649 
0.087667 0.541451 2.511209 -0.189007 0.145665 0.971112 
0.053219 0.127539 2.566591 -0.189007 0.145665 0.971112 
0.121027 0.201774 2.568653 -0.189007 0.145665 0.971112 
0.229599 0.552310 2.500547 -0.018389 0.163923 0.986302 
0.253536 0.206336 2.558494 -0.018389 0.163923 0.986302 
0.280761 0.613430 2.491343 -0.018389 0.163923 0.986302 
0.229599 0.552310 2.500547 -0.171900 0.151150 0.973450 
0.198468 0.140644 2.558969 -0.171900 0.151150 0.973450 
0.253536 0.206336 2.558494 -0.171900 0.151150 0.973450 
0.358245 0.565420 2.483274 0.033011 0.167555 0.985310 
0.385116 0.221744 2.540817 0.033011 0.167555 0.985310 
0.407420 0.623057 2.471825 0.033011 0.167555 0.985310 
0.358245 0.565420 2.483274 -0.115820 0.155209 0.981069 
0.331352 0.158425 2.544487 -0.115820 0.155209 0.981069 
0.385116 0.221744 2.540817 -0.115820 0.155209 0.981069 
0.484650 0.586274 2.458050 0.084113 0.173786 0.981185 
0.515223 0.245885 2.515718 0.084113 0.173786 0.981185 
0.531868 0.639337 2.444604 0.084113 0.173786 0.981185 
0.484650 0.586274 2.458050 -0.055600 0.161924 0.985236 
0.462921 0.186315 2.522557 -0.055600 0.161924 0.985236 
0.515223 0.245885 2.515718 -0.055600 0.161924 0.985236 
0.613155 0.605733 2.425809 0.133720 0.182458 0.974078 
0.643314 0.276560 2.483327 0.133720 0.182458 0.974078 
0.653748 0.661475 2.409795 0.133720 0.182458 0.974078 
0.613155 0.605733 2.425809 -0.025988 0.169759 0.985143 
0.597263 0.214850 2.492746 -0.025988 0.169759 0.985143 
0.643314 0.276560 2.483327 -0.025988 0.169759 0.985143 
0.729052 0.638109 2.386421 0.220304 0.194504 0.955842 
0.768869 0.312335 2.443536 0.220304 0.194504 0.955842 
0.774019 0.693880 2.364708 0.220304 0.194504 0.955842 
0.729052 0.638109 2.386421 0.065484 0.180075 0.981471 
0.719375 0.254971 2.457363 0.065484 0.180075 0.981471 
0.768869 0.312335 2.443536 0.065484 0.180075 0.981471 
0.852313 0.682335 2.333509 0.293036 0.209960 0.932763 
0.892527 0.357363 2.394025 0.293036 0.209960 0.932763 
0.889622 0.736009 2.309706 0.293036 0.209960 0.932763 
0.852313 0.682335 2.333509 0.137687 0.197769 0.970531 
0.848526 0.303237 2.411296 0.137687 0.197769 0.970531 
0.892527 0.357363 2.394025 0.137687 0.197769 0.970531 
0.960834 0.730652 2.275288 0.366803 0.227478 0.902058 
1.011279 0.412487 2.335009 0.366803 0.227478 0.902058 
1.000559 0.784412 2.245578 0.366803 0.227478 0.902058 
0.960834 0.730652 2.275288 0.225568 0.214158 0.950397 
0.965724 0.354972 2.358781 0.225568 0.214158 0.950397 
1.011279 0.412487 2.335009 0.225568 0.214158 0.950397 
1.072973 0.780075 2.206218 0.436939 0.245811 0.865252 
1.125673 0.474090 2.266534 0.436939 0.245811 0.865252 
1.109068 0.834681 2.172477 0.436939 0.245811 0.865252 
1.072973 0.780075 2.206218 0.292217 0.233155 0.927495 
1.085113 0.412941 2.294684 0.292217 0.233155 0.927495 
1.125673 0.474090 2.266534 0.292217 0.233155 0.927495 
1.176666 0.828170 2.131851 0.494022 0.264058 0.828382 
1.238161 0.536729 2.188078 0.494022 0.264058 0.828382 
1.217021 0.882977 2.090313 0.494022 0.264058 0.828382 
1.176666 0.828170 2.131851 0.374560 0.251225 0.892519 
1.194124 0.472675 2.224589 0.374560 0.251225 0.892519 
1.238161 0.536729 2.188078 0.374560 0.251225 0.892519 
1.278746 0.875116 2.049123 0.542050 0.281068 0.791949 
1.350628 0.595668 2.099101 0.542050 0.281068 0.791949 
1.325904 0.926085 1.998756 0.542050 0.281068 0.791949 
1.278746 0.875116 2.049123 0.452653 0.268508 0.850299 
1.300436 0.533630 2.145411 0.452653 0.268508 0.850299 
1.350628 0.595668 2.099101 0.452653 0.268508 0.850299 
1.386560 0.915230 1.954978 0.591752 0.294899 0.750242 
1.464364 0.646982 1.999051 0.591752 0.294899 0.750242 
1.436754 0.961382 1.897247 0.591752 0.294899 0.750242 
1.386560 0.915230 1.954978 0.521863 0.283547 0.804525 
1.411513 0.589503 2.053591 0.521863 0.283547 0.804525 
1.464364 0.646982 1.999051 0.521863 0.283547 0.804525 
1.491523 0.952813 1.851949 0.633674 0.307391 0.709907 
1.579365 0.692159 1.886403 0.633674 0.307391 0.709907 
1.549751 0.988144 1.784675 0.633674 0.307391 0.709907 
1.491523 0.952813 1.851949 0.584889 0.296888 0.754826 
1.519437 0.642922 1.952206 0.584889 0.296888 0.754826 
1.579365 0.692159 1.886403 0.584889 0.296888 0.754826 
1.607581 0.971718 1.735233 0.682988 0.317364 0.657881 
1.694314 0.736056 1.758873 0.682988 0.317364 0.657881 
1.662957 1.011837 1.658389 0.682988 0.317364 0.657881 
1.607581 0.971718 1.735233 0.638961 0.305964 0.705773 
1.636718 0.681099 1.834842 0.638961 0.305964 0.705773 
1.694314 0.736056 1.758873 0.638961 0.305964 0.705773 
1.716946 0.999546 1.604525 0.725118 0.327004 0.606031 
1.807950 0.776770 1.615845 0.725118 0.327004 0.606031 
1.774907 1.031711 1.517819 0.725118 0.327004 0.606031 
1.716946 0.999546 1.604525 0.693389 0.316150 0.647504 
1.748038 0.729668 1.703000 0.693389 0.316150 0.647504 
1.807950 0.776770 1.615845 0.693389 0.316150 0.647504 
1.826619 1.016791 1.460927 0.766115 0.334420 0.548846 
1.918267 0.812422 1.457524 0.766115 0.334420 0.548846 
1.883539 1.046516 1.363362 0.766115 0.334420 0.548846 
1.826619 1.016791 1.460927 0.742069 0.322995 0.587374 
1.859208 0.767409 1.556890 0.742069 0.322995 0.587374 
1.918267 0.812422 1.457524 0.742069 0.322995 0.587374 
1.931537 1.029590 1.304453 0.803980 0.339411 0.488279 
2.022651 0.841358 1.285271 0.803980 0.339411 0.488279 
1.986280 1.055122 1.196567 0.803980 0.339411 0.488279 
1.931537 1.029590 1.304453 0.786931 0.327633 0.522873 
1.965685 0.800589 1.396551 0.786931 0.327633 0.522873 
2.022651 0.841358 1.285271 0.786931 0.327633 0.522873 
2.026523 1.038165 1.139858 0.835492 0.342740 0.429514 
2.118200 0.862304 1.101859 0.835492 0.342740 0.429514 
2.080339 1.056792 1.020310 0.835492 0.342740 0.429514 
2.026523 1.038165 1.139858 0.824762 0.330866 0.458579 
2.062402 0.828290 1.226754 0.824762 0.330866 0.458579 
2.118200 0.862304 1.101859 0.824762 0.330866 0.458579 
2.116632 1.035316 0.964429 0.866435 0.341237 0.364483 
2.202223 0.874534 0.911494 0.866435 0.341237 0.364483 
2.163172 1.051365 0.838771 0.866435 0.341237 0.364483 
2.116632 1.035316 0.964429 0.859931 0.329414 0.389878 
2.153779 0.843521 1.044548 0.859931 0.329414 0.389878 
2.202223 0.874534 0.911494 0.859931 0.329414 0.389878 
2.194706 1.028933 0.783642 0.893645 0.335643 0.297898 
2.272775 0.877977 0.719530 0.893645 0.335643 0.297898 
2.232981 1.039345 0.657093 0.893645 0.335643 0.297898 
2.194706 1.028933 0.783642 0.890424 0.325311 0.318304 
2.232986 0.854245 0.855091 0.890424 0.325311 0.318304 
2.272775 0.877977 0.719530 0.890424 0.325311 0.318304 
2.257374 1.018887 0.606101 0.913973 0.328647 0.238001 
2.329089 0.873197 0.531876 0.913973 0.328647 0.238001 
2.289344 1.021956 0.479090 0.913973 0.328647 0.238001 
2.257374 1.018887 0.606101 0.912865 0.320531 0.252861 
2.296566 0.858719 0.667640 0.912865 0.320531 0.252861 
2.329089 0.873197 0.531876 0.912865 0.320531 0.252861 
2.306917 1.006140 0.432105 0.930363 0.319051 0.180642 
2.371726 0.861215 0.354288 0.930363 0.319051 0.180642 
2.332458 1.000562 0.310412 0.930363 0.319051 0.180642 
2.306917 1.006140 0.432105 0.930232 0.314073 0.189805 
2.346315 0.858353 0.483563 0.930232 0.314073 0.189805 
2.371726 0.861215 0.354288 0.930232 0.314073 0.189805 
2.346298 0.986692 0.265306 0.943927 0.306604 0.122459 
2.402390 0.843383 0.191754 0.943927 0.306604 0.122459 
2.363664 0.976714 0.156434 0.943927 0.306604 0.122459 
2.346298 0.986692 0.265306 0.944074 0.304135 0.127383 
2.385108 0.848335 0.308011 0.944074 0.304135 0.127383 
2.402390 0.843383 0.191754 0.944074 0.304135 0.127383 
2.375112 0.961019 0.114383 0.952559 0.295326 0.073584 
2.423429 0.821657 0.048227 0.952559 0.295326 0.073584 
2.385087 0.952236 0.020499 0.952559 0.295326 0.073584 
2.375112 0.961019 0.114383 0.952752 0.293898 0.076732 
2.413406 0.827913 0.148721 0.952752 0.293898 0.076732 
2.423429 0.821657 0.048227 0.952752 0.293898 0.076732 
-2.388952 0.949548 0.129061 -0.955525 0.287192 0.067028 
-2.399571 0.939574 0.020419 -0.955525 0.287192 0.067028 
-2.436692 0.809608 0.048100 -0.955525 0.287192 0.067028 
-2.388952 0.949548 0.129061 -0.955718 0.286057 0.069104 
-2.436692 0.809608 0.048100 -0.955718 0.286057 0.069104 
-2.426161 0.816929 0.163450 -0.955718 0.286057 0.069104 
-2.358217 0.977786 0.281738 -0.948099 0.298196 0.110394 
-2.376322 0.966430 0.156920 -0.948099 0.298196 0.110394 
-2.414011 0.833466 0.192397 -0.948099 0.298196 0.110394 
-2.358217 0.977786 0.281738 -0.948359 0.295914 0.114241 
-2.414011 0.833466 0.192397 -0.948359 0.295914 0.114241 
-2.396167 0.839571 0.324709 -0.948359 0.295914 0.114241 
-2.316067 1.000013 0.452415 -0.936362 0.310454 0.163844 
-2.342732 0.992973 0.313368 -0.936362 0.310454 0.163844 
-2.381192 0.853613 0.357630 -0.936362 0.310454 0.163844 
-2.316067 1.000013 0.452415 -0.936591 0.305535 0.171599 
-2.381192 0.853613 0.357630 -0.936591 0.305535 0.171599 
-2.354901 0.851856 0.504257 -0.936591 0.305535 0.171599 
-2.263376 1.015086 0.630452 -0.922652 0.319432 0.216047 
-2.296430 1.017058 0.486375 -0.922652 0.319432 0.216047 
-2.335629 0.867783 0.539679 -0.922652 0.319432 0.216047 
-2.263376 1.015086 0.630452 -0.922301 0.311064 0.229347 
-2.335629 0.867783 0.539679 -0.922301 0.311064 0.229347 
-2.302128 0.853889 0.693243 -0.922301 0.311064 0.229347 
-2.196779 1.026794 0.813352 -0.906269 0.325313 0.269902 
-2.236172 1.036867 0.668939 -0.906269 0.325313 0.269902 
-2.275474 0.874294 0.732922 -0.906269 0.325313 0.269902 
-2.196779 1.026794 0.813352 -0.904299 0.314254 0.288943 
-2.275474 0.874294 0.732922 -0.904299 0.314254 0.288943 
-2.234889 0.850474 0.885847 -0.904299 0.314254 0.288943 
-2.113890 1.034236 0.999778 -0.884145 0.329383 0.331353 
-2.161484 1.050539 0.856577 -0.884145 0.329383 0.331353 
-2.200305 0.871860 0.930608 -0.884145 0.329383 0.331353 
-2.113890 1.034236 0.999778 -0.879563 0.316934 0.354854 
-2.200305 0.871860 0.930608 -0.879563 0.316934 0.354854 
-2.151273 0.840232 1.080391 -0.879563 0.316934 0.354854 
-2.019091 1.037251 1.179499 -0.859973 0.329059 0.390085 
-2.073338 1.056703 1.043498 -0.859973 0.329059 0.390085 
-2.111375 0.859814 1.125729 -0.859973 0.329059 0.390085 
-2.019091 1.037251 1.179499 -0.852012 0.316834 0.416763 
-2.111375 0.859814 1.125729 -0.852012 0.316834 0.416763 
-2.055744 0.824777 1.266094 -0.852012 0.316834 0.416763 
-1.920465 1.028020 1.346287 -0.838861 0.322918 0.438219 
-1.974231 1.054852 1.223593 -0.838861 0.322918 0.438219 
-2.011377 0.838311 1.312052 -0.838861 0.322918 0.438219 
-1.920465 1.028020 1.346287 -0.826127 0.311114 0.469811 
-2.011377 0.838311 1.312052 -0.826127 0.311114 0.469811 
-1.956127 0.796236 1.437068 -0.826127 0.311114 0.469811 
-1.812968 1.014114 1.503244 -0.813714 0.315773 0.488013 
-1.867516 1.045322 1.392097 -0.813714 0.315773 0.488013 
-1.903825 0.808302 1.484923 -0.813714 0.315773 0.488013 
-1.812968 1.014114 1.503244 -0.795823 0.304738 0.523260 
-1.903825 0.808302 1.484923 -0.795823 0.304738 0.523260 
-1.847995 0.761958 1.596823 -0.795823 0.304738 0.523260 
-1.702664 0.995496 1.645303 -0.788702 0.306511 0.532916 
-1.756683 1.029130 1.546010 -0.788702 0.306511 0.532916 
-1.792273 0.771338 1.641610 -0.788702 0.306511 0.532916 
-1.702664 0.995496 1.645303 -0.765285 0.296517 0.571329 
-1.792273 0.771338 1.641610 -0.765285 0.296517 0.571329 
-1.737202 0.723042 1.740441 -0.765285 0.296517 0.571329 
-1.594876 0.966224 1.772859 -0.767792 0.294809 0.568844 
-1.644741 1.007698 1.684059 -0.767792 0.294809 0.568844 
-1.679682 0.729322 1.781168 -0.767792 0.294809 0.568844 
-1.594876 0.966224 1.772859 -0.735550 0.284874 0.614665 
-1.679682 0.729322 1.781168 -0.735550 0.284874 0.614665 
-1.628567 0.673357 1.868273 -0.735550 0.284874 0.614665 
-1.482568 0.946062 1.885274 -0.738248 0.284860 0.611429 
-1.533860 0.982506 1.806365 -0.738248 0.284860 0.611429 
-1.568054 0.684300 1.904011 -0.738248 0.284860 0.611429 
-1.482568 0.946062 1.885274 -0.702232 0.276299 0.656147 
-1.568054 0.684300 1.904011 -0.702232 0.276299 0.656147 
-1.515822 0.634332 1.980952 -0.702232 0.276299 0.656147 
-1.383113 0.907415 1.983608 -0.731535 0.269175 0.626420 
-1.425319 0.954446 1.914110 -0.731535 0.269175 0.626420 
-1.458337 0.638253 2.011421 -0.731535 0.269175 0.626420 
-1.383113 0.907415 1.983608 -0.680143 0.260874 0.685092 
-1.458337 0.638253 2.011421 -0.680143 0.260874 0.685092 
-1.414136 0.580272 2.077381 -0.680143 0.260874 0.685092 
-1.282133 0.866471 2.073047 -0.715727 0.254005 0.650551 
-1.320631 0.918089 2.010537 -0.715727 0.254005 0.650551 
-1.351403 0.586310 2.106224 -0.715727 0.254005 0.650551 
-1.282133 0.866471 2.073047 -0.648890 0.245717 0.720114 
-1.351403 0.586310 2.106224 -0.648890 0.245717 0.720114 
-1.310267 0.523973 2.164563 -0.648890 0.245717 0.720114 
-1.187372 0.818943 2.151630 -0.718633 0.232823 0.655255 
-1.219079 0.874176 2.097231 -0.718633 0.232823 0.655255 
-1.246573 0.526967 2.190446 -0.718633 0.232823 0.655255 
-1.187372 0.818943 2.151630 -0.629151 0.226421 0.743574 
-1.246573 0.526967 2.190446 -0.629151 0.226421 0.743574 
-1.211123 0.462794 2.239982 -0.629151 0.226421 0.743574 
-1.090946 0.770460 2.222662 -0.716085 0.210656 0.665467 
-1.118944 0.825317 2.175169 -0.716085 0.210656 0.665467 
-1.141589 0.464121 2.265140 -0.716085 0.210656 0.665467 
-1.090946 0.770460 2.222662 -0.603187 0.206542 0.770393 
-1.141589 0.464121 2.265140 -0.603187 0.206542 0.770393 
-1.108396 0.402982 2.307520 -0.603187 0.206542 0.770393 
-0.985415 0.720790 2.289451 -0.663810 0.194848 0.722074 
-1.017897 0.774689 2.245045 -0.663810 0.194848 0.722074 
-1.033384 0.402463 2.331251 -0.663810 0.194848 0.722074 
-0.985415 0.720790 2.289451 -0.536658 0.188860 0.822393 
-1.033384 0.402463 2.331251 -0.536658 0.188860 0.822393 
-0.993383 0.345034 2.370543 -0.536658 0.188860 0.822393 
-0.881117 0.672370 2.346845 -0.640400 0.171355 0.748682 
-0.913041 0.726088 2.307244 -0.640400 0.171355 0.748682 
-0.918143 0.347388 2.389554 -0.640400 0.171355 0.748682 
-0.881117 0.672370 2.346845 -0.489535 0.168218 0.855604 
-0.918143 0.347388 2.389554 -0.489535 0.168218 0.855604 
-0.877463 0.293388 2.423446 -0.489535 0.168218 0.855604 
-0.759344 0.628143 2.400257 -0.546707 0.159687 0.821956 
-0.800912 0.683894 2.361778 -0.546707 0.159687 0.821956 
-0.795429 0.302441 2.439533 -0.546707 0.159687 0.821956 
-0.759344 0.628143 2.400257 -0.407597 0.153703 0.900134 
-0.795429 0.302441 2.439533 -0.407597 0.153703 0.900134 
-0.749411 0.245174 2.470149 -0.407597 0.153703 0.900134 
-0.644400 0.595782 2.440342 -0.527094 0.143027 0.837685 
-0.681555 0.651507 2.407449 -0.527094 0.143027 0.837685 
-0.670903 0.266727 2.479849 -0.527094 0.143027 0.837685 
-0.644400 0.595782 2.440342 -0.366220 0.139946 0.919945 
-0.670903 0.266727 2.479849 -0.366220 0.139946 0.919945 
-0.628448 0.205135 2.506119 -0.366220 0.139946 0.919945 
-0.517050 0.576457 2.473351 -0.449476 0.137812 0.882598 
-0.560646 0.629440 2.442876 -0.449476 0.137812 0.882598 
-0.543936 0.236136 2.512798 -0.449476 0.137812 0.882598 
-0.517050 0.576457 2.473351 -0.301651 0.133258 0.944060 
-0.543936 0.236136 2.512798 -0.301651 0.133258 0.944060 
-0.495325 0.176662 2.536726 -0.301651 0.133258 0.944060 
-0.391712 0.555745 2.499415 -0.404988 0.130477 0.904964 
-0.437215 0.613317 2.470751 -0.404988 0.130477 0.904964 
-0.414914 0.212072 2.538582 -0.404988 0.130477 0.904964 
-0.391712 0.555745 2.499415 -0.243371 0.126033 0.961710 
-0.414914 0.212072 2.538582 -0.243371 0.126033 0.961710 
-0.364868 0.148829 2.559535 -0.243371 0.126033 0.961710 
-0.264058 0.542794 2.517660 -0.356588 0.126350 0.925679 
-0.311518 0.603865 2.491042 -0.356588 0.126350 0.925679 
-0.284359 0.196732 2.557075 -0.356588 0.126350 0.925679 
-0.264058 0.542794 2.517660 -0.185200 0.121926 0.975108 
-0.284359 0.196732 2.557075 -0.185200 0.121926 0.975108 
-0.233020 0.131091 2.575034 -0.185200 0.121926 0.975108 
-0.123107 0.532126 2.529502 -0.259224 0.131522 0.956820 
-0.184023 0.602774 2.503287 -0.259224 0.131522 0.956820 
-0.152794 0.192239 2.568179 -0.259224 0.131522 0.956820 
-0.152794 0.192239 2.568179 -0.101705 0.121244 0.987399 
-0.088785 0.118027 2.583885 -0.101705 0.121244 0.987399 
-0.123107 0.532126 2.529502 -0.101705 0.121244 0.987399 
-0.820126 -0.131454 2.470785 -0.351279 -0.000002 0.936271 
-0.692547 -0.146807 2.518651 -0.351279 -0.000002 0.936271 
-0.729343 -0.034492 2.504846 -0.351279 -0.000002 0.936271 
-0.820126 -0.131454 2.470785 -0.351279 0.000000 0.936271 
-0.751820 -0.247561 2.496412 -0.351279 0.000000 0.936271 
-0.692547 -0.146807 2.518651 -0.351279 0.000000 0.936271 
-0.862529 -0.260884 2.454875 -0.351279 0.000000 0.936271 
-0.820126 -0.131454 2.470785 -0.353371 0.000783 0.935483 
-0.941308 -0.176744 2.425047 -0.353371 0.000783 0.935483 
-0.862529 -0.260884 2.454875 -0.353371 0.000783 0.935483 
-0.820126 -0.131454 2.470785 -0.356930 0.011744 0.934058 
-0.928834 -0.058499 2.428327 -0.356930 0.011744 0.934058 
-0.941308 -0.176744 2.425047 -0.356930 0.011744 0.934058 
-0.820126 -0.131454 2.470785 -0.364749 -0.001625 0.931105 
-0.834501 0.004809 2.465391 -0.364749 -0.001625 0.931105 
-0.928834 -0.058499 2.428327 -0.364749 -0.001625 0.931105 
-0.820126 -0.131454 2.470785 -0.351280 -0.000000 0.936270 
-0.729343 -0.034492 2.504846 -0.351280 -0.000000 0.936270 
-0.834501 0.004809 2.465391 -0.351280 -0.000000 0.936270 
-0.013026 0.273731 2.566108 -0.044191 0.989166 -0.139775 
0.001519 0.557870 2.526608 -0.044191 0.989166 -0.139775 
-0.041616 0.590006 2.520139 -0.044191 0.989166 -0.139775 
0.780550 -0.040063 2.450547 0.289397 0.021501 0.956968 
0.715784 -0.069082 2.470785 0.289397 0.021501 0.956968 
0.777972 -0.103670 2.452755 0.289397 0.021501 0.956968 
0.777972 -0.103670 2.452755 0.277756 -0.001349 0.960651 
0.715784 -0.069082 2.470785 0.277756 -0.001349 0.960651 
0.728566 -0.141232 2.466988 0.277756 -0.001349 0.960651 
0.728566 -0.141232 2.466988 0.275450 -0.001793 0.961314 
0.715784 -0.069082 2.470785 0.275450 -0.001793 0.961314 
0.669534 -0.124463 2.483934 0.275450 -0.001793 0.961314 
0.669534 -0.124463 2.483934 0.274281 -0.000736 0.961649 
0.715784 -0.069082 2.470785 0.274281 -0.000736 0.961649 
0.645330 -0.065991 2.490882 0.274281 -0.000736 0.961649 
0.645330 -0.065991 2.490882 0.274346 0.000877 0.961631 
0.715784 -0.069082 2.470785 0.274346 0.000877 0.961631 
0.674179 -0.009847 2.482600 0.274346 0.000877 0.961631 
0.674179 -0.009847 2.482600 0.276215 0.002297 0.961093 
0.715784 -0.069082 2.470785 0.276215 0.002297 0.961093 
0.734358 0.001692 2.465277 0.276215 0.002297 0.961093 
0.734358 0.001692 2.465277 0.300101 -0.004532 0.953897 
0.715784 -0.069082 2.470785 0.300101 -0.004532 0.953897 
0.780550 -0.040063 2.450547 0.300101 -0.004532 0.953897 
0.773504 0.150855 2.454067 0.300279 -0.004318 0.953842 
0.755889 0.083734 2.459309 0.300279 -0.004318 0.953842 
0.855627 -0.006425 2.427502 0.300279 -0.004318 0.953842 
0.773504 0.150855 2.454067 0.300277 -0.004319 0.953842 
0.855627 -0.006425 2.427502 0.300277 -0.004319 0.953842 
0.917051 0.021097 2.408290 0.300277 -0.004319 0.953842 
0.586493 0.114996 2.507900 0.276165 0.002579 0.961107 
0.625951 0.058818 2.496712 0.276165 0.002579 0.961107 
0.755889 0.083734 2.459309 0.276165 0.002579 0.961107 
0.586493 0.114996 2.507900 0.276165 0.002578 0.961107 
0.755889 0.083734 2.459309 0.276165 0.002578 0.961107 
0.773504 0.150855 2.454067 0.276165 0.002578 0.961107 
0.496841 -0.059477 2.533635 0.274102 0.001011 0.961700 
0.563659 -0.062408 2.514594 0.274102 0.001011 0.961700 
0.625951 0.058818 2.496712 0.274102 0.001011 0.961700 
0.496841 -0.059477 2.533635 0.274101 0.001011 0.961700 
0.625951 0.058818 2.496712 0.274101 0.001011 0.961700 
0.586493 0.114996 2.507900 0.274101 0.001011 0.961700 
0.572057 -0.241184 2.512043 0.274028 -0.000848 0.961721 
0.615921 -0.188661 2.499592 0.274028 -0.000848 0.961721 
0.496841 -0.059477 2.533635 0.274028 -0.000848 0.961721 
0.615921 -0.188661 2.499592 0.274026 -0.000849 0.961722 
0.563659 -0.062408 2.514594 0.274026 -0.000849 0.961722 
0.496841 -0.059477 2.533635 0.274026 -0.000849 0.961722 
0.755503 -0.293294 2.459383 0.275378 -0.002064 0.961334 
0.743382 -0.224868 2.463002 0.275378 -0.002064 0.961334 
0.572057 -0.241184 2.512043 0.275378 -0.002064 0.961334 
0.743382 -0.224868 2.463002 0.275379 -0.002068 0.961334 
0.615921 -0.188661 2.499592 0.275379 -0.002068 0.961334 
0.572057 -0.241184 2.512043 0.275379 -0.002068 0.961334 
0.909040 -0.176568 2.415154 0.277914 -0.001576 0.960605 
0.850061 -0.143765 2.432271 0.277914 -0.001576 0.960605 
0.755503 -0.293294 2.459383 0.277914 -0.001576 0.960605 
0.743382 -0.224868 2.463002 0.277914 -0.001576 0.960605 
0.917051 0.021097 2.408290 0.289666 0.021489 0.956887 
0.855627 -0.006425 2.427502 0.289666 0.021489 0.956887 
0.909040 -0.176568 2.415154 0.289666 0.021489 0.956887 
0.855627 -0.006425 2.427502 0.289663 0.021488 0.956887 
0.850061 -0.143765 2.432271 0.289663 0.021488 0.956887 
0.909040 -0.176568 2.415154 0.289663 0.021488 0.956887 
3 0 1 2 
3 3 4 5 
3 6 7 8 
3 9 10 11 
3 12 13 14 
3 15 16 17 
3 18 19 20 
3 21 22 23 
3 24 25 26 
3 27 28 29 
3 30 31 32 
3 33 34 35 
3 36 37 38 
3 39 40 41 
3 42 43 44 
3 45 46 47 
3 48 49 50 
3 51 52 53 
3 54 55 56 
3 57 58 59 
3 60 61 62 
3 63 64 65 
3 66 67 68 
3 69 70 71 
3 72 73 74 
3 75 76 77 
3 78 79 80 
3 81 82 83 
3 84 85 86 
3 87 88 89 
3 90 91 92 
3 93 94 95 
3 96 97 98 
3 99 100 101 
3 102 103 104 
3 105 106 107 
3 108 109 110 
3 111 112 113 
3 114 115 116 
3 117 118 119 
3 120 121 122 
3 123 124 125 
3 126 127 128 
3 129 130 131 
3 132 133 134 
3 135 136 137 
3 138 139 140 
3 141 142 143 
3 144 145 146 
3 147 148 149 
3 150 151 152 
3 153 154 155 
3 156 157 158 
3 159 160 161 
3 162 163 164 
3 165 166 167 
3 168 169 170 
3 171 172 173 
3 174 175 176 
3 177 178 179 
3 180 181 182 
3 183 184 185 
3 186 187 188 
3 189 190 191 
3 192 193 194 
3 195 196 197 
3 198 199 200 
3 201 202 203 
3 204 205 206 
3 207 208 209 
3 210 211 212 
3 213 214 215 
3 216 217 218 
3 219 220 221 
3 222 223 224 
3 225 226 227 
3 228 229 230 
3 231 232 233 
3 234 235 236 
3 237 238 239 
3 240 241 242 
3 243 244 245 
3 246 247 248 
3 249 250 251 
3 252 253 254 
3 255 256 257 
3 258 259 260 
3 261 262 263 
3 264 265 266 
3 267 268 269 
3 270 271 272 
3 273 274 275 
3 276 277 278 
3 279 280 281 
3 282 283 284 
3 285 286 287 
3 288 289 290 
3 291 292 293 
3 291 294 292 
3 295 296 297 
3 298 299 300 
3 301 302 303 
3 304 305 306 
3 307 308 309 
3 310 311 312 
3 313 314 315 
3 316 317 318 
3 319 320 321 
3 322 323 324 
3 325 326 327 
3 328 329 330 
3 331 332 333 
3 334 335 336 
3 337 338 339 
3 340 341 342 
3 343 344 345 
3 346 347 348 
3 349 350 351 
3 352 353 354 
3 355 356 357 
3 358 359 360 
3 361 362 363 
3 362 364 363 
3 365 366 367 
3 368 369 370 
