ply
format ascii 1.0
Created by Blender3D 246 - www.blender.org, source file: mini-normal.blend
element vertex 16
property float x
property float y
property float z
property float nx
property float ny
property float nz
element face 8
property list uchar uint vertex_indices
end_header
-0.100111 -0.100320 0.343040 -0.243129 0.000000 0.969994 
-0.100111 0.103484 0.343040 -0.243129 0.000000 0.969994 
-0.165799 -0.100320 0.326576 -0.243129 0.000000 0.969994 
0.165799 -0.100320 0.326576 0.243129 -0.000000 0.969994 
0.100111 0.103484 0.343040 0.243129 -0.000000 0.969994 
0.100111 -0.100320 0.343040 0.243129 -0.000000 0.969994 
-0.165799 0.103484 0.326576 -0.243129 0.000000 0.969994 
0.165799 0.103484 0.326576 0.243129 0.000000 0.969994 
-0.100111 0.103484 0.343040 -0.243129 0.000001 0.969994 
-0.131415 0.116777 0.335194 -0.243129 0.000001 0.969994 
-0.165799 0.103484 0.326576 -0.243129 0.000001 0.969994 
0.165799 0.103484 0.326576 0.243129 0.000001 0.969994 
0.131415 0.116777 0.335194 0.243129 0.000001 0.969994 
0.100111 0.103484 0.343040 0.243129 0.000001 0.969994 
-0.132490 -0.116935 0.334925 -0.243129 0.000000 0.969994 
0.132490 -0.116935 0.334925 0.243129 0.000000 0.969994 
3 0 1 2 
3 3 4 5 
3 2 1 6 
3 7 4 3 
3 8 9 10 
3 11 12 13 
3 0 2 14 
3 15 3 5 
