ply
format ascii 1.0
Created by Blender3D 246 - www.blender.org, source file: mini-strained.blend
element vertex 24
property float x
property float y
property float z
property float nx
property float ny
property float nz
element face 8
property list uchar uint vertex_indices
end_header
-0.020211 0.000497 0.349703 -0.217563 0.337786 0.915733 
-0.180460 0.130825 0.263557 -0.217563 0.337786 0.915733 
-0.107065 -0.000000 0.329252 -0.217563 0.337786 0.915733 
0.106663 -0.000000 0.329252 0.217563 0.337786 0.915733 
0.180058 0.130825 0.263557 0.217563 0.337786 0.915733 
0.019809 0.000497 0.349703 0.217563 0.337786 0.915733 
-0.180460 0.130825 0.263557 -0.334563 0.266245 0.903981 
-0.212236 0.105614 0.259222 -0.334563 0.266245 0.903981 
-0.107065 -0.000000 0.329252 -0.334563 0.266245 0.903981 
0.106663 -0.000000 0.329252 0.334563 0.266245 0.903981 
0.211834 0.105614 0.259222 0.334563 0.266245 0.903981 
0.180058 0.130825 0.263557 0.334563 0.266245 0.903981 
-0.020211 0.000497 0.349703 -0.213705 -0.339988 0.915827 
-0.107065 -0.000000 0.329252 -0.213705 -0.339988 0.915827 
-0.180465 -0.130825 0.263557 -0.213705 -0.339988 0.915827 
0.180063 -0.130825 0.263557 0.213705 -0.339988 0.915827 
0.106663 -0.000000 0.329252 0.213705 -0.339988 0.915827 
0.019809 0.000497 0.349703 0.213705 -0.339988 0.915827 
-0.107065 -0.000000 0.329252 -0.334565 -0.266232 0.903984 
-0.212239 -0.105614 0.259222 -0.334565 -0.266232 0.903984 
-0.180465 -0.130825 0.263557 -0.334565 -0.266232 0.903984 
0.180063 -0.130825 0.263557 0.334565 -0.266232 0.903984 
0.211838 -0.105614 0.259222 0.334565 -0.266232 0.903984 
0.106663 -0.000000 0.329252 0.334565 -0.266232 0.903984 
3 0 1 2 
3 3 4 5 
3 6 7 8 
3 9 10 11 
3 12 13 14 
3 15 16 17 
3 18 19 20 
3 21 22 23 
