ply
format ascii 1.0
element vertex 95
property float x
property float y
property float z
property float nx
property float ny
property float nz
element face 46
property list uchar uint vertex_indices
end_header
-0.122224 -0.001974 0.329209 0.311844 -0.000000 -0.950133 
-0.104108 0.017092 0.335154 0.311844 -0.000000 -0.950133 
-0.097478 -0.008952 0.337331 0.311844 -0.000000 -0.950133 
-0.115593 -0.028018 0.331385 0.311844 -0.000000 -0.950133 
-0.140339 -0.021040 0.323263 0.311844 -0.000000 -0.950133 
-0.146970 0.005005 0.321087 0.311844 -0.000000 -0.950133 
-0.128854 0.024071 0.327033 0.311844 -0.000000 -0.950133 
0.173870 0.000963 0.304795 -0.454353 0.000000 -0.890822 
0.151253 -0.024426 0.316331 -0.454353 0.000000 -0.890822 
0.141884 0.000963 0.321109 -0.454353 0.000000 -0.890822 
0.151253 0.026353 0.316331 -0.454353 -0.000000 -0.890822 
0.173870 0.036869 0.304795 -0.454353 0.000000 -0.890822 
0.196487 0.026353 0.293260 -0.454353 -0.000000 -0.890822 
0.173870 0.000963 0.304795 -0.454352 -0.000001 -0.890822 
0.196487 0.026353 0.293260 -0.454352 -0.000001 -0.890822 
0.205856 0.000963 0.288482 -0.454352 -0.000001 -0.890822 
0.173870 0.000963 0.304795 -0.454352 0.000001 -0.890822 
0.205856 0.000963 0.288482 -0.454352 0.000001 -0.890822 
0.196487 -0.024426 0.293260 -0.454352 0.000001 -0.890822 
0.196487 -0.024426 0.293260 -0.454353 -0.000000 -0.890822 
0.173870 -0.034943 0.304795 -0.454353 -0.000000 -0.890822 
0.268507 -0.051366 0.222038 0.738986 -0.072784 0.669778 
0.273705 0.001416 0.222038 0.738986 -0.072784 0.669778 
0.250639 0.001416 0.247487 0.738986 -0.072784 0.669778 
0.245884 -0.046866 0.247487 0.738986 -0.072784 0.669778 
0.253111 -0.102120 0.222038 0.710587 -0.215554 0.669778 
0.268507 -0.051366 0.222038 0.710587 -0.215554 0.669778 
0.245884 -0.046866 0.247487 0.710587 -0.215554 0.669778 
0.231800 -0.093293 0.247487 0.710587 -0.215554 0.669778 
0.228109 -0.148896 0.222038 0.654881 -0.350041 0.669778 
0.253111 -0.102120 0.222038 0.654881 -0.350041 0.669778 
0.231800 -0.093293 0.247487 0.654881 -0.350041 0.669778 
0.208930 -0.136081 0.247487 0.654881 -0.350041 0.669778 
-0.202626 -0.204362 0.194450 -0.510420 -0.621949 0.593845 
-0.158527 -0.240554 0.194450 -0.510420 -0.621949 0.593845 
-0.147160 -0.223541 0.222038 -0.510420 -0.621949 0.593845 
-0.188158 -0.189894 0.222038 -0.510420 -0.621949 0.593845 
-0.238818 -0.160263 0.194450 -0.621948 -0.510420 0.593845 
-0.202626 -0.204362 0.194450 -0.621948 -0.510420 0.593845 
-0.188158 -0.189894 0.222038 -0.621948 -0.510420 0.593845 
-0.221805 -0.148896 0.222038 -0.621948 -0.510420 0.593845 
-0.265710 -0.109951 0.194450 -0.709576 -0.379276 0.593845 
-0.238818 -0.160263 0.194450 -0.709576 -0.379276 0.593845 
-0.221805 -0.148896 0.222038 -0.709576 -0.379276 0.593845 
-0.246807 -0.102121 0.222038 -0.709576 -0.379276 0.593845 
-0.282271 -0.055358 0.194450 -0.769935 -0.233557 0.593844 
-0.265710 -0.109951 0.194450 -0.769935 -0.233557 0.593844 
-0.246807 -0.102121 0.222038 -0.769935 -0.233557 0.593844 
-0.262203 -0.051367 0.222038 -0.769935 -0.233557 0.593844 
-0.287862 0.001416 0.194450 -0.800705 -0.078863 0.593844 
-0.282271 -0.055358 0.194450 -0.800705 -0.078863 0.593844 
-0.262203 -0.051367 0.222038 -0.800705 -0.078863 0.593844 
-0.287862 0.001416 0.194450 -0.800705 -0.078863 0.593845 
-0.262203 -0.051367 0.222038 -0.800705 -0.078863 0.593845 
-0.267402 0.001416 0.222038 -0.800705 -0.078863 0.593845 
-0.282271 0.058190 0.194450 -0.800705 0.078863 0.593844 
-0.287862 0.001416 0.194450 -0.800705 0.078863 0.593844 
-0.267402 0.001416 0.222038 -0.800705 0.078863 0.593844 
-0.282271 0.058190 0.194450 -0.800706 0.078862 0.593844 
-0.267402 0.001416 0.222038 -0.800706 0.078862 0.593844 
-0.262203 0.054198 0.222038 -0.800706 0.078862 0.593844 
-0.265710 0.112782 0.194450 -0.769935 0.233557 0.593844 
-0.282271 0.058190 0.194450 -0.769935 0.233557 0.593844 
-0.262203 0.054198 0.222038 -0.769935 0.233557 0.593844 
-0.246807 0.104952 0.222038 -0.769935 0.233557 0.593844 
-0.238818 0.163095 0.194450 -0.709576 0.379276 0.593844 
-0.265710 0.112782 0.194450 -0.709576 0.379276 0.593844 
-0.246807 0.104952 0.222038 -0.709576 0.379276 0.593844 
-0.238818 0.163095 0.194450 -0.709577 0.379276 0.593844 
-0.246807 0.104952 0.222038 -0.709577 0.379276 0.593844 
-0.221805 0.151727 0.222038 -0.709577 0.379276 0.593844 
-0.202626 0.207194 0.194450 -0.621949 0.510420 0.593844 
-0.238818 0.163095 0.194450 -0.621949 0.510420 0.593844 
-0.221805 0.151727 0.222038 -0.621949 0.510420 0.593844 
-0.188158 0.192726 0.222038 -0.621949 0.510420 0.593844 
-0.158527 0.243385 0.194450 -0.510420 0.621949 0.593844 
-0.202626 0.207194 0.194450 -0.510420 0.621949 0.593844 
-0.188158 0.192726 0.222038 -0.510420 0.621949 0.593844 
-0.147160 0.226373 0.222038 -0.510420 0.621949 0.593844 
0.253111 0.104952 0.222038 0.654881 0.350041 0.669778 
0.228109 0.151727 0.222038 0.654881 0.350041 0.669778 
0.208930 0.138912 0.247487 0.654881 0.350041 0.669778 
0.231800 0.096125 0.247487 0.654881 0.350041 0.669778 
0.268507 0.054198 0.222038 0.710587 0.215554 0.669778 
0.253111 0.104952 0.222038 0.710587 0.215554 0.669778 
0.231800 0.096125 0.247487 0.710587 0.215554 0.669778 
0.268507 0.054198 0.222038 0.710587 0.215554 0.669777 
0.231800 0.096125 0.247487 0.710587 0.215554 0.669777 
0.245884 0.049698 0.247487 0.710587 0.215554 0.669777 
0.273705 0.001416 0.222038 0.738987 0.072780 0.669777 
0.268507 0.054198 0.222038 0.738987 0.072780 0.669777 
0.245884 0.049698 0.247487 0.738987 0.072780 0.669777 
0.273705 0.001416 0.222038 0.738986 0.072780 0.669778 
0.245884 0.049698 0.247487 0.738986 0.072780 0.669778 
0.250639 0.001416 0.247487 0.738986 0.072780 0.669778 
3 0 1 2 
3 0 2 3 
3 0 3 4 
3 0 4 5 
3 0 5 6 
3 0 6 1 
3 7 8 9 
3 7 9 10 
3 7 10 11 
3 7 11 12 
3 13 14 15 
3 16 17 18 
3 7 19 20 
3 7 20 8 
3 21 22 23 
3 21 23 24 
3 25 26 27 
3 25 27 28 
3 29 30 31 
3 29 31 32 
3 33 34 35 
3 33 35 36 
3 37 38 39 
3 37 39 40 
3 41 42 43 
3 41 43 44 
3 45 46 47 
3 45 47 48 
3 49 50 51 
3 52 53 54 
3 55 56 57 
3 58 59 60 
3 61 62 63 
3 61 63 64 
3 65 66 67 
3 68 69 70 
3 71 72 73 
3 71 73 74 
3 75 76 77 
3 75 77 78 
3 79 80 81 
3 79 81 82 
3 83 84 85 
3 86 87 88 
3 89 90 91 
3 92 93 94 
