ply
format ascii 1.0
Created by Blender3D 246 - www.blender.org, source file: mini-panicked.blend
element vertex 25
property float x
property float y
property float z
property float nx
property float ny
property float nz
element face 17
property list uchar uint vertex_indices
end_header
0.111349 0.043090 0.323936 -0.454329 0.000000 -0.890805 
0.186404 0.043090 0.285655 -0.454329 0.000000 -0.890805 
0.186404 -0.041163 0.285655 -0.454329 0.000000 -0.890805 
0.111349 -0.041163 0.323936 -0.454329 0.000000 -0.890805 
-0.084075 0.038177 0.341730 0.311838 0.000000 -0.950133 
-0.108260 -0.056821 0.333792 0.311838 0.000000 -0.950133 
-0.174336 0.012723 0.312105 0.311838 0.000000 -0.950133 
-0.186712 -0.125085 0.222038 -0.349803 -0.269417 0.897214 
-0.154750 -0.233505 0.194450 -0.330607 -0.323069 0.886715 
-0.123891 -0.187905 0.222038 -0.321390 -0.321390 0.890713 
-0.246976 -0.137011 0.194450 -0.393567 -0.206702 0.895718 
-0.220710 -0.043005 0.222038 -0.406384 -0.097781 0.908444 
-0.287862 0.001416 0.194450 -0.432997 0.005341 0.901364 
-0.220710 0.045837 0.222038 -0.417219 0.106479 0.902524 
-0.244894 0.133598 0.194450 -0.417798 0.210334 0.883816 
-0.186712 0.127916 0.222038 -0.365398 0.261422 0.893368 
-0.163076 0.234255 0.194450 -0.342296 0.306497 0.888180 
-0.123891 0.190737 0.222038 -0.301675 0.301675 0.904386 
0.189761 -0.122639 0.247487 0.414624 -0.171728 0.893613 
0.253111 -0.102120 0.222038 0.466323 -0.137486 0.873836 
0.223102 -0.042146 0.247487 0.461623 -0.091769 0.882290 
0.273705 0.001416 0.222038 0.495865 0.000000 0.868374 
0.223102 0.044978 0.247487 0.461623 0.091769 0.882290 
0.253111 0.104952 0.222038 0.466323 0.137486 0.873836 
0.189761 0.125470 0.247487 0.414624 0.171728 0.893613 
3 0 1 2 
3 3 0 2 
3 4 5 6 
3 7 8 9 
3 10 8 7 
3 11 10 7 
3 12 10 11 
3 13 12 11 
3 14 12 13 
3 15 14 13 
3 16 14 15 
3 17 16 15 
3 18 19 20 
3 19 21 20 
3 22 20 21 
3 22 21 23 
3 22 23 24 
