ply
format ascii 1.0
Created by Blender3D 246 - www.blender.org, source file: mini-stressed.blend
element vertex 30
property float x
property float y
property float z
property float nx
property float ny
property float nz
element face 14
property list uchar uint vertex_indices
end_header
-0.100111 -0.100320 0.343040 -0.243129 0.000000 0.969994 
-0.100111 0.103484 0.343040 -0.243129 0.000000 0.969994 
-0.165799 -0.100320 0.326576 -0.243129 0.000000 0.969994 
0.165799 -0.100320 0.326576 0.243129 -0.000000 0.969994 
0.100111 0.103484 0.343040 0.243129 -0.000000 0.969994 
0.100111 -0.100320 0.343040 0.243129 -0.000000 0.969994 
-0.165799 0.103484 0.326576 -0.243129 0.000000 0.969994 
0.165799 0.103484 0.326576 0.243129 0.000000 0.969994 
-0.132490 -0.116935 0.334925 -0.243129 0.000000 0.969994 
0.132490 -0.116935 0.334925 0.243129 0.000000 0.969994 
-0.060223 0.125218 0.369634 -0.326575 0.272610 0.905004 
-0.090320 0.064993 0.376914 -0.326575 0.272610 0.905004 
-0.061198 0.089432 0.380061 -0.326575 0.272610 0.905004 
0.061198 0.089432 0.380061 0.326575 0.272610 0.905004 
0.090320 0.064993 0.376914 0.326575 0.272610 0.905004 
0.060223 0.125218 0.369634 0.326575 0.272610 0.905004 
-0.230227 0.200037 0.285749 -0.326575 0.272609 0.905004 
-0.255658 0.176216 0.283748 -0.326575 0.272609 0.905004 
-0.260324 0.139812 0.293030 -0.326575 0.272609 0.905004 
0.260324 0.139812 0.293030 0.326575 0.272609 0.905004 
0.255658 0.176216 0.283748 0.326575 0.272609 0.905004 
0.230227 0.200037 0.285749 0.326575 0.272609 0.905004 
-0.090320 0.064993 0.376914 -0.326576 0.272610 0.905004 
-0.230227 0.200037 0.285749 -0.326576 0.272610 0.905004 
-0.260324 0.139812 0.293030 -0.326576 0.272610 0.905004 
0.260324 0.139812 0.293030 0.326576 0.272610 0.905004 
0.230227 0.200037 0.285749 0.326576 0.272610 0.905004 
0.090320 0.064993 0.376914 0.326576 0.272610 0.905004 
-0.060223 0.125218 0.369634 -0.326576 0.272610 0.905004 
0.060223 0.125218 0.369634 0.326576 0.272610 0.905004 
3 0 1 2 
3 3 4 5 
3 2 1 6 
3 7 4 3 
3 0 2 8 
3 9 3 5 
3 10 11 12 
3 13 14 15 
3 16 17 18 
3 19 20 21 
3 22 23 24 
3 25 26 27 
3 22 28 23 
3 26 29 27 
