ply
format ascii 1.0
Created by Blender3D 246 - www.blender.org, source file: mini-panicked.blend
element vertex 93
property float x
property float y
property float z
property float nx
property float ny
property float nz
element face 46
property list uchar uint vertex_indices
end_header
-0.122224 -0.001974 0.329209 0.311844 -0.000000 -0.950133 
-0.094979 0.026701 0.338151 0.311844 -0.000000 -0.950133 
-0.085007 -0.012469 0.341424 0.311844 -0.000000 -0.950133 
-0.112251 -0.041143 0.332482 0.311844 -0.000000 -0.950133 
-0.149468 -0.030648 0.320267 0.311844 -0.000000 -0.950133 
-0.159440 0.008522 0.316994 0.311844 -0.000000 -0.950133 
-0.132196 0.037196 0.325936 0.311844 -0.000000 -0.950133 
0.148877 0.000963 0.304795 -0.454353 0.000000 -0.890822 
0.111349 -0.041163 0.323936 -0.454353 0.000000 -0.890822 
0.095805 0.000963 0.331864 -0.454353 0.000000 -0.890822 
0.111349 0.043090 0.323936 -0.454353 -0.000000 -0.890822 
0.148877 0.060539 0.304795 -0.454353 0.000000 -0.890822 
0.186404 0.043090 0.285655 -0.454353 -0.000000 -0.890822 
0.148877 0.000963 0.304795 -0.454352 -0.000001 -0.890822 
0.186404 0.043090 0.285655 -0.454352 -0.000001 -0.890822 
0.201948 0.000963 0.277727 -0.454352 -0.000001 -0.890822 
0.148877 0.000963 0.304795 -0.454352 0.000001 -0.890822 
0.201948 0.000963 0.277727 -0.454352 0.000001 -0.890822 
0.186404 -0.041163 0.285655 -0.454352 0.000001 -0.890822 
0.186404 -0.041163 0.285655 -0.454353 -0.000000 -0.890822 
0.148877 -0.058613 0.304795 -0.454353 -0.000000 -0.890822 
0.268507 -0.051366 0.222038 0.481051 -0.047379 0.875412 
0.273705 0.001416 0.222038 0.481051 -0.047379 0.875412 
0.227392 0.001416 0.247487 0.481051 -0.047379 0.875412 
0.223102 -0.042146 0.247487 0.481051 -0.047379 0.875412 
0.253111 -0.102120 0.222038 0.462285 -0.140233 0.875572 
0.268507 -0.051366 0.222038 0.462285 -0.140233 0.875572 
0.223102 -0.042146 0.247487 0.462285 -0.140233 0.875572 
0.210395 -0.084034 0.247487 0.462285 -0.140233 0.875572 
0.228109 -0.148896 0.222038 0.425541 -0.227457 0.875887 
0.253111 -0.102120 0.222038 0.425541 -0.227457 0.875887 
0.210395 -0.084034 0.247487 0.425541 -0.227457 0.875887 
0.228109 -0.148896 0.222038 0.425542 -0.227457 0.875887 
0.210395 -0.084034 0.247487 0.425542 -0.227457 0.875887 
0.189761 -0.122639 0.247487 0.425542 -0.227457 0.875887 
-0.202626 -0.204362 0.194450 -0.255596 -0.311444 0.915245 
-0.158527 -0.240554 0.194450 -0.255596 -0.311444 0.915245 
-0.123891 -0.187905 0.222038 -0.255596 -0.311444 0.915245 
-0.158395 -0.159589 0.222038 -0.255596 -0.311444 0.915245 
-0.238818 -0.160263 0.194450 -0.311758 -0.255853 0.915066 
-0.202626 -0.204362 0.194450 -0.311758 -0.255853 0.915066 
-0.158395 -0.159589 0.222038 -0.311758 -0.255853 0.915066 
-0.186712 -0.125085 0.222038 -0.311758 -0.255853 0.915066 
-0.265710 -0.109951 0.194450 -0.355963 -0.190266 0.914926 
-0.238818 -0.160263 0.194450 -0.355963 -0.190266 0.914926 
-0.186712 -0.125085 0.222038 -0.355963 -0.190266 0.914926 
-0.207753 -0.085719 0.222038 -0.355963 -0.190266 0.914926 
-0.282271 -0.055358 0.194450 -0.386453 -0.117229 0.914829 
-0.265710 -0.109951 0.194450 -0.386453 -0.117229 0.914829 
-0.207753 -0.085719 0.222038 -0.386453 -0.117229 0.914829 
-0.282271 -0.055358 0.194450 -0.386453 -0.117230 0.914829 
-0.207753 -0.085719 0.222038 -0.386453 -0.117230 0.914829 
-0.220710 -0.043005 0.222038 -0.386453 -0.117230 0.914829 
-0.287862 0.001416 0.194450 -0.402009 -0.039595 0.914779 
-0.282271 -0.055358 0.194450 -0.402009 -0.039595 0.914779 
-0.220710 -0.043005 0.222038 -0.402009 -0.039595 0.914779 
-0.225085 0.001416 0.222038 -0.402009 -0.039595 0.914779 
-0.282271 0.058190 0.194450 -0.402009 0.039594 0.914779 
-0.287862 0.001416 0.194450 -0.402009 0.039594 0.914779 
-0.220710 0.045837 0.222038 -0.402009 0.039594 0.914779 
-0.287862 0.001416 0.194450 -0.402009 0.039595 0.914779 
-0.225085 0.001416 0.222038 -0.402009 0.039595 0.914779 
-0.220710 0.045837 0.222038 -0.402009 0.039595 0.914779 
-0.265710 0.112782 0.194450 -0.386453 0.117229 0.914829 
-0.282271 0.058190 0.194450 -0.386453 0.117229 0.914829 
-0.207753 0.088551 0.222038 -0.386453 0.117229 0.914829 
-0.220710 0.045837 0.222038 -0.386453 0.117229 0.914829 
-0.238818 0.163095 0.194450 -0.355963 0.190266 0.914926 
-0.265710 0.112782 0.194450 -0.355963 0.190266 0.914926 
-0.186712 0.127916 0.222038 -0.355963 0.190266 0.914926 
-0.207753 0.088551 0.222038 -0.355963 0.190266 0.914926 
-0.202626 0.207194 0.194450 -0.311758 0.255853 0.915066 
-0.238818 0.163095 0.194450 -0.311758 0.255853 0.915066 
-0.158395 0.162420 0.222038 -0.311758 0.255853 0.915066 
-0.186712 0.127916 0.222038 -0.311758 0.255853 0.915066 
-0.158527 0.243385 0.194450 -0.255596 0.311444 0.915245 
-0.202626 0.207194 0.194450 -0.255596 0.311444 0.915245 
-0.123891 0.190737 0.222038 -0.255596 0.311444 0.915245 
-0.158395 0.162420 0.222038 -0.255596 0.311444 0.915245 
0.253111 0.104952 0.222038 0.425541 0.227457 0.875887 
0.228109 0.151727 0.222038 0.425541 0.227457 0.875887 
0.189761 0.125470 0.247487 0.425541 0.227457 0.875887 
0.210395 0.086866 0.247487 0.425541 0.227457 0.875887 
0.268507 0.054198 0.222038 0.462285 0.140233 0.875572 
0.253111 0.104952 0.222038 0.462285 0.140233 0.875572 
0.210395 0.086866 0.247487 0.462285 0.140233 0.875572 
0.223102 0.044978 0.247487 0.462285 0.140233 0.875572 
0.273705 0.001416 0.222038 0.481051 0.047377 0.875412 
0.268507 0.054198 0.222038 0.481051 0.047377 0.875412 
0.223102 0.044978 0.247487 0.481051 0.047377 0.875412 
0.273705 0.001416 0.222038 0.481051 0.047376 0.875412 
0.223102 0.044978 0.247487 0.481051 0.047376 0.875412 
0.227392 0.001416 0.247487 0.481051 0.047376 0.875412 
3 0 1 2 
3 0 2 3 
3 0 3 4 
3 0 4 5 
3 0 5 6 
3 0 6 1 
3 7 8 9 
3 7 9 10 
3 7 10 11 
3 7 11 12 
3 13 14 15 
3 16 17 18 
3 7 19 20 
3 7 20 8 
3 21 22 23 
3 21 23 24 
3 25 26 27 
3 25 27 28 
3 29 30 31 
3 32 33 34 
3 35 36 37 
3 35 37 38 
3 39 40 41 
3 39 41 42 
3 43 44 45 
3 43 45 46 
3 47 48 49 
3 50 51 52 
3 53 54 55 
3 53 55 56 
3 57 58 59 
3 60 61 62 
3 63 64 65 
3 64 66 65 
3 67 68 69 
3 68 70 69 
3 71 72 73 
3 72 74 73 
3 75 76 77 
3 76 78 77 
3 79 80 81 
3 79 81 82 
3 83 84 85 
3 83 85 86 
3 87 88 89 
3 90 91 92 
