ply
format ascii 1.0
Created by Blender3D 246 - www.blender.org, source file: mini-stressed.blend
element vertex 160
property float x
property float y
property float z
property float nx
property float ny
property float nz
element face 64
property list uchar uint vertex_indices
end_header
-0.084217 -0.103051 0.333186 -0.239650 -0.564300 0.790021 
-0.147945 -0.103051 0.313855 -0.239650 -0.564300 0.790021 
-0.095332 -0.112680 0.322937 -0.239650 -0.564300 0.790021 
0.095332 -0.112680 0.322937 0.239650 -0.564300 0.790021 
0.147945 -0.103051 0.313855 0.239650 -0.564300 0.790021 
0.084217 -0.103051 0.333186 0.239650 -0.564300 0.790021 
-0.147945 -0.103051 0.313855 -0.239650 -0.564301 0.790020 
-0.136829 -0.112680 0.310349 -0.239650 -0.564301 0.790020 
-0.095332 -0.112680 0.322937 -0.239650 -0.564301 0.790020 
0.095332 -0.112680 0.322937 0.239650 -0.564301 0.790020 
0.136829 -0.112680 0.310349 0.239650 -0.564301 0.790020 
0.147945 -0.103051 0.313855 0.239650 -0.564301 0.790020 
-0.147945 0.103051 0.313855 -0.272111 0.348276 0.897028 
-0.084217 0.103051 0.333186 -0.272111 0.348276 0.897028 
-0.095425 0.114492 0.325344 -0.272111 0.348276 0.897028 
0.095425 0.114492 0.325344 0.272111 0.348276 0.897028 
0.084217 0.103051 0.333186 0.272111 0.348276 0.897028 
0.147945 0.103051 0.313855 0.272111 0.348276 0.897028 
-0.147945 0.103051 0.313855 -0.272111 0.348278 0.897027 
-0.095425 0.114492 0.325344 -0.272111 0.348278 0.897027 
-0.134657 0.114492 0.313443 -0.272111 0.348278 0.897027 
0.134657 0.114492 0.313443 0.272111 0.348278 0.897027 
0.095425 0.114492 0.325344 0.272111 0.348278 0.897027 
0.147945 0.103051 0.313855 0.272111 0.348278 0.897027 
-0.084217 0.103051 0.333186 -0.281665 0.241880 0.928525 
-0.147945 0.103051 0.313855 -0.281665 0.241880 0.928525 
-0.151184 0.069257 0.321675 -0.281665 0.241880 0.928525 
0.151184 0.069257 0.321675 0.281665 0.241880 0.928525 
0.147945 0.103051 0.313855 0.281665 0.241880 0.928525 
0.084217 0.103051 0.333186 0.281665 0.241880 0.928525 
-0.085868 0.069257 0.341489 -0.281665 0.241880 0.928525 
0.085868 0.069257 0.341489 0.281665 0.241880 0.928525 
-0.085868 0.069257 0.341489 -0.287173 0.146038 0.946681 
-0.151184 0.069257 0.321675 -0.287173 0.146038 0.946681 
-0.153140 0.034796 0.326398 -0.287173 0.146038 0.946681 
0.153140 0.034796 0.326398 0.287173 0.146038 0.946681 
0.151184 0.069257 0.321675 0.287173 0.146038 0.946681 
0.085868 0.069257 0.341489 0.287173 0.146038 0.946681 
-0.086865 0.034796 0.346502 -0.287173 0.146038 0.946681 
0.086865 0.034796 0.346502 0.287173 0.146038 0.946681 
-0.086865 0.034796 0.346502 -0.289939 0.048831 0.955799 
-0.153140 0.034796 0.326398 -0.289939 0.048831 0.955799 
-0.087199 0.000000 0.348179 -0.289939 0.048831 0.955799 
0.087199 0.000000 0.348179 0.289939 0.048831 0.955799 
0.153140 0.034796 0.326398 0.289939 0.048831 0.955799 
0.086865 0.034796 0.346502 0.289939 0.048831 0.955799 
-0.153795 0.000000 0.327977 -0.289939 0.048831 0.955799 
0.153795 0.000000 0.327977 0.289939 0.048831 0.955799 
-0.087199 0.000000 0.348179 -0.289939 -0.048831 0.955799 
-0.153795 0.000000 0.327977 -0.289939 -0.048831 0.955799 
-0.153140 -0.034796 0.326398 -0.289939 -0.048831 0.955799 
0.153140 -0.034796 0.326398 0.289939 -0.048831 0.955799 
0.153795 0.000000 0.327977 0.289939 -0.048831 0.955799 
0.087199 0.000000 0.348179 0.289939 -0.048831 0.955799 
-0.086865 -0.034796 0.346502 -0.289939 -0.048831 0.955799 
0.086865 -0.034796 0.346502 0.289939 -0.048831 0.955799 
-0.086865 -0.034796 0.346502 -0.287173 -0.146038 0.946681 
-0.153140 -0.034796 0.326398 -0.287173 -0.146038 0.946681 
-0.151184 -0.069257 0.321675 -0.287173 -0.146038 0.946681 
0.151184 -0.069257 0.321675 0.287173 -0.146038 0.946681 
0.153140 -0.034796 0.326398 0.287173 -0.146038 0.946681 
0.086865 -0.034796 0.346502 0.287173 -0.146038 0.946681 
-0.085868 -0.069257 0.341489 -0.287173 -0.146038 0.946681 
0.085868 -0.069257 0.341489 0.287173 -0.146038 0.946681 
-0.085868 -0.069257 0.341489 -0.281665 -0.241878 0.928525 
-0.151184 -0.069257 0.321675 -0.281665 -0.241878 0.928525 
-0.147945 -0.103051 0.313855 -0.281665 -0.241878 0.928525 
0.147945 -0.103051 0.313855 0.281665 -0.241878 0.928525 
0.151184 -0.069257 0.321675 0.281665 -0.241878 0.928525 
0.085868 -0.069257 0.341489 0.281665 -0.241878 0.928525 
-0.085868 -0.069257 0.341489 -0.281665 -0.241879 0.928525 
-0.147945 -0.103051 0.313855 -0.281665 -0.241879 0.928525 
-0.084217 -0.103051 0.333186 -0.281665 -0.241879 0.928525 
0.084217 -0.103051 0.333186 0.281665 -0.241879 0.928525 
0.147945 -0.103051 0.313855 0.281665 -0.241879 0.928525 
0.085868 -0.069257 0.341489 0.281665 -0.241879 0.928525 
-0.265824 0.108173 0.286232 -0.695711 0.417475 0.584551 
-0.238756 0.168093 0.275654 -0.695711 0.417475 0.584551 
-0.267199 0.121903 0.274790 -0.695711 0.417475 0.584551 
0.267199 0.121903 0.274790 0.695711 0.417475 0.584551 
0.238756 0.168093 0.275654 0.695711 0.417475 0.584551 
0.265824 0.108173 0.286232 0.695711 0.417475 0.584551 
-0.238756 0.168093 0.275654 -0.695713 0.417476 0.584548 
-0.249573 0.160920 0.267902 -0.695713 0.417476 0.584548 
-0.267199 0.121903 0.274790 -0.695713 0.417476 0.584548 
0.267199 0.121903 0.274790 0.695713 0.417476 0.584548 
0.249573 0.160920 0.267902 0.695713 0.417476 0.584548 
0.238756 0.168093 0.275654 0.695713 0.417476 0.584548 
-0.057067 0.097915 0.343051 0.081912 0.137262 0.987142 
-0.084135 0.037995 0.353629 0.081912 0.137262 0.987142 
-0.067744 0.044637 0.351345 0.081912 0.137262 0.987142 
0.067744 0.044637 0.351345 -0.081912 0.137262 0.987142 
0.084135 0.037995 0.353629 -0.081912 0.137262 0.987142 
0.057067 0.097915 0.343051 -0.081912 0.137262 0.987142 
-0.057067 0.097915 0.343051 0.081917 0.137261 0.987142 
-0.067744 0.044637 0.351345 0.081917 0.137261 0.987142 
-0.051080 0.081525 0.344833 0.081917 0.137261 0.987142 
0.051080 0.081525 0.344833 -0.081917 0.137261 0.987142 
0.067744 0.044637 0.351345 -0.081917 0.137261 0.987142 
0.057067 0.097915 0.343051 -0.081917 0.137261 0.987142 
-0.084135 0.037995 0.353629 -0.019784 0.182473 0.983012 
-0.057067 0.097915 0.343051 -0.019784 0.182473 0.983012 
-0.088544 0.112468 0.339716 -0.019784 0.182473 0.983012 
0.088544 0.112468 0.339716 0.019784 0.182473 0.983012 
0.057067 0.097915 0.343051 0.019784 0.182473 0.983012 
0.084135 0.037995 0.353629 0.019784 0.182473 0.983012 
-0.084135 0.037995 0.353629 -0.019783 0.182473 0.983012 
-0.088544 0.112468 0.339716 -0.019783 0.182473 0.983012 
-0.116287 0.051055 0.350558 -0.019783 0.182473 0.983012 
0.116287 0.051055 0.350558 0.019783 0.182473 0.983012 
0.088544 0.112468 0.339716 0.019783 0.182473 0.983012 
0.084135 0.037995 0.353629 0.019783 0.182473 0.983012 
-0.116287 0.051055 0.350558 -0.108830 0.220286 0.969345 
-0.088544 0.112468 0.339716 -0.108830 0.220286 0.969345 
-0.119941 0.126041 0.333106 -0.108830 0.220286 0.969345 
0.119941 0.126041 0.333106 0.108830 0.220286 0.969345 
0.088544 0.112468 0.339716 0.108830 0.220286 0.969345 
0.116287 0.051055 0.350558 0.108830 0.220286 0.969345 
-0.148091 0.063726 0.344107 -0.108830 0.220286 0.969345 
0.148091 0.063726 0.344107 0.108830 0.220286 0.969345 
-0.148091 0.063726 0.344107 -0.196809 0.255985 0.946434 
-0.119941 0.126041 0.333106 -0.196809 0.255985 0.946434 
-0.179242 0.075888 0.334340 -0.196809 0.255985 0.946434 
0.179242 0.075888 0.334340 0.196809 0.255985 0.946434 
0.119941 0.126041 0.333106 0.196809 0.255985 0.946434 
0.148091 0.063726 0.344107 0.196809 0.255985 0.946434 
-0.119941 0.126041 0.333106 -0.196809 0.255986 0.946434 
-0.150956 0.138504 0.323286 -0.196809 0.255986 0.946434 
-0.179242 0.075888 0.334340 -0.196809 0.255986 0.946434 
0.179242 0.075888 0.334340 0.196809 0.255986 0.946434 
0.150956 0.138504 0.323286 0.196809 0.255986 0.946434 
0.119941 0.126041 0.333106 0.196809 0.255986 0.946434 
-0.179242 0.075888 0.334340 -0.282903 0.289240 0.914498 
-0.150956 0.138504 0.323286 -0.282903 0.289240 0.914498 
-0.181290 0.149737 0.310349 -0.282903 0.289240 0.914498 
0.181290 0.149737 0.310349 0.282903 0.289240 0.914498 
0.150956 0.138504 0.323286 0.282903 0.289240 0.914498 
0.179242 0.075888 0.334340 0.282903 0.289240 0.914498 
-0.179242 0.075888 0.334340 -0.282904 0.289240 0.914497 
-0.181290 0.149737 0.310349 -0.282904 0.289240 0.914497 
-0.209440 0.087423 0.321350 -0.282904 0.289240 0.914497 
0.209440 0.087423 0.321350 0.282904 0.289240 0.914497 
0.181290 0.149737 0.310349 0.282904 0.289240 0.914497 
0.179242 0.075888 0.334340 0.282904 0.289240 0.914497 
-0.209440 0.087423 0.321350 -0.366307 0.319738 0.873834 
-0.181290 0.149737 0.310349 -0.366307 0.319738 0.873834 
-0.210651 0.159632 0.294421 -0.366307 0.319738 0.873834 
0.210651 0.159632 0.294421 0.366307 0.319738 0.873834 
0.181290 0.149737 0.310349 0.366307 0.319738 0.873834 
0.209440 0.087423 0.321350 0.366307 0.319738 0.873834 
-0.238393 0.098219 0.305262 -0.366307 0.319738 0.873834 
0.238393 0.098219 0.305262 0.366307 0.319738 0.873834 
-0.238393 0.098219 0.305262 -0.446239 0.347194 0.824819 
-0.210651 0.159632 0.294421 -0.446239 0.347194 0.824819 
-0.238756 0.168093 0.275654 -0.446239 0.347194 0.824819 
0.238756 0.168093 0.275654 0.446239 0.347194 0.824819 
0.210651 0.159632 0.294421 0.446239 0.347194 0.824819 
0.238393 0.098219 0.305262 0.446239 0.347194 0.824819 
-0.265824 0.108173 0.286232 -0.446239 0.347194 0.824819 
0.265824 0.108173 0.286232 0.446239 0.347194 0.824819 
3 0 1 2 
3 3 4 5 
3 6 7 8 
3 9 10 11 
3 12 13 14 
3 15 16 17 
3 18 19 20 
3 21 22 23 
3 24 25 26 
3 27 28 29 
3 24 26 30 
3 31 27 29 
3 32 33 34 
3 35 36 37 
3 32 34 38 
3 39 35 37 
3 40 41 42 
3 43 44 45 
3 41 46 42 
3 43 47 44 
3 48 49 50 
3 51 52 53 
3 48 50 54 
3 55 51 53 
3 56 57 58 
3 59 60 61 
3 56 58 62 
3 63 59 61 
3 64 65 66 
3 67 68 69 
3 70 71 72 
3 73 74 75 
3 76 77 78 
3 79 80 81 
3 82 83 84 
3 85 86 87 
3 88 89 90 
3 91 92 93 
3 94 95 96 
3 97 98 99 
3 100 101 102 
3 103 104 105 
3 106 107 108 
3 109 110 111 
3 112 113 114 
3 115 116 117 
3 112 114 118 
3 119 115 117 
3 120 121 122 
3 123 124 125 
3 126 127 128 
3 129 130 131 
3 132 133 134 
3 135 136 137 
3 138 139 140 
3 141 142 143 
3 144 145 146 
3 147 148 149 
3 144 146 150 
3 151 147 149 
3 152 153 154 
3 155 156 157 
3 152 154 158 
3 159 155 157 
