ply
format ascii 1.0
Created by Blender3D 246 - www.blender.org, source file: mini-normal.blend
element vertex 76
property float x
property float y
property float z
property float nx
property float ny
property float nz
element face 32
property list uchar uint vertex_indices
end_header
-0.084217 -0.103051 0.333186 -0.239650 -0.564300 0.790021 
-0.147945 -0.103051 0.313855 -0.239650 -0.564300 0.790021 
-0.095332 -0.112680 0.322937 -0.239650 -0.564300 0.790021 
0.095332 -0.112680 0.322937 0.239650 -0.564300 0.790021 
0.147945 -0.103051 0.313855 0.239650 -0.564300 0.790021 
0.084217 -0.103051 0.333186 0.239650 -0.564300 0.790021 
-0.147945 -0.103051 0.313855 -0.239650 -0.564301 0.790020 
-0.136829 -0.112680 0.310349 -0.239650 -0.564301 0.790020 
-0.095332 -0.112680 0.322937 -0.239650 -0.564301 0.790020 
0.095332 -0.112680 0.322937 0.239650 -0.564301 0.790020 
0.136829 -0.112680 0.310349 0.239650 -0.564301 0.790020 
0.147945 -0.103051 0.313855 0.239650 -0.564301 0.790020 
-0.147945 0.103051 0.313855 -0.272111 0.348276 0.897028 
-0.084217 0.103051 0.333186 -0.272111 0.348276 0.897028 
-0.095425 0.114492 0.325344 -0.272111 0.348276 0.897028 
0.095425 0.114492 0.325344 0.272111 0.348276 0.897028 
0.084217 0.103051 0.333186 0.272111 0.348276 0.897028 
0.147945 0.103051 0.313855 0.272111 0.348276 0.897028 
-0.147945 0.103051 0.313855 -0.272111 0.348278 0.897027 
-0.095425 0.114492 0.325344 -0.272111 0.348278 0.897027 
-0.134657 0.114492 0.313443 -0.272111 0.348278 0.897027 
0.134657 0.114492 0.313443 0.272111 0.348278 0.897027 
0.095425 0.114492 0.325344 0.272111 0.348278 0.897027 
0.147945 0.103051 0.313855 0.272111 0.348278 0.897027 
-0.084217 0.103051 0.333186 -0.281665 0.241880 0.928525 
-0.147945 0.103051 0.313855 -0.281665 0.241880 0.928525 
-0.151184 0.069257 0.321675 -0.281665 0.241880 0.928525 
0.151184 0.069257 0.321675 0.281665 0.241880 0.928525 
0.147945 0.103051 0.313855 0.281665 0.241880 0.928525 
0.084217 0.103051 0.333186 0.281665 0.241880 0.928525 
-0.085868 0.069257 0.341489 -0.281665 0.241880 0.928525 
0.085868 0.069257 0.341489 0.281665 0.241880 0.928525 
-0.085868 0.069257 0.341489 -0.287173 0.146038 0.946681 
-0.151184 0.069257 0.321675 -0.287173 0.146038 0.946681 
-0.153140 0.034796 0.326398 -0.287173 0.146038 0.946681 
0.153140 0.034796 0.326398 0.287173 0.146038 0.946681 
0.151184 0.069257 0.321675 0.287173 0.146038 0.946681 
0.085868 0.069257 0.341489 0.287173 0.146038 0.946681 
-0.086865 0.034796 0.346502 -0.287173 0.146038 0.946681 
0.086865 0.034796 0.346502 0.287173 0.146038 0.946681 
-0.086865 0.034796 0.346502 -0.289939 0.048831 0.955799 
-0.153140 0.034796 0.326398 -0.289939 0.048831 0.955799 
-0.087199 0.000000 0.348179 -0.289939 0.048831 0.955799 
0.087199 0.000000 0.348179 0.289939 0.048831 0.955799 
0.153140 0.034796 0.326398 0.289939 0.048831 0.955799 
0.086865 0.034796 0.346502 0.289939 0.048831 0.955799 
-0.153795 0.000000 0.327977 -0.289939 0.048831 0.955799 
0.153795 0.000000 0.327977 0.289939 0.048831 0.955799 
-0.087199 0.000000 0.348179 -0.289939 -0.048831 0.955799 
-0.153795 0.000000 0.327977 -0.289939 -0.048831 0.955799 
-0.153140 -0.034796 0.326398 -0.289939 -0.048831 0.955799 
0.153140 -0.034796 0.326398 0.289939 -0.048831 0.955799 
0.153795 0.000000 0.327977 0.289939 -0.048831 0.955799 
0.087199 0.000000 0.348179 0.289939 -0.048831 0.955799 
-0.086865 -0.034796 0.346502 -0.289939 -0.048831 0.955799 
0.086865 -0.034796 0.346502 0.289939 -0.048831 0.955799 
-0.086865 -0.034796 0.346502 -0.287173 -0.146038 0.946681 
-0.153140 -0.034796 0.326398 -0.287173 -0.146038 0.946681 
-0.151184 -0.069257 0.321675 -0.287173 -0.146038 0.946681 
0.151184 -0.069257 0.321675 0.287173 -0.146038 0.946681 
0.153140 -0.034796 0.326398 0.287173 -0.146038 0.946681 
0.086865 -0.034796 0.346502 0.287173 -0.146038 0.946681 
-0.085868 -0.069257 0.341489 -0.287173 -0.146038 0.946681 
0.085868 -0.069257 0.341489 0.287173 -0.146038 0.946681 
-0.085868 -0.069257 0.341489 -0.281665 -0.241878 0.928525 
-0.151184 -0.069257 0.321675 -0.281665 -0.241878 0.928525 
-0.147945 -0.103051 0.313855 -0.281665 -0.241878 0.928525 
0.147945 -0.103051 0.313855 0.281665 -0.241878 0.928525 
0.151184 -0.069257 0.321675 0.281665 -0.241878 0.928525 
0.085868 -0.069257 0.341489 0.281665 -0.241878 0.928525 
-0.085868 -0.069257 0.341489 -0.281665 -0.241879 0.928525 
-0.147945 -0.103051 0.313855 -0.281665 -0.241879 0.928525 
-0.084217 -0.103051 0.333186 -0.281665 -0.241879 0.928525 
0.084217 -0.103051 0.333186 0.281665 -0.241879 0.928525 
0.147945 -0.103051 0.313855 0.281665 -0.241879 0.928525 
0.085868 -0.069257 0.341489 0.281665 -0.241879 0.928525 
3 0 1 2 
3 3 4 5 
3 6 7 8 
3 9 10 11 
3 12 13 14 
3 15 16 17 
3 18 19 20 
3 21 22 23 
3 24 25 26 
3 27 28 29 
3 24 26 30 
3 31 27 29 
3 32 33 34 
3 35 36 37 
3 32 34 38 
3 39 35 37 
3 40 41 42 
3 43 44 45 
3 41 46 42 
3 43 47 44 
3 48 49 50 
3 51 52 53 
3 48 50 54 
3 55 51 53 
3 56 57 58 
3 59 60 61 
3 56 58 62 
3 63 59 61 
3 64 65 66 
3 67 68 69 
3 70 71 72 
3 73 74 75 
