ply
format ascii 1.0
Created by Blender3D 246 - www.blender.org, source file: mini-asleep.blend
element vertex 88
property float x
property float y
property float z
property float nx
property float ny
property float nz
element face 32
property list uchar uint vertex_indices
end_header
-0.126992 -0.050186 0.327411 -0.209623 -0.281896 0.936265 
-0.101598 -0.047765 0.333825 -0.209623 -0.281896 0.936265 
-0.108230 0.000349 0.346827 -0.209623 -0.281896 0.936265 
0.108230 0.000349 0.346827 0.209623 -0.281896 0.936265 
0.101598 -0.047765 0.333825 0.209623 -0.281896 0.936265 
0.126992 -0.050186 0.327411 0.209623 -0.281896 0.936265 
-0.126992 -0.050186 0.327411 -0.209622 -0.281896 0.936266 
-0.108230 0.000349 0.346827 -0.209622 -0.281896 0.936266 
-0.133789 -0.000873 0.340737 -0.209622 -0.281896 0.936266 
0.133789 -0.000873 0.340737 0.209622 -0.281896 0.936266 
0.108230 0.000349 0.346827 0.209622 -0.281896 0.936266 
0.126992 -0.050186 0.327411 0.209622 -0.281896 0.936266 
-0.151762 -0.051638 0.318687 -0.303165 -0.287312 0.908594 
-0.126992 -0.050186 0.327411 -0.303165 -0.287312 0.908594 
-0.133789 -0.000873 0.340737 -0.303165 -0.287312 0.908594 
0.133789 -0.000873 0.340737 0.303165 -0.287312 0.908594 
0.126992 -0.050186 0.327411 0.303165 -0.287312 0.908594 
0.151762 -0.051638 0.318687 0.303165 -0.287312 0.908594 
-0.158659 -0.001601 0.332208 -0.303165 -0.287312 0.908594 
0.158659 -0.001601 0.332208 0.303165 -0.287312 0.908594 
-0.175672 -0.052107 0.307736 -0.393789 -0.289986 0.872261 
-0.151762 -0.051638 0.318687 -0.393789 -0.289986 0.872261 
-0.158659 -0.001601 0.332208 -0.393789 -0.289986 0.872261 
0.158659 -0.001601 0.332208 0.393789 -0.289986 0.872261 
0.151762 -0.051638 0.318687 0.393789 -0.289986 0.872261 
0.175672 -0.052107 0.307736 0.393789 -0.289986 0.872261 
-0.175672 -0.052107 0.307736 -0.393790 -0.289985 0.872260 
-0.158659 -0.001601 0.332208 -0.393790 -0.289985 0.872260 
-0.182603 -0.001828 0.321323 -0.393790 -0.289985 0.872260 
0.182603 -0.001828 0.321323 0.393790 -0.289985 0.872260 
0.158659 -0.001601 0.332208 0.393790 -0.289985 0.872260 
0.175672 -0.052107 0.307736 0.393790 -0.289985 0.872260 
-0.205388 -0.001551 0.308187 -0.480647 -0.289892 0.827612 
-0.198491 -0.051588 0.294666 -0.480647 -0.289892 0.827612 
-0.175672 -0.052107 0.307736 -0.480647 -0.289892 0.827612 
0.175672 -0.052107 0.307736 0.480647 -0.289892 0.827612 
0.198491 -0.051588 0.294666 0.480647 -0.289892 0.827612 
0.205388 -0.001551 0.308187 0.480647 -0.289892 0.827612 
-0.182603 -0.001828 0.321323 -0.480647 -0.289892 0.827612 
0.182603 -0.001828 0.321323 0.480647 -0.289892 0.827612 
-0.220000 -0.050086 0.279600 -0.562931 -0.287033 0.775062 
-0.198491 -0.051588 0.294666 -0.562931 -0.287033 0.775062 
-0.205388 -0.001551 0.308187 -0.562931 -0.287033 0.775062 
0.205388 -0.001551 0.308187 0.562931 -0.287033 0.775062 
0.198491 -0.051588 0.294666 0.562931 -0.287033 0.775062 
0.220000 -0.050086 0.279600 0.562931 -0.287033 0.775062 
-0.220000 -0.050086 0.279600 -0.562930 -0.287034 0.775063 
-0.205388 -0.001551 0.308187 -0.562930 -0.287034 0.775063 
-0.226797 -0.000773 0.292926 -0.562930 -0.287034 0.775063 
0.226797 -0.000773 0.292926 0.562930 -0.287034 0.775063 
0.205388 -0.001551 0.308187 0.562930 -0.287034 0.775063 
0.220000 -0.050086 0.279600 0.562930 -0.287034 0.775063 
-0.226797 -0.000773 0.292926 -0.639864 -0.281435 0.715101 
-0.246622 0.000498 0.275687 -0.639864 -0.281435 0.715101 
-0.239990 -0.047616 0.262686 -0.639864 -0.281435 0.715101 
0.239990 -0.047616 0.262686 0.639864 -0.281435 0.715101 
0.246622 0.000498 0.275687 0.639864 -0.281435 0.715101 
0.226797 -0.000773 0.292926 0.639864 -0.281435 0.715101 
-0.226797 -0.000773 0.292926 -0.639863 -0.281435 0.715101 
-0.239990 -0.047616 0.262686 -0.639863 -0.281435 0.715101 
-0.220000 -0.050086 0.279600 -0.639863 -0.281435 0.715101 
0.220000 -0.050086 0.279600 0.639863 -0.281435 0.715101 
0.239990 -0.047616 0.262686 0.639863 -0.281435 0.715101 
0.226797 -0.000773 0.292926 0.639863 -0.281435 0.715101 
-0.246622 0.000498 0.275687 -0.720086 -0.271778 0.638445 
-0.251604 -0.007956 0.266469 -0.720086 -0.271778 0.638445 
-0.239990 -0.047616 0.262686 -0.720086 -0.271778 0.638445 
0.239990 -0.047616 0.262686 0.720086 -0.271778 0.638445 
0.251604 -0.007956 0.266469 0.720086 -0.271778 0.638445 
0.246622 0.000498 0.275687 0.720086 -0.271778 0.638445 
-0.251604 -0.007956 0.266469 -0.720084 -0.271778 0.638448 
-0.247522 -0.037576 0.258465 -0.720084 -0.271778 0.638448 
-0.239990 -0.047616 0.262686 -0.720084 -0.271778 0.638448 
0.239990 -0.047616 0.262686 0.720084 -0.271778 0.638448 
0.247522 -0.037576 0.258465 0.720084 -0.271778 0.638448 
0.251604 -0.007956 0.266469 0.720084 -0.271778 0.638448 
-0.108230 0.000349 0.346827 0.140492 -0.240188 0.960506 
-0.101598 -0.047765 0.333825 0.140492 -0.240188 0.960506 
-0.098234 -0.008050 0.343264 0.140492 -0.240188 0.960506 
0.098234 -0.008050 0.343264 -0.140492 -0.240188 0.960506 
0.101598 -0.047765 0.333825 -0.140492 -0.240188 0.960506 
0.108230 0.000349 0.346827 -0.140492 -0.240188 0.960506 
-0.101598 -0.047765 0.333825 0.140485 -0.240187 0.960507 
-0.093916 -0.039379 0.334798 0.140485 -0.240187 0.960507 
-0.098234 -0.008050 0.343264 0.140485 -0.240187 0.960507 
0.098234 -0.008050 0.343264 -0.140485 -0.240187 0.960507 
0.093916 -0.039379 0.334798 -0.140485 -0.240187 0.960507 
0.101598 -0.047765 0.333825 -0.140485 -0.240187 0.960507 
3 0 1 2 
3 3 4 5 
3 6 7 8 
3 9 10 11 
3 12 13 14 
3 15 16 17 
3 12 14 18 
3 19 15 17 
3 20 21 22 
3 23 24 25 
3 26 27 28 
3 29 30 31 
3 32 33 34 
3 35 36 37 
3 32 34 38 
3 39 35 37 
3 40 41 42 
3 43 44 45 
3 46 47 48 
3 49 50 51 
3 52 53 54 
3 55 56 57 
3 58 59 60 
3 61 62 63 
3 64 65 66 
3 67 68 69 
3 70 71 72 
3 73 74 75 
3 76 77 78 
3 79 80 81 
3 82 83 84 
3 85 86 87 
