ply
format ascii 1.0
Created by Blender3D 246 - www.blender.org, source file: mini-asleep.blend
element vertex 24
property float x
property float y
property float z
property float nx
property float ny
property float nz
element face 8
property list uchar uint vertex_indices
end_header
-0.108230 0.000349 0.346827 -0.437741 -0.290285 0.850951 
-0.246622 0.000498 0.275687 -0.437741 -0.290285 0.850951 
-0.239990 -0.047616 0.262686 -0.437741 -0.290285 0.850951 
0.239990 -0.047616 0.262686 0.437741 -0.290285 0.850951 
0.246622 0.000498 0.275687 0.437741 -0.290285 0.850951 
0.108230 0.000349 0.346827 0.437741 -0.290285 0.850951 
-0.246622 0.000498 0.275687 -0.720083 -0.271779 0.638448 
-0.249563 -0.022766 0.262467 -0.720083 -0.271779 0.638448 
-0.239990 -0.047616 0.262686 -0.720083 -0.271779 0.638448 
0.239990 -0.047616 0.262686 0.720083 -0.271779 0.638448 
0.249563 -0.022766 0.262467 0.720083 -0.271779 0.638448 
0.246622 0.000498 0.275687 0.720083 -0.271779 0.638448 
-0.108230 0.000349 0.346827 0.140488 -0.240188 0.960507 
-0.101598 -0.047765 0.333825 0.140488 -0.240188 0.960507 
-0.096075 -0.023714 0.339031 0.140488 -0.240188 0.960507 
0.096075 -0.023714 0.339031 -0.140488 -0.240188 0.960507 
0.101598 -0.047765 0.333825 -0.140488 -0.240188 0.960507 
0.108230 0.000349 0.346827 -0.140488 -0.240188 0.960507 
-0.101598 -0.047765 0.333825 -0.437741 -0.290284 0.850951 
-0.108230 0.000349 0.346827 -0.437741 -0.290284 0.850951 
-0.239990 -0.047616 0.262686 -0.437741 -0.290284 0.850951 
0.239990 -0.047616 0.262686 0.437741 -0.290284 0.850951 
0.108230 0.000349 0.346827 0.437741 -0.290284 0.850951 
0.101598 -0.047765 0.333825 0.437741 -0.290284 0.850951 
3 0 1 2 
3 3 4 5 
3 6 7 8 
3 9 10 11 
3 12 13 14 
3 15 16 17 
3 18 19 20 
3 21 22 23 
