ply
format ascii 1.0
Created by Blender3D 246 - www.blender.org, source file: mini-strained.blend
element vertex 84
property float x
property float y
property float z
property float nx
property float ny
property float nz
element face 28
property list uchar uint vertex_indices
end_header
-0.063042 0.035727 0.334168 -0.110991 0.000003 0.993821 
-0.107065 -0.000000 0.329252 -0.110991 0.000003 0.993821 
-0.063043 -0.035727 0.334168 -0.110991 0.000003 0.993821 
0.062642 -0.035727 0.334168 0.110991 0.000003 0.993821 
0.106663 -0.000000 0.329252 0.110991 0.000003 0.993821 
0.062640 0.035727 0.334168 0.110991 0.000003 0.993821 
-0.063042 0.035727 0.334168 0.000021 0.000000 1.000000 
-0.063043 -0.035727 0.334168 0.000021 0.000000 1.000000 
-0.020211 0.000497 0.334167 0.000021 0.000000 1.000000 
0.019809 0.000497 0.334167 -0.000021 0.000000 1.000000 
0.062642 -0.035727 0.334168 -0.000021 0.000000 1.000000 
0.062640 0.035727 0.334168 -0.000021 0.000000 1.000000 
-0.105945 -0.070561 0.319322 -0.220901 -0.139351 0.965290 
-0.063043 -0.035727 0.334168 -0.220901 -0.139351 0.965290 
-0.107065 -0.000000 0.329252 -0.220901 -0.139351 0.965290 
0.106663 -0.000000 0.329252 0.220901 -0.139351 0.965290 
0.062642 -0.035727 0.334168 0.220901 -0.139351 0.965290 
0.105543 -0.070561 0.319322 0.220901 -0.139351 0.965290 
-0.105945 -0.070561 0.319322 -0.218482 -0.139389 0.965834 
-0.107065 -0.000000 0.329252 -0.218482 -0.139389 0.965834 
-0.147434 -0.037618 0.314691 -0.218482 -0.139389 0.965834 
0.147032 -0.037618 0.314691 0.218482 -0.139389 0.965834 
0.106663 -0.000000 0.329252 0.218482 -0.139389 0.965834 
0.105543 -0.070561 0.319322 0.218482 -0.139389 0.965834 
-0.107065 -0.000000 0.329252 -0.220900 0.139360 0.965289 
-0.063042 0.035727 0.334168 -0.220900 0.139360 0.965289 
-0.105942 0.070561 0.319322 -0.220900 0.139360 0.965289 
0.105540 0.070561 0.319322 0.220900 0.139360 0.965289 
0.062640 0.035727 0.334168 0.220900 0.139360 0.965289 
0.106663 -0.000000 0.329252 0.220900 0.139360 0.965289 
-0.107065 -0.000000 0.329252 -0.218482 0.139399 0.965833 
-0.105942 0.070561 0.319322 -0.218482 0.139399 0.965833 
-0.147432 0.037618 0.314691 -0.218482 0.139399 0.965833 
0.147030 0.037618 0.314691 0.218482 0.139399 0.965833 
0.105540 0.070561 0.319322 0.218482 0.139399 0.965833 
0.106663 -0.000000 0.329252 0.218482 0.139399 0.965833 
-0.147434 -0.037618 0.314691 -0.322948 -0.279812 0.904107 
-0.182953 -0.073026 0.291045 -0.322948 -0.279812 0.904107 
-0.145600 -0.102672 0.295212 -0.322948 -0.279812 0.904107 
0.145198 -0.102672 0.295212 0.322948 -0.279812 0.904107 
0.182551 -0.073026 0.291045 0.322948 -0.279812 0.904107 
0.147032 -0.037618 0.314691 0.322948 -0.279812 0.904107 
-0.147434 -0.037618 0.314691 -0.323080 -0.279802 0.904063 
-0.145600 -0.102672 0.295212 -0.323080 -0.279802 0.904063 
-0.105945 -0.070561 0.319322 -0.323080 -0.279802 0.904063 
0.105543 -0.070561 0.319322 0.323080 -0.279802 0.904063 
0.145198 -0.102672 0.295212 0.323080 -0.279802 0.904063 
0.147032 -0.037618 0.314691 0.323080 -0.279802 0.904063 
-0.145596 0.102672 0.295212 -0.322947 0.279824 0.904104 
-0.182950 0.073026 0.291045 -0.322947 0.279824 0.904104 
-0.147432 0.037618 0.314691 -0.322947 0.279824 0.904104 
0.147030 0.037618 0.314691 0.322947 0.279824 0.904104 
0.182548 0.073026 0.291045 0.322947 0.279824 0.904104 
0.145194 0.102672 0.295212 0.322947 0.279824 0.904104 
-0.145596 0.102672 0.295212 -0.323078 0.279814 0.904060 
-0.147432 0.037618 0.314691 -0.323078 0.279814 0.904060 
-0.105942 0.070561 0.319322 -0.323078 0.279814 0.904060 
0.105540 0.070561 0.319322 0.323078 0.279814 0.904060 
0.147030 0.037618 0.314691 0.323078 0.279814 0.904060 
0.145194 0.102672 0.295212 0.323078 0.279814 0.904060 
-0.182953 -0.073026 0.291045 -0.418377 -0.413636 0.808620 
-0.212239 -0.105614 0.259222 -0.418377 -0.413636 0.808620 
-0.180465 -0.130825 0.262766 -0.418377 -0.413636 0.808620 
0.180063 -0.130825 0.262766 0.418377 -0.413636 0.808620 
0.211838 -0.105614 0.259222 0.418377 -0.413636 0.808620 
0.182551 -0.073026 0.291045 0.418377 -0.413636 0.808620 
-0.182953 -0.073026 0.291045 -0.418488 -0.413617 0.808572 
-0.180465 -0.130825 0.262766 -0.418488 -0.413617 0.808572 
-0.145600 -0.102672 0.295212 -0.418488 -0.413617 0.808572 
0.145198 -0.102672 0.295212 0.418488 -0.413617 0.808572 
0.180063 -0.130825 0.262766 0.418488 -0.413617 0.808572 
0.182551 -0.073026 0.291045 0.418488 -0.413617 0.808572 
-0.180460 0.130825 0.262766 -0.418373 0.413649 0.808615 
-0.212236 0.105614 0.259222 -0.418373 0.413649 0.808615 
-0.182950 0.073026 0.291045 -0.418373 0.413649 0.808615 
0.182548 0.073026 0.291045 0.418373 0.413649 0.808615 
0.211834 0.105614 0.259222 0.418373 0.413649 0.808615 
0.180058 0.130825 0.262766 0.418373 0.413649 0.808615 
-0.180460 0.130825 0.262766 -0.418484 0.413630 0.808567 
-0.182950 0.073026 0.291045 -0.418484 0.413630 0.808567 
-0.145596 0.102672 0.295212 -0.418484 0.413630 0.808567 
0.145194 0.102672 0.295212 0.418484 0.413630 0.808567 
0.182548 0.073026 0.291045 0.418484 0.413630 0.808567 
0.180058 0.130825 0.262766 0.418484 0.413630 0.808567 
3 0 1 2 
3 3 4 5 
3 6 7 8 
3 9 10 11 
3 12 13 14 
3 15 16 17 
3 18 19 20 
3 21 22 23 
3 24 25 26 
3 27 28 29 
3 30 31 32 
3 33 34 35 
3 36 37 38 
3 39 40 41 
3 42 43 44 
3 45 46 47 
3 48 49 50 
3 51 52 53 
3 54 55 56 
3 57 58 59 
3 60 61 62 
3 63 64 65 
3 66 67 68 
3 69 70 71 
3 72 73 74 
3 75 76 77 
3 78 79 80 
3 81 82 83 
