ply
format ascii 1.0
Created by Blender3D 246 - www.blender.org, source file: mini-asleep.blend
element vertex 92
property float x
property float y
property float z
property float nx
property float ny
property float nz
element face 32
property list uchar uint vertex_indices
end_header
-0.145441 -0.040698 0.320134 -0.209623 -0.281896 0.936265 
-0.129608 -0.039188 0.324133 -0.209623 -0.281896 0.936265 
-0.133743 -0.009189 0.332240 -0.209623 -0.281896 0.936265 
0.133743 -0.009189 0.332240 0.209623 -0.281896 0.936265 
0.129608 -0.039188 0.324133 0.209623 -0.281896 0.936265 
0.145441 -0.040698 0.320134 0.209623 -0.281896 0.936265 
-0.145441 -0.040698 0.320134 -0.209621 -0.281896 0.936266 
-0.133743 -0.009189 0.332240 -0.209621 -0.281896 0.936266 
-0.149679 -0.009951 0.328443 -0.209621 -0.281896 0.936266 
0.149679 -0.009951 0.328443 0.209621 -0.281896 0.936266 
0.133743 -0.009189 0.332240 0.209621 -0.281896 0.936266 
0.145441 -0.040698 0.320134 0.209621 -0.281896 0.936266 
-0.160885 -0.041603 0.314695 -0.303164 -0.287313 0.908594 
-0.145441 -0.040698 0.320134 -0.303164 -0.287313 0.908594 
-0.149679 -0.009951 0.328443 -0.303164 -0.287313 0.908594 
0.149679 -0.009951 0.328443 0.303164 -0.287313 0.908594 
0.145441 -0.040698 0.320134 0.303164 -0.287313 0.908594 
0.160885 -0.041603 0.314695 0.303164 -0.287313 0.908594 
-0.160885 -0.041603 0.314695 -0.303166 -0.287312 0.908594 
-0.149679 -0.009951 0.328443 -0.303166 -0.287312 0.908594 
-0.165185 -0.010405 0.323125 -0.303166 -0.287312 0.908594 
0.165185 -0.010405 0.323125 0.303166 -0.287312 0.908594 
0.149679 -0.009951 0.328443 0.303166 -0.287312 0.908594 
0.160885 -0.041603 0.314695 0.303166 -0.287312 0.908594 
-0.175793 -0.041895 0.307867 -0.393790 -0.289985 0.872261 
-0.160885 -0.041603 0.314695 -0.393790 -0.289985 0.872261 
-0.165185 -0.010405 0.323125 -0.393790 -0.289985 0.872261 
0.165185 -0.010405 0.323125 0.393790 -0.289985 0.872261 
0.160885 -0.041603 0.314695 0.393790 -0.289985 0.872261 
0.175793 -0.041895 0.307867 0.393790 -0.289985 0.872261 
-0.175793 -0.041895 0.307867 -0.393789 -0.289985 0.872261 
-0.165185 -0.010405 0.323125 -0.393789 -0.289985 0.872261 
-0.180114 -0.010546 0.316338 -0.393789 -0.289985 0.872261 
0.180114 -0.010546 0.316338 0.393789 -0.289985 0.872261 
0.165185 -0.010405 0.323125 0.393789 -0.289985 0.872261 
0.175793 -0.041895 0.307867 0.393789 -0.289985 0.872261 
-0.194321 -0.010374 0.308148 -0.480647 -0.289892 0.827612 
-0.190021 -0.041572 0.299718 -0.480647 -0.289892 0.827612 
-0.175793 -0.041895 0.307867 -0.480647 -0.289892 0.827612 
0.175793 -0.041895 0.307867 0.480647 -0.289892 0.827612 
0.190021 -0.041572 0.299718 0.480647 -0.289892 0.827612 
0.194321 -0.010374 0.308148 0.480647 -0.289892 0.827612 
-0.180114 -0.010546 0.316338 -0.480647 -0.289892 0.827612 
0.180114 -0.010546 0.316338 0.480647 -0.289892 0.827612 
-0.203431 -0.040635 0.290324 -0.562929 -0.287033 0.775063 
-0.190021 -0.041572 0.299718 -0.562929 -0.287033 0.775063 
-0.194321 -0.010374 0.308148 -0.562929 -0.287033 0.775063 
0.194321 -0.010374 0.308148 0.562929 -0.287033 0.775063 
0.190021 -0.041572 0.299718 0.562929 -0.287033 0.775063 
0.203431 -0.040635 0.290324 0.562929 -0.287033 0.775063 
-0.203431 -0.040635 0.290324 -0.562929 -0.287034 0.775063 
-0.194321 -0.010374 0.308148 -0.562929 -0.287034 0.775063 
-0.207669 -0.009889 0.298633 -0.562929 -0.287034 0.775063 
0.207669 -0.009889 0.298633 0.562929 -0.287034 0.775063 
0.194321 -0.010374 0.308148 0.562929 -0.287034 0.775063 
0.203431 -0.040635 0.290324 0.562929 -0.287034 0.775063 
-0.215895 -0.039095 0.279778 -0.639864 -0.281435 0.715101 
-0.203431 -0.040635 0.290324 -0.639864 -0.281435 0.715101 
-0.207669 -0.009889 0.298633 -0.639864 -0.281435 0.715101 
0.207669 -0.009889 0.298633 0.639864 -0.281435 0.715101 
0.203431 -0.040635 0.290324 0.639864 -0.281435 0.715101 
0.215895 -0.039095 0.279778 0.639864 -0.281435 0.715101 
-0.207669 -0.009889 0.298633 -0.639865 -0.281434 0.715100 
-0.220030 -0.009096 0.287884 -0.639865 -0.281434 0.715100 
-0.215895 -0.039095 0.279778 -0.639865 -0.281434 0.715100 
0.215895 -0.039095 0.279778 0.639865 -0.281434 0.715100 
0.220030 -0.009096 0.287884 0.639865 -0.281434 0.715100 
0.207669 -0.009889 0.298633 0.639865 -0.281434 0.715100 
-0.220030 -0.009096 0.287884 -0.720086 -0.271778 0.638446 
-0.223136 -0.014367 0.282137 -0.720086 -0.271778 0.638446 
-0.215895 -0.039095 0.279778 -0.720086 -0.271778 0.638446 
0.215895 -0.039095 0.279778 0.720086 -0.271778 0.638446 
0.223136 -0.014367 0.282137 0.720086 -0.271778 0.638446 
0.220030 -0.009096 0.287884 0.720086 -0.271778 0.638446 
-0.223136 -0.014367 0.282137 -0.720083 -0.271777 0.638449 
-0.220591 -0.032835 0.277146 -0.720083 -0.271777 0.638449 
-0.215895 -0.039095 0.279778 -0.720083 -0.271777 0.638449 
0.215895 -0.039095 0.279778 0.720083 -0.271777 0.638449 
0.220591 -0.032835 0.277146 0.720083 -0.271777 0.638449 
0.223136 -0.014367 0.282137 0.720083 -0.271777 0.638449 
-0.133743 -0.009189 0.332240 0.140489 -0.240188 0.960506 
-0.129608 -0.039188 0.324133 0.140489 -0.240188 0.960506 
-0.127510 -0.014426 0.330019 0.140489 -0.240188 0.960506 
0.127510 -0.014426 0.330019 -0.140489 -0.240188 0.960506 
0.129608 -0.039188 0.324133 -0.140489 -0.240188 0.960506 
0.133743 -0.009189 0.332240 -0.140489 -0.240188 0.960506 
-0.129608 -0.039188 0.324133 0.140484 -0.240188 0.960507 
-0.124818 -0.033960 0.324740 0.140484 -0.240188 0.960507 
-0.127510 -0.014426 0.330019 0.140484 -0.240188 0.960507 
0.127510 -0.014426 0.330019 -0.140484 -0.240188 0.960507 
0.124818 -0.033960 0.324740 -0.140484 -0.240188 0.960507 
0.129608 -0.039188 0.324133 -0.140484 -0.240188 0.960507 
3 0 1 2 
3 3 4 5 
3 6 7 8 
3 9 10 11 
3 12 13 14 
3 15 16 17 
3 18 19 20 
3 21 22 23 
3 24 25 26 
3 27 28 29 
3 30 31 32 
3 33 34 35 
3 36 37 38 
3 39 40 41 
3 36 38 42 
3 43 39 41 
3 44 45 46 
3 47 48 49 
3 50 51 52 
3 53 54 55 
3 56 57 58 
3 59 60 61 
3 62 63 64 
3 65 66 67 
3 68 69 70 
3 71 72 73 
3 74 75 76 
3 77 78 79 
3 80 81 82 
3 83 84 85 
3 86 87 88 
3 89 90 91 
