ply
format ascii 1.0
Created by Blender3D 246 - www.blender.org, source file: player-normal.blend
element vertex 252
property float x
property float y
property float z
property float nx
property float ny
property float nz
element face 84
property list uchar uint vertex_indices
end_header
-0.255688 0.049663 0.447401 -0.530356 -0.047967 0.846417 
-0.246823 -0.048354 0.447401 -0.530356 -0.047967 0.846417 
-0.225670 -0.048354 0.460656 -0.530356 -0.047967 0.846417 
0.225670 -0.048354 0.460656 0.530356 -0.047967 0.846417 
0.246823 -0.048354 0.447401 0.530356 -0.047967 0.846417 
0.255688 0.049663 0.447401 0.530356 -0.047967 0.846417 
-0.255688 0.049663 0.447401 -0.427585 -0.008716 0.903933 
-0.225670 -0.048354 0.460656 -0.427585 -0.008716 0.903933 
-0.215357 0.049663 0.466479 -0.427585 -0.008716 0.903933 
0.215357 0.049663 0.466479 0.427585 -0.008716 0.903933 
0.225670 -0.048354 0.460656 0.427585 -0.008716 0.903933 
0.255688 0.049663 0.447401 0.427585 -0.008716 0.903933 
-0.225670 -0.048354 0.460656 -0.530274 -0.051069 0.846287 
-0.246823 -0.048354 0.447401 -0.530274 -0.051069 0.846287 
-0.252203 -0.096891 0.441101 -0.530274 -0.051069 0.846287 
0.252203 -0.096891 0.441101 0.530274 -0.051069 0.846287 
0.246823 -0.048354 0.447401 0.530274 -0.051069 0.846287 
0.225670 -0.048354 0.460656 0.530274 -0.051069 0.846287 
-0.225670 -0.048354 0.460656 -0.391336 -0.151743 0.907651 
-0.252203 -0.096891 0.441101 -0.391336 -0.151743 0.907651 
-0.208064 -0.096891 0.460132 -0.391336 -0.151743 0.907651 
0.208064 -0.096891 0.460132 0.391336 -0.151743 0.907651 
0.252203 -0.096891 0.441101 0.391336 -0.151743 0.907651 
0.225670 -0.048354 0.460656 0.391336 -0.151743 0.907651 
-0.153176 -0.049009 0.490974 -0.381105 -0.176961 0.907438 
-0.225670 -0.048354 0.460656 -0.381105 -0.176961 0.907438 
-0.187665 -0.097545 0.467024 -0.381105 -0.176961 0.907438 
0.187665 -0.097545 0.467024 0.381105 -0.176961 0.907438 
0.225670 -0.048354 0.460656 0.381105 -0.176961 0.907438 
0.153176 -0.049009 0.490974 0.381105 -0.176961 0.907438 
-0.225670 -0.048354 0.460656 -0.321153 -0.126619 0.938525 
-0.208064 -0.096891 0.460132 -0.321153 -0.126619 0.938525 
-0.187665 -0.097545 0.467024 -0.321153 -0.126619 0.938525 
0.187665 -0.097545 0.467024 0.321153 -0.126619 0.938525 
0.208064 -0.096891 0.460132 0.321153 -0.126619 0.938525 
0.225670 -0.048354 0.460656 0.321153 -0.126619 0.938525 
-0.208064 0.098200 0.460132 -0.389688 0.176745 0.903828 
-0.252203 0.098200 0.441101 -0.389688 0.176745 0.903828 
-0.215357 0.049663 0.466479 -0.389688 0.176745 0.903828 
0.215357 0.049663 0.466479 0.389688 0.176745 0.903828 
0.252203 0.098200 0.441101 0.389688 0.176745 0.903828 
0.208064 0.098200 0.460132 0.389688 0.176745 0.903828 
-0.252203 0.098200 0.441101 -0.422991 0.146441 0.894222 
-0.255688 0.049663 0.447401 -0.422991 0.146441 0.894222 
-0.215357 0.049663 0.466479 -0.422991 0.146441 0.894222 
0.215357 0.049663 0.466479 0.422991 0.146441 0.894222 
0.255688 0.049663 0.447401 0.422991 0.146441 0.894222 
0.252203 0.098200 0.441101 0.422991 0.146441 0.894222 
-0.187665 0.097545 0.467024 -0.310610 0.168991 0.935395 
-0.208064 0.098200 0.460132 -0.310610 0.168991 0.935395 
-0.215357 0.049663 0.466479 -0.310610 0.168991 0.935395 
0.215357 0.049663 0.466479 0.310610 0.168991 0.935395 
0.208064 0.098200 0.460132 0.310610 0.168991 0.935395 
0.187665 0.097545 0.467024 0.310610 0.168991 0.935395 
-0.187665 0.097545 0.467024 -0.357586 0.196414 0.912992 
-0.215357 0.049663 0.466479 -0.357586 0.196414 0.912992 
-0.153176 0.049009 0.490974 -0.357586 0.196414 0.912992 
0.153176 0.049009 0.490974 0.357586 0.196414 0.912992 
0.215357 0.049663 0.466479 0.357586 0.196414 0.912992 
0.187665 0.097545 0.467024 0.357586 0.196414 0.912992 
-0.291781 0.098200 0.413825 -0.685808 0.168854 0.707923 
-0.346760 0.097545 0.360720 -0.685808 0.168854 0.707923 
-0.296922 0.049663 0.420422 -0.685808 0.168854 0.707923 
0.296922 0.049663 0.420422 0.685808 0.168854 0.707923 
0.346760 0.097545 0.360720 0.685808 0.168854 0.707923 
0.291781 0.098200 0.413825 0.685808 0.168854 0.707923 
-0.346760 0.097545 0.360720 -0.631175 0.255972 0.732186 
-0.378034 0.049009 0.350729 -0.631175 0.255972 0.732186 
-0.296922 0.049663 0.420422 -0.631175 0.255972 0.732186 
0.296922 0.049663 0.420422 0.631175 0.255972 0.732186 
0.378034 0.049009 0.350729 0.631175 0.255972 0.732186 
0.346760 0.097545 0.360720 0.631175 0.255972 0.732186 
-0.252203 0.098200 0.441101 -0.559248 0.169524 0.811482 
-0.291781 0.098200 0.413825 -0.559248 0.169524 0.811482 
-0.296922 0.049663 0.420422 -0.559248 0.169524 0.811482 
0.296922 0.049663 0.420422 0.559248 0.169524 0.811482 
0.291781 0.098200 0.413825 0.559248 0.169524 0.811482 
0.252203 0.098200 0.441101 0.559248 0.169524 0.811482 
-0.252203 0.098200 0.441101 -0.541620 0.146335 0.827789 
-0.296922 0.049663 0.420422 -0.541620 0.146335 0.827789 
-0.255688 0.049663 0.447401 -0.541620 0.146335 0.827789 
0.255688 0.049663 0.447401 0.541620 0.146335 0.827789 
0.296922 0.049663 0.420422 0.541620 0.146335 0.827789 
0.252203 0.098200 0.441101 0.541620 0.146335 0.827789 
-0.286609 -0.048354 0.426245 -0.616677 -0.243231 0.748697 
-0.378034 -0.049009 0.350729 -0.616677 -0.243231 0.748697 
-0.346760 -0.097545 0.360720 -0.616677 -0.243231 0.748697 
0.346760 -0.097545 0.360720 0.616677 -0.243231 0.748697 
0.378034 -0.049009 0.350729 0.616677 -0.243231 0.748697 
0.286609 -0.048354 0.426245 0.616677 -0.243231 0.748697 
-0.286609 -0.048354 0.426245 -0.689885 -0.109593 0.715575 
-0.346760 -0.097545 0.360720 -0.689885 -0.109593 0.715575 
-0.291781 -0.096891 0.413825 -0.689885 -0.109593 0.715575 
0.291781 -0.096891 0.413825 0.689885 -0.109593 0.715575 
0.346760 -0.097545 0.360720 0.689885 -0.109593 0.715575 
0.286609 -0.048354 0.426245 0.689885 -0.109593 0.715575 
-0.246823 -0.048354 0.447401 -0.468579 -0.062441 0.881212 
-0.286609 -0.048354 0.426245 -0.468579 -0.062441 0.881212 
-0.252203 -0.096891 0.441101 -0.468579 -0.062441 0.881212 
0.252203 -0.096891 0.441101 0.468579 -0.062441 0.881212 
0.286609 -0.048354 0.426245 0.468579 -0.062441 0.881212 
0.246823 -0.048354 0.447401 0.468579 -0.062441 0.881212 
-0.286609 -0.048354 0.426245 -0.561164 -0.148563 0.814263 
-0.291781 -0.096891 0.413825 -0.561164 -0.148563 0.814263 
-0.252203 -0.096891 0.441101 -0.561164 -0.148563 0.814263 
0.252203 -0.096891 0.441101 0.561164 -0.148563 0.814263 
0.291781 -0.096891 0.413825 0.561164 -0.148563 0.814263 
0.286609 -0.048354 0.426245 0.561164 -0.148563 0.814263 
-0.378034 0.049009 0.350729 -0.835160 0.241286 0.494256 
-0.393996 0.085411 0.305986 -0.835160 0.241286 0.494256 
-0.413733 0.049009 0.290408 -0.835160 0.241286 0.494256 
0.413733 0.049009 0.290408 0.835160 0.241286 0.494256 
0.393996 0.085411 0.305986 0.835160 0.241286 0.494256 
0.378034 0.049009 0.350729 0.835160 0.241286 0.494256 
-0.393996 0.085411 0.305986 -0.764723 0.146038 0.627591 
-0.410740 0.073277 0.288408 -0.764723 0.146038 0.627591 
-0.413733 0.049009 0.290408 -0.764723 0.146038 0.627591 
0.413733 0.049009 0.290408 0.764723 0.146038 0.627591 
0.410740 0.073277 0.288408 0.764723 0.146038 0.627591 
0.393996 0.085411 0.305986 0.764723 0.146038 0.627591 
-0.346760 0.097545 0.360720 -0.725568 0.344938 0.595457 
-0.377253 0.097545 0.323564 -0.725568 0.344938 0.595457 
-0.378034 0.049009 0.350729 -0.725568 0.344938 0.595457 
0.378034 0.049009 0.350729 0.725568 0.344938 0.595457 
0.377253 0.097545 0.323564 0.725568 0.344938 0.595457 
0.346760 0.097545 0.360720 0.725568 0.344938 0.595457 
-0.377253 0.097545 0.323564 -0.786152 0.311425 0.533836 
-0.393996 0.085411 0.305986 -0.786152 0.311425 0.533836 
-0.378034 0.049009 0.350729 -0.786152 0.311425 0.533836 
0.378034 0.049009 0.350729 0.786152 0.311425 0.533836 
0.393996 0.085411 0.305986 0.786152 0.311425 0.533836 
0.377253 0.097545 0.323564 0.786152 0.311425 0.533836 
-0.378034 -0.049009 0.350729 -0.786152 -0.311425 0.533836 
-0.393996 -0.085411 0.305986 -0.786152 -0.311425 0.533836 
-0.377253 -0.097545 0.323564 -0.786152 -0.311425 0.533836 
0.377253 -0.097545 0.323564 0.786152 -0.311425 0.533836 
0.393996 -0.085411 0.305986 0.786152 -0.311425 0.533836 
0.378034 -0.049009 0.350729 0.786152 -0.311425 0.533836 
-0.378034 -0.049009 0.350729 -0.725568 -0.344938 0.595457 
-0.377253 -0.097545 0.323564 -0.725568 -0.344938 0.595457 
-0.346760 -0.097545 0.360720 -0.725568 -0.344938 0.595457 
0.346760 -0.097545 0.360720 0.725568 -0.344938 0.595457 
0.377253 -0.097545 0.323564 0.725568 -0.344938 0.595457 
0.378034 -0.049009 0.350729 0.725568 -0.344938 0.595457 
-0.413733 -0.049009 0.290408 -0.764723 -0.146038 0.627591 
-0.410740 -0.073277 0.288408 -0.764723 -0.146038 0.627591 
-0.393996 -0.085411 0.305986 -0.764723 -0.146038 0.627591 
0.393996 -0.085411 0.305986 0.764723 -0.146038 0.627591 
0.410740 -0.073277 0.288408 0.764723 -0.146038 0.627591 
0.413733 -0.049009 0.290408 0.764723 -0.146038 0.627591 
-0.413733 -0.049009 0.290408 -0.835160 -0.241286 0.494256 
-0.393996 -0.085411 0.305986 -0.835160 -0.241286 0.494256 
-0.378034 -0.049009 0.350729 -0.835160 -0.241286 0.494256 
0.378034 -0.049009 0.350729 0.835160 -0.241286 0.494256 
0.393996 -0.085411 0.305986 0.835160 -0.241286 0.494256 
0.413733 -0.049009 0.290408 0.835160 -0.241286 0.494256 
-0.153176 -0.049009 0.490974 -0.188415 -0.209862 0.959405 
-0.119021 -0.085411 0.489719 -0.188415 -0.209862 0.959405 
-0.097075 -0.049009 0.501991 -0.188415 -0.209862 0.959405 
0.097075 -0.049009 0.501991 0.188415 -0.209862 0.959405 
0.119021 -0.085411 0.489719 0.188415 -0.209862 0.959405 
0.153176 -0.049009 0.490974 0.188415 -0.209862 0.959405 
-0.119021 -0.085411 0.489719 -0.287174 -0.146036 0.946681 
-0.096373 -0.073277 0.498461 -0.287174 -0.146036 0.946681 
-0.097075 -0.049009 0.501991 -0.287174 -0.146036 0.946681 
0.097075 -0.049009 0.501991 0.287174 -0.146036 0.946681 
0.096373 -0.073277 0.498461 0.287174 -0.146036 0.946681 
0.119021 -0.085411 0.489719 0.287174 -0.146036 0.946681 
-0.187665 -0.097545 0.467024 -0.280535 -0.256992 0.924800 
-0.141668 -0.097545 0.480977 -0.280535 -0.256992 0.924800 
-0.153176 -0.049009 0.490974 -0.280535 -0.256992 0.924800 
0.153176 -0.049009 0.490974 0.280535 -0.256992 0.924800 
0.141668 -0.097545 0.480977 0.280535 -0.256992 0.924800 
0.187665 -0.097545 0.467024 0.280535 -0.256992 0.924800 
-0.141668 -0.097545 0.480977 -0.230130 -0.248364 0.940933 
-0.119021 -0.085411 0.489719 -0.230130 -0.248364 0.940933 
-0.153176 -0.049009 0.490974 -0.230130 -0.248364 0.940933 
0.153176 -0.049009 0.490974 0.230130 -0.248364 0.940933 
0.119021 -0.085411 0.489719 0.230130 -0.248364 0.940933 
0.141668 -0.097545 0.480977 0.230130 -0.248364 0.940933 
-0.153176 0.049009 0.490974 -0.230130 0.248364 0.940933 
-0.119021 0.085411 0.489719 -0.230130 0.248364 0.940933 
-0.141668 0.097545 0.480977 -0.230130 0.248364 0.940933 
0.141668 0.097545 0.480977 0.230130 0.248364 0.940933 
0.119021 0.085411 0.489719 0.230130 0.248364 0.940933 
0.153176 0.049009 0.490974 0.230130 0.248364 0.940933 
-0.153176 0.049009 0.490974 -0.280535 0.256992 0.924800 
-0.141668 0.097545 0.480977 -0.280535 0.256992 0.924800 
-0.187665 0.097545 0.467024 -0.280535 0.256992 0.924800 
0.187665 0.097545 0.467024 0.280535 0.256992 0.924800 
0.141668 0.097545 0.480977 0.280535 0.256992 0.924800 
0.153176 0.049009 0.490974 0.280535 0.256992 0.924800 
-0.097075 0.049009 0.501991 -0.287174 0.146036 0.946681 
-0.096373 0.073277 0.498461 -0.287174 0.146036 0.946681 
-0.119021 0.085411 0.489719 -0.287174 0.146036 0.946681 
0.119021 0.085411 0.489719 0.287174 0.146036 0.946681 
0.096373 0.073277 0.498461 0.287174 0.146036 0.946681 
0.097075 0.049009 0.501991 0.287174 0.146036 0.946681 
-0.097075 0.049009 0.501991 -0.188415 0.209862 0.959405 
-0.119021 0.085411 0.489719 -0.188415 0.209862 0.959405 
-0.153176 0.049009 0.490974 -0.188415 0.209862 0.959405 
0.153176 0.049009 0.490974 0.188415 0.209862 0.959405 
0.119021 0.085411 0.489719 0.188415 0.209862 0.959405 
0.097075 0.049009 0.501991 0.188415 0.209862 0.959405 
-0.379737 0.000000 0.352431 -0.859095 -0.047546 0.509603 
-0.415735 0.000000 0.291745 -0.859095 -0.047546 0.509603 
-0.378034 -0.049009 0.350729 -0.859095 -0.047546 0.509603 
0.378034 -0.049009 0.350729 0.859095 -0.047546 0.509603 
0.415735 0.000000 0.291745 0.859095 -0.047546 0.509603 
0.379737 0.000000 0.352431 0.859095 -0.047546 0.509603 
-0.415735 0.000000 0.291745 -0.859553 -0.048994 0.508692 
-0.413733 -0.049009 0.290408 -0.859553 -0.048994 0.508692 
-0.378034 -0.049009 0.350729 -0.859553 -0.048994 0.508692 
0.378034 -0.049009 0.350729 0.859553 -0.048994 0.508692 
0.413733 -0.049009 0.290408 0.859553 -0.048994 0.508692 
0.415735 0.000000 0.291745 0.859553 -0.048994 0.508692 
-0.378034 0.049009 0.350729 -0.859553 0.048994 0.508692 
-0.413733 0.049009 0.290408 -0.859553 0.048994 0.508692 
-0.415735 0.000000 0.291745 -0.859553 0.048994 0.508692 
0.415735 0.000000 0.291745 0.859553 0.048994 0.508692 
0.413733 0.049009 0.290408 0.859553 0.048994 0.508692 
0.378034 0.049009 0.350729 0.859553 0.048994 0.508692 
-0.378034 0.049009 0.350729 -0.859095 0.047546 0.509603 
-0.415735 0.000000 0.291745 -0.859095 0.047546 0.509603 
-0.379737 0.000000 0.352431 -0.859095 0.047546 0.509603 
0.379737 0.000000 0.352431 0.859095 0.047546 0.509603 
0.415735 0.000000 0.291745 0.859095 0.047546 0.509603 
0.378034 0.049009 0.350729 0.859095 0.047546 0.509603 
-0.097075 0.049009 0.501991 -0.192475 0.049067 0.980074 
-0.153176 0.049009 0.490974 -0.192475 0.049067 0.980074 
-0.097545 0.000000 0.504353 -0.192475 0.049067 0.980074 
0.097545 0.000000 0.504353 0.192475 0.049067 0.980074 
0.153176 0.049009 0.490974 0.192475 0.049067 0.980074 
0.097075 0.049009 0.501991 0.192475 0.049067 0.980074 
-0.153176 0.049009 0.490974 -0.193290 0.048110 0.979961 
-0.154097 0.000000 0.493198 -0.193290 0.048110 0.979961 
-0.097545 0.000000 0.504353 -0.193290 0.048110 0.979961 
0.097545 0.000000 0.504353 0.193290 0.048110 0.979961 
0.154097 0.000000 0.493198 0.193290 0.048110 0.979961 
0.153176 0.049009 0.490974 0.193290 0.048110 0.979961 
-0.097545 0.000000 0.504353 -0.193290 -0.048111 0.979961 
-0.154097 0.000000 0.493198 -0.193290 -0.048111 0.979961 
-0.153176 -0.049009 0.490974 -0.193290 -0.048111 0.979961 
0.153176 -0.049009 0.490974 0.193290 -0.048111 0.979961 
0.154097 0.000000 0.493198 0.193290 -0.048111 0.979961 
0.097545 0.000000 0.504353 0.193290 -0.048111 0.979961 
-0.097545 0.000000 0.504353 -0.192475 -0.049068 0.980074 
-0.153176 -0.049009 0.490974 -0.192475 -0.049068 0.980074 
-0.097075 -0.049009 0.501991 -0.192475 -0.049068 0.980074 
0.097075 -0.049009 0.501991 0.192475 -0.049068 0.980074 
0.153176 -0.049009 0.490974 0.192475 -0.049068 0.980074 
0.097545 0.000000 0.504353 0.192475 -0.049068 0.980074 
3 0 1 2 
3 3 4 5 
3 6 7 8 
3 9 10 11 
3 12 13 14 
3 15 16 17 
3 18 19 20 
3 21 22 23 
3 24 25 26 
3 27 28 29 
3 30 31 32 
3 33 34 35 
3 36 37 38 
3 39 40 41 
3 42 43 44 
3 45 46 47 
3 48 49 50 
3 51 52 53 
3 54 55 56 
3 57 58 59 
3 60 61 62 
3 63 64 65 
3 66 67 68 
3 69 70 71 
3 72 73 74 
3 75 76 77 
3 78 79 80 
3 81 82 83 
3 84 85 86 
3 87 88 89 
3 90 91 92 
3 93 94 95 
3 96 97 98 
3 99 100 101 
3 102 103 104 
3 105 106 107 
3 108 109 110 
3 111 112 113 
3 114 115 116 
3 117 118 119 
3 120 121 122 
3 123 124 125 
3 126 127 128 
3 129 130 131 
3 132 133 134 
3 135 136 137 
3 138 139 140 
3 141 142 143 
3 144 145 146 
3 147 148 149 
3 150 151 152 
3 153 154 155 
3 156 157 158 
3 159 160 161 
3 162 163 164 
3 165 166 167 
3 168 169 170 
3 171 172 173 
3 174 175 176 
3 177 178 179 
3 180 181 182 
3 183 184 185 
3 186 187 188 
3 189 190 191 
3 192 193 194 
3 195 196 197 
3 198 199 200 
3 201 202 203 
3 204 205 206 
3 207 208 209 
3 210 211 212 
3 213 214 215 
3 216 217 218 
3 219 220 221 
3 222 223 224 
3 225 226 227 
3 228 229 230 
3 231 232 233 
3 234 235 236 
3 237 238 239 
3 240 241 242 
3 243 244 245 
3 246 247 248 
3 249 250 251 
