ply
format ascii 1.0
Created by Blender3D 246 - www.blender.org, source file: player-normal.blend
element vertex 140
property float x
property float y
property float z
property float nx
property float ny
property float nz
element face 48
property list uchar uint vertex_indices
end_header
-0.110589 0.095096 0.496218 -0.522945 -0.112488 0.844911 
-0.200358 0.122345 0.444284 -0.522945 -0.112488 0.844911 
-0.161574 0.054197 0.459216 -0.522945 -0.112488 0.844911 
0.161574 0.054197 0.459216 0.522945 -0.112488 0.844911 
0.200358 0.122345 0.444284 0.522945 -0.112488 0.844911 
0.110589 0.095096 0.496218 0.522945 -0.112488 0.844911 
-0.200358 0.122345 0.444284 -0.398835 -0.026137 0.916650 
-0.242314 0.064020 0.424366 -0.398835 -0.026137 0.916650 
-0.161574 0.054197 0.459216 -0.398835 -0.026137 0.916650 
0.161574 0.054197 0.459216 0.398835 -0.026137 0.916650 
0.242314 0.064020 0.424366 0.398835 -0.026137 0.916650 
0.200358 0.122345 0.444284 0.398835 -0.026137 0.916650 
-0.200358 0.122345 0.444284 -0.499719 0.064487 0.863784 
-0.294810 0.122345 0.389641 -0.499719 0.064487 0.863784 
-0.242314 0.064020 0.424366 -0.499719 0.064487 0.863784 
0.242314 0.064020 0.424366 0.499719 0.064487 0.863784 
0.294810 0.122345 0.389641 0.499719 0.064487 0.863784 
0.200358 0.122345 0.444284 0.499719 0.064487 0.863784 
-0.294810 0.122345 0.389641 -0.483840 0.083191 0.871193 
-0.331972 0.062576 0.374710 -0.483840 0.083191 0.871193 
-0.242314 0.064020 0.424366 -0.483840 0.083191 0.871193 
0.242314 0.064020 0.424366 0.483840 0.083191 0.871193 
0.331972 0.062576 0.374710 0.483840 0.083191 0.871193 
0.294810 0.122345 0.389641 0.483840 0.083191 0.871193 
-0.294810 0.122345 0.389641 -0.523260 0.114378 0.844462 
-0.384579 0.095096 0.337708 -0.523260 0.114378 0.844462 
-0.331972 0.062576 0.374710 -0.523260 0.114378 0.844462 
0.331972 0.062576 0.374710 0.523260 0.114378 0.844462 
0.384579 0.095096 0.337708 0.523260 0.114378 0.844462 
0.294810 0.122345 0.389641 0.523260 0.114378 0.844462 
-0.384579 0.095096 0.337708 -0.551642 0.054617 0.832291 
-0.368118 0.016391 0.353783 -0.551642 0.054617 0.832291 
-0.331972 0.062576 0.374710 -0.551642 0.054617 0.832291 
0.331972 0.062576 0.374710 0.551642 0.054617 0.832291 
0.368118 0.016391 0.353783 0.551642 0.054617 0.832291 
0.384579 0.095096 0.337708 0.551642 0.054617 0.832291 
-0.384579 0.095096 0.337708 -0.560278 0.051667 0.826691 
-0.423833 0.032782 0.314998 -0.560278 0.051667 0.826691 
-0.368118 0.016391 0.353783 -0.560278 0.051667 0.826691 
0.368118 0.016391 0.353783 0.560278 0.051667 0.826691 
0.423833 0.032782 0.314998 0.560278 0.051667 0.826691 
0.384579 0.095096 0.337708 0.560278 0.051667 0.826691 
-0.423833 0.032782 0.314998 -0.571325 -0.000002 0.820724 
-0.368118 -0.016391 0.353783 -0.571325 -0.000002 0.820724 
-0.368118 0.016391 0.353783 -0.571325 -0.000002 0.820724 
0.368118 0.016391 0.353783 0.571325 -0.000002 0.820724 
0.368118 -0.016391 0.353783 0.571325 -0.000002 0.820724 
0.423833 0.032782 0.314998 0.571325 -0.000002 0.820724 
-0.423833 0.032782 0.314998 -0.571324 -0.000000 0.820725 
-0.423833 -0.032782 0.314998 -0.571324 -0.000000 0.820725 
-0.368118 -0.016391 0.353783 -0.571324 -0.000000 0.820725 
0.368118 -0.016391 0.353783 0.571324 -0.000000 0.820725 
0.423833 -0.032782 0.314998 0.571324 -0.000000 0.820725 
0.423833 0.032782 0.314998 0.571324 -0.000000 0.820725 
-0.423833 -0.032782 0.314998 -0.560278 -0.051666 0.826692 
-0.384579 -0.095096 0.337708 -0.560278 -0.051666 0.826692 
-0.368118 -0.016391 0.353783 -0.560278 -0.051666 0.826692 
0.368118 -0.016391 0.353783 0.560278 -0.051666 0.826692 
0.384579 -0.095096 0.337708 0.560278 -0.051666 0.826692 
0.423833 -0.032782 0.314998 0.560278 -0.051666 0.826692 
-0.368118 -0.016391 0.353783 -0.528379 -0.062426 0.846711 
-0.384579 -0.095096 0.337708 -0.528379 -0.062426 0.846711 
-0.342027 -0.055927 0.367150 -0.528379 -0.062426 0.846711 
0.342027 -0.055927 0.367150 0.528379 -0.062426 0.846711 
0.384579 -0.095096 0.337708 0.528379 -0.062426 0.846711 
0.368118 -0.016391 0.353783 0.528379 -0.062426 0.846711 
-0.384579 -0.095096 0.337708 -0.517044 -0.078948 0.852310 
-0.294810 -0.122345 0.389641 -0.517044 -0.078948 0.852310 
-0.342027 -0.055927 0.367150 -0.517044 -0.078948 0.852310 
0.342027 -0.055927 0.367150 0.517044 -0.078948 0.852310 
0.294810 -0.122345 0.389641 0.517044 -0.078948 0.852310 
0.384579 -0.095096 0.337708 0.517044 -0.078948 0.852310 
-0.342027 -0.055927 0.367150 -0.450173 -0.017708 0.892766 
-0.294810 -0.122345 0.389641 -0.450173 -0.017708 0.892766 
-0.271590 -0.069551 0.402397 -0.450173 -0.017708 0.892766 
0.271590 -0.069551 0.402397 0.450173 -0.017708 0.892766 
0.294810 -0.122345 0.389641 0.450173 -0.017708 0.892766 
0.342027 -0.055927 0.367150 0.450173 -0.017708 0.892766 
-0.294810 -0.122345 0.389641 -0.469948 -0.006571 0.882670 
-0.216874 -0.069551 0.431528 -0.469948 -0.006571 0.882670 
-0.271590 -0.069551 0.402397 -0.469948 -0.006571 0.882670 
0.271590 -0.069551 0.402397 0.469948 -0.006571 0.882670 
0.216874 -0.069551 0.431528 0.469948 -0.006571 0.882670 
0.294810 -0.122345 0.389641 0.469948 -0.006571 0.882670 
-0.294810 -0.122345 0.389641 -0.526960 0.109188 0.842847 
-0.200358 -0.122345 0.448694 -0.526960 0.109188 0.842847 
-0.216874 -0.069551 0.431528 -0.526960 0.109188 0.842847 
0.216874 -0.069551 0.431528 0.526960 0.109188 0.842847 
0.200358 -0.122345 0.448694 0.526960 0.109188 0.842847 
0.294810 -0.122345 0.389641 0.526960 0.109188 0.842847 
-0.200358 -0.122345 0.448694 -0.610071 0.065875 0.789603 
-0.159844 -0.050900 0.474036 -0.610071 0.065875 0.789603 
-0.216874 -0.069551 0.431528 -0.610071 0.065875 0.789603 
0.216874 -0.069551 0.431528 0.610071 0.065875 0.789603 
0.159844 -0.050900 0.474036 0.610071 0.065875 0.789603 
0.200358 -0.122345 0.448694 0.610071 0.065875 0.789603 
-0.200358 -0.122345 0.448694 -0.453133 -0.058559 0.889517 
-0.110589 -0.095096 0.496218 -0.453133 -0.058559 0.889517 
-0.159844 -0.050900 0.474036 -0.453133 -0.058559 0.889517 
0.159844 -0.050900 0.474036 0.453133 -0.058559 0.889517 
0.110589 -0.095096 0.496218 0.453133 -0.058559 0.889517 
0.200358 -0.122345 0.448694 0.453133 -0.058559 0.889517 
-0.110589 -0.095096 0.496218 -0.395946 0.019503 0.918067 
-0.130455 -0.024175 0.486143 -0.395946 0.019503 0.918067 
-0.159844 -0.050900 0.474036 -0.395946 0.019503 0.918067 
0.159844 -0.050900 0.474036 0.395946 0.019503 0.918067 
0.130455 -0.024175 0.486143 0.395946 0.019503 0.918067 
0.110589 -0.095096 0.496218 0.395946 0.019503 0.918067 
-0.110589 -0.095096 0.496218 -0.486267 -0.012097 0.873726 
-0.071334 -0.032782 0.518927 -0.486267 -0.012097 0.873726 
-0.130455 -0.024175 0.486143 -0.486267 -0.012097 0.873726 
0.130455 -0.024175 0.486143 0.486267 -0.012097 0.873726 
0.071334 -0.032782 0.518927 0.486267 -0.012097 0.873726 
0.110589 -0.095096 0.496218 0.486267 -0.012097 0.873726 
-0.071334 -0.032782 0.518927 -0.484956 0.000000 0.874538 
-0.130455 0.019688 0.486143 -0.484956 0.000000 0.874538 
-0.130455 -0.024175 0.486143 -0.484956 0.000000 0.874538 
0.130455 -0.024175 0.486143 0.484956 0.000000 0.874538 
0.130455 0.019688 0.486143 0.484956 0.000000 0.874538 
0.071334 -0.032782 0.518927 0.484956 0.000000 0.874538 
-0.071334 0.032782 0.518927 -0.484956 0.000000 0.874538 
0.071334 0.032782 0.518927 0.484956 -0.000000 0.874538 
-0.071334 0.032782 0.518927 -0.486885 0.011585 0.873389 
-0.110589 0.095096 0.496218 -0.486885 0.011585 0.873389 
-0.130455 0.019688 0.486143 -0.486885 0.011585 0.873389 
0.130455 0.019688 0.486143 0.486885 0.011585 0.873389 
0.110589 0.095096 0.496218 0.486885 0.011585 0.873389 
0.071334 0.032782 0.518927 0.486885 0.011585 0.873389 
-0.130455 0.019688 0.486143 -0.616124 0.057369 0.785557 
-0.110589 0.095096 0.496218 -0.616124 0.057369 0.785557 
-0.161574 0.054197 0.459216 -0.616124 0.057369 0.785557 
0.161574 0.054197 0.459216 0.616124 0.057369 0.785557 
0.110589 0.095096 0.496218 0.616124 0.057369 0.785557 
0.130455 0.019688 0.486143 0.616124 0.057369 0.785557 
-0.161574 0.054197 0.459216 -0.398898 -0.026821 0.916603 
-0.242314 0.064020 0.424366 -0.398898 -0.026821 0.916603 
-0.216874 -0.069551 0.431528 -0.398898 -0.026821 0.916603 
0.216874 -0.069551 0.431528 0.398898 -0.026821 0.916603 
0.242314 0.064020 0.424366 0.398898 -0.026821 0.916603 
0.161574 0.054197 0.459216 0.398898 -0.026821 0.916603 
3 0 1 2 
3 3 4 5 
3 6 7 8 
3 9 10 11 
3 12 13 14 
3 15 16 17 
3 18 19 20 
3 21 22 23 
3 24 25 26 
3 27 28 29 
3 30 31 32 
3 33 34 35 
3 36 37 38 
3 39 40 41 
3 42 43 44 
3 45 46 47 
3 48 49 50 
3 51 52 53 
3 54 55 56 
3 57 58 59 
3 60 61 62 
3 63 64 65 
3 66 67 68 
3 69 70 71 
3 72 73 74 
3 75 76 77 
3 78 79 80 
3 81 82 83 
3 84 85 86 
3 87 88 89 
3 90 91 92 
3 93 94 95 
3 96 97 98 
3 99 100 101 
3 102 103 104 
3 105 106 107 
3 108 109 110 
3 111 112 113 
3 114 115 116 
3 117 118 119 
3 114 120 115 
3 118 121 119 
3 122 123 124 
3 125 126 127 
3 128 129 130 
3 131 132 133 
3 134 135 136 
3 137 138 139 
