ply
format ascii 1.0
Created by Blender3D 246 - www.blender.org, source file: player-panicked.blend
element vertex 100
property float x
property float y
property float z
property float nx
property float ny
property float nz
element face 52
property list uchar uint vertex_indices
end_header
-0.279965 -0.022110 0.416001 -0.502439 0.000000 0.864613 
-0.238265 -0.022110 0.440234 -0.502439 0.000000 0.864613 
-0.238265 0.026120 0.440234 -0.502439 0.000000 0.864613 
-0.279965 0.026120 0.416001 -0.502439 0.000000 0.864613 
0.392871 0.045145 0.355810 0.487743 -0.000001 0.872987 
0.318509 0.066383 0.397357 0.487743 -0.000001 0.872987 
0.337742 0.028224 0.386611 0.487743 -0.000001 0.872987 
0.392871 0.045145 0.355810 0.487743 0.000000 0.872987 
0.358866 0.112612 0.374809 0.487743 0.000000 0.872987 
0.318509 0.066383 0.397357 0.487743 0.000000 0.872987 
0.392871 -0.032760 0.355810 0.487743 -0.000000 0.872988 
0.337742 0.028224 0.386611 0.487743 -0.000000 0.872988 
0.337742 -0.015839 0.386611 0.487743 -0.000000 0.872988 
0.392871 0.045145 0.355810 0.487743 0.000000 0.872988 
0.358866 -0.100227 0.374809 0.487744 0.000001 0.872987 
0.337742 -0.015839 0.386611 0.487744 0.000001 0.872987 
0.318509 -0.053998 0.397357 0.487744 0.000001 0.872987 
0.358866 -0.100227 0.374809 0.487743 0.000000 0.872987 
0.392871 -0.032760 0.355810 0.487743 0.000000 0.872987 
0.337742 -0.015839 0.386611 0.487743 0.000000 0.872987 
0.299968 -0.139179 0.407715 0.487744 0.000001 0.872987 
0.285196 -0.076029 0.415968 0.487744 0.000001 0.872987 
0.231958 -0.139179 0.445713 0.487743 0.000000 0.872987 
0.285196 -0.076029 0.415968 0.487743 0.000000 0.872987 
0.246730 -0.076029 0.437460 0.487743 0.000000 0.872987 
0.299968 -0.139179 0.407715 0.487743 0.000000 0.872987 
0.173060 -0.100227 0.478620 0.487744 0.000001 0.872987 
0.246730 -0.076029 0.437460 0.487744 0.000001 0.872987 
0.213417 -0.053998 0.456072 0.487744 0.000001 0.872987 
0.173060 -0.100227 0.478620 0.487744 0.000000 0.872987 
0.231958 -0.139179 0.445713 0.487744 0.000000 0.872987 
0.246730 -0.076029 0.437460 0.487744 0.000000 0.872987 
0.139055 -0.032760 0.497618 0.487744 -0.000002 0.872987 
0.213417 -0.053998 0.456072 0.487744 -0.000002 0.872987 
0.194184 -0.015839 0.466817 0.487744 -0.000002 0.872987 
0.139055 -0.032760 0.497618 0.487744 -0.000000 0.872987 
0.213417 -0.053998 0.456072 0.487744 -0.000000 0.872987 
0.139055 0.045145 0.497618 0.487743 0.000000 0.872987 
0.194184 -0.015839 0.466817 0.487743 0.000000 0.872987 
0.194184 0.028224 0.466817 0.487743 0.000000 0.872987 
0.139055 -0.032760 0.497618 0.487743 -0.000000 0.872987 
0.173060 0.112612 0.478620 0.487745 0.000000 0.872986 
0.194184 0.028224 0.466817 0.487745 0.000000 0.872986 
0.213417 0.066383 0.456072 0.487745 0.000000 0.872986 
0.173060 0.112612 0.478620 0.487743 -0.000000 0.872987 
0.231958 0.151565 0.445713 0.487745 -0.000000 0.872986 
0.246730 0.088415 0.437460 0.487745 -0.000000 0.872986 
0.231958 0.151565 0.445713 0.487744 -0.000000 0.872987 
0.173060 0.112612 0.478620 0.487744 -0.000000 0.872987 
0.213417 0.066383 0.456072 0.487744 -0.000000 0.872987 
0.299968 0.151565 0.407715 0.487743 0.000000 0.872987 
0.246730 0.088415 0.437460 0.487743 0.000000 0.872987 
0.285196 0.088415 0.415969 0.487743 0.000000 0.872987 
0.299968 0.151565 0.407715 0.487744 -0.000001 0.872987 
0.231958 0.151565 0.445713 0.487744 -0.000001 0.872987 
0.246730 0.088415 0.437460 0.487744 -0.000001 0.872987 
0.358866 0.112612 0.374809 0.487744 -0.000000 0.872987 
0.285196 0.088415 0.415969 0.487744 -0.000000 0.872987 
0.318509 0.066383 0.397357 0.487744 -0.000000 0.872987 
0.299968 0.151565 0.407715 0.487744 -0.000000 0.872987 
-0.101909 0.178933 0.476045 -0.544449 -0.000000 0.838794 
-0.211762 0.172737 0.404741 -0.544449 -0.000000 0.838794 
-0.145412 0.127068 0.447807 -0.544449 -0.000000 0.838794 
-0.195838 0.243585 0.415077 -0.544449 -0.000000 0.838794 
-0.195838 0.243585 0.415077 -0.544448 -0.000000 0.838794 
-0.288375 0.172737 0.355013 -0.544448 -0.000000 0.838794 
-0.211762 0.172737 0.404741 -0.544448 -0.000000 0.838794 
-0.304298 0.243585 0.344677 -0.544449 0.000000 0.838794 
-0.288375 0.172737 0.355013 -0.544449 0.000000 0.838794 
-0.354724 0.127068 0.311947 -0.544449 0.000000 0.838794 
-0.398227 0.178933 0.283709 -0.544449 0.000000 0.838794 
-0.393030 0.047968 0.287082 -0.544449 -0.000000 0.838794 
-0.452457 0.066952 0.248509 -0.544449 -0.000000 0.838794 
-0.393030 -0.043369 0.287082 -0.544449 0.000000 0.838794 
-0.452457 -0.062353 0.248509 -0.544449 0.000000 0.838794 
-0.354724 -0.122470 0.311947 -0.544449 -0.000000 0.838794 
-0.398227 -0.174334 0.283709 -0.544449 -0.000000 0.838794 
-0.288375 -0.168138 0.355013 -0.544449 -0.000000 0.838794 
-0.398227 -0.174334 0.283709 -0.544449 0.000001 0.838794 
-0.304298 -0.238987 0.344677 -0.544449 0.000001 0.838794 
-0.288375 -0.168138 0.355013 -0.544449 0.000001 0.838794 
-0.211761 -0.168138 0.404741 -0.544449 0.000001 0.838794 
-0.304298 -0.238987 0.344677 -0.544449 -0.000000 0.838794 
-0.195838 -0.238987 0.415077 -0.544449 -0.000000 0.838794 
-0.211761 -0.168138 0.404741 -0.544449 -0.000000 0.838794 
-0.195838 -0.238987 0.415077 -0.544448 -0.000000 0.838794 
-0.145412 -0.122470 0.447807 -0.544448 -0.000000 0.838794 
-0.211761 -0.168138 0.404741 -0.544448 -0.000000 0.838794 
-0.101909 -0.174334 0.476045 -0.544449 0.000000 0.838794 
-0.145412 -0.122470 0.447807 -0.544449 0.000000 0.838794 
-0.107106 -0.043369 0.472672 -0.544449 0.000000 0.838794 
-0.047679 -0.062353 0.511245 -0.544449 0.000000 0.838794 
-0.107106 0.047968 0.472672 -0.544449 0.000000 0.838794 
-0.047679 0.066952 0.511245 -0.544449 0.000000 0.838794 
0.238480 -0.034245 0.445735 0.473847 0.000000 0.880607 
0.303961 -0.034245 0.410500 0.473847 0.000000 0.880607 
0.303961 0.040114 0.410500 0.473847 0.000000 0.880607 
0.238480 -0.034245 0.445735 0.473847 -0.000001 0.880607 
0.303961 0.040114 0.410500 0.473847 -0.000001 0.880607 
0.238480 0.040114 0.445735 0.473847 -0.000001 0.880607 
3 0 1 2 
3 0 2 3 
3 4 5 6 
3 7 8 9 
3 10 11 12 
3 10 13 11 
3 14 15 16 
3 17 18 19 
3 20 16 21 
3 20 14 16 
3 22 23 24 
3 22 25 23 
3 26 27 28 
3 29 30 31 
3 32 33 34 
3 35 29 36 
3 37 38 39 
3 37 40 38 
3 41 42 43 
3 44 37 39 
3 45 43 46 
3 47 48 49 
3 50 51 52 
3 53 54 55 
3 56 57 58 
3 56 59 57 
3 60 61 62 
3 60 63 61 
3 64 65 66 
3 63 67 68 
3 67 69 68 
3 67 70 69 
3 70 71 69 
3 70 72 71 
3 72 73 71 
3 72 74 73 
3 74 75 73 
3 74 76 75 
3 76 77 75 
3 78 79 80 
3 79 81 80 
3 82 83 84 
3 85 86 87 
3 83 88 89 
3 88 90 89 
3 88 91 90 
3 91 92 90 
3 91 93 92 
3 93 60 62 
3 62 92 93 
3 94 95 96 
3 97 98 99 
