ply
format ascii 1.0
Created by Blender3D 246 - www.blender.org, source file: player-strained.blend
element vertex 44
property float x
property float y
property float z
property float nx
property float ny
property float nz
element face 16
property list uchar uint vertex_indices
end_header
-0.116842 -0.001632 0.488748 -0.255256 0.000000 0.966873 
-0.263513 0.052571 0.450026 -0.255256 0.000000 0.966873 
-0.195922 0.005038 0.467870 -0.255256 0.000000 0.966873 
0.195922 0.005038 0.467870 0.255256 0.000000 0.966873 
0.263513 0.052571 0.450026 0.255256 0.000000 0.966873 
0.116842 -0.001632 0.488748 0.255256 0.000000 0.966873 
-0.222819 -0.018137 0.460769 -0.255256 -0.000000 0.966873 
0.222819 -0.018137 0.460769 0.255256 -0.000000 0.966873 
-0.070042 0.059443 0.498829 -0.315322 -0.055818 0.947342 
-0.229328 0.133227 0.450159 -0.315322 -0.055818 0.947342 
-0.241140 0.089588 0.443656 -0.315322 -0.055818 0.947342 
0.241140 0.089588 0.443656 0.315322 -0.055818 0.947342 
0.229328 0.133227 0.450159 0.315322 -0.055818 0.947342 
0.070042 0.059443 0.498829 0.315322 -0.055818 0.947342 
-0.070042 0.059443 0.498829 -0.315397 -0.056344 0.947286 
-0.241140 0.089588 0.443656 -0.315397 -0.056344 0.947286 
-0.078942 0.026886 0.493930 -0.315397 -0.056344 0.947286 
0.078942 0.026886 0.493930 0.315397 -0.056344 0.947286 
0.241140 0.089588 0.443656 0.315397 -0.056344 0.947286 
0.070042 0.059443 0.498829 0.315397 -0.056344 0.947286 
-0.403338 0.152290 0.315813 -0.607287 0.046192 0.793139 
-0.241140 0.089588 0.443656 -0.607287 0.046192 0.793139 
-0.229328 0.133227 0.450159 -0.607287 0.046192 0.793139 
0.229328 0.133227 0.450159 0.607287 0.046192 0.793139 
0.241140 0.089588 0.443656 0.607287 0.046192 0.793139 
0.403338 0.152290 0.315813 0.607287 0.046192 0.793139 
-0.403338 0.152290 0.315813 -0.607312 0.045927 0.793135 
-0.229328 0.133227 0.450159 -0.607312 0.045927 0.793135 
-0.388614 0.207010 0.323919 -0.607312 0.045927 0.793135 
0.388614 0.207010 0.323919 0.607312 0.045927 0.793135 
0.229328 0.133227 0.450159 0.607312 0.045927 0.793135 
0.403338 0.152290 0.315813 0.607312 0.045927 0.793135 
-0.215593 -0.080554 0.439780 -0.352800 -0.000001 0.935699 
-0.127836 -0.060802 0.472868 -0.352800 -0.000001 0.935699 
-0.219559 -0.051037 0.438285 -0.352800 -0.000001 0.935699 
0.219559 -0.051037 0.438285 0.352800 -0.000001 0.935699 
0.127836 -0.060802 0.472868 0.352800 -0.000001 0.935699 
0.215593 -0.080554 0.439780 0.352800 -0.000001 0.935699 
-0.127836 -0.060802 0.472868 -0.352800 -0.000000 0.935699 
-0.129728 -0.042366 0.472155 -0.352800 -0.000000 0.935699 
-0.219559 -0.051037 0.438285 -0.352800 -0.000000 0.935699 
0.219559 -0.051037 0.438285 0.352800 -0.000000 0.935699 
0.129728 -0.042366 0.472155 0.352800 -0.000000 0.935699 
0.127836 -0.060802 0.472868 0.352800 -0.000000 0.935699 
3 0 1 2 
3 3 4 5 
3 0 2 6 
3 7 3 5 
3 8 9 10 
3 11 12 13 
3 14 15 16 
3 17 18 19 
3 20 21 22 
3 23 24 25 
3 26 27 28 
3 29 30 31 
3 32 33 34 
3 35 36 37 
3 38 39 40 
3 41 42 43 
