ply
format ascii 1.0
Created by Blender3D 246 - www.blender.org, source file: player-panicked.blend
element vertex 174
property float x
property float y
property float z
property float nx
property float ny
property float nz
element face 76
property list uchar uint vertex_indices
end_header
-0.251585 0.002620 0.433225 0.485547 0.000001 -0.874211 
-0.251448 0.018923 0.433301 0.485547 0.000001 -0.874211 
-0.237332 0.002463 0.441141 0.485547 0.000001 -0.874211 
-0.251585 0.002620 0.433225 0.485547 -0.000001 -0.874211 
-0.237332 0.002463 0.441141 0.485547 -0.000001 -0.874211 
-0.251722 -0.013683 0.433149 0.485547 -0.000001 -0.874211 
-0.251585 0.002620 0.433225 0.485546 -0.000001 -0.874211 
-0.251722 -0.013683 0.433149 0.485546 -0.000001 -0.874211 
-0.265837 0.002777 0.425309 0.485546 -0.000001 -0.874211 
-0.251585 0.002620 0.433225 0.485546 0.000001 -0.874211 
-0.265837 0.002777 0.425309 0.485546 0.000001 -0.874211 
-0.251448 0.018923 0.433301 0.485546 0.000001 -0.874211 
-0.101909 0.178933 0.476045 0.544449 0.000001 -0.838794 
-0.116878 0.161087 0.466329 0.544449 0.000001 -0.838794 
-0.201317 0.219208 0.411521 0.544449 0.000001 -0.838794 
-0.101909 0.178933 0.476045 0.544449 -0.000000 -0.838794 
-0.201317 0.219208 0.411521 0.544449 -0.000000 -0.838794 
-0.195838 0.243585 0.415077 0.544449 -0.000000 -0.838794 
-0.298819 0.219208 0.348233 0.544449 -0.000000 -0.838794 
-0.304298 0.243585 0.344677 0.544449 -0.000000 -0.838794 
-0.383259 0.161087 0.293425 0.544449 -0.000000 -0.838794 
-0.398227 0.178933 0.283709 0.544449 -0.000000 -0.838794 
-0.432010 0.060420 0.261781 0.544449 0.000000 -0.838794 
-0.398227 0.178933 0.283709 0.544448 0.000000 -0.838794 
-0.432010 0.060420 0.261781 0.544448 0.000000 -0.838794 
-0.452457 0.066952 0.248509 0.544448 0.000000 -0.838794 
-0.432010 -0.055821 0.261781 0.544448 -0.000000 -0.838794 
-0.452457 0.066952 0.248509 0.544449 -0.000000 -0.838794 
-0.432010 -0.055821 0.261781 0.544449 -0.000000 -0.838794 
-0.452457 -0.062353 0.248509 0.544449 -0.000000 -0.838794 
-0.383258 -0.156489 0.293425 0.544449 0.000000 -0.838794 
-0.452457 -0.062353 0.248509 0.544448 -0.000000 -0.838794 
-0.383258 -0.156489 0.293425 0.544448 -0.000000 -0.838794 
-0.398227 -0.174334 0.283709 0.544448 -0.000000 -0.838794 
-0.398227 -0.174334 0.283709 0.544449 -0.000001 -0.838794 
-0.383258 -0.156489 0.293425 0.544449 -0.000001 -0.838794 
-0.298819 -0.214609 0.348233 0.544449 -0.000001 -0.838794 
-0.398227 -0.174334 0.283709 0.544449 0.000000 -0.838794 
-0.298819 -0.214609 0.348233 0.544449 0.000000 -0.838794 
-0.304298 -0.238987 0.344677 0.544449 0.000000 -0.838794 
-0.201317 -0.214609 0.411521 0.544449 0.000000 -0.838794 
-0.195838 -0.238987 0.415077 0.544449 0.000000 -0.838794 
-0.116878 -0.156489 0.466329 0.544449 0.000000 -0.838794 
-0.195838 -0.238987 0.415077 0.544449 -0.000001 -0.838794 
-0.116878 -0.156489 0.466329 0.544449 -0.000001 -0.838794 
-0.101909 -0.174334 0.476045 0.544449 -0.000001 -0.838794 
-0.101909 -0.174334 0.476045 0.544449 -0.000000 -0.838794 
-0.068127 -0.055821 0.497973 0.544449 -0.000000 -0.838794 
-0.047679 -0.062353 0.511245 0.544449 -0.000000 -0.838794 
-0.068127 0.060420 0.497973 0.544449 0.000000 -0.838794 
-0.047679 0.066952 0.511245 0.544449 0.000000 -0.838794 
-0.116878 0.161087 0.466329 0.544449 0.000000 -0.838794 
0.277680 0.019615 0.420168 -0.487742 0.000003 -0.872988 
0.273605 0.014946 0.422445 -0.487742 0.000003 -0.872988 
0.268760 0.018150 0.425151 -0.487742 0.000003 -0.872988 
0.270252 0.024528 0.424318 -0.487742 0.000003 -0.872988 
0.263166 0.018150 0.428277 -0.487742 0.000003 -0.872988 
0.270252 0.024528 0.424318 -0.487742 0.000002 -0.872988 
0.263166 0.018150 0.428277 -0.487742 0.000002 -0.872988 
0.261674 0.024527 0.429110 -0.487742 0.000002 -0.872988 
0.261674 0.024527 0.429110 -0.487748 -0.000000 -0.872985 
0.263166 0.018150 0.428277 -0.487748 -0.000000 -0.872985 
0.258322 0.014946 0.430984 -0.487748 -0.000000 -0.872985 
0.261674 0.024527 0.429110 -0.487750 0.000001 -0.872984 
0.258322 0.014946 0.430984 -0.487750 0.000001 -0.872984 
0.254246 0.019615 0.433261 -0.487750 0.000001 -0.872984 
0.254246 0.019615 0.433261 -0.487746 0.000005 -0.872985 
0.258322 0.014946 0.430984 -0.487746 0.000005 -0.872985 
0.255525 0.009397 0.432546 -0.487746 0.000005 -0.872985 
0.254246 0.019615 0.433261 -0.487745 0.000005 -0.872986 
0.255525 0.009397 0.432546 -0.487745 0.000005 -0.872986 
0.249957 0.011106 0.435657 -0.487745 0.000005 -0.872986 
0.249957 0.011106 0.435657 -0.487747 0.000000 -0.872985 
0.255525 0.009397 0.432546 -0.487747 0.000000 -0.872985 
0.255525 0.002989 0.432546 -0.487747 0.000000 -0.872985 
0.249957 0.001280 0.435657 -0.487747 0.000000 -0.872985 
0.249957 0.001280 0.435657 -0.487745 -0.000005 -0.872986 
0.255525 0.002989 0.432546 -0.487745 -0.000005 -0.872986 
0.258322 -0.002561 0.430983 -0.487745 -0.000005 -0.872986 
0.249957 0.001280 0.435657 -0.487744 -0.000001 -0.872987 
0.258322 -0.002561 0.430983 -0.487744 -0.000001 -0.872987 
0.254246 -0.007229 0.433261 -0.487744 -0.000001 -0.872987 
0.254246 -0.007229 0.433261 -0.487747 0.000002 -0.872985 
0.258322 -0.002561 0.430983 -0.487747 0.000002 -0.872985 
0.263166 -0.005764 0.428277 -0.487747 0.000002 -0.872985 
0.254246 -0.007229 0.433261 -0.487746 -0.000005 -0.872985 
0.263166 -0.005764 0.428277 -0.487746 -0.000005 -0.872985 
0.261674 -0.012142 0.429110 -0.487746 -0.000005 -0.872985 
0.261674 -0.012142 0.429110 -0.487742 -0.000006 -0.872988 
0.263166 -0.005764 0.428277 -0.487742 -0.000006 -0.872988 
0.268760 -0.005764 0.425151 -0.487742 -0.000006 -0.872988 
0.261674 -0.012142 0.429110 -0.487747 0.000000 -0.872985 
0.268760 -0.005764 0.425151 -0.487747 0.000000 -0.872985 
0.270252 -0.012142 0.424318 -0.487747 0.000000 -0.872985 
0.270252 -0.012142 0.424318 -0.487744 0.000001 -0.872987 
0.268760 -0.005764 0.425151 -0.487744 0.000001 -0.872987 
0.273605 -0.002560 0.422445 -0.487744 0.000001 -0.872987 
0.270252 -0.012142 0.424318 -0.487741 -0.000001 -0.872989 
0.273605 -0.002560 0.422445 -0.487741 -0.000001 -0.872989 
0.277680 -0.007229 0.420168 -0.487741 -0.000001 -0.872989 
0.277680 -0.007229 0.420168 -0.487742 -0.000002 -0.872988 
0.273605 -0.002560 0.422445 -0.487742 -0.000002 -0.872988 
0.276402 0.002989 0.420882 -0.487742 -0.000002 -0.872988 
0.277680 -0.007229 0.420168 -0.487747 -0.000003 -0.872985 
0.276402 0.002989 0.420882 -0.487747 -0.000003 -0.872985 
0.281969 0.001280 0.417771 -0.487747 -0.000003 -0.872985 
0.281969 0.001280 0.417771 -0.487746 -0.000000 -0.872986 
0.276402 0.002989 0.420882 -0.487746 -0.000000 -0.872986 
0.276402 0.009397 0.420882 -0.487746 -0.000000 -0.872986 
0.281969 0.011106 0.417771 -0.487746 0.000000 -0.872986 
0.273605 0.014946 0.422445 -0.487746 -0.000000 -0.872986 
0.281969 0.011106 0.417771 -0.487744 0.000005 -0.872987 
0.273605 0.014946 0.422445 -0.487744 0.000005 -0.872987 
0.277680 0.019615 0.420168 -0.487744 0.000005 -0.872987 
0.342558 0.029702 0.383920 -0.487743 0.000002 -0.872987 
0.315915 0.021525 0.398806 -0.487743 0.000002 -0.872987 
0.302530 0.048080 0.406284 -0.487743 0.000002 -0.872987 
0.342558 0.029702 0.383920 -0.487744 -0.000001 -0.872987 
0.302530 0.048080 0.406284 -0.487744 -0.000001 -0.872987 
0.322035 0.070422 0.395387 -0.487744 -0.000001 -0.872987 
0.342558 -0.017317 0.383920 -0.487743 -0.000000 -0.872988 
0.315915 -0.009139 0.398806 -0.487743 -0.000000 -0.872988 
0.315915 0.021525 0.398806 -0.487743 -0.000000 -0.872988 
0.342558 0.029702 0.383920 -0.487743 0.000000 -0.872988 
0.322035 -0.058037 0.395387 -0.487745 -0.000000 -0.872986 
0.302530 -0.035695 0.406284 -0.487745 -0.000000 -0.872986 
0.315915 -0.009139 0.398806 -0.487745 -0.000000 -0.872986 
0.322035 -0.058037 0.395387 -0.487743 -0.000000 -0.872987 
0.315915 -0.009139 0.398806 -0.487743 -0.000000 -0.872987 
0.342558 -0.017317 0.383920 -0.487743 -0.000000 -0.872987 
0.286487 -0.081546 0.415247 -0.487744 -0.000000 -0.872986 
0.279348 -0.051027 0.419236 -0.487744 -0.000000 -0.872986 
0.302530 -0.035695 0.406284 -0.487744 -0.000000 -0.872986 
0.322035 -0.058037 0.395387 -0.487744 -0.000000 -0.872986 
0.245439 -0.081546 0.438181 -0.487743 -0.000001 -0.872987 
0.252578 -0.051027 0.434192 -0.487743 -0.000001 -0.872987 
0.279348 -0.051027 0.419236 -0.487743 -0.000001 -0.872987 
0.245439 -0.081546 0.438181 -0.487744 0.000000 -0.872987 
0.279348 -0.051027 0.419236 -0.487744 0.000000 -0.872987 
0.286487 -0.081546 0.415247 -0.487744 0.000000 -0.872987 
0.209892 -0.058037 0.458042 -0.487744 -0.000000 -0.872986 
0.229396 -0.035695 0.447145 -0.487744 -0.000000 -0.872986 
0.252578 -0.051027 0.434192 -0.487744 -0.000000 -0.872986 
0.209892 -0.058037 0.458042 -0.487744 -0.000001 -0.872986 
0.252578 -0.051027 0.434192 -0.487744 -0.000001 -0.872986 
0.245439 -0.081546 0.438181 -0.487744 -0.000001 -0.872986 
0.189368 -0.017317 0.469508 -0.487744 -0.000000 -0.872987 
0.216011 -0.009139 0.454623 -0.487744 -0.000000 -0.872987 
0.229396 -0.035695 0.447145 -0.487744 -0.000000 -0.872987 
0.189368 -0.017317 0.469508 -0.487744 -0.000001 -0.872987 
0.229396 -0.035695 0.447145 -0.487744 -0.000001 -0.872987 
0.209892 -0.058037 0.458042 -0.487744 -0.000001 -0.872987 
0.189368 0.029702 0.469508 -0.487744 0.000000 -0.872987 
0.216011 0.021525 0.454623 -0.487744 0.000000 -0.872987 
0.209892 0.070422 0.458042 -0.487746 0.000000 -0.872985 
0.229396 0.048080 0.447145 -0.487746 0.000000 -0.872985 
0.216011 0.021525 0.454623 -0.487746 0.000000 -0.872985 
0.209892 0.070422 0.458042 -0.487744 0.000000 -0.872987 
0.245439 0.093932 0.438181 -0.487745 0.000002 -0.872986 
0.252578 0.063412 0.434192 -0.487745 0.000002 -0.872986 
0.229396 0.048080 0.447145 -0.487745 0.000002 -0.872986 
0.209892 0.070422 0.458042 -0.487745 0.000002 -0.872986 
0.286487 0.093932 0.415248 -0.487742 0.000000 -0.872988 
0.279348 0.063412 0.419236 -0.487742 0.000000 -0.872988 
0.252578 0.063412 0.434192 -0.487742 0.000000 -0.872988 
0.286487 0.093932 0.415248 -0.487743 0.000002 -0.872987 
0.252578 0.063412 0.434192 -0.487743 0.000002 -0.872987 
0.245439 0.093932 0.438181 -0.487743 0.000002 -0.872987 
0.322035 0.070422 0.395387 -0.487744 0.000000 -0.872987 
0.302530 0.048080 0.406284 -0.487744 0.000000 -0.872987 
0.279348 0.063412 0.419236 -0.487744 0.000000 -0.872987 
0.322035 0.070422 0.395387 -0.487744 0.000001 -0.872986 
0.279348 0.063412 0.419236 -0.487744 0.000001 -0.872986 
0.286487 0.093932 0.415248 -0.487744 0.000001 -0.872986 
3 0 1 2 
3 3 4 5 
3 6 7 8 
3 9 10 11 
3 12 13 14 
3 15 16 17 
3 17 16 18 
3 17 18 19 
3 19 18 20 
3 19 20 21 
3 21 20 22 
3 23 24 25 
3 25 24 26 
3 27 28 29 
3 29 28 30 
3 31 32 33 
3 34 35 36 
3 37 38 39 
3 39 38 40 
3 39 40 41 
3 41 40 42 
3 43 44 45 
3 46 42 47 
3 46 47 48 
3 48 47 49 
3 48 49 50 
3 51 15 50 
3 51 50 49 
3 52 53 54 
3 52 54 55 
3 55 54 56 
3 57 58 59 
3 60 61 62 
3 63 64 65 
3 66 67 68 
3 69 70 71 
3 72 73 74 
3 72 74 75 
3 76 77 78 
3 79 80 81 
3 82 83 84 
3 85 86 87 
3 88 89 90 
3 91 92 93 
3 94 95 96 
3 97 98 99 
3 100 101 102 
3 103 104 105 
3 106 107 108 
3 106 108 109 
3 109 108 110 
3 111 112 113 
3 114 115 116 
3 117 118 119 
3 120 121 122 
3 120 122 123 
3 124 125 126 
3 127 128 129 
3 130 131 132 
3 130 132 133 
3 134 135 136 
3 137 138 139 
3 140 141 142 
3 143 144 145 
3 146 147 148 
3 149 150 151 
3 152 153 147 
3 152 147 146 
3 154 155 156 
3 157 153 152 
3 158 159 160 
3 158 160 161 
3 162 163 164 
3 165 166 167 
3 168 169 170 
3 171 172 173 
