ply
format ascii 1.0
Created by Blender3D 246 - www.blender.org, source file: player-stressed.blend
element vertex 144
property float x
property float y
property float z
property float nx
property float ny
property float nz
element face 48
property list uchar uint vertex_indices
end_header
-0.116273 0.047483 0.490523 -0.501024 0.044223 0.864303 
-0.193766 0.077244 0.444079 -0.501024 0.044223 0.864303 
-0.174617 0.021746 0.458018 -0.501024 0.044223 0.864303 
0.174617 0.021746 0.458018 0.501024 0.044223 0.864303 
0.193766 0.077244 0.444079 0.501024 0.044223 0.864303 
0.116273 0.047483 0.490523 0.501024 0.044223 0.864303 
-0.193766 0.077244 0.444079 -0.387471 0.096589 0.916808 
-0.244903 0.038475 0.426551 -0.387471 0.096589 0.916808 
-0.174617 0.021746 0.458018 -0.387471 0.096589 0.916808 
0.174617 0.021746 0.458018 0.387471 0.096589 0.916808 
0.244903 0.038475 0.426551 0.387471 0.096589 0.916808 
0.193766 0.077244 0.444079 0.387471 0.096589 0.916808 
-0.193766 0.077244 0.444079 -0.456085 0.210680 0.864639 
-0.281946 0.102858 0.391323 -0.456085 0.210680 0.864639 
-0.244903 0.038475 0.426551 -0.456085 0.210680 0.864639 
0.244903 0.038475 0.426551 0.456085 0.210680 0.864639 
0.281946 0.102858 0.391323 0.456085 0.210680 0.864639 
0.193766 0.077244 0.444079 0.456085 0.210680 0.864639 
-0.281946 0.102858 0.391323 -0.497624 0.178167 0.848897 
-0.324735 0.056583 0.375953 -0.497624 0.178167 0.848897 
-0.244903 0.038475 0.426551 -0.497624 0.178167 0.848897 
0.244903 0.038475 0.426551 0.497624 0.178167 0.848897 
0.324735 0.056583 0.375953 0.497624 0.178167 0.848897 
0.281946 0.102858 0.391323 0.497624 0.178167 0.848897 
-0.281946 0.102858 0.391323 -0.588687 0.294257 0.752901 
-0.338453 0.112424 0.343403 -0.588687 0.294257 0.752901 
-0.324735 0.056583 0.375953 -0.588687 0.294257 0.752901 
0.324735 0.056583 0.375953 0.588687 0.294257 0.752901 
0.338453 0.112424 0.343403 0.588687 0.294257 0.752901 
0.281946 0.102858 0.391323 0.588687 0.294257 0.752901 
-0.338453 0.112424 0.343403 -0.585671 0.295975 0.754578 
-0.359495 0.031459 0.358828 -0.585671 0.295975 0.754578 
-0.324735 0.056583 0.375953 -0.585671 0.295975 0.754578 
0.324735 0.056583 0.375953 0.585671 0.295975 0.754578 
0.359495 0.031459 0.358828 0.585671 0.295975 0.754578 
0.338453 0.112424 0.343403 0.585671 0.295975 0.754578 
-0.338453 0.112424 0.343403 -0.480560 0.283033 0.830033 
-0.413514 0.046664 0.322368 -0.480560 0.283033 0.830033 
-0.359495 0.031459 0.358828 -0.480560 0.283033 0.830033 
0.359495 0.031459 0.358828 0.480560 0.283033 0.830033 
0.413514 0.046664 0.322368 0.480560 0.283033 0.830033 
0.338453 0.112424 0.343403 0.480560 0.283033 0.830033 
-0.413514 0.046664 0.322368 -0.567221 -0.043042 0.822440 
-0.358162 -0.017159 0.357203 -0.567221 -0.043042 0.822440 
-0.359495 0.031459 0.358828 -0.567221 -0.043042 0.822440 
0.359495 0.031459 0.358828 0.567221 -0.043042 0.822440 
0.358162 -0.017159 0.357203 0.567221 -0.043042 0.822440 
0.413514 0.046664 0.322368 0.567221 -0.043042 0.822440 
-0.413514 0.046664 0.322368 -0.540114 -0.009107 0.841543 
-0.414585 -0.029385 0.320858 -0.540114 -0.009107 0.841543 
-0.358162 -0.017159 0.357203 -0.540114 -0.009107 0.841543 
0.358162 -0.017159 0.357203 0.540114 -0.009107 0.841543 
0.414585 -0.029385 0.320858 0.540114 -0.009107 0.841543 
0.413514 0.046664 0.322368 0.540114 -0.009107 0.841543 
-0.414585 -0.029385 0.320858 -0.536092 -0.033475 0.843496 
-0.375639 -0.085014 0.343403 -0.536092 -0.033475 0.843496 
-0.358162 -0.017159 0.357203 -0.536092 -0.033475 0.843496 
0.358162 -0.017159 0.357203 0.536092 -0.033475 0.843496 
0.375639 -0.085014 0.343403 0.536092 -0.033475 0.843496 
0.414585 -0.029385 0.320858 0.536092 -0.033475 0.843496 
-0.358162 -0.017159 0.357203 -0.514565 -0.041652 0.856439 
-0.375639 -0.085014 0.343403 -0.514565 -0.041652 0.856439 
-0.326709 -0.054099 0.374304 -0.514565 -0.041652 0.856439 
0.326709 -0.054099 0.374304 0.514565 -0.041652 0.856439 
0.375639 -0.085014 0.343403 0.514565 -0.041652 0.856439 
0.358162 -0.017159 0.357203 0.514565 -0.041652 0.856439 
-0.375639 -0.085014 0.343403 -0.509545 -0.052027 0.858870 
-0.291460 -0.111125 0.391762 -0.509545 -0.052027 0.858870 
-0.326709 -0.054099 0.374304 -0.509545 -0.052027 0.858870 
0.326709 -0.054099 0.374304 0.509545 -0.052027 0.858870 
0.291460 -0.111125 0.391762 0.509545 -0.052027 0.858870 
0.375639 -0.085014 0.343403 0.509545 -0.052027 0.858870 
-0.326709 -0.054099 0.374304 -0.479219 -0.027651 0.877260 
-0.291460 -0.111125 0.391762 -0.479219 -0.027651 0.877260 
-0.276371 -0.065135 0.401454 -0.479219 -0.027651 0.877260 
0.276371 -0.065135 0.401454 0.479219 -0.027651 0.877260 
0.291460 -0.111125 0.391762 0.479219 -0.027651 0.877260 
0.326709 -0.054099 0.374304 0.479219 -0.027651 0.877260 
-0.291460 -0.111125 0.391762 -0.479479 -0.027536 0.877121 
-0.221743 -0.065880 0.431293 -0.479479 -0.027536 0.877121 
-0.276371 -0.065135 0.401454 -0.479479 -0.027536 0.877121 
0.276371 -0.065135 0.401454 0.479479 -0.027536 0.877121 
0.221743 -0.065880 0.431293 0.479479 -0.027536 0.877121 
0.291460 -0.111125 0.391762 0.479479 -0.027536 0.877121 
-0.291460 -0.111125 0.391762 -0.497192 0.008074 0.867603 
-0.199884 -0.112144 0.444251 -0.497192 0.008074 0.867603 
-0.221743 -0.065880 0.431293 -0.497192 0.008074 0.867603 
0.221743 -0.065880 0.431293 0.497192 0.008074 0.867603 
0.199884 -0.112144 0.444251 0.497192 0.008074 0.867603 
0.291460 -0.111125 0.391762 0.497192 0.008074 0.867603 
-0.199884 -0.112144 0.444251 -0.473258 0.023029 0.880623 
-0.168458 -0.054099 0.459621 -0.473258 0.023029 0.880623 
-0.221743 -0.065880 0.431293 -0.473258 0.023029 0.880623 
0.221743 -0.065880 0.431293 0.473258 0.023029 0.880623 
0.168458 -0.054099 0.459621 0.473258 0.023029 0.880623 
0.199884 -0.112144 0.444251 0.473258 0.023029 0.880623 
-0.199884 -0.112144 0.444251 -0.510864 0.049315 0.858246 
-0.119529 -0.085014 0.490523 -0.510864 0.049315 0.858246 
-0.168458 -0.054099 0.459621 -0.510864 0.049315 0.858246 
0.168458 -0.054099 0.459621 0.510864 0.049315 0.858246 
0.119529 -0.085014 0.490523 0.510864 0.049315 0.858246 
0.199884 -0.112144 0.444251 0.510864 0.049315 0.858246 
-0.119529 -0.085014 0.490523 -0.517663 0.035171 0.854861 
-0.140578 -0.017098 0.474982 -0.517663 0.035171 0.854861 
-0.168458 -0.054099 0.459621 -0.517663 0.035171 0.854861 
0.168458 -0.054099 0.459621 0.517663 0.035171 0.854861 
0.140578 -0.017098 0.474982 0.517663 0.035171 0.854861 
0.119529 -0.085014 0.490523 0.517663 0.035171 0.854861 
-0.119529 -0.085014 0.490523 -0.532696 0.028445 0.845829 
-0.083748 -0.029064 0.511175 -0.532696 0.028445 0.845829 
-0.140578 -0.017098 0.474982 -0.532696 0.028445 0.845829 
0.140578 -0.017098 0.474982 0.532696 0.028445 0.845829 
0.083748 -0.029064 0.511175 0.532696 0.028445 0.845829 
0.119529 -0.085014 0.490523 0.532696 0.028445 0.845829 
-0.083748 -0.029064 0.511175 -0.537292 -0.000745 0.843396 
-0.116273 0.047483 0.490523 -0.537292 -0.000745 0.843396 
-0.140578 -0.017098 0.474982 -0.537292 -0.000745 0.843396 
0.140578 -0.017098 0.474982 0.537292 -0.000745 0.843396 
0.116273 0.047483 0.490523 0.537292 -0.000745 0.843396 
0.083748 -0.029064 0.511175 0.537292 -0.000745 0.843396 
-0.140578 -0.017098 0.474982 -0.475395 -0.032647 0.879166 
-0.116273 0.047483 0.490523 -0.475395 -0.032647 0.879166 
-0.174617 0.021746 0.458018 -0.475395 -0.032647 0.879166 
0.174617 0.021746 0.458018 0.475395 -0.032647 0.879166 
0.116273 0.047483 0.490523 0.475395 -0.032647 0.879166 
0.140578 -0.017098 0.474982 0.475395 -0.032647 0.879166 
-0.174617 0.021746 0.458018 -0.418288 -0.051619 0.906847 
-0.244903 0.038475 0.426551 -0.418288 -0.051619 0.906847 
-0.221743 -0.065880 0.431293 -0.418288 -0.051619 0.906847 
0.221743 -0.065880 0.431293 0.418288 -0.051619 0.906847 
0.244903 0.038475 0.426551 0.418288 -0.051619 0.906847 
0.174617 0.021746 0.458018 0.418288 -0.051619 0.906847 
-0.359177 0.210381 0.347175 -0.481000 0.010214 0.876661 
-0.102157 0.072708 0.489799 -0.481000 0.010214 0.876661 
-0.087291 0.100742 0.497629 -0.481000 0.010214 0.876661 
0.087291 0.100742 0.497629 0.481000 0.010214 0.876661 
0.102157 0.072708 0.489799 0.481000 0.010214 0.876661 
0.359177 0.210381 0.347175 0.481000 0.010214 0.876661 
-0.359177 0.210381 0.347175 -0.483286 0.002893 0.875458 
-0.087291 0.100742 0.497629 -0.483286 0.002893 0.875458 
-0.338546 0.251822 0.358427 -0.483286 0.002893 0.875458 
0.338546 0.251822 0.358427 0.483286 0.002893 0.875458 
0.087291 0.100742 0.497629 0.483286 0.002893 0.875458 
0.359177 0.210381 0.347175 0.483286 0.002893 0.875458 
3 0 1 2 
3 3 4 5 
3 6 7 8 
3 9 10 11 
3 12 13 14 
3 15 16 17 
3 18 19 20 
3 21 22 23 
3 24 25 26 
3 27 28 29 
3 30 31 32 
3 33 34 35 
3 36 37 38 
3 39 40 41 
3 42 43 44 
3 45 46 47 
3 48 49 50 
3 51 52 53 
3 54 55 56 
3 57 58 59 
3 60 61 62 
3 63 64 65 
3 66 67 68 
3 69 70 71 
3 72 73 74 
3 75 76 77 
3 78 79 80 
3 81 82 83 
3 84 85 86 
3 87 88 89 
3 90 91 92 
3 93 94 95 
3 96 97 98 
3 99 100 101 
3 102 103 104 
3 105 106 107 
3 108 109 110 
3 111 112 113 
3 114 115 116 
3 117 118 119 
3 120 121 122 
3 123 124 125 
3 126 127 128 
3 129 130 131 
3 132 133 134 
3 135 136 137 
3 138 139 140 
3 141 142 143 
