<?xml version="1.0" encoding="UTF-8" standalone="no"?>
<!-- Created with Inkscape (http://www.inkscape.org/) -->
<svg
   xmlns:dc="http://purl.org/dc/elements/1.1/"
   xmlns:cc="http://creativecommons.org/ns#"
   xmlns:rdf="http://www.w3.org/1999/02/22-rdf-syntax-ns#"
   xmlns:svg="http://www.w3.org/2000/svg"
   xmlns="http://www.w3.org/2000/svg"
   xmlns:xlink="http://www.w3.org/1999/xlink"
   xmlns:sodipodi="http://sodipodi.sourceforge.net/DTD/sodipodi-0.dtd"
   xmlns:inkscape="http://www.inkscape.org/namespaces/inkscape"
   width="256"
   height="256"
   id="svg2"
   sodipodi:version="0.32"
   inkscape:version="0.46"
   version="1.0"
   sodipodi:docname="player face.svg"
   inkscape:output_extension="org.inkscape.output.svg.inkscape"
   inkscape:export-filename="/Users/joe/Documents/Code/BattleMints/player.png"
   inkscape:export-xdpi="45"
   inkscape:export-ydpi="45">
  <defs
     id="defs4">
    <linearGradient
       id="linearGradient3307">
      <stop
         style="stop-color:#ffffff;stop-opacity:1;"
         offset="0"
         id="stop3309" />
      <stop
         style="stop-color:#ff0000;stop-opacity:1;"
         offset="1"
         id="stop3311" />
    </linearGradient>
    <inkscape:perspective
       sodipodi:type="inkscape:persp3d"
       inkscape:vp_x="0 : 526.18109 : 1"
       inkscape:vp_y="0 : 1000 : 0"
       inkscape:vp_z="744.09448 : 526.18109 : 1"
       inkscape:persp3d-origin="372.04724 : 350.78739 : 1"
       id="perspective10" />
  </defs>
  <sodipodi:namedview
     id="base"
     pagecolor="#ffffff"
     bordercolor="#666666"
     borderopacity="1.0"
     gridtolerance="10000"
     guidetolerance="10"
     objecttolerance="10"
     inkscape:pageopacity="0"
     inkscape:pageshadow="2"
     inkscape:zoom="4.1691988"
     inkscape:cx="91.08779"
     inkscape:cy="52.157195"
     inkscape:document-units="px"
     inkscape:current-layer="layer1"
     showgrid="true"
     showguides="true"
     inkscape:guide-bbox="true"
     inkscape:snap-global="false"
     inkscape:snap-guide="true"
     inkscape:window-width="943"
     inkscape:window-height="743"
     inkscape:window-x="38"
     inkscape:window-y="49"
     inkscape:object-paths="false"
     inkscape:object-nodes="false">
    <inkscape:grid
       type="xygrid"
       id="grid2391"
       visible="true"
       enabled="true"
       spacingx="32px"
       spacingy="32px"
       empspacing="2" />
  </sodipodi:namedview>
  <metadata
     id="metadata7">
    <rdf:RDF>
      <cc:Work
         rdf:about="">
        <dc:format>image/svg+xml</dc:format>
        <dc:type
           rdf:resource="http://purl.org/dc/dcmitype/StillImage" />
      </cc:Work>
    </rdf:RDF>
  </metadata>
  <g
     inkscape:label="Layer 1"
     inkscape:groupmode="layer"
     id="layer1">
    <g
       id="g3209"
       transform="translate(-6.8827528,64.539007)">
      <path
         sodipodi:nodetypes="czzsz"
         id="path2413"
         d="M 64.719689,32.149339 C 64.188551,38.133068 56.459275,39.316431 50.537759,39.316431 C 44.616243,39.316431 36.901283,37.292254 36.901283,32.149339 C 36.901283,27.188242 44.070787,24.073156 53.083213,24.61861 C 58.993914,24.976341 65.235237,26.341251 64.719689,32.149339 z"
         style="fill:#ffffff;fill-opacity:1;stroke:#000000;stroke-width:3.70000005;stroke-linecap:butt;stroke-linejoin:miter;stroke-miterlimit:4;stroke-dashoffset:0;stroke-opacity:1" />
      <path
         sodipodi:nodetypes="csszz"
         id="path3186"
         d="M 58.262976,31.589285 C 58.262976,34.765493 57.0331,37.343284 55.517716,37.343284 C 54.002334,37.343284 52.772458,34.765493 52.772458,31.589285 C 52.772458,28.413078 52.181022,25.60636 55.517716,25.835286 C 58.862352,26.064756 58.262976,28.413077 58.262976,31.589285 z"
         style="fill:#000000;fill-opacity:1;stroke:none;stroke-width:3.70000005;stroke-linecap:butt;stroke-linejoin:miter;stroke-miterlimit:4;stroke-dashoffset:0;stroke-opacity:1" />
    </g>
    <use
       x="0"
       y="0"
       xlink:href="#g3209"
       id="use3213"
       transform="matrix(-1,0,0,1,128.00224,-9.2198604e-8)"
       width="256"
       height="256" />
    <path
       style="fill:#000000;fill-opacity:1;fill-rule:evenodd;stroke:none;stroke-width:1.70000005;stroke-linecap:butt;stroke-linejoin:miter;stroke-miterlimit:4;stroke-dasharray:none;stroke-opacity:1"
       d="M 31.452725,33.25 L 30.560825,34.1816 C 32.192495,35.609312 35.726465,36.430871 38.296475,36.23565 C 40.866485,36.040428 44.285839,35.252113 45.583407,33.954545 L 44.395907,32.735795 C 43.565815,33.565887 40.955791,34.524254 38.265225,34.75 C 35.755249,34.960593 32.657935,34.304559 31.452725,33.25 z"
       id="path3247"
       sodipodi:nodetypes="cczcczc" />
    <use
       x="0"
       y="0"
       xlink:href="#path3247"
       id="use3253"
       transform="matrix(-1,0,0,1,128.32604,-4.5454499e-8)"
       width="256"
       height="256" />
    <path
       sodipodi:type="arc"
       style="opacity:1;fill:#ffffff;fill-opacity:1;stroke:#000000;stroke-width:2.5999999;stroke-linecap:butt;stroke-linejoin:miter;stroke-miterlimit:4;stroke-dasharray:none;stroke-dashoffset:0;stroke-opacity:1"
       id="path3297"
       sodipodi:cx="169.82776"
       sodipodi:cy="31.710768"
       sodipodi:rx="16.778034"
       sodipodi:ry="20.563496"
       d="M 186.60579,31.710768 A 16.778034,20.563496 0 1 1 153.04972,31.710768 A 16.778034,20.563496 0 1 1 186.60579,31.710768 z" />
    <path
       sodipodi:type="arc"
       style="opacity:1;fill:#ffffff;fill-opacity:1;stroke:#000000;stroke-width:2.9;stroke-linecap:butt;stroke-linejoin:miter;stroke-miterlimit:4;stroke-dasharray:none;stroke-dashoffset:0;stroke-opacity:1"
       id="path3299"
       sodipodi:cx="215.54471"
       sodipodi:cy="32.171005"
       sodipodi:rx="7.2103925"
       sodipodi:ry="8.4376936"
       d="M 222.7551,32.171005 A 7.2103925,8.4376936 0 1 1 208.33432,32.171005 A 7.2103925,8.4376936 0 1 1 222.7551,32.171005 z" />
    <path
       sodipodi:type="arc"
       style="opacity:1;fill:#000000;fill-opacity:1;stroke:none;stroke-width:2.9000001;stroke-linecap:butt;stroke-linejoin:miter;stroke-miterlimit:4;stroke-dasharray:none;stroke-dashoffset:0;stroke-opacity:1"
       id="path3301"
       sodipodi:cx="170.13458"
       sodipodi:cy="32.017593"
       sodipodi:rx="2.6080143"
       sodipodi:ry="1.9079223"
       d="M 172.7426,32.017593 A 2.6080143,1.9079223 0 1 1 167.52657,32.017593 A 2.6080143,1.9079223 0 1 1 172.7426,32.017593 z"
       transform="translate(-0.3068252,3.1785589e-8)" />
    <path
       sodipodi:type="arc"
       style="opacity:1;fill:#000000;fill-opacity:1;stroke:none;stroke-width:2.9000001;stroke-linecap:butt;stroke-linejoin:miter;stroke-miterlimit:4;stroke-dasharray:none;stroke-dashoffset:0;stroke-opacity:1"
       id="path3303"
       sodipodi:cx="214.77765"
       sodipodi:cy="32.017593"
       sodipodi:rx="2.1477766"
       sodipodi:ry="2.7614269"
       d="M 216.92543,32.017593 A 2.1477766,2.7614269 0 1 1 212.62987,32.017593 A 2.1477766,2.7614269 0 1 1 216.92543,32.017593 z"
       transform="translate(0.6136504,0.3068252)" />
    <g
       id="g3335">
      <g
         id="g3321"
         transform="translate(-6.8827528,128.4284)">
        <path
           sodipodi:nodetypes="czzsz"
           id="path3323"
           d="M 64.719689,32.149339 C 67.546922,37.2719 56.459275,39.316431 50.537759,39.316431 C 44.616243,39.316431 36.901283,37.292254 36.901283,32.149339 C 36.901283,27.188242 43.258011,21.131651 53.083213,25.397749 C 61.344326,28.98472 61.729111,26.73082 64.719689,32.149339 z"
           style="fill:#ffffff;fill-opacity:1;stroke:#000000;stroke-width:3.70000005;stroke-linecap:butt;stroke-linejoin:miter;stroke-miterlimit:4;stroke-dashoffset:0;stroke-opacity:1" />
        <path
           sodipodi:nodetypes="csszz"
           id="path3325"
           d="M 58.262976,31.589285 C 58.262976,34.765493 57.0331,37.343284 55.517716,37.343284 C 54.002334,37.343284 52.772458,34.765493 52.772458,31.589285 C 52.772458,28.413078 52.181022,25.60636 55.517716,25.835286 C 58.862352,26.064756 58.262976,28.413077 58.262976,31.589285 z"
           style="fill:#000000;fill-opacity:1;stroke:none;stroke-width:3.70000005;stroke-linecap:butt;stroke-linejoin:miter;stroke-miterlimit:4;stroke-dashoffset:0;stroke-opacity:1" />
      </g>
      <path
         sodipodi:nodetypes="ccccc"
         id="path3327"
         d="M 33.46875,139.375 L 32,142.78125 C 42.44155,147.3018 46.184024,148.3394 59.5,153 L 60.739854,150.39692 C 46.122953,145.2954 43.991702,143.93079 33.46875,139.375 z"
         style="fill:#000000;fill-opacity:1;fill-rule:evenodd;stroke:none;stroke-width:3.70000005;stroke-linecap:butt;stroke-linejoin:miter;stroke-miterlimit:4;stroke-dasharray:none;stroke-opacity:1" />
    </g>
    <use
       x="0"
       y="0"
       xlink:href="#g3335"
       id="use3341"
       transform="matrix(-1,0,0,1,127.76477,0)"
       width="256"
       height="256" />
    <g
       id="g3370">
      <g
         transform="matrix(0.9689641,0.2472014,-0.2472014,0.9689641,38.536296,56.875575)"
         id="g3355">
        <g
           id="g3357"
           transform="translate(-6.8827528,128.4284)" />
        <path
           sodipodi:nodetypes="ccccc"
           id="path3363"
           d="M 33.46875,139.375 L 32,142.78125 C 42.44155,147.3018 46.184024,148.3394 59.5,153 L 60.739854,150.39692 C 46.122953,145.2954 43.991702,143.93079 33.46875,139.375 z"
           style="fill:#000000;fill-opacity:1;fill-rule:evenodd;stroke:none;stroke-width:3.70000005;stroke-linecap:butt;stroke-linejoin:miter;stroke-miterlimit:4;stroke-dasharray:none;stroke-opacity:1" />
      </g>
      <path
         style="fill:#000000;fill-opacity:1;fill-rule:evenodd;stroke:none;stroke-width:1px;stroke-linecap:butt;stroke-linejoin:miter;stroke-opacity:1"
         d="M 44.097456,216.44258 L 56.641325,223.94906 L 45.496057,228.63808 C 45.496057,228.63808 48.851194,224.95513 48.853448,223.24301 C 48.856017,221.29103 44.097456,216.44258 44.097456,216.44258 z"
         id="path3289"
         sodipodi:nodetypes="ccczc" />
    </g>
    <use
       x="0"
       y="0"
       xlink:href="#g3370"
       id="use3376"
       transform="matrix(-1,0,0,1,127.79986,2.1060742e-8)"
       width="256"
       height="256" />
  </g>
</svg>
