ply
format ascii 1.0
Created by Blender3D 246 - www.blender.org, source file: player-stressed.blend
element vertex 264
property float x
property float y
property float z
property float nx
property float ny
property float nz
element face 88
property list uchar uint vertex_indices
end_header
-0.403338 0.152290 0.344624 -0.482271 0.000000 0.876022 
-0.132132 0.095589 0.493930 -0.482271 0.000000 0.876022 
-0.388614 0.207010 0.352730 -0.482271 0.000000 0.876022 
0.388614 0.207010 0.352730 0.482271 0.000000 0.876022 
0.132132 0.095589 0.493930 0.482271 0.000000 0.876022 
0.403338 0.152290 0.344624 0.482271 0.000000 0.876022 
-0.132132 0.095589 0.493930 -0.482272 -0.000001 0.876022 
-0.123232 0.128147 0.498829 -0.482272 -0.000001 0.876022 
-0.388614 0.207010 0.352730 -0.482272 -0.000001 0.876022 
0.388614 0.207010 0.352730 0.482272 -0.000001 0.876022 
0.123232 0.128147 0.498829 0.482272 -0.000001 0.876022 
0.132132 0.095589 0.493930 0.482272 -0.000001 0.876022 
-0.253525 0.049735 0.447401 -0.437349 -0.029883 0.898795 
-0.246823 -0.048354 0.447401 -0.437349 -0.029883 0.898795 
-0.213831 0.042596 0.466479 -0.437349 -0.029883 0.898795 
0.213831 0.042596 0.466479 0.437349 -0.029883 0.898795 
0.246823 -0.048354 0.447401 0.437349 -0.029883 0.898795 
0.253525 0.049735 0.447401 0.437349 -0.029883 0.898795 
-0.246823 -0.048354 0.447401 -0.530908 0.014857 0.847299 
-0.225670 -0.048354 0.460656 -0.530908 0.014857 0.847299 
-0.213831 0.042596 0.466479 -0.530908 0.014857 0.847299 
0.213831 0.042596 0.466479 0.530908 0.014857 0.847299 
0.225670 -0.048354 0.460656 0.530908 0.014857 0.847299 
0.246823 -0.048354 0.447401 0.530908 0.014857 0.847299 
-0.225670 -0.048354 0.460656 -0.530274 -0.051069 0.846287 
-0.246823 -0.048354 0.447401 -0.530274 -0.051069 0.846287 
-0.252203 -0.096891 0.441101 -0.530274 -0.051069 0.846287 
0.252203 -0.096891 0.441101 0.530274 -0.051069 0.846287 
0.246823 -0.048354 0.447401 0.530274 -0.051069 0.846287 
0.225670 -0.048354 0.460656 0.530274 -0.051069 0.846287 
-0.225670 -0.048354 0.460656 -0.391336 -0.151743 0.907651 
-0.252203 -0.096891 0.441101 -0.391336 -0.151743 0.907651 
-0.208064 -0.096891 0.460132 -0.391336 -0.151743 0.907651 
0.208064 -0.096891 0.460132 0.391336 -0.151743 0.907651 
0.252203 -0.096891 0.441101 0.391336 -0.151743 0.907651 
0.225670 -0.048354 0.460656 0.391336 -0.151743 0.907651 
-0.153176 -0.049009 0.490974 -0.381105 -0.176961 0.907438 
-0.225670 -0.048354 0.460656 -0.381105 -0.176961 0.907438 
-0.187665 -0.097545 0.467024 -0.381105 -0.176961 0.907438 
0.187665 -0.097545 0.467024 0.381105 -0.176961 0.907438 
0.225670 -0.048354 0.460656 0.381105 -0.176961 0.907438 
0.153176 -0.049009 0.490974 0.381105 -0.176961 0.907438 
-0.225670 -0.048354 0.460656 -0.321153 -0.126619 0.938525 
-0.208064 -0.096891 0.460132 -0.321153 -0.126619 0.938525 
-0.187665 -0.097545 0.467024 -0.321153 -0.126619 0.938525 
0.187665 -0.097545 0.467024 0.321153 -0.126619 0.938525 
0.208064 -0.096891 0.460132 0.321153 -0.126619 0.938525 
0.225670 -0.048354 0.460656 0.321153 -0.126619 0.938525 
-0.198062 0.089076 0.460132 -0.352251 0.242930 0.903828 
-0.241504 0.096888 0.441101 -0.352251 0.242930 0.903828 
-0.213831 0.042596 0.466479 -0.352251 0.242930 0.903828 
0.213831 0.042596 0.466479 0.352251 0.242930 0.903828 
0.241504 0.096888 0.441101 0.352251 0.242930 0.903828 
0.198062 0.089076 0.460132 0.352251 0.242930 0.903828 
-0.241504 0.096888 0.441101 -0.390392 0.218999 0.894222 
-0.253525 0.049735 0.447401 -0.390392 0.218999 0.894222 
-0.213831 0.042596 0.466479 -0.390392 0.218999 0.894222 
0.213831 0.042596 0.466479 0.390392 0.218999 0.894222 
0.253525 0.049735 0.447401 0.390392 0.218999 0.894222 
0.241504 0.096888 0.441101 0.390392 0.218999 0.894222 
-0.178101 0.084821 0.467024 -0.275794 0.221302 0.935395 
-0.198062 0.089076 0.460132 -0.275794 0.221302 0.935395 
-0.213831 0.042596 0.466479 -0.275794 0.221302 0.935395 
0.213831 0.042596 0.466479 0.275794 0.221302 0.935395 
0.198062 0.089076 0.460132 0.275794 0.221302 0.935395 
0.178101 0.084821 0.467024 0.275794 0.221302 0.935395 
-0.178101 0.084821 0.467024 -0.317174 0.256606 0.912992 
-0.213831 0.042596 0.466479 -0.317174 0.256606 0.912992 
-0.152747 0.030946 0.490974 -0.317174 0.256606 0.912992 
0.152747 0.030946 0.490974 0.317174 0.256606 0.912992 
0.213831 0.042596 0.466479 0.317174 0.256606 0.912992 
0.178101 0.084821 0.467024 0.317174 0.256606 0.912992 
-0.280458 0.103894 0.413825 -0.645092 0.287578 0.707923 
-0.334684 0.112981 0.360720 -0.645092 0.287578 0.707923 
-0.294108 0.057034 0.420422 -0.645092 0.287578 0.707923 
0.294108 0.057034 0.420422 0.645092 0.287578 0.707923 
0.334684 0.112981 0.360720 0.645092 0.287578 0.707923 
0.280458 0.103894 0.413825 0.645092 0.287578 0.707923 
-0.334684 0.112981 0.360720 -0.575901 0.363650 0.732186 
-0.374055 0.070746 0.350729 -0.575901 0.363650 0.732186 
-0.294108 0.057034 0.420422 -0.575901 0.363650 0.732186 
0.294108 0.057034 0.420422 0.575901 0.363650 0.732186 
0.374055 0.070746 0.350729 0.575901 0.363650 0.732186 
0.334684 0.112981 0.360720 0.575901 0.363650 0.732186 
-0.241504 0.096888 0.441101 -0.520412 0.265836 0.811482 
-0.280458 0.103894 0.413825 -0.520412 0.265836 0.811482 
-0.294108 0.057034 0.420422 -0.520412 0.265836 0.811482 
0.294108 0.057034 0.420422 0.520412 0.265836 0.811482 
0.280458 0.103894 0.413825 0.520412 0.265836 0.811482 
0.241504 0.096888 0.441101 0.520412 0.265836 0.811482 
-0.241504 0.096888 0.441101 -0.507166 0.239892 0.827789 
-0.294108 0.057034 0.420422 -0.507166 0.239892 0.827789 
-0.253525 0.049735 0.447401 -0.507166 0.239892 0.827789 
0.253525 0.049735 0.447401 0.507166 0.239892 0.827789 
0.294108 0.057034 0.420422 0.507166 0.239892 0.827789 
0.241504 0.096888 0.441101 0.507166 0.239892 0.827789 
-0.286609 -0.048354 0.426245 -0.616677 -0.243231 0.748697 
-0.378034 -0.049009 0.350729 -0.616677 -0.243231 0.748697 
-0.346760 -0.097545 0.360720 -0.616677 -0.243231 0.748697 
0.346760 -0.097545 0.360720 0.616677 -0.243231 0.748697 
0.378034 -0.049009 0.350729 0.616677 -0.243231 0.748697 
0.286609 -0.048354 0.426245 0.616677 -0.243231 0.748697 
-0.286609 -0.048354 0.426245 -0.689885 -0.109593 0.715575 
-0.346760 -0.097545 0.360720 -0.689885 -0.109593 0.715575 
-0.291781 -0.096891 0.413825 -0.689885 -0.109593 0.715575 
0.291781 -0.096891 0.413825 0.689885 -0.109593 0.715575 
0.346760 -0.097545 0.360720 0.689885 -0.109593 0.715575 
0.286609 -0.048354 0.426245 0.689885 -0.109593 0.715575 
-0.246823 -0.048354 0.447401 -0.468579 -0.062441 0.881212 
-0.286609 -0.048354 0.426245 -0.468579 -0.062441 0.881212 
-0.252203 -0.096891 0.441101 -0.468579 -0.062441 0.881212 
0.252203 -0.096891 0.441101 0.468579 -0.062441 0.881212 
0.286609 -0.048354 0.426245 0.468579 -0.062441 0.881212 
0.246823 -0.048354 0.447401 0.468579 -0.062441 0.881212 
-0.286609 -0.048354 0.426245 -0.561164 -0.148563 0.814263 
-0.291781 -0.096891 0.413825 -0.561164 -0.148563 0.814263 
-0.252203 -0.096891 0.441101 -0.561164 -0.148563 0.814263 
0.252203 -0.096891 0.441101 0.561164 -0.148563 0.814263 
0.291781 -0.096891 0.413825 0.561164 -0.148563 0.814263 
0.286609 -0.048354 0.426245 0.561164 -0.148563 0.814263 
-0.374055 0.070746 0.350729 -0.779265 0.385302 0.494256 
-0.383322 0.109399 0.305986 -0.779265 0.385302 0.494256 
-0.409190 0.077065 0.290408 -0.779265 0.385302 0.494256 
0.409190 0.077065 0.290408 0.779265 0.385302 0.494256 
0.383322 0.109399 0.305986 0.779265 0.385302 0.494256 
0.374055 0.070746 0.350729 0.779265 0.385302 0.494256 
-0.383322 0.109399 0.305986 -0.726799 0.279089 0.627592 
-0.401949 0.100421 0.288408 -0.726799 0.279089 0.627592 
-0.409190 0.077065 0.290408 -0.726799 0.279089 0.627592 
0.409190 0.077065 0.290408 0.726799 0.279089 0.627592 
0.401949 0.100421 0.288408 0.726799 0.279089 0.627592 
0.383322 0.109399 0.305986 0.726799 0.279089 0.627592 
-0.334684 0.112981 0.360720 -0.653056 0.467919 0.595457 
-0.364696 0.118378 0.323564 -0.653056 0.467919 0.595457 
-0.374055 0.070746 0.350729 -0.653056 0.467919 0.595457 
0.374055 0.070746 0.350729 0.653056 0.467919 0.595457 
0.364696 0.118378 0.323564 0.653056 0.467919 0.595457 
0.334684 0.112981 0.360720 0.653056 0.467919 0.595457 
-0.364696 0.118378 0.323564 -0.718615 0.445658 0.533836 
-0.383322 0.109399 0.305986 -0.718615 0.445658 0.533836 
-0.374055 0.070746 0.350729 -0.718615 0.445658 0.533836 
0.374055 0.070746 0.350729 0.718615 0.445658 0.533836 
0.383322 0.109399 0.305986 0.718615 0.445658 0.533836 
0.364696 0.118378 0.323564 0.718615 0.445658 0.533836 
-0.378034 -0.049009 0.350729 -0.786152 -0.311425 0.533836 
-0.393996 -0.085411 0.305986 -0.786152 -0.311425 0.533836 
-0.377253 -0.097545 0.323564 -0.786152 -0.311425 0.533836 
0.377253 -0.097545 0.323564 0.786152 -0.311425 0.533836 
0.393996 -0.085411 0.305986 0.786152 -0.311425 0.533836 
0.378034 -0.049009 0.350729 0.786152 -0.311425 0.533836 
-0.378034 -0.049009 0.350729 -0.725568 -0.344938 0.595457 
-0.377253 -0.097545 0.323564 -0.725568 -0.344938 0.595457 
-0.346760 -0.097545 0.360720 -0.725568 -0.344938 0.595457 
0.346760 -0.097545 0.360720 0.725568 -0.344938 0.595457 
0.377253 -0.097545 0.323564 0.725568 -0.344938 0.595457 
0.378034 -0.049009 0.350729 0.725568 -0.344938 0.595457 
-0.413733 -0.049009 0.290408 -0.764723 -0.146038 0.627591 
-0.410740 -0.073277 0.288408 -0.764723 -0.146038 0.627591 
-0.393996 -0.085411 0.305986 -0.764723 -0.146038 0.627591 
0.393996 -0.085411 0.305986 0.764723 -0.146038 0.627591 
0.410740 -0.073277 0.288408 0.764723 -0.146038 0.627591 
0.413733 -0.049009 0.290408 0.764723 -0.146038 0.627591 
-0.413733 -0.049009 0.290408 -0.835160 -0.241286 0.494256 
-0.393996 -0.085411 0.305986 -0.835160 -0.241286 0.494256 
-0.378034 -0.049009 0.350729 -0.835160 -0.241286 0.494256 
0.378034 -0.049009 0.350729 0.835160 -0.241286 0.494256 
0.393996 -0.085411 0.305986 0.835160 -0.241286 0.494256 
0.413733 -0.049009 0.290408 0.835160 -0.241286 0.494256 
-0.153176 -0.049009 0.490974 -0.188415 -0.209862 0.959405 
-0.119021 -0.085411 0.489719 -0.188415 -0.209862 0.959405 
-0.097075 -0.049009 0.501991 -0.188415 -0.209862 0.959405 
0.097075 -0.049009 0.501991 0.188415 -0.209862 0.959405 
0.119021 -0.085411 0.489719 0.188415 -0.209862 0.959405 
0.153176 -0.049009 0.490974 0.188415 -0.209862 0.959405 
-0.119021 -0.085411 0.489719 -0.287174 -0.146036 0.946681 
-0.096373 -0.073277 0.498461 -0.287174 -0.146036 0.946681 
-0.097075 -0.049009 0.501991 -0.287174 -0.146036 0.946681 
0.097075 -0.049009 0.501991 0.287174 -0.146036 0.946681 
0.096373 -0.073277 0.498461 0.287174 -0.146036 0.946681 
0.119021 -0.085411 0.489719 0.287174 -0.146036 0.946681 
-0.187665 -0.097545 0.467024 -0.280535 -0.256992 0.924800 
-0.141668 -0.097545 0.480977 -0.280535 -0.256992 0.924800 
-0.153176 -0.049009 0.490974 -0.280535 -0.256992 0.924800 
0.153176 -0.049009 0.490974 0.280535 -0.256992 0.924800 
0.141668 -0.097545 0.480977 0.280535 -0.256992 0.924800 
0.187665 -0.097545 0.467024 0.280535 -0.256992 0.924800 
-0.141668 -0.097545 0.480977 -0.230130 -0.248364 0.940933 
-0.119021 -0.085411 0.489719 -0.230130 -0.248364 0.940933 
-0.153176 -0.049009 0.490974 -0.230130 -0.248364 0.940933 
0.153176 -0.049009 0.490974 0.230130 -0.248364 0.940933 
0.119021 -0.085411 0.489719 0.230130 -0.248364 0.940933 
0.141668 -0.097545 0.480977 0.230130 -0.248364 0.940933 
-0.152747 0.030946 0.490974 -0.182535 0.285176 0.940933 
-0.112688 0.060728 0.489719 -0.182535 0.285176 0.940933 
-0.132830 0.076679 0.480977 -0.182535 0.285176 0.940933 
0.132830 0.076679 0.480977 0.182535 0.285176 0.940933 
0.112688 0.060728 0.489719 0.182535 0.285176 0.940933 
0.152747 0.030946 0.490974 0.182535 0.285176 0.940933 
-0.152747 0.030946 0.490974 -0.230617 0.302590 0.924800 
-0.132830 0.076679 0.480977 -0.230617 0.302590 0.924800 
-0.178101 0.084821 0.467024 -0.230617 0.302590 0.924800 
0.178101 0.084821 0.467024 0.230617 0.302590 0.924800 
0.132830 0.076679 0.480977 0.230617 0.302590 0.924800 
0.152747 0.030946 0.490974 0.230617 0.302590 0.924800 
-0.097533 0.021016 0.501991 -0.256791 0.194561 0.946681 
-0.092546 0.044777 0.498461 -0.256791 0.194561 0.946681 
-0.112688 0.060728 0.489719 -0.256791 0.194561 0.946681 
0.112688 0.060728 0.489719 0.256791 0.194561 0.946681 
0.092546 0.044777 0.498461 0.256791 0.194561 0.946681 
0.097533 0.021016 0.501991 0.256791 0.194561 0.946681 
-0.097533 0.021016 0.501991 -0.148294 0.239899 0.959405 
-0.112688 0.060728 0.489719 -0.148294 0.239899 0.959405 
-0.152747 0.030946 0.490974 -0.148294 0.239899 0.959405 
0.152747 0.030946 0.490974 0.148294 0.239899 0.959405 
0.112688 0.060728 0.489719 0.148294 0.239899 0.959405 
0.097533 0.021016 0.501991 0.148294 0.239899 0.959405 
-0.379737 0.000000 0.352431 -0.859095 -0.047546 0.509603 
-0.415735 0.000000 0.291745 -0.859095 -0.047546 0.509603 
-0.378034 -0.049009 0.350729 -0.859095 -0.047546 0.509603 
0.378034 -0.049009 0.350729 0.859095 -0.047546 0.509603 
0.415735 0.000000 0.291745 0.859095 -0.047546 0.509603 
0.379737 0.000000 0.352431 0.859095 -0.047546 0.509603 
-0.415735 0.000000 0.291745 -0.859553 -0.048994 0.508692 
-0.413733 -0.049009 0.290408 -0.859553 -0.048994 0.508692 
-0.378034 -0.049009 0.350729 -0.859553 -0.048994 0.508692 
0.378034 -0.049009 0.350729 0.859553 -0.048994 0.508692 
0.413733 -0.049009 0.290408 0.859553 -0.048994 0.508692 
0.415735 0.000000 0.291745 0.859553 -0.048994 0.508692 
-0.374055 0.070746 0.350729 -0.857479 0.081632 0.508003 
-0.409190 0.077065 0.290408 -0.857479 0.081632 0.508003 
-0.415735 0.000000 0.291745 -0.857479 0.081632 0.508003 
0.415735 0.000000 0.291745 0.857479 0.081632 0.508003 
0.409190 0.077065 0.290408 0.857479 0.081632 0.508003 
0.374055 0.070746 0.350729 0.857479 0.081632 0.508003 
-0.374055 0.070746 0.350729 -0.857236 0.081075 0.508500 
-0.415735 0.000000 0.291745 -0.857236 0.081075 0.508500 
-0.379737 0.000000 0.352431 -0.857236 0.081075 0.508500 
0.379737 0.000000 0.352431 0.857236 0.081075 0.508500 
0.415735 0.000000 0.291745 0.857236 0.081075 0.508500 
0.374055 0.070746 0.350729 0.857236 0.081075 0.508500 
-0.097533 0.021016 0.501991 -0.181505 0.078375 0.980262 
-0.152747 0.030946 0.490974 -0.181505 0.078375 0.980262 
-0.154097 0.000000 0.493198 -0.181505 0.078375 0.980262 
0.154097 0.000000 0.493198 0.181505 0.078375 0.980262 
0.152747 0.030946 0.490974 0.181505 0.078375 0.980262 
0.097533 0.021016 0.501991 0.181505 0.078375 0.980262 
-0.097533 0.021016 0.501991 -0.192347 0.109683 0.975178 
-0.154097 0.000000 0.493198 -0.192347 0.109683 0.975178 
-0.097545 0.000000 0.504353 -0.192347 0.109683 0.975178 
0.097545 0.000000 0.504353 0.192347 0.109683 0.975178 
0.154097 0.000000 0.493198 0.192347 0.109683 0.975178 
0.097533 0.021016 0.501991 0.192347 0.109683 0.975178 
-0.097545 0.000000 0.504353 -0.193290 -0.048111 0.979961 
-0.154097 0.000000 0.493198 -0.193290 -0.048111 0.979961 
-0.153176 -0.049009 0.490974 -0.193290 -0.048111 0.979961 
0.153176 -0.049009 0.490974 0.193290 -0.048111 0.979961 
0.154097 0.000000 0.493198 0.193290 -0.048111 0.979961 
0.097545 0.000000 0.504353 0.193290 -0.048111 0.979961 
-0.097545 0.000000 0.504353 -0.192475 -0.049068 0.980074 
-0.153176 -0.049009 0.490974 -0.192475 -0.049068 0.980074 
-0.097075 -0.049009 0.501991 -0.192475 -0.049068 0.980074 
0.097075 -0.049009 0.501991 0.192475 -0.049068 0.980074 
0.153176 -0.049009 0.490974 0.192475 -0.049068 0.980074 
0.097545 0.000000 0.504353 0.192475 -0.049068 0.980074 
3 0 1 2 
3 3 4 5 
3 6 7 8 
3 9 10 11 
3 12 13 14 
3 15 16 17 
3 18 19 20 
3 21 22 23 
3 24 25 26 
3 27 28 29 
3 30 31 32 
3 33 34 35 
3 36 37 38 
3 39 40 41 
3 42 43 44 
3 45 46 47 
3 48 49 50 
3 51 52 53 
3 54 55 56 
3 57 58 59 
3 60 61 62 
3 63 64 65 
3 66 67 68 
3 69 70 71 
3 72 73 74 
3 75 76 77 
3 78 79 80 
3 81 82 83 
3 84 85 86 
3 87 88 89 
3 90 91 92 
3 93 94 95 
3 96 97 98 
3 99 100 101 
3 102 103 104 
3 105 106 107 
3 108 109 110 
3 111 112 113 
3 114 115 116 
3 117 118 119 
3 120 121 122 
3 123 124 125 
3 126 127 128 
3 129 130 131 
3 132 133 134 
3 135 136 137 
3 138 139 140 
3 141 142 143 
3 144 145 146 
3 147 148 149 
3 150 151 152 
3 153 154 155 
3 156 157 158 
3 159 160 161 
3 162 163 164 
3 165 166 167 
3 168 169 170 
3 171 172 173 
3 174 175 176 
3 177 178 179 
3 180 181 182 
3 183 184 185 
3 186 187 188 
3 189 190 191 
3 192 193 194 
3 195 196 197 
3 198 199 200 
3 201 202 203 
3 204 205 206 
3 207 208 209 
3 210 211 212 
3 213 214 215 
3 216 217 218 
3 219 220 221 
3 222 223 224 
3 225 226 227 
3 228 229 230 
3 231 232 233 
3 234 235 236 
3 237 238 239 
3 240 241 242 
3 243 244 245 
3 246 247 248 
3 249 250 251 
3 252 253 254 
3 255 256 257 
3 258 259 260 
3 261 262 263 
