ply
format ascii 1.0
Created by Blender3D 246 - www.blender.org, source file: player-strained.blend
element vertex 20
property float x
property float y
property float z
property float nx
property float ny
property float nz
element face 8
property list uchar uint vertex_indices
end_header
-0.347656 0.211635 0.369227 -0.398270 0.065967 0.914893 
-0.094024 0.028152 0.492868 -0.398270 0.065967 0.914893 
-0.320746 0.252296 0.378010 -0.398270 0.065967 0.914893 
0.320746 0.252296 0.378010 0.398270 0.065967 0.914893 
0.094024 0.028152 0.492868 0.398270 0.065967 0.914893 
0.347656 0.211635 0.369227 0.398270 0.065967 0.914893 
-0.074182 0.051153 0.499847 -0.398270 0.065967 0.914893 
0.074182 0.051153 0.499847 0.398270 0.065967 0.914893 
-0.238590 0.015337 0.435787 -0.382122 0.024140 0.923796 
-0.309606 -0.069197 0.408620 -0.382122 0.024140 0.923796 
-0.115957 0.001182 0.486883 -0.382122 0.024140 0.923796 
0.115957 0.001182 0.486883 0.382122 0.024140 0.923796 
0.309606 -0.069197 0.408620 0.382122 0.024140 0.923796 
0.238590 0.015337 0.435787 0.382122 0.024140 0.923796 
-0.238590 0.015337 0.435787 -0.384136 0.004771 0.923264 
-0.115957 0.001182 0.486883 -0.384136 0.004771 0.923264 
-0.302354 0.130449 0.408662 -0.384136 0.004771 0.923264 
0.302354 0.130449 0.408662 0.384136 0.004771 0.923264 
0.115957 0.001182 0.486883 0.384136 0.004771 0.923264 
0.238590 0.015337 0.435787 0.384136 0.004771 0.923264 
3 0 1 2 
3 3 4 5 
3 1 6 2 
3 3 7 4 
3 8 9 10 
3 11 12 13 
3 14 15 16 
3 17 18 19 
