<?xml version="1.0" encoding="UTF-8" standalone="no"?>
<!-- Created with Inkscape (http://www.inkscape.org/) -->
<svg
   xmlns:battlemints="com.duriansoftware.BattleMints.board"
   xmlns:dc="http://purl.org/dc/elements/1.1/"
   xmlns:cc="http://creativecommons.org/ns#"
   xmlns:rdf="http://www.w3.org/1999/02/22-rdf-syntax-ns#"
   xmlns:svg="http://www.w3.org/2000/svg"
   xmlns="http://www.w3.org/2000/svg"
   xmlns:xlink="http://www.w3.org/1999/xlink"
   xmlns:sodipodi="http://sodipodi.sourceforge.net/DTD/sodipodi-0.dtd"
   xmlns:inkscape="http://www.inkscape.org/namespaces/inkscape"
   width="1000"
   height="10"
   id="svg4657"
   sodipodi:version="0.32"
   inkscape:version="0.46"
   version="1.0"
   sodipodi:docname="start.svg"
   inkscape:output_extension="org.inkscape.output.svg.inkscape"
   battlemints:theme="temple">
  <defs
     id="defs4659">
    <linearGradient
       id="linearGradient2610">
      <stop
         id="stop2612"
         offset="0"
         style="stop-color:#d7e3f4;stop-opacity:1" />
      <stop
         id="stop2614"
         offset="1"
         style="stop-color:#0066ff;stop-opacity:1" />
    </linearGradient>
    <linearGradient
       id="linearGradient2604">
      <stop
         id="stop2606"
         offset="0"
         style="stop-color:#d7e3f4;stop-opacity:1" />
      <stop
         id="stop2608"
         offset="1"
         style="stop-color:#0066ff;stop-opacity:1" />
    </linearGradient>
    <linearGradient
       id="background-gradient">
      <stop
         style="stop-color:#d7e3f4;stop-opacity:1;"
         offset="0"
         id="stop12495" />
      <stop
         style="stop-color:#2a7fff;stop-opacity:1;"
         offset="1"
         id="stop12497" />
    </linearGradient>
    <inkscape:perspective
       sodipodi:type="inkscape:persp3d"
       inkscape:vp_x="0 : 526.18109 : 1"
       inkscape:vp_y="0 : 1000 : 0"
       inkscape:vp_z="744.09448 : 526.18109 : 1"
       inkscape:persp3d-origin="372.04724 : 350.78739 : 1"
       id="perspective4665" />
    <linearGradient
       inkscape:collect="always"
       xlink:href="#background-gradient"
       id="linearGradient2572"
       gradientUnits="userSpaceOnUse"
       x1="0"
       y1="8.0625"
       x2="0"
       y2="-8.0625"
       gradientTransform="translate(17.762139,19.951948)" />
  </defs>
  <sodipodi:namedview
     id="base"
     pagecolor="#ffffff"
     bordercolor="#666666"
     borderopacity="1.0"
     gridtolerance="10000"
     guidetolerance="10"
     objecttolerance="10"
     inkscape:pageopacity="0.0"
     inkscape:pageshadow="2"
     inkscape:zoom="14.296868"
     inkscape:cx="27.856632"
     inkscape:cy="35.708161"
     inkscape:document-units="px"
     inkscape:current-layer="layer1"
     showgrid="true"
     inkscape:window-width="1267"
     inkscape:window-height="841"
     inkscape:window-x="0"
     inkscape:window-y="22"
     inkscape:snap-global="true"
     inkscape:snap-bbox="true"
     inkscape:snap-nodes="true"
     inkscape:object-nodes="true"
     showguides="true"
     inkscape:guide-bbox="true">
    <inkscape:grid
       type="xygrid"
       id="grid4667"
       visible="true"
       enabled="false"
       spacingx="0.1px"
       empspacing="10"
       spacingy="0.1px"
       originy="0px"
       originx="0px" />
    <inkscape:grid
       type="xygrid"
       id="grid5296"
       visible="true"
       enabled="false"
       spacingx="0.866px"
       spacingy="0.866px"
       originy="10px"
       color="#ff00fa"
       opacity="0.39215686" />
    <inkscape:grid
       type="xygrid"
       id="grid6416"
       visible="true"
       enabled="false"
       spacingx="0.7071px"
       spacingy="0.7071px"
       color="#ff0030"
       opacity="0.35294118"
       originy="10px" />
  </sodipodi:namedview>
  <metadata
     id="metadata4662">
    <rdf:RDF>
      <cc:Work
         rdf:about="">
        <dc:format>image/svg+xml</dc:format>
        <dc:type
           rdf:resource="http://purl.org/dc/dcmitype/StillImage" />
      </cc:Work>
    </rdf:RDF>
  </metadata>
  <g
     inkscape:groupmode="layer"
     id="layer2"
     inkscape:label="Templates"
     style="display:none">
    <g
       style="display:inline"
       id="player"
       inkscape:label="#g5236">
      <path
         sodipodi:open="true"
         sodipodi:end="6.2838755"
         sodipodi:start="0.00069147816"
         d="M 0.49999988,0.00034573905 A 0.5,0.5 0 1 1 0.49999988,0.00034509638"
         sodipodi:ry="0.5"
         sodipodi:rx="0.5"
         sodipodi:cy="0"
         sodipodi:cx="0"
         id="path5230"
         style="opacity:1;fill:#80e5ff;fill-opacity:1;stroke:#000000;stroke-width:0.045;stroke-linecap:butt;stroke-linejoin:miter;stroke-miterlimit:4;stroke-dasharray:none;stroke-dashoffset:0;stroke-opacity:1"
         sodipodi:type="arc" />
      <text
         id="text5232"
         y="0.30873013"
         x="-0.2686508"
         style="font-size:0.89740318px;font-style:normal;font-weight:normal;fill:#000000;fill-opacity:1;stroke:none;stroke-width:1px;stroke-linecap:butt;stroke-linejoin:miter;stroke-opacity:1;font-family:Bitstream Vera Sans"
         xml:space="preserve"><tspan
           y="0.30873013"
           x="-0.2686508"
           id="tspan5234"
           sodipodi:role="line">P</tspan></text>
    </g>
    <path
       style="fill:#f4d7ee;fill-rule:evenodd;stroke:#000000;stroke-width:0.045;stroke-linecap:butt;stroke-linejoin:round;stroke-miterlimit:4;stroke-dasharray:none;stroke-opacity:1"
       d="M 0,1.7763568e-15 L 1.4142,-1.4142 L 3.4142,-1.4142 L 4.8284,1.7763568e-15 L 4.8284,2 L 3.4142,3.4142 L 1.4142,3.4142 L 0,2 L 0,1.7763568e-15 z"
       id="tile-octagon"
       sodipodi:nodetypes="ccccccccc"
       inkscape:label="#path6427" />
    <g
       style="display:inline"
       id="mini"
       inkscape:label="#g5253">
      <path
         sodipodi:open="true"
         sodipodi:end="6.2838755"
         sodipodi:start="0.00069147816"
         d="M 0.34999991,0.00024201733 A 0.34999999,0.34999999 0 1 1 0.34999991,0.00024156746"
         sodipodi:ry="0.34999999"
         sodipodi:rx="0.34999999"
         sodipodi:cy="0"
         sodipodi:cx="0"
         id="path5247"
         style="opacity:1;fill:#ff0000;fill-opacity:1;stroke:#000000;stroke-width:0.045;stroke-linecap:butt;stroke-linejoin:miter;stroke-miterlimit:4;stroke-dasharray:none;stroke-dashoffset:0;stroke-opacity:1"
         sodipodi:type="arc" />
      <text
         id="text5249"
         y="0.11120844"
         x="-0.18511547"
         style="font-size:0.40000001px;font-style:normal;font-weight:normal;fill:#000000;fill-opacity:1;stroke:none;stroke-width:1px;stroke-linecap:butt;stroke-linejoin:miter;stroke-opacity:1;font-family:Bitstream Vera Sans"
         xml:space="preserve"><tspan
           y="0.11120844"
           x="-0.18511547"
           id="tspan5251"
           sodipodi:role="line">m</tspan></text>
    </g>
    <g
       id="mega"
       inkscape:label="#g5218">
      <path
         sodipodi:open="true"
         sodipodi:end="6.2838755"
         sodipodi:start="0.00069147816"
         d="M 2.5999993,0.001797843 A 2.5999999,2.5999999 0 1 1 2.5999993,0.0017945011"
         sodipodi:ry="2.5999999"
         sodipodi:rx="2.5999999"
         sodipodi:cy="0"
         sodipodi:cx="0"
         id="path5208"
         style="opacity:1;fill:#a05a2c;fill-opacity:1;stroke:#000000;stroke-width:0.045;stroke-linecap:butt;stroke-linejoin:miter;stroke-miterlimit:4;stroke-dasharray:none;stroke-dashoffset:0;stroke-opacity:1"
         sodipodi:type="arc" />
      <text
         id="text5214"
         y="1.288908"
         x="-1.5007739"
         style="font-size:3.45534396px;font-style:normal;font-weight:normal;fill:#000000;fill-opacity:1;stroke:none;stroke-width:1px;stroke-linecap:butt;stroke-linejoin:miter;stroke-opacity:1;font-family:Bitstream Vera Sans"
         xml:space="preserve"><tspan
           y="1.288908"
           x="-1.5007739"
           id="tspan5216"
           sodipodi:role="line">M</tspan></text>
    </g>
    <path
       inkscape:label="#path6418"
       sodipodi:nodetypes="ccccccc"
       id="tile-hexagon-90"
       d="M 0,0 L 1.4142,-1.4142 L 3.4142,-1.4142 L 4.8284,0 L 3.4142,1.4142 L 1.4142,1.4142 L 0,0 z"
       style="fill:#c8b7be;fill-rule:evenodd;stroke:#000000;stroke-width:0.045;stroke-linecap:butt;stroke-linejoin:round;stroke-miterlimit:4;stroke-dasharray:none;stroke-opacity:1;display:inline" />
    <g
       style="display:inline"
       id="bumper"
       inkscape:label="#g5268">
      <path
         sodipodi:open="true"
         sodipodi:end="6.2838755"
         sodipodi:start="0.00069147816"
         d="M 0.49999988,0.00034573905 A 0.5,0.5 0 1 1 0.49999988,0.00034509638"
         sodipodi:ry="0.5"
         sodipodi:rx="0.5"
         sodipodi:cy="0"
         sodipodi:cx="0"
         id="path5264"
         style="opacity:1;fill:#ff0000;fill-opacity:0.502008;stroke:#000000;stroke-width:0.045;stroke-linecap:butt;stroke-linejoin:miter;stroke-miterlimit:4;stroke-dasharray:none;stroke-dashoffset:0;stroke-opacity:1"
         sodipodi:type="arc" />
      <path
         sodipodi:open="true"
         sodipodi:end="6.2838755"
         sodipodi:start="0.00069147816"
         d="M 0.39999991,0.00027659125 A 0.40000001,0.40000001 0 1 1 0.39999991,0.00027607711"
         sodipodi:ry="0.40000001"
         sodipodi:rx="0.40000001"
         sodipodi:cy="0"
         sodipodi:cx="0"
         id="path5266"
         style="opacity:1;fill:#ccff00;fill-opacity:1;stroke:#000000;stroke-width:0.045;stroke-linecap:butt;stroke-linejoin:miter;stroke-miterlimit:4;stroke-dasharray:none;stroke-dashoffset:0;stroke-opacity:1"
         sodipodi:type="arc" />
    </g>
    <path
       style="fill:#fff6d5;fill-rule:evenodd;stroke:#000000;stroke-width:0.045;stroke-linecap:butt;stroke-linejoin:round;stroke-miterlimit:4;stroke-dasharray:none;stroke-opacity:1;display:inline"
       d="M 0,0 L 1,-1.732 L 3,-1.732 L 4,0 L 3,1.732 L 1,1.732 L 0,0 z"
       id="tile-hexagon"
       inkscape:label="#path5308" />
    <path
       style="fill:#ffd5d5;fill-rule:evenodd;stroke:#000000;stroke-width:0.045;stroke-linecap:butt;stroke-linejoin:round;stroke-miterlimit:4;stroke-dasharray:none;stroke-opacity:1;display:inline"
       d="M 0,0 L 1,-1.732 L 3,-1.732 L 4,0 L 0,0 z"
       id="tile-trapezoid"
       inkscape:label="#path5306" />
    <path
       style="fill:#ffe6d5;fill-rule:evenodd;stroke:#000000;stroke-width:0.045;stroke-linecap:butt;stroke-linejoin:round;stroke-miterlimit:4;stroke-dasharray:none;stroke-opacity:1;display:inline"
       d="M 0,0 L 2,0 L 2,-2 L 0,-2 L 0,0 z"
       id="tile-square"
       inkscape:label="#path5304" />
    <path
       style="fill:#f4e3d7;fill-rule:evenodd;stroke:#000000;stroke-width:0.045;stroke-linecap:butt;stroke-linejoin:round;stroke-miterlimit:4;stroke-dasharray:none;stroke-opacity:1;display:inline"
       d="M 0,0 L 0,-2 L 1,-3.732 L 1,-1.732 L 0,0 z"
       id="tile-rhombus-30"
       sodipodi:nodetypes="ccccc"
       inkscape:label="#path5298" />
    <path
       style="fill:#d5d5ff;fill-rule:evenodd;stroke:#000000;stroke-width:0.045;stroke-linecap:butt;stroke-linejoin:round;stroke-miterlimit:4;stroke-dasharray:none;stroke-opacity:1;display:inline"
       d="M 0,0 L 1,-1.732 L 3,-1.732 L 2,0 L 0,0 z"
       id="tile-rhombus-60"
       inkscape:label="#path5300" />
    <path
       style="fill:#d5ffd5;fill-rule:evenodd;stroke:#000000;stroke-width:0.045;stroke-linecap:butt;stroke-linejoin:round;stroke-miterlimit:4;stroke-dasharray:none;stroke-opacity:1;display:inline"
       d="M 0,0 L 1,-1.732 L 2,0 L 0,0 z"
       id="tile-triangle"
       inkscape:label="#path5302" />
    <g
       id="powerup"
       inkscape:label="#g5752">
      <path
         sodipodi:open="true"
         sodipodi:end="6.2838755"
         sodipodi:start="0.00069147816"
         d="M 0.49999988,0.00034573905 A 0.5,0.5 0 1 1 0.49999988,0.00034509638"
         sodipodi:ry="0.5"
         sodipodi:rx="0.5"
         sodipodi:cy="0"
         sodipodi:cx="0"
         id="path5746"
         style="opacity:1;fill:#ffcc00;fill-opacity:1;stroke:#000000;stroke-width:0.045;stroke-linecap:butt;stroke-linejoin:round;stroke-miterlimit:4;stroke-dasharray:none;stroke-dashoffset:0;stroke-opacity:1"
         sodipodi:type="arc" />
      <text
         id="text5748"
         y="0.35388967"
         x="-0.22372356"
         style="font-size:0.91350412px;font-style:normal;font-weight:normal;fill:#d35f5f;fill-opacity:1;stroke:none;stroke-width:1px;stroke-linecap:butt;stroke-linejoin:miter;stroke-opacity:1;font-family:Bitstream Vera Sans"
         xml:space="preserve"><tspan
           y="0.35388967"
           x="-0.22372356"
           id="tspan5750"
           sodipodi:role="line">?</tspan></text>
    </g>
    <path
       style="fill:#483e37;fill-opacity:0.49818181;fill-rule:evenodd;stroke:none;stroke-width:1px;stroke-linecap:butt;stroke-linejoin:miter;stroke-opacity:1;display:inline"
       d="M 0,-0.3 L -0.5,-0.3 L -0.5,0.3 L 0,0.3 L 0,0.5 L 0.5,0 L 0,-0.5 L 0,-0.3 z"
       id="arrow"
       inkscape:label="#path5930" />
    <path
       style="fill:#ffaacc;fill-rule:evenodd;stroke:#000000;stroke-width:0.045;stroke-linecap:butt;stroke-linejoin:round;stroke-miterlimit:4;stroke-dasharray:none;stroke-opacity:1;display:inline"
       d="M 0,0 L 1.4142,-1.4142 L 3.4142,-1.4142 L 2,0 L 0,0 z"
       id="tile-rhombus-45"
       sodipodi:nodetypes="ccccc"
       inkscape:label="#path6418" />
    <g
       id="switch"
       transform="translate(-5.681924e-3,-2.9998637)"
       inkscape:label="#g4518">
      <path
         id="path4510"
         d="M -0.5,3 L 0.5,3"
         style="fill:#483737;fill-rule:evenodd;stroke:#6c5d53;stroke-width:0.09;stroke-linecap:round;stroke-linejoin:miter;stroke-miterlimit:4;stroke-dasharray:none;stroke-opacity:1" />
      <path
         sodipodi:open="true"
         transform="matrix(1.2206464,0,0,1.2206464,-0.5076719,2.9998637)"
         sodipodi:type="arc"
         style="fill:#e3dedb;fill-opacity:1;stroke:#000000;stroke-width:0.045;stroke-linecap:butt;stroke-linejoin:miter;stroke-miterlimit:4;stroke-dasharray:none;stroke-dashoffset:0;stroke-opacity:1"
         id="path3731"
         sodipodi:cx="0"
         sodipodi:cy="0"
         sodipodi:rx="0.16617504"
         sodipodi:ry="0.16373596"
         d="M 0.166175,0.00011321983 A 0.16617504,0.16373596 0 1 1 0.16617504,-1.1755564e-09"
         sodipodi:start="0.00069147816"
         sodipodi:end="6.2831853" />
    </g>
    <rect
       style="opacity:1;fill:#ffff00;fill-opacity:0.497992;stroke:#000000;stroke-width:0.045;stroke-linecap:round;stroke-linejoin:round;stroke-miterlimit:4;stroke-dasharray:none;stroke-dashoffset:0;stroke-opacity:1"
       id="sign"
       width="0.99999994"
       height="0.99999994"
       x="-0.49497473"
       y="-0.49497473"
       ry="0.079423994"
       transform="matrix(0.7071068,0.7071068,-0.7071068,0.7071068,0,0)" />
    <path
       sodipodi:type="arc"
       style="opacity:1;fill:#f4eed7;fill-opacity:1;stroke:#002255;stroke-width:0.045;stroke-linecap:round;stroke-linejoin:round;stroke-miterlimit:4;stroke-dasharray:none;stroke-opacity:1"
       id="pellet"
       sodipodi:cx="0"
       sodipodi:cy="-8.8817842e-16"
       sodipodi:rx="0.1"
       sodipodi:ry="0.1"
       d="M 0.1,-8.8817842e-16 A 0.1,0.1 0 1 1 -0.1,-8.7593195e-16 A 0.1,0.1 0 1 1 0.1,-9.1267136e-16 z"
       inkscape:label="#path5618" />
  </g>
  <g
     inkscape:groupmode="layer"
     id="layer3"
     inkscape:label="Palette"
     style="display:inline">
    <path
       id="path5528"
       d="M 12.428806,11.951948 L 23.095472,11.951948 L 23.095472,27.951948 L 12.428806,27.951948 L 12.428806,11.951948 z"
       style="fill:url(#linearGradient2572);fill-opacity:1;stroke:#ff7b7b;stroke-width:0.1;stroke-miterlimit:4;stroke-dasharray:0.1, 0.1;stroke-dashoffset:0;stroke-opacity:1" />
    <use
       style="display:inline"
       x="0"
       y="0"
       xlink:href="#player"
       id="use5288"
       transform="translate(7.5625,5.5625)"
       width="1000"
       height="10" />
    <use
       style="display:inline"
       x="0"
       y="0"
       xlink:href="#mega"
       id="use5276"
       transform="translate(3.6624999,5.6624999)"
       width="1000"
       height="10" />
    <use
       style="display:inline"
       x="0"
       y="0"
       xlink:href="#bumper"
       id="use5290"
       transform="translate(7.5625,7.5625)"
       width="1000"
       height="10" />
    <use
       style="display:inline"
       x="0"
       y="0"
       xlink:href="#tile-hexagon"
       id="use5316"
       transform="translate(18.256868,4.3758669)"
       width="1000"
       height="10" />
    <use
       style="display:inline"
       x="0"
       y="0"
       xlink:href="#tile-trapezoid"
       id="use5318"
       transform="translate(13.840779,8.464)"
       width="1000"
       height="10" />
    <use
       style="display:inline"
       x="0"
       y="0"
       xlink:href="#tile-square"
       id="use5320"
       transform="translate(14.740779,6.732)"
       width="1000"
       height="10" />
    <use
       style="display:inline"
       x="0"
       y="0"
       xlink:href="#tile-rhombus-30"
       id="use5322"
       transform="translate(16.740779,6.732)"
       width="1000"
       height="10" />
    <use
       style="display:inline"
       x="0"
       y="0"
       xlink:href="#tile-rhombus-60"
       id="use5324"
       transform="translate(17.840779,8.464)"
       width="1000"
       height="10" />
    <use
       style="display:inline"
       x="0"
       y="0"
       xlink:href="#tile-triangle"
       id="use5326"
       transform="translate(16.840779,6.732)"
       width="1000"
       height="10" />
    <use
       style="display:inline"
       x="0"
       y="0"
       xlink:href="#powerup"
       id="use5757"
       width="1000"
       height="10"
       transform="translate(9.5548943,3.5660717)" />
    <use
       style="display:inline"
       x="0"
       y="0"
       xlink:href="#arrow"
       id="use5933"
       width="1000"
       height="10"
       transform="translate(9.5,5.5)" />
    <use
       style="display:inline"
       x="0"
       y="0"
       xlink:href="#tile-rhombus-45"
       id="use6429"
       transform="translate(23.840519,3.9957178)"
       width="1000"
       height="10" />
    <use
       style="display:inline"
       x="0"
       y="0"
       xlink:href="#tile-hexagon-90"
       id="use6432"
       transform="translate(25.840519,3.9957178)"
       width="1000"
       height="10" />
    <use
       style="display:inline"
       x="0"
       y="0"
       xlink:href="#tile-octagon"
       id="use6435"
       transform="translate(22.321021,5.4692867)"
       width="1000"
       height="10" />
    <use
       height="10"
       width="1000"
       transform="translate(27.254719,7.4099178)"
       id="use6518"
       xlink:href="#tile-square"
       y="0"
       x="0"
       style="display:inline" />
    <use
       style="display:inline"
       x="0"
       y="0"
       xlink:href="#mini"
       id="use5286"
       transform="translate(7.4125,3.4125)"
       width="1000"
       height="10" />
    <use
       style="display:inline"
       x="0"
       y="0"
       xlink:href="#switch"
       id="use4522"
       width="1000"
       height="10"
       transform="translate(9.5681819,7.7376363)" />
    <path
       style="fill:#502d16;fill-rule:evenodd;stroke:#483737;stroke-width:0.2;stroke-linecap:butt;stroke-linejoin:miter;stroke-miterlimit:4;stroke-dasharray:none;stroke-opacity:1"
       d="M 35.852982,7.7808599 L 35.852982,3.6893204"
       id="path4715"
       battlemints:tripwire="door" />
    <path
       battlemints:tripwire="goal"
       id="path4717"
       d="M 37.852982,7.7808599 L 37.852982,3.6893204"
       style="fill:#000000;fill-rule:evenodd;stroke:#000000;stroke-width:0.2;stroke-linecap:butt;stroke-linejoin:miter;stroke-miterlimit:4;stroke-dasharray:0.2, 0.2;stroke-dashoffset:0;stroke-opacity:1" />
    <path
       battlemints:label="righthall"
       sodipodi:nodetypes="cc"
       style="fill:#502d16;fill-rule:evenodd;stroke:#cccccc;stroke-width:0.05;stroke-linecap:butt;stroke-linejoin:miter;stroke-miterlimit:4;stroke-dasharray:none;stroke-opacity:1"
       d="M 41.852982,7.7808599 L 41.852982,3.6893204"
       id="path5013"
       battlemints:tripwire="alarm" />
    <use
       style="display:inline"
       x="0"
       y="0"
       xlink:href="#sign"
       id="use5202"
       transform="translate(11.834644,3.5283412)"
       width="1000"
       height="10" />
    <use
       style="display:inline"
       x="0"
       y="0"
       xlink:href="#pellet"
       id="use6129"
       transform="translate(11.8375,5.1625)"
       width="1000"
       height="10" />
    <path
       style="fill:#000000;fill-rule:evenodd;stroke:#ff0000;stroke-width:0.20000000000000001;stroke-linecap:butt;stroke-linejoin:miter;stroke-miterlimit:4;stroke-dasharray:0.20000000000000001, 0.20000000000000001;stroke-dashoffset:0;stroke-opacity:1"
       d="M 39.852982,7.7808599 L 39.852982,3.6893204"
       id="path2596"
       battlemints:tripwire="loader"
       battlemints:universe-name="save1" />
  </g>
  <g
     inkscape:label="Map"
     inkscape:groupmode="layer"
     id="layer1"
     style="display:inline">
    <use
       height="10"
       width="1000"
       transform="translate(11.773122,-16.313166)"
       id="use2594"
       xlink:href="#tile-square"
       y="0"
       x="0"
       style="display:inline" />
    <path
       battlemints:universe-name="alpha"
       battlemints:tripwire="loader"
       id="path2598"
       d="M 17.636776,-17.32026 L 13.773122,-17.320273"
       style="display:inline;fill:#000000;fill-rule:evenodd;stroke:#ff0000;stroke-width:0.20000000000000001;stroke-linecap:butt;stroke-linejoin:miter;stroke-miterlimit:4;stroke-dasharray:0.20000000000000001, 0.20000000000000001;stroke-dashoffset:0;stroke-opacity:1"
       sodipodi:nodetypes="cc" />
    <use
       style="display:inline"
       x="0"
       y="0"
       xlink:href="#tile-square"
       id="use2600"
       transform="translate(17.636776,-16.313153)"
       width="1000"
       height="10" />
    <use
       height="10"
       width="1000"
       transform="translate(15.819445,-24.144664)"
       id="use2602"
       xlink:href="#player"
       y="0"
       x="0"
       style="display:inline" />
    <use
       height="10"
       width="1000"
       transform="translate(23.50043,-16.31314)"
       id="use3394"
       xlink:href="#tile-square"
       y="0"
       x="0"
       style="display:inline" />
    <use
       style="display:inline"
       x="0"
       y="0"
       xlink:href="#tile-square"
       id="use3398"
       transform="translate(29.364084,-16.313127)"
       width="1000"
       height="10" />
    <use
       height="10"
       width="1000"
       transform="translate(35.227738,-16.313115)"
       id="use3400"
       xlink:href="#tile-square"
       y="0"
       x="0"
       style="display:inline" />
    <path
       sodipodi:nodetypes="cc"
       style="display:inline;fill:#000000;fill-rule:evenodd;stroke:#ff0000;stroke-width:0.20000000000000001;stroke-linecap:butt;stroke-linejoin:miter;stroke-miterlimit:4;stroke-dasharray:0.20000000000000001, 0.20000000000000001;stroke-dashoffset:0;stroke-opacity:1"
       d="M 23.467393,-17.32026 L 19.603739,-17.320273"
       id="path3402"
       battlemints:tripwire="loader"
       battlemints:universe-name="beta" />
    <path
       battlemints:universe-name="gamma"
       battlemints:tripwire="loader"
       id="path3404"
       d="M 29.329985,-17.32026 L 25.466331,-17.320273"
       style="display:inline;fill:#000000;fill-rule:evenodd;stroke:#ff0000;stroke-width:0.20000000000000001;stroke-linecap:butt;stroke-linejoin:miter;stroke-miterlimit:4;stroke-dasharray:0.20000000000000001, 0.20000000000000001;stroke-dashoffset:0;stroke-opacity:1"
       sodipodi:nodetypes="cc" />
    <use
       height="10"
       width="1000"
       transform="translate(12.773122,-12.581166)"
       id="use3406"
       xlink:href="#tile-rhombus-30"
       y="0"
       x="0"
       style="display:inline" />
    <use
       style="display:inline"
       x="0"
       y="0"
       xlink:href="#tile-rhombus-30"
       id="use3408"
       transform="matrix(-1,0,0,1,12.773122,-12.581166)"
       width="1000"
       height="10" />
    <use
       style="display:inline"
       x="0"
       y="0"
       xlink:href="#tile-rhombus-30"
       id="use3410"
       transform="translate(18.636776,-12.581153)"
       width="1000"
       height="10" />
    <use
       height="10"
       width="1000"
       transform="matrix(-1,0,0,1,18.636776,-12.581153)"
       id="use3412"
       xlink:href="#tile-rhombus-30"
       y="0"
       x="0"
       style="display:inline" />
    <use
       height="10"
       width="1000"
       transform="translate(24.50043,-12.58114)"
       id="use3414"
       xlink:href="#tile-rhombus-30"
       y="0"
       x="0"
       style="display:inline" />
    <use
       style="display:inline"
       x="0"
       y="0"
       xlink:href="#tile-rhombus-30"
       id="use3416"
       transform="matrix(-1,0,0,1,24.50043,-12.58114)"
       width="1000"
       height="10" />
    <use
       style="display:inline"
       x="0"
       y="0"
       xlink:href="#tile-rhombus-30"
       id="use3418"
       transform="translate(30.364084,-12.581127)"
       width="1000"
       height="10" />
    <use
       height="10"
       width="1000"
       transform="matrix(-1,0,0,1,30.364084,-12.581127)"
       id="use3420"
       xlink:href="#tile-rhombus-30"
       y="0"
       x="0"
       style="display:inline" />
    <use
       style="display:inline"
       x="0"
       y="0"
       xlink:href="#tile-rhombus-30"
       id="use3422"
       transform="matrix(1,0,0,-1,12.773122,-12.581089)"
       width="1000"
       height="10" />
    <use
       height="10"
       width="1000"
       transform="matrix(-1,0,0,-1,12.773122,-12.581089)"
       id="use3424"
       xlink:href="#tile-rhombus-30"
       y="0"
       x="0"
       style="display:inline" />
    <use
       height="10"
       width="1000"
       transform="matrix(1,0,0,-1,18.636776,-12.581102)"
       id="use3426"
       xlink:href="#tile-rhombus-30"
       y="0"
       x="0"
       style="display:inline" />
    <use
       style="display:inline"
       x="0"
       y="0"
       xlink:href="#tile-rhombus-30"
       id="use3428"
       transform="matrix(-1,0,0,-1,18.636776,-12.581102)"
       width="1000"
       height="10" />
    <use
       style="display:inline"
       x="0"
       y="0"
       xlink:href="#tile-rhombus-30"
       id="use3430"
       transform="matrix(1,0,0,-1,24.50043,-12.581115)"
       width="1000"
       height="10" />
    <use
       height="10"
       width="1000"
       transform="matrix(-1,0,0,-1,24.50043,-12.581115)"
       id="use3432"
       xlink:href="#tile-rhombus-30"
       y="0"
       x="0"
       style="display:inline" />
    <use
       height="10"
       width="1000"
       transform="matrix(1,0,0,-1,30.364084,-12.581127)"
       id="use3434"
       xlink:href="#tile-rhombus-30"
       y="0"
       x="0"
       style="display:inline" />
    <use
       style="display:inline"
       x="0"
       y="0"
       xlink:href="#tile-rhombus-30"
       id="use3436"
       transform="matrix(-1,0,0,-1,30.364084,-12.581127)"
       width="1000"
       height="10" />
    <use
       style="display:inline"
       x="0"
       y="0"
       xlink:href="#tile-square"
       id="use3438"
       transform="translate(11.773122,-6.8491658)"
       width="1000"
       height="10" />
    <use
       height="10"
       width="1000"
       transform="translate(17.636776,-6.849153)"
       id="use3440"
       xlink:href="#tile-square"
       y="0"
       x="0"
       style="display:inline" />
    <use
       style="display:inline"
       x="0"
       y="0"
       xlink:href="#tile-square"
       id="use3442"
       transform="translate(23.50043,-6.8491402)"
       width="1000"
       height="10" />
    <use
       height="10"
       width="1000"
       transform="translate(29.364084,-6.8491274)"
       id="use3444"
       xlink:href="#tile-square"
       y="0"
       x="0"
       style="display:inline" />
    <path
       sodipodi:nodetypes="cc"
       style="display:inline;fill:#000000;fill-rule:evenodd;stroke:#ff0000;stroke-width:0.20000000000000001;stroke-linecap:butt;stroke-linejoin:miter;stroke-miterlimit:4;stroke-dasharray:0.20000000000000001, 0.20000000000000001;stroke-dashoffset:0;stroke-opacity:1"
       d="M 35.202058,-17.32026 L 31.338404,-17.320273"
       id="path3446"
       battlemints:tripwire="loader"
       battlemints:universe-name="delta" />
    <use
       height="10"
       width="1000"
       transform="translate(36.227738,-12.581115)"
       id="use3448"
       xlink:href="#tile-rhombus-30"
       y="0"
       x="0"
       style="display:inline" />
    <use
       style="display:inline"
       x="0"
       y="0"
       xlink:href="#tile-rhombus-30"
       id="use3450"
       transform="matrix(-1,0,0,1,36.227738,-12.581115)"
       width="1000"
       height="10" />
    <use
       style="display:inline"
       x="0"
       y="0"
       xlink:href="#tile-rhombus-30"
       id="use3452"
       transform="matrix(1,0,0,-1,36.227738,-12.581115)"
       width="1000"
       height="10" />
    <use
       height="10"
       width="1000"
       transform="matrix(-1,0,0,-1,36.227738,-12.581115)"
       id="use3454"
       xlink:href="#tile-rhombus-30"
       y="0"
       x="0"
       style="display:inline" />
    <use
       style="display:inline"
       x="0"
       y="0"
       xlink:href="#tile-square"
       id="use3456"
       transform="translate(35.227738,-6.8491146)"
       width="1000"
       height="10" />
    <use
       style="display:inline"
       x="0"
       y="0"
       xlink:href="#tile-square"
       id="use3458"
       transform="translate(9.7731221,-27.777166)"
       width="1000"
       height="10" />
    <use
       style="display:inline"
       x="0"
       y="0"
       xlink:href="#tile-rhombus-30"
       id="use3460"
       transform="translate(10.773122,-24.045166)"
       width="1000"
       height="10" />
    <use
       height="10"
       width="1000"
       transform="matrix(-1,0,0,1,10.773122,-24.045166)"
       id="use3462"
       xlink:href="#tile-rhombus-30"
       y="0"
       x="0"
       style="display:inline" />
    <use
       height="10"
       width="1000"
       transform="matrix(1,0,0,-1,10.773122,-24.045089)"
       id="use3464"
       xlink:href="#tile-rhombus-30"
       y="0"
       x="0"
       style="display:inline" />
    <use
       style="display:inline"
       x="0"
       y="0"
       xlink:href="#tile-rhombus-30"
       id="use3466"
       transform="matrix(-1,0,0,-1,10.773122,-24.045089)"
       width="1000"
       height="10" />
    <use
       height="10"
       width="1000"
       transform="translate(9.7731221,-18.313166)"
       id="use3468"
       xlink:href="#tile-square"
       y="0"
       x="0"
       style="display:inline" />
    <use
       height="10"
       width="1000"
       transform="matrix(-1,0,0,-1,11.773122,-18.313166)"
       id="use3470"
       xlink:href="#tile-rhombus-30"
       y="0"
       x="0"
       style="display:inline" />
    <use
       style="display:inline"
       x="0"
       y="0"
       xlink:href="#tile-rhombus-30"
       id="use3472"
       transform="matrix(-0.8660254,-0.5,0.5,-0.8660254,11.773122,-18.313217)"
       width="1000"
       height="10" />
    <use
       height="10"
       width="1000"
       transform="matrix(-0.5,-0.8660254,0.8660254,-0.5,11.773078,-18.313141)"
       id="use3474"
       xlink:href="#tile-rhombus-30"
       y="0"
       x="0"
       style="display:inline" />
    <use
       style="display:inline"
       x="0"
       y="0"
       xlink:href="#tile-square"
       id="use3476"
       transform="matrix(1,0,0,-1,11.773122,-31.777166)"
       width="1000"
       height="10" />
    <path
       sodipodi:nodetypes="cc"
       style="display:inline;fill:#000000;fill-rule:evenodd;stroke:#ff0000;stroke-width:0.20000000000000001;stroke-linecap:butt;stroke-linejoin:miter;stroke-miterlimit:4;stroke-dasharray:0.20000000000000001, 0.20000000000000001;stroke-dashoffset:0;stroke-opacity:1"
       d="M 17.636776,-30.770072 L 13.773122,-30.770059"
       id="path3478"
       battlemints:tripwire="loader"
       battlemints:universe-name="epsilon" />
    <use
       height="10"
       width="1000"
       transform="matrix(1,0,0,-1,17.636776,-31.777179)"
       id="use3480"
       xlink:href="#tile-square"
       y="0"
       x="0"
       style="display:inline" />
    <use
       style="display:inline"
       x="0"
       y="0"
       xlink:href="#tile-square"
       id="use3482"
       transform="matrix(1,0,0,-1,23.50043,-31.777192)"
       width="1000"
       height="10" />
    <use
       height="10"
       width="1000"
       transform="matrix(1,0,0,-1,29.364084,-31.777204)"
       id="use3484"
       xlink:href="#tile-square"
       y="0"
       x="0"
       style="display:inline" />
    <use
       style="display:inline"
       x="0"
       y="0"
       xlink:href="#tile-square"
       id="use3486"
       transform="matrix(1,0,0,-1,35.227738,-31.777217)"
       width="1000"
       height="10" />
    <path
       battlemints:universe-name="zeta"
       battlemints:tripwire="loader"
       id="path3488"
       d="M 23.467393,-30.770072 L 19.603739,-30.770059"
       style="display:inline;fill:#000000;fill-rule:evenodd;stroke:#ff0000;stroke-width:0.20000000000000001;stroke-linecap:butt;stroke-linejoin:miter;stroke-miterlimit:4;stroke-dasharray:0.20000000000000001, 0.20000000000000001;stroke-dashoffset:0;stroke-opacity:1"
       sodipodi:nodetypes="cc" />
    <path
       sodipodi:nodetypes="cc"
       style="display:inline;fill:#000000;fill-rule:evenodd;stroke:#ff0000;stroke-width:0.20000000000000001;stroke-linecap:butt;stroke-linejoin:miter;stroke-miterlimit:4;stroke-dasharray:0.20000000000000001, 0.20000000000000001;stroke-dashoffset:0;stroke-opacity:1"
       d="M 29.329985,-30.770072 L 25.466331,-30.770059"
       id="path3490"
       battlemints:tripwire="loader"
       battlemints:universe-name="eta" />
    <use
       style="display:inline"
       x="0"
       y="0"
       xlink:href="#tile-rhombus-30"
       id="use3492"
       transform="matrix(1,0,0,-1,12.773122,-35.509166)"
       width="1000"
       height="10" />
    <use
       height="10"
       width="1000"
       transform="matrix(-1,0,0,-1,12.773122,-35.509166)"
       id="use3494"
       xlink:href="#tile-rhombus-30"
       y="0"
       x="0"
       style="display:inline" />
    <use
       height="10"
       width="1000"
       transform="matrix(1,0,0,-1,18.636776,-35.509179)"
       id="use3496"
       xlink:href="#tile-rhombus-30"
       y="0"
       x="0"
       style="display:inline" />
    <use
       style="display:inline"
       x="0"
       y="0"
       xlink:href="#tile-rhombus-30"
       id="use3498"
       transform="matrix(-1,0,0,-1,18.636776,-35.509179)"
       width="1000"
       height="10" />
    <use
       style="display:inline"
       x="0"
       y="0"
       xlink:href="#tile-rhombus-30"
       id="use3500"
       transform="matrix(1,0,0,-1,24.50043,-35.509192)"
       width="1000"
       height="10" />
    <use
       height="10"
       width="1000"
       transform="matrix(-1,0,0,-1,24.50043,-35.509192)"
       id="use3502"
       xlink:href="#tile-rhombus-30"
       y="0"
       x="0"
       style="display:inline" />
    <use
       height="10"
       width="1000"
       transform="matrix(1,0,0,-1,30.364084,-35.509204)"
       id="use3504"
       xlink:href="#tile-rhombus-30"
       y="0"
       x="0"
       style="display:inline" />
    <use
       style="display:inline"
       x="0"
       y="0"
       xlink:href="#tile-rhombus-30"
       id="use3506"
       transform="matrix(-1,0,0,-1,30.364084,-35.509204)"
       width="1000"
       height="10" />
    <use
       height="10"
       width="1000"
       transform="translate(12.773122,-35.509243)"
       id="use3508"
       xlink:href="#tile-rhombus-30"
       y="0"
       x="0"
       style="display:inline" />
    <use
       style="display:inline"
       x="0"
       y="0"
       xlink:href="#tile-rhombus-30"
       id="use3510"
       transform="matrix(-1,0,0,1,12.773122,-35.509243)"
       width="1000"
       height="10" />
    <use
       style="display:inline"
       x="0"
       y="0"
       xlink:href="#tile-rhombus-30"
       id="use3512"
       transform="translate(18.636776,-35.50923)"
       width="1000"
       height="10" />
    <use
       height="10"
       width="1000"
       transform="matrix(-1,0,0,1,18.636776,-35.50923)"
       id="use3514"
       xlink:href="#tile-rhombus-30"
       y="0"
       x="0"
       style="display:inline" />
    <use
       height="10"
       width="1000"
       transform="translate(24.50043,-35.509217)"
       id="use3516"
       xlink:href="#tile-rhombus-30"
       y="0"
       x="0"
       style="display:inline" />
    <use
       style="display:inline"
       x="0"
       y="0"
       xlink:href="#tile-rhombus-30"
       id="use3518"
       transform="matrix(-1,0,0,1,24.50043,-35.509217)"
       width="1000"
       height="10" />
    <use
       style="display:inline"
       x="0"
       y="0"
       xlink:href="#tile-rhombus-30"
       id="use3520"
       transform="translate(30.364084,-35.509204)"
       width="1000"
       height="10" />
    <use
       height="10"
       width="1000"
       transform="matrix(-1,0,0,1,30.364084,-35.509204)"
       id="use3522"
       xlink:href="#tile-rhombus-30"
       y="0"
       x="0"
       style="display:inline" />
    <use
       height="10"
       width="1000"
       transform="matrix(1,0,0,-1,11.773122,-41.241166)"
       id="use3524"
       xlink:href="#tile-square"
       y="0"
       x="0"
       style="display:inline" />
    <use
       style="display:inline"
       x="0"
       y="0"
       xlink:href="#tile-square"
       id="use3526"
       transform="matrix(1,0,0,-1,17.636776,-41.241179)"
       width="1000"
       height="10" />
    <use
       height="10"
       width="1000"
       transform="matrix(1,0,0,-1,23.50043,-41.241192)"
       id="use3528"
       xlink:href="#tile-square"
       y="0"
       x="0"
       style="display:inline" />
    <use
       style="display:inline"
       x="0"
       y="0"
       xlink:href="#tile-square"
       id="use3530"
       transform="matrix(1,0,0,-1,29.364084,-41.241204)"
       width="1000"
       height="10" />
    <path
       battlemints:universe-name="theta"
       battlemints:tripwire="loader"
       id="path3532"
       d="M 35.202058,-30.770072 L 31.338404,-30.770059"
       style="display:inline;fill:#000000;fill-rule:evenodd;stroke:#ff0000;stroke-width:0.20000000000000001;stroke-linecap:butt;stroke-linejoin:miter;stroke-miterlimit:4;stroke-dasharray:0.20000000000000001, 0.20000000000000001;stroke-dashoffset:0;stroke-opacity:1"
       sodipodi:nodetypes="cc" />
    <use
       style="display:inline"
       x="0"
       y="0"
       xlink:href="#tile-rhombus-30"
       id="use3534"
       transform="matrix(1,0,0,-1,36.227738,-35.509217)"
       width="1000"
       height="10" />
    <use
       height="10"
       width="1000"
       transform="matrix(-1,0,0,-1,36.227738,-35.509217)"
       id="use3536"
       xlink:href="#tile-rhombus-30"
       y="0"
       x="0"
       style="display:inline" />
    <use
       height="10"
       width="1000"
       transform="translate(36.227738,-35.509217)"
       id="use3538"
       xlink:href="#tile-rhombus-30"
       y="0"
       x="0"
       style="display:inline" />
    <use
       style="display:inline"
       x="0"
       y="0"
       xlink:href="#tile-rhombus-30"
       id="use3540"
       transform="matrix(-1,0,0,1,36.227738,-35.509217)"
       width="1000"
       height="10" />
    <use
       height="10"
       width="1000"
       transform="matrix(1,0,0,-1,35.227738,-41.241217)"
       id="use3542"
       xlink:href="#tile-square"
       y="0"
       x="0"
       style="display:inline" />
    <use
       style="display:inline"
       x="0"
       y="0"
       xlink:href="#tile-rhombus-30"
       id="use3544"
       transform="matrix(-1,0,0,1,11.773122,-29.777217)"
       width="1000"
       height="10" />
    <use
       height="10"
       width="1000"
       transform="matrix(-0.8660254,0.5,0.5,0.8660254,11.773122,-29.777166)"
       id="use3546"
       xlink:href="#tile-rhombus-30"
       y="0"
       x="0"
       style="display:inline" />
    <use
       style="display:inline"
       x="0"
       y="0"
       xlink:href="#tile-rhombus-30"
       id="use3548"
       transform="matrix(-0.5,0.8660254,0.8660254,0.5,11.773078,-29.777242)"
       width="1000"
       height="10" />
    <use
       height="10"
       width="1000"
       transform="matrix(-1,0,0,1,39.227738,-27.777217)"
       id="use3550"
       xlink:href="#tile-square"
       y="0"
       x="0"
       style="display:inline" />
    <use
       height="10"
       width="1000"
       transform="matrix(-1,0,0,1,38.227739,-24.045217)"
       id="use3552"
       xlink:href="#tile-rhombus-30"
       y="0"
       x="0"
       style="display:inline" />
    <use
       style="display:inline"
       x="0"
       y="0"
       xlink:href="#tile-rhombus-30"
       id="use3554"
       transform="translate(38.227739,-24.045217)"
       width="1000"
       height="10" />
    <use
       style="display:inline"
       x="0"
       y="0"
       xlink:href="#tile-rhombus-30"
       id="use3556"
       transform="matrix(-1,0,0,-1,38.227739,-24.04514)"
       width="1000"
       height="10" />
    <use
       height="10"
       width="1000"
       transform="matrix(1,0,0,-1,38.227739,-24.04514)"
       id="use3558"
       xlink:href="#tile-rhombus-30"
       y="0"
       x="0"
       style="display:inline" />
    <use
       style="display:inline"
       x="0"
       y="0"
       xlink:href="#tile-square"
       id="use3560"
       transform="matrix(-1,0,0,1,39.227738,-18.313217)"
       width="1000"
       height="10" />
    <use
       style="display:inline"
       x="0"
       y="0"
       xlink:href="#tile-rhombus-30"
       id="use3562"
       transform="matrix(1,0,0,-1,37.227738,-18.313217)"
       width="1000"
       height="10" />
    <use
       height="10"
       width="1000"
       transform="matrix(0.8660254,-0.5,-0.5,-0.8660254,37.227738,-18.313268)"
       id="use3564"
       xlink:href="#tile-rhombus-30"
       y="0"
       x="0"
       style="display:inline" />
    <use
       style="display:inline"
       x="0"
       y="0"
       xlink:href="#tile-rhombus-30"
       id="use3566"
       transform="matrix(0.5,-0.8660254,-0.8660254,-0.5,37.227782,-18.313192)"
       width="1000"
       height="10" />
    <use
       height="10"
       width="1000"
       transform="translate(37.227738,-29.777268)"
       id="use3568"
       xlink:href="#tile-rhombus-30"
       y="0"
       x="0"
       style="display:inline" />
    <use
       style="display:inline"
       x="0"
       y="0"
       xlink:href="#tile-rhombus-30"
       id="use3570"
       transform="matrix(0.8660254,0.5,-0.5,0.8660254,37.227738,-29.777217)"
       width="1000"
       height="10" />
    <use
       height="10"
       width="1000"
       transform="matrix(0.5,0.8660254,-0.8660254,0.5,37.227782,-29.777293)"
       id="use3572"
       xlink:href="#tile-rhombus-30"
       y="0"
       x="0"
       style="display:inline" />
  </g>
</svg>
