<?xml version="1.0" encoding="UTF-8" standalone="no"?>
<!-- Created with Inkscape (http://www.inkscape.org/) -->
<svg
   xmlns:dc="http://purl.org/dc/elements/1.1/"
   xmlns:cc="http://creativecommons.org/ns#"
   xmlns:rdf="http://www.w3.org/1999/02/22-rdf-syntax-ns#"
   xmlns:svg="http://www.w3.org/2000/svg"
   xmlns="http://www.w3.org/2000/svg"
   xmlns:xlink="http://www.w3.org/1999/xlink"
   xmlns:sodipodi="http://sodipodi.sourceforge.net/DTD/sodipodi-0.dtd"
   xmlns:inkscape="http://www.inkscape.org/namespaces/inkscape"
   width="256"
   height="256"
   id="svg2"
   sodipodi:version="0.32"
   inkscape:version="0.46"
   version="1.0"
   sodipodi:docname="white mini face.svg"
   inkscape:output_extension="org.inkscape.output.svg.inkscape"
   inkscape:export-filename="/Users/joe/Documents/Code/BattleMints/mini-white.png"
   inkscape:export-xdpi="45"
   inkscape:export-ydpi="45">
  <defs
     id="defs4">
    <linearGradient
       id="linearGradient3307">
      <stop
         style="stop-color:#ffffff;stop-opacity:1;"
         offset="0"
         id="stop3309" />
      <stop
         style="stop-color:#ff0000;stop-opacity:1;"
         offset="1"
         id="stop3311" />
    </linearGradient>
    <inkscape:perspective
       sodipodi:type="inkscape:persp3d"
       inkscape:vp_x="0 : 526.18109 : 1"
       inkscape:vp_y="0 : 1000 : 0"
       inkscape:vp_z="744.09448 : 526.18109 : 1"
       inkscape:persp3d-origin="372.04724 : 350.78739 : 1"
       id="perspective10" />
  </defs>
  <sodipodi:namedview
     id="base"
     pagecolor="#000000"
     bordercolor="#666666"
     borderopacity="1.0"
     gridtolerance="10000"
     guidetolerance="10"
     objecttolerance="10"
     inkscape:pageopacity="0"
     inkscape:pageshadow="2"
     inkscape:zoom="3.8814172"
     inkscape:cx="128.84502"
     inkscape:cy="216.77635"
     inkscape:document-units="px"
     inkscape:current-layer="layer1"
     showgrid="true"
     showguides="true"
     inkscape:guide-bbox="true"
     inkscape:snap-global="false"
     inkscape:snap-guide="true"
     inkscape:window-width="1054"
     inkscape:window-height="853"
     inkscape:window-x="1378"
     inkscape:window-y="460"
     inkscape:object-paths="false"
     inkscape:object-nodes="false">
    <inkscape:grid
       type="xygrid"
       id="grid2391"
       visible="true"
       enabled="true"
       spacingx="32px"
       spacingy="32px"
       empspacing="2" />
    <sodipodi:guide
       orientation="1,0"
       position="77.291355,154.84035"
       id="guide3422" />
    <sodipodi:guide
       orientation="1,0"
       position="50.239381,132.42586"
       id="guide3424" />
  </sodipodi:namedview>
  <metadata
     id="metadata7">
    <rdf:RDF>
      <cc:Work
         rdf:about="">
        <dc:format>image/svg+xml</dc:format>
        <dc:type
           rdf:resource="http://purl.org/dc/dcmitype/StillImage" />
      </cc:Work>
    </rdf:RDF>
  </metadata>
  <g
     inkscape:label="Layer 1"
     inkscape:groupmode="layer"
     id="layer1">
    <path
       style="fill:#ffffff;fill-opacity:1;fill-rule:evenodd;stroke:none;stroke-width:1.70000005000000010;stroke-linecap:butt;stroke-linejoin:miter;stroke-miterlimit:4;stroke-dasharray:none;stroke-opacity:1"
       d="M 31.899751,32.643409 L 30.502965,35.28729 C 32.6943,37.204708 37.440424,38.308062 40.891949,38.04588 C 44.343475,37.783697 48.93567,36.724989 50.678305,34.982355 L 49.282454,31.952831 C 48.16764,33.067645 44.662376,34.354733 41.048943,34.65791 C 37.678044,34.940736 33.518349,34.059682 31.899751,32.643409 z"
       id="path3247"
       sodipodi:nodetypes="cczcczc" />
    <use
       x="0"
       y="0"
       xlink:href="#path3247"
       id="use3253"
       transform="matrix(-1,0,0,1,128.32604,0.1481481)"
       width="256"
       height="256"
       style="fill:#ffffff" />
    <path
       style="fill:#ffffff;fill-opacity:1;fill-rule:evenodd;stroke:none;stroke-width:5.19999980999999956;stroke-linecap:round;stroke-linejoin:miter;stroke-miterlimit:4;stroke-dasharray:none;stroke-opacity:1"
       d="M 49.267354,82.816996 C 47.119524,83.003704 45.505226,84.435857 45.539032,86.124643 L 45.539032,105.60373 C 45.428102,106.82664 46.199997,107.99565 47.539605,108.63352 C 48.879215,109.27139 50.562383,109.27139 51.901993,108.63352 C 53.241601,107.99565 54.013496,106.82664 53.902566,105.60373 L 53.902566,86.124643 C 53.920717,85.18682 53.423745,84.28788 52.537497,83.655462 C 51.65125,83.023043 50.460711,82.717788 49.267354,82.816996 L 49.267354,82.816996 z"
       id="path3398"
       sodipodi:nodetypes="cccssccscc" />
    <use
       x="0"
       y="0"
       xlink:href="#path3398"
       id="use3404"
       transform="translate(27.824887,0)"
       width="256"
       height="256"
       style="fill:#ffffff" />
    <g
       id="g3412"
       transform="translate(3.0916542,0)"
       style="fill:#ffffff">
      <path
         style="fill:#ffffff;fill-opacity:1;fill-rule:evenodd;stroke:none;stroke-width:8.13328362000000027;stroke-linecap:round;stroke-linejoin:miter;stroke-miterlimit:4;stroke-dasharray:none;stroke-opacity:1"
         d="M 29.9375,138.4361 C 27.905444,138.46859 27.239837,140.51141 26.995521,142.52899 C 26.751205,144.54656 27.003184,145.91952 28.96875,146.4361 C 36.777043,148.61188 42.429321,151.23709 51.96875,156.4986 C 53.247499,157.27798 53.82055,156.7763 55.112328,156.01871 C 56.404106,155.26112 57.175045,153.85492 57.119059,152.35843 C 57.063074,150.86193 57.219773,150.03255 55.875,149.3736 C 46.14466,144.0068 39.649955,140.95913 31.15625,138.59235 C 30.760257,138.47885 30.349319,138.42616 29.9375,138.4361 L 29.9375,138.4361 z"
         id="path3410"
         sodipodi:nodetypes="csccsscccc" />
      <path
         style="fill:#ffffff;fill-opacity:1;fill-rule:evenodd;stroke:none;stroke-width:5.19999980999999956;stroke-linecap:round;stroke-linejoin:miter;stroke-miterlimit:4;stroke-dasharray:none;stroke-opacity:1"
         d="M 46.544093,148.98062 C 44.460415,149.16175 42.894332,150.55112 42.927128,152.18948 L 42.927128,170.94055 C 42.819512,172.12693 43.568351,173.26103 44.867949,173.87984 C 46.167547,174.49866 47.800442,174.49866 49.10004,173.87984 C 50.399637,173.26103 51.148477,172.12693 51.040861,170.94055 L 51.040861,152.18948 C 51.058469,151.27966 50.576341,150.40757 49.716563,149.79404 C 48.856786,149.18051 47.701807,148.88438 46.544093,148.98062 L 46.544093,148.98062 z"
         id="path3408"
         sodipodi:nodetypes="cccssccscc" />
      <path
         sodipodi:nodetypes="csccsscccc"
         id="path3534"
         d="M 29.9375,138.4361 C 27.905444,138.46859 27.239837,140.51141 26.995521,142.52899 C 26.751205,144.54656 27.003184,145.91952 28.96875,146.4361 C 36.777043,148.61188 42.429321,151.23709 51.96875,156.4986 C 53.247499,157.27798 53.82055,156.7763 55.112328,156.01871 C 56.404106,155.26112 57.175045,153.85492 57.119059,152.35843 C 57.063074,150.86193 57.219773,150.03255 55.875,149.3736 C 46.14466,144.0068 39.649955,140.95913 31.15625,138.59235 C 30.760257,138.47885 30.349319,138.42616 29.9375,138.4361 L 29.9375,138.4361 z"
         style="fill:#ffffff;fill-opacity:1;fill-rule:evenodd;stroke:none;stroke-width:8.13328362000000027;stroke-linecap:round;stroke-linejoin:miter;stroke-miterlimit:4;stroke-dasharray:none;stroke-opacity:1" />
    </g>
    <use
       x="0"
       y="0"
       xlink:href="#g3412"
       id="use3416"
       transform="matrix(-1,0,0,1,128.04601,0)"
       width="256"
       height="256"
       style="fill:#ffffff" />
    <path
       style="fill:none;fill-rule:evenodd;stroke:#ffffff;stroke-width:5.72341155999999973;stroke-linecap:butt;stroke-linejoin:miter;stroke-miterlimit:4;stroke-dasharray:none;stroke-opacity:1"
       d="M 38.20809,236.89655 L 56.873502,224.01741 L 38.581399,210.95162"
       id="path3540"
       sodipodi:nodetypes="ccc" />
    <use
       x="0"
       y="0"
       xlink:href="#path3540"
       id="use3552"
       transform="matrix(-1,0,0,1,128.05104,0)"
       width="256"
       height="256"
       style="stroke:#ffffff" />
    <path
       sodipodi:type="arc"
       style="opacity:1;fill:#ffffff;fill-opacity:1;stroke:none;stroke-width:7.90000009999999975;stroke-linecap:round;stroke-linejoin:miter;stroke-miterlimit:4;stroke-dasharray:none;stroke-dashoffset:0;stroke-opacity:1"
       id="path3574"
       sodipodi:cx="174.29201"
       sodipodi:cy="32.756802"
       sodipodi:rx="3.7357488"
       sodipodi:ry="3.2204731"
       d="M 178.02776,32.756802 A 3.7357488,3.2204731 0 1 1 170.55626,32.756802 A 3.7357488,3.2204731 0 1 1 178.02776,32.756802 z"
       transform="matrix(1.4,0,0,1.4,-68.428616,-13.617997)" />
    <path
       sodipodi:type="arc"
       style="opacity:1;fill:#ffffff;fill-opacity:1;stroke:none;stroke-width:7.90000009999999975;stroke-linecap:round;stroke-linejoin:miter;stroke-miterlimit:4;stroke-dasharray:none;stroke-dashoffset:0;stroke-opacity:1"
       id="path3576"
       sodipodi:cx="208.68666"
       sodipodi:cy="31.082155"
       sodipodi:rx="2.0611029"
       sodipodi:ry="2.5763786"
       d="M 210.74776,31.082155 A 2.0611029,2.5763786 0 1 1 206.62556,31.082155 A 2.0611029,2.5763786 0 1 1 210.74776,31.082155 z"
       transform="matrix(1.9,0,0,1.75,-187.81799,-22.152245)" />
    <path
       sodipodi:type="arc"
       style="opacity:1;fill:none;fill-opacity:1;stroke:#ffffff;stroke-width:5.40000000000000036;stroke-linecap:butt;stroke-linejoin:miter;stroke-miterlimit:4;stroke-dasharray:none;stroke-dashoffset:0;stroke-opacity:1"
       id="path3578"
       sodipodi:cx="136.54807"
       sodipodi:cy="20.003729"
       sodipodi:rx="14.685358"
       sodipodi:ry="18.292288"
       d="M 127.09657,34.003953 A 14.685358,18.292288 0 0 1 126.32712,6.8690299"
       sodipodi:start="2.2699889"
       sodipodi:end="3.942583"
       sodipodi:open="true"
       transform="translate(37.872764,12.624255)" />
    <path
       sodipodi:type="arc"
       style="opacity:1;fill:none;fill-opacity:1;stroke:#ffffff;stroke-width:5.30000019000000044;stroke-linecap:butt;stroke-linejoin:miter;stroke-miterlimit:4;stroke-dasharray:none;stroke-dashoffset:0;stroke-opacity:1"
       id="path3580"
       sodipodi:cx="223.37202"
       sodipodi:cy="48.343891"
       sodipodi:rx="20.868666"
       sodipodi:ry="31.174181"
       d="M 209.94095,72.203428 A 20.868666,31.174181 0 0 1 208.84752,25.959404"
       sodipodi:start="2.2699889"
       sodipodi:end="3.942583"
       sodipodi:open="true"
       transform="matrix(-1,0,0,1,427.0068,-16.488823)" />
  </g>
</svg>
