<?xml version="1.0" encoding="UTF-8" standalone="no"?>
<!-- Created with Inkscape (http://www.inkscape.org/) -->
<svg
   xmlns:dc="http://purl.org/dc/elements/1.1/"
   xmlns:cc="http://creativecommons.org/ns#"
   xmlns:rdf="http://www.w3.org/1999/02/22-rdf-syntax-ns#"
   xmlns:svg="http://www.w3.org/2000/svg"
   xmlns="http://www.w3.org/2000/svg"
   xmlns:xlink="http://www.w3.org/1999/xlink"
   xmlns:sodipodi="http://sodipodi.sourceforge.net/DTD/sodipodi-0.dtd"
   xmlns:inkscape="http://www.inkscape.org/namespaces/inkscape"
   width="1000"
   height="1000"
   id="svg2"
   sodipodi:version="0.32"
   inkscape:version="0.46"
   sodipodi:docname="meat.svg"
   inkscape:output_extension="org.inkscape.output.svg.inkscape"
   version="1.0"
   inkscape:export-filename="/Users/joe/Documents/Code/BattleMints/meat-theme.png"
   inkscape:export-xdpi="23.040001"
   inkscape:export-ydpi="23.040001">
  <sodipodi:namedview
     id="base"
     pagecolor="#ffffff"
     bordercolor="#666666"
     borderopacity="1.0"
     gridtolerance="10000"
     guidetolerance="10"
     objecttolerance="10"
     inkscape:pageopacity="0.0"
     inkscape:pageshadow="2"
     inkscape:zoom="1.26"
     inkscape:cx="748.18026"
     inkscape:cy="639.96"
     inkscape:document-units="px"
     inkscape:current-layer="layer5"
     showgrid="true"
     inkscape:snap-global="false"
     inkscape:object-nodes="true"
     inkscape:window-width="1173"
     inkscape:window-height="746"
     inkscape:window-x="73"
     inkscape:window-y="42"
     inkscape:snap-nodes="true"
     inkscape:snap-bbox="false"
     showguides="true"
     inkscape:guide-bbox="true">
    <inkscape:grid
       type="xygrid"
       id="grid2385"
       visible="true"
       enabled="true"
       spacingx="7.8125px"
       spacingy="7.8125px"
       empspacing="5" />
    <inkscape:grid
       type="xygrid"
       id="grid2387"
       visible="true"
       enabled="false"
       spacingx="86.6px"
       spacingy="86.6px"
       color="#ff00ff"
       opacity="0.1254902"
       empcolor="#ff00ff"
       empopacity="0.25098039"
       dotted="false" />
  </sodipodi:namedview>
  <defs
     id="defs4">
    <inkscape:perspective
       id="perspective7540"
       inkscape:persp3d-origin="500 : 333.33333 : 1"
       inkscape:vp_z="1000 : 500 : 1"
       inkscape:vp_y="0 : 1000 : 0"
       inkscape:vp_x="0 : 500 : 1"
       sodipodi:type="inkscape:persp3d" />
    <pattern
       patternTransform="matrix(0.9453899,-0.9117809,0.9196331,0.9373178,64.819933,552.47496)"
       id="pattern3928"
       xlink:href="#pattern14414"
       inkscape:collect="always" />
    <pattern
       id="pattern14414"
       patternTransform="translate(46.875,554.6875)"
       height="15.8125"
       width="15.8125"
       patternUnits="userSpaceOnUse">
      <g
         transform="translate(-46.875,-554.6875)"
         id="g14408">
        <rect
           y="554.6875"
           x="46.875"
           height="8"
           width="8"
           id="rect14400"
           style="fill:#000000;fill-opacity:1;fill-rule:evenodd;stroke:none;stroke-width:6.65399981;stroke-linecap:round;stroke-miterlimit:4;stroke-dasharray:none;stroke-opacity:1" />
        <rect
           style="fill:#000000;fill-opacity:1;fill-rule:evenodd;stroke:none;stroke-width:6.65399981;stroke-linecap:round;stroke-miterlimit:4;stroke-dasharray:none;stroke-opacity:1"
           id="rect14402"
           width="8"
           height="8"
           x="54.875"
           y="562.6875" />
        <rect
           y="554.6875"
           x="54.875"
           height="8"
           width="8"
           id="rect14404"
           style="fill:#ffffff;fill-opacity:1;fill-rule:evenodd;stroke:none;stroke-width:6.65399981;stroke-linecap:round;stroke-miterlimit:4;stroke-dasharray:none;stroke-opacity:1" />
        <rect
           style="fill:#ffffff;fill-opacity:1;fill-rule:evenodd;stroke:none;stroke-width:6.65399981;stroke-linecap:round;stroke-miterlimit:4;stroke-dasharray:none;stroke-opacity:1"
           id="rect14406"
           width="8"
           height="7.8125"
           x="46.875"
           y="562.6875" />
      </g>
    </pattern>
    <pattern
       id="pattern15166"
       patternTransform="translate(78.125,570.3125)"
       height="23.4375"
       width="23.4375"
       patternUnits="userSpaceOnUse">
      <g
         id="g15160">
        <rect
           y="0"
           x="0"
           height="11.71875"
           width="11.71875"
           id="rect15152"
           style="fill:#000000;fill-opacity:1;fill-rule:evenodd;stroke:none;stroke-width:6.45300007;stroke-linecap:round;stroke-miterlimit:4;stroke-dasharray:none;stroke-opacity:1" />
        <rect
           style="fill:#000000;fill-opacity:1;fill-rule:evenodd;stroke:none;stroke-width:6.45300007;stroke-linecap:round;stroke-miterlimit:4;stroke-dasharray:none;stroke-opacity:1"
           id="rect15154"
           width="11.71875"
           height="11.71875"
           x="11.71875"
           y="11.71875" />
        <rect
           y="0"
           x="11.71875"
           height="11.71875"
           width="11.71875"
           id="rect15156"
           style="fill:#ffffff;fill-opacity:1;fill-rule:evenodd;stroke:none;stroke-width:6.45300007;stroke-linecap:round;stroke-miterlimit:4;stroke-dasharray:none;stroke-opacity:1" />
        <rect
           style="fill:#ffffff;fill-opacity:1;fill-rule:evenodd;stroke:none;stroke-width:6.45300007;stroke-linecap:round;stroke-miterlimit:4;stroke-dasharray:none;stroke-opacity:1"
           id="rect15158"
           width="11.71875"
           height="11.71875"
           x="0"
           y="11.71875" />
      </g>
    </pattern>
  </defs>
  <metadata
     id="metadata7">
    <rdf:RDF>
      <cc:Work
         rdf:about="">
        <dc:format>image/svg+xml</dc:format>
        <dc:type
           rdf:resource="http://purl.org/dc/dcmitype/StillImage" />
      </cc:Work>
    </rdf:RDF>
  </metadata>
  <g
     style="display:none"
     inkscape:label="foo"
     id="layer1"
     inkscape:groupmode="layer">
    <path
       sodipodi:nodetypes="ccccccc"
       inkscape:label="#path5308"
       id="path4711"
       d="M 101.5625,750 L 242.1875,500 L 539.06252,500 L 679.68752,750 L 539.06252,1000 L 242.1875,1000 L 101.5625,750 z"
       style="fill:#ffff00;fill-rule:evenodd;stroke:none;stroke-width:1.95335126;stroke-linecap:butt;stroke-linejoin:round;stroke-miterlimit:4;stroke-dasharray:none;stroke-opacity:1;display:inline" />
    <path
       sodipodi:nodetypes="ccccc"
       inkscape:label="#path5306"
       id="path4713"
       d="M 828.12502,687.5 L 578.12502,546.875 L 578.12502,250 L 828.12502,70.3125 L 828.12502,687.5 z"
       style="fill:#ff0000;fill-opacity:1;fill-rule:evenodd;stroke:none;stroke-width:1.95335126;stroke-linecap:butt;stroke-linejoin:round;stroke-miterlimit:4;stroke-dasharray:none;stroke-opacity:1;display:inline" />
    <path
       sodipodi:nodetypes="ccccc"
       inkscape:label="#path5304"
       id="path13384"
       d="M 250,492.1875 L 539.06252,492.1875 L 539.06252,203.125 L 250,203.125 L 250,492.1875 z"
       style="fill:#ff6600;fill-opacity:1;fill-rule:evenodd;stroke:none;stroke-width:1.95335126;stroke-linecap:butt;stroke-linejoin:round;stroke-miterlimit:4;stroke-dasharray:none;stroke-opacity:1;display:inline" />
    <path
       inkscape:label="#path5298"
       sodipodi:nodetypes="ccccc"
       id="path13386"
       d="M 851.56252,742.1875 L 851.56252,445.3125 L 1000,187.5 L 1000,484.375 L 851.56252,742.1875 z"
       style="fill:#e3dbdb;fill-opacity:1;fill-rule:evenodd;stroke:none;stroke-width:1.95335126;stroke-linecap:butt;stroke-linejoin:round;stroke-miterlimit:4;stroke-dasharray:none;stroke-opacity:1;display:inline" />
    <path
       sodipodi:nodetypes="ccccc"
       inkscape:label="#path5300"
       id="path13388"
       d="M 1000,750 L 851.56252,1000 L 562.50002,1000 L 710.93752,750 L 1000,750 z"
       style="fill:#0000ff;fill-opacity:1;fill-rule:evenodd;stroke:none;stroke-width:1.95335126;stroke-linecap:butt;stroke-linejoin:round;stroke-miterlimit:4;stroke-dasharray:none;stroke-opacity:1;display:inline" />
    <path
       sodipodi:nodetypes="cccc"
       inkscape:label="#path5302"
       id="path4718"
       d="M 148.4375,250 L 0,-5.6843419e-14 L 296.875,-5.6843419e-14 L 148.4375,250 z"
       style="fill:#00ff00;fill-opacity:1;fill-rule:evenodd;stroke:none;stroke-width:1.95335126;stroke-linecap:butt;stroke-linejoin:round;stroke-miterlimit:4;stroke-dasharray:none;stroke-opacity:1;display:inline" />
    <path
       inkscape:label="#path6418"
       sodipodi:nodetypes="ccccc"
       id="path13392"
       d="M 250,203.125 L 453.12502,-5.6843419e-14 L 742.18752,-5.6843419e-14 L 539.06252,203.125 L 250,203.125 z"
       style="fill:#916f6f;fill-opacity:1;fill-rule:evenodd;stroke:none;stroke-width:1.95335126;stroke-linecap:butt;stroke-linejoin:round;stroke-miterlimit:4;stroke-dasharray:none;stroke-opacity:1;display:inline" />
  </g>
  <g
     style="display:inline"
     inkscape:groupmode="layer"
     id="layer5"
     inkscape:label="Theme">
    <path
       inkscape:export-ydpi="23.040001"
       inkscape:export-xdpi="23.040001"
       inkscape:export-filename="/Users/joe/Documents/Code/BattleMints/path13377.png"
       sodipodi:nodetypes="ccccccc"
       inkscape:label="#path5308"
       id="path13377"
       d="M 16.03635,741.2637 L 152.33898,499.99461 L 440.39692,498.14702 L 578.54714,742.1875 L 440.39692,984.3804 L 152.33898,985.30419 L 16.03635,741.2637 z"
       style="fill:#a02c2c;fill-opacity:1;fill-rule:evenodd;stroke:#782121;stroke-width:15;stroke-linecap:butt;stroke-linejoin:round;stroke-miterlimit:4;stroke-dasharray:none;stroke-opacity:1;display:inline" />
    <path
       sodipodi:nodetypes="cccc"
       inkscape:label="#path5302"
       id="path13390"
       d="M 163.54087,243.77827 L 27.102915,14.032561 L 299.05503,14.956356 L 163.54087,243.77827 z"
       style="fill:#a02c2c;fill-opacity:1;fill-rule:evenodd;stroke:#782121;stroke-width:15;stroke-linecap:butt;stroke-linejoin:round;stroke-miterlimit:4;stroke-dasharray:none;stroke-opacity:1;display:inline" />
    <rect
       ry="31.120602"
       y="710.70538"
       x="710.4668"
       height="273.2348"
       width="273.2348"
       id="rect13819"
       style="fill:#a02c2c;fill-opacity:1;fill-rule:evenodd;stroke:#782121;stroke-width:14.1789999;stroke-linecap:round;stroke-miterlimit:4;stroke-dasharray:none;stroke-opacity:1" />
    <rect
       transform="matrix(-1,0,0.7002357,0.7139118,0,0)"
       ry="22.881998"
       y="687.61475"
       x="-290.77734"
       height="262.56161"
       width="268.98276"
       id="rect14332"
       style="fill:#c83737;fill-opacity:1;fill-rule:evenodd;stroke:#782121;stroke-width:16.67788887;stroke-linecap:round;stroke-miterlimit:4;stroke-dasharray:none;stroke-opacity:1" />
    <rect
       transform="matrix(0.864506,0.5026226,-1,-3.6761579e-8,0,0)"
       ry="32.348419"
       y="-649.19482"
       x="43.165268"
       height="271.54153"
       width="269.2225"
       id="rect14338"
       style="fill:#a02c2c;fill-opacity:1;fill-rule:evenodd;stroke:#782121;stroke-width:21.15778732;stroke-linecap:round;stroke-miterlimit:4;stroke-dasharray:none;stroke-opacity:1" />
    <rect
       transform="matrix(-1,0,0.5106079,0.8598137,0,0)"
       ry="8.4384556"
       y="261.33472"
       x="-683.41602"
       height="274.93137"
       width="274.41156"
       id="rect14340"
       style="fill:#a02c2c;fill-opacity:1;fill-rule:evenodd;stroke:#782121;stroke-width:14.67790317999999949;stroke-linecap:round;stroke-miterlimit:4;stroke-dasharray:none;stroke-opacity:1" />
    <path
       sodipodi:nodetypes="ccccccccc"
       id="rect8518"
       d="M 519.33948,255.85544 L 618.2658,430.66072 C 627.5104,446.99626 619.842,460.14726 601.07193,460.14725 L 121.84116,460.14724 C 102.25934,460.35023 91.917503,452.28387 102.88717,428.89725 L 196.63717,257.02224 C 209.09983,235.35747 223.7239,225.81546 238.84254,226.36888 L 468.77144,226.36888 C 487.54145,226.3689 510.09481,239.51989 519.33948,255.85544 z"
       style="fill:#a02c2c;fill-opacity:1;fill-rule:evenodd;stroke:#782121;stroke-width:14.77562237000000067;stroke-linecap:round;stroke-miterlimit:4;stroke-opacity:1" />
    <path
       id="path11300"
       d="M 221.75,22.21875 C 222.76228,24.472183 223.38427,27.003001 221.59375,27.46875 C 225.89541,31.53026 215.67864,27.377765 208.71875,29.6875 C 202.23453,29.595902 196.82107,26.749277 192.4375,28.90625 C 188.85034,29.651252 186.53137,31.041783 181.75,30.15625 C 176.96725,31.433013 175.03112,32.04369 174.28125,32.375 C 174.30369,32.382179 174.3213,32.39893 174.34375,32.40625 C 176.41087,32.393503 172.78567,33.035785 174.28125,32.375 C 168.68683,30.585171 163.38127,33.179054 156.75,31.5625 C 145.39453,40.322704 149.63928,33.61983 146.78125,33.8125 C 141.5846,35.245919 131.72962,36.077338 133.46875,31.71875 C 131.43299,29.571106 125.30567,35.846484 122.40625,35.65625 C 127.74349,36.715172 116.65239,48.476388 111.875,54.15625 C 99.256134,54.291637 111.49842,38.599443 95.375,40.40625 C 86.723266,34.559712 93.759633,39.659908 91,39.3125 C 90.298682,38.687404 72.91304,40.708355 70.5625,43.875 C 70.544846,44.095926 70.570571,44.314444 70.5625,44.53125 C 72.142579,44.371223 73.778475,45.315028 74.78125,48.65625 C 82.361735,44.321369 80.314002,54.529116 82.46875,57.3125 C 86.485114,48.924513 80.320585,67.170737 86.375,68.125 C 78.856403,72.454017 92.834864,70.928181 95.75,75.46875 C 96.204167,74.829679 96.46785,74.940716 96.15625,76.375 C 96.068296,76.043811 95.930773,75.750319 95.75,75.46875 C 94.253777,77.574127 90.621214,88.218346 98,89.96875 C 97.806364,89.750978 97.926725,89.728186 98.5625,90.09375 C 98.365346,90.061572 98.183334,90.012241 98,89.96875 C 99.073798,91.176395 111.03953,99.647011 113.875,97 C 112.7608,103.58568 119.11173,106.98389 117.53125,110.25 C 119.67836,108.77563 124.6946,119.48562 126.125,117.375 C 128.87231,119.58954 127.27375,129.51048 129.84375,127.03125 C 127.84198,128.51552 128.00237,143.49333 130.40625,147.09375 C 129.19232,144.48461 141.48048,145.43324 142.28125,145.75 C 140.31702,152.04656 145.92016,154.48358 147.59375,155.34375 C 152.70122,150.58132 154.54205,164.11456 156.125,166.625 C 158.84442,169.76804 173.46054,167.63739 170.25,171.5 C 171.31323,171.79971 176.32294,175.57035 178.59375,178.3125 C 180.20381,182.93668 182.08272,187.91611 182.4375,192.5625 C 183.24816,186.96304 184.71762,180.57017 188.5625,179.90625 C 190.9926,176.24955 190.63431,172.90481 192.71875,167.71875 C 199.9709,164.45642 198.71665,164.91714 200.125,165.90625 C 200.37261,161.91386 201.18038,157.99321 200.4375,151.65625 C 204.1965,149.05537 193.53765,126.76308 196.125,132.6875 C 190.93132,129.45385 210.78872,124.85782 215.6875,118.65625 C 211.68799,109.25166 215.29233,119.15863 216.90625,114.6875 C 217.58352,116.96352 215.57775,99.993779 217.28125,100.78125 C 226.79709,87.651077 222.6737,88.958096 222.3125,84.8125 C 223.94374,79.441276 223.07746,80.602184 225.78125,80.9375 C 221.21483,73.840334 223.56318,67.685472 225,65.21875 C 224.77233,65.492596 224.49792,65.808356 224.15625,66.1875 C 225.08806,65.121417 224.01987,59.32483 231.5,57.6875 C 235.0347,51.248617 232.83614,48.886655 236.1875,44.09375 C 238.81148,35.553946 240.49037,33.426382 241.125,34.15625 C 241.7747,26.598311 240.60875,25.804114 241.125,22.28125 L 221.75,22.21875 z M 241.125,34.15625 C 240.98357,35.801488 240.7908,37.734958 240.4375,40.125 C 241.47235,37.495569 241.66766,34.78034 241.125,34.15625 z M 182.4375,192.5625 C 182.117,194.77624 181.89383,196.85784 181.6875,198.40625 L 182.03125,197.8125 C 182.46596,196.14138 182.57651,194.38305 182.4375,192.5625 z M 147.59375,155.34375 C 147.45017,155.47763 147.30507,155.61776 147.15625,155.78125 C 148.32464,155.8062 148.23325,155.67243 147.59375,155.34375 z M 70.5625,44.53125 C 68.646337,44.725314 66.820507,46.51585 66.40625,47.625 C 65.958232,46.679944 56.49045,41.275594 52.84375,41.96875 L 68.78125,49.03125 C 76.776051,58.077101 70.250679,52.907251 70.5625,44.53125 z M 66.40625,47.65625 C 66.421341,47.704688 66.421432,47.732808 66.375,47.75 C 66.383769,47.720235 66.395213,47.687217 66.40625,47.65625 z M 225.8125,64.09375 C 225.70008,64.194451 225.40797,64.573139 225.0625,65.15625 C 225.53355,64.585995 225.75045,64.222298 225.8125,64.09375 z"
       style="fill:#c83737;fill-rule:evenodd;stroke:none;stroke-width:1px;stroke-linecap:butt;stroke-linejoin:miter;stroke-opacity:1" />
    <path
       id="path10774"
       d="M 274.53125,22.40625 C 262.23076,32.68755 247.69198,42.558581 231.53125,49.3125 C 218.42384,54.790372 197.86965,53.709139 178,52.3125 C 168.06517,51.614181 158.33605,50.922254 149.1875,51.6875 C 140.03895,52.452746 130.75988,54.639588 123.84375,61.6875 C 112.08251,73.672847 102.14521,91.73194 93.625,111.3125 L 107.0625,133.9375 C 116.86205,109.70715 128.46254,86.669798 138.6875,76.25 C 140.26581,74.641616 144.12428,73.00479 150.90625,72.4375 C 157.68822,71.87021 166.69315,72.37098 176.53125,73.0625 C 196.20744,74.445541 219.28525,76.961242 239.53125,68.5 C 249.47567,64.344009 258.7849,59.275636 267.375,53.71875 L 285.90625,22.4375 L 274.53125,22.40625 z"
       style="fill:#f4d7d7;fill-opacity:1;fill-rule:evenodd;stroke:none;stroke-width:20.79999924;stroke-linecap:butt;stroke-linejoin:miter;stroke-miterlimit:4;stroke-dasharray:none;stroke-opacity:1" />
    <path
       id="path11489"
       d="M 392.625,505.96875 L 164.375,507.40625 C 166.30914,513.2392 165.85107,517.46092 159.125,511.09375 C 159.98409,510.80202 158.17612,510.29643 155.5,509.65625 L 24.65625,741.25 L 119.9375,911.9375 C 125.03422,910.85698 130.2601,911.29517 128.875,916.71875 C 130.40953,918.65353 127.72533,922.04343 127.5625,925.59375 L 131.96875,933.46875 C 133.77027,931.98874 136.31965,929.74828 139.90625,928.75 C 145.34582,929.21672 144.35703,944.51568 144.625,945.125 C 144.62158,945.12459 144.62811,945.16016 144.625,945.15625 C 143.04846,946.80389 147.61221,950.24509 149.09375,952.46875 C 149.28982,951.74682 160.96475,958.6531 159.71875,960.875 C 162.80628,963.06686 161.48543,964.83093 164.96875,966.21875 C 165.92829,971.88258 169.44529,970.65742 170.6875,969.9375 C 170.68473,969.91657 170.68969,969.8959 170.6875,969.875 C 171.3822,969.4032 171.21884,969.62956 170.6875,969.9375 C 170.93081,971.77459 173.44564,973.79074 177.96875,977.75 L 206.6875,977.65625 C 206.60484,972.5487 208.52515,974.22661 210.75,972.03125 C 212.15943,971.61425 213.37961,974.52503 214.375,977.625 L 229.3125,977.5625 C 230.7549,976.5985 231.78424,975.80435 231.84375,975.40625 C 236.80282,976.11031 239.053,976.49131 239.90625,976.65625 C 237.87819,976.2254 229.95129,974.24714 233.59375,971.09375 C 235.28703,967.40844 252.73306,974.38043 254.5625,968.9375 C 255.87133,965.95493 256.14827,959.63812 261.53125,965.5625 C 262.8028,957.06821 270.36614,960.49868 271.40625,965.15625 C 280.56771,968.75895 273.48842,965.20787 279.1875,960.40625 C 289.97266,965.09989 280.79786,958.28558 286.1875,958.75 C 287.42245,958.12977 296.81873,959.1489 304.03125,952.09375 C 306.59421,938.90681 308.56994,960.23344 311.125,958.1875 C 322.52045,957.77292 315.68268,954.39465 313.09375,954.78125 C 312.9149,955.26694 312.64661,955.60273 312.25,955.71875 C 312.14304,955.17156 312.50952,954.86849 313.09375,954.78125 C 314.52869,950.8844 309.93271,936.84935 314.9375,940.90625 C 313.60062,939.42465 348.49466,953.21287 338.71875,942.28125 C 340.61144,943.85473 350.21147,948.95587 353.1875,948.3125 C 355.59784,945.69962 356.4606,947.05337 359.96875,946.34375 C 357.03314,946.90317 358.64013,953.89265 364.15625,951.375 C 368.21172,949.76743 374.1057,937.8721 375.84375,935.5 C 376.83795,938.50191 375.18328,935.92707 385.75,934.09375 C 389.09453,937.42071 386.92212,928.20881 393.6875,926.8125 C 397.35958,925.92126 401.98288,930.6669 404.8125,928.875 C 403.61353,934.33632 413.90519,923.9832 416.3125,924.5625 C 417.93542,917.21714 426.21201,921.8164 429.5625,920.375 C 431.22316,919.1663 439.1557,910.5952 439.4375,922.5625 C 448.20457,920.43024 455.87763,924.6589 443.65625,918.375 C 446.37324,916.08804 439.27292,906.72171 448.21875,919.1875 C 453.37794,918.12461 464.36095,916.92655 464.1875,914.84375 C 462.95062,914.64554 462.11191,914.05165 462.40625,913.40625 C 463.59499,913.93094 464.15087,914.40385 464.1875,914.84375 C 467.11512,915.31291 472.40225,913.5388 471.125,904.78125 C 475.27731,901.89938 459.37771,885.1524 458.1875,883.34375 C 459.63447,878.6132 483.36207,885.69511 479.625,883.21875 C 480.65001,880.42362 469.61757,867.87581 475.5,873.84375 C 478.64642,865.55176 474.96535,875.55376 471.5625,863.125 C 472.43666,860.0233 469.09163,856.07641 466.78125,855.625 C 467.76122,852.6285 472.71162,858.01583 478.28125,845.125 C 480.34499,840.77491 481.55571,837.79488 482.34375,835.8125 C 481.50516,833.50637 480.3056,827.84714 485.03125,826.84375 C 485.86011,823.6729 491.25334,818.295 489.375,816.65625 C 483.57297,820.7886 485.51651,805.49399 487,803.46875 C 492.60639,802.00951 477.71733,799.81058 479.375,797.40625 C 480.46791,794.03525 505.09521,804.38415 503,787.5 C 509.7755,780.31324 493.53154,788.29393 495.9375,782.5625 C 494.35001,778.61691 491.87881,774.43019 493.25,770.03125 C 493.24531,765.97766 499.27169,766.18122 500.71875,758.96875 C 501.82918,757.0376 510.36654,745.37721 513.46875,741.625 C 508.43385,741.59842 500.12054,740.84022 500.8125,738.78125 C 504.84797,733.36529 507.23821,738.8889 502.6875,732.5 C 497.86112,723.72344 515.05023,735.61351 512.0625,722.875 C 510.55614,715.99592 512.92321,710.93538 515.125,708.0625 C 514.61588,708.02537 509.71198,701.26595 512.46875,701.9375 C 513.14046,700.9359 520.69216,697.2102 524.40625,693.40625 C 528.77314,691.31557 528.16416,689.35875 521.53125,686.34375 C 518.86471,686.73326 519.50472,683.3251 516.75,674.75 C 520.77241,678.1808 523.85991,672.56034 522.3125,664.9375 C 522.3763,663.41472 522.98283,662.01648 523.84375,660.71875 L 500.65625,619.78125 C 498.22812,620.22166 497.10956,619.51679 498.9375,616.71875 L 491.4375,603.53125 C 485.27782,601.64308 472.66454,600.18875 475.3125,591.875 C 477.0994,591.92969 478.51149,592.05597 479.65625,592.1875 C 477.72826,590.18912 476.11415,585.96257 475.40625,583.53125 C 473.85504,584.62495 458.23357,552.65851 458.3125,559 C 456.92003,556.84013 456.49406,557.47269 456.625,558.34375 C 454.04283,557.80394 449.14024,558.09967 447.40625,558.9375 C 447.67271,559.45424 447.94529,560.02374 448.28125,560.75 C 446.41838,560.0005 446.46194,559.39377 447.40625,558.9375 C 444.41271,553.1322 445.47227,559.3071 443.84375,550.59375 C 443.05261,556.52671 442.51248,557.85164 436.5,554.875 C 434.34201,552.64806 426.25476,531.48798 429.40625,531.875 C 425.77489,526.05428 418.28647,555.39032 416.28125,549.4375 C 414.90641,547.2587 432.7777,527.1196 422.3125,525.71875 C 424.77194,516.26101 414.54147,523.32057 412.25,521.28125 C 409.09563,522.47051 405.83643,513.74397 406.03125,512.125 C 403.92245,512.9238 405.33587,510.07385 398.09375,508.75 C 395.27503,505.50838 398.53406,513.47043 396.75,510.4375 C 395.93418,508.86422 394.40813,507.39174 392.625,505.96875 z M 406.03125,512.125 C 406.15062,512.07978 406.26204,512.00702 406.40625,511.9375 C 406.18238,511.76026 406.06254,511.86496 406.03125,512.125 z M 475.40625,583.53125 C 475.52357,583.44853 475.5565,583.17952 475.5,582.6875 C 474.84246,580.93155 474.89294,581.76826 475.40625,583.53125 z M 512.46875,701.9375 C 512.32005,702.15923 512.47967,702.23096 513.125,702.15625 C 512.86939,702.04108 512.65253,701.98227 512.46875,701.9375 z M 513.46875,741.625 C 517.20927,741.64474 519.13479,741.25816 514.21875,740.71875 C 514.03878,740.91349 513.74529,741.29052 513.46875,741.625 z M 482.34375,835.8125 C 482.69858,836.78828 482.97515,837.21721 482.71875,836.34375 C 483.5596,832.57272 483.47207,832.97411 482.34375,835.8125 z M 456.65625,558.34375 C 457.55888,558.53631 458.15283,558.84397 458.21875,559.25 C 457.37978,560.20427 456.78392,559.17353 456.65625,558.34375 z M 479.6875,592.1875 C 480.19188,592.70705 480.71274,593.08615 481.25,593.21875 C 481.31845,595.49999 487.73229,593.11896 479.6875,592.1875 z M 517.96875,705.375 C 517.62907,705.45316 516.45505,706.39109 515.1875,708.03125 C 517.71649,706.14435 518.33069,705.29172 517.96875,705.375 z"
       style="fill:#c83737;fill-opacity:1;fill-rule:evenodd;stroke:none;stroke-width:15;stroke-linecap:butt;stroke-linejoin:round;stroke-miterlimit:4;stroke-dasharray:none;stroke-opacity:1;display:inline" />
    <path
       inkscape:transform-center-y="141.42078"
       inkscape:transform-center-x="-89.445629"
       sodipodi:nodetypes="cczczc"
       id="path11685"
       d="M 61.101412,692.62019 C 183.36379,607.11781 231.13136,597.17487 431.93004,548.15667 C 440.08967,567.47507 242.14952,644.16125 239.99269,659.98462 C 237.99746,674.62221 325.21776,947.76851 314.74516,947.76851 C 303.94207,954.52041 194.82361,693.07369 180.76518,682.95039 C 167.51442,673.40868 56.443382,697.27822 61.101412,692.62019 z"
       style="fill:#e3dbdb;fill-rule:evenodd;stroke:none;stroke-width:3.29999995;stroke-linecap:butt;stroke-linejoin:miter;stroke-miterlimit:4;stroke-dasharray:none;stroke-opacity:1" />
    <path
       style="fill:#916f6f;fill-rule:evenodd;stroke:none;stroke-width:3.29999995;stroke-linecap:butt;stroke-linejoin:miter;stroke-miterlimit:4;stroke-dasharray:none;stroke-opacity:1"
       d="M 133.81293,669.55235 C 186.94009,638.01147 244.62325,614.44356 307.26224,599.54838 C 202.83326,653.95903 196.93442,661.39308 133.81293,669.55235 z"
       id="path11687"
       sodipodi:nodetypes="ccc"
       inkscape:transform-center-x="-34.333156"
       inkscape:transform-center-y="-15.160099" />
    <path
       style="fill:#c83737;fill-opacity:1;stroke:none;stroke-width:20;stroke-miterlimit:4;stroke-opacity:1"
       d="M 456.46875,27.03125 C 444.22545,27.031249 442.91559,31.783739 453.5,37.9375 L 597.9375,121.9375 C 600.09997,122.65215 599.78318,123.00329 602.4375,122.21875 C 603.91848,124.29013 604.5193,125.36795 604.78125,125.90625 L 604.9375,126 C 604.97167,125.59628 605.35949,125.09131 607.1875,125.375 C 607.31945,126.5386 607.68448,127.36723 608.21875,127.90625 L 609.4375,128.625 C 612.8947,129.63965 619.28554,125.44464 621.84375,123.84375 C 624.74453,126.43264 633.11735,131.86829 632.375,123.9375 C 635.53614,130.1166 644.58037,129.47562 647.34375,130.5 C 646.77849,124.68993 648.0796,125.71556 660.09375,115.875 C 662.58345,121.26786 662.9369,125.36004 662.65625,127.5 C 671.60271,122.66954 678.1001,123.88519 681.65625,123.125 C 683.03896,124.48894 683.77602,125.20467 684.21875,125.59375 C 683.76252,125.32804 683.21346,125.19155 683.4375,126.3125 C 688.55492,127.05611 689.74514,131.2269 693.15625,131.4375 C 699.67291,137.51373 704.29116,128.52586 708.375,125.71875 C 709.82301,127.00964 714.47392,129.52786 713.8125,125.96875 C 714.92946,123.76982 714.22516,136.18186 718.59375,129.1875 C 724.91281,130.05905 729.3458,128.19028 731.9375,129.25 C 734.21901,129.02848 745.87926,136.60424 751.4375,136.5 C 751.5039,135.04115 752.17443,133.04118 753.84375,130.375 C 763.89751,127.55587 760.29466,135.86364 763.96875,135.125 C 765.48292,132.23747 768.07079,132.49976 773.40625,129.78125 C 776.44967,129.98041 773.26831,132.84481 781.6875,133.03125 C 786.01252,131.73359 789.41897,124.7462 793.15625,126 C 800.93407,131.65061 801.64163,127.01574 806.3125,128.25 C 815.50452,138.53465 799.3728,134.78069 813.28125,137 C 815.86889,135.88365 823.9883,138.52287 828.53125,140.1875 C 830.06879,137.1676 835.32933,139.14219 837.40625,139.625 C 837.70569,138.75692 850.11302,137.8311 849.78125,138.71875 C 851.7618,138.65632 860.02484,134.90296 861.8125,136.40625 C 865.9478,130.01502 868.79871,134.99609 870.4375,138.25 C 869.95668,139.4223 873.56413,148.2029 879.8125,143.5 C 880.88564,143.41222 881.93811,142.90572 883,142.1875 C 882.30512,141.71463 881.565,141.24201 880.71875,140.75 L 703.90625,37.9375 C 693.32184,31.783739 675.55574,27.031251 663.3125,27.03125 L 456.46875,27.03125 z M 828.53125,140.1875 C 828.3116,140.61891 828.17347,141.15847 828.125,141.8125 C 824.89873,141.64225 834.05023,144.19912 831.46875,141.3125 C 831.01751,141.12396 829.87664,140.68048 828.53125,140.1875 z M 751.4375,136.5 C 751.15241,142.7632 762.02828,139.12339 753.3125,136 C 752.82367,136.32892 752.18426,136.48599 751.4375,136.5 z M 662.65625,127.5 C 662.27312,127.70687 661.89213,127.89525 661.5,128.125 C 661.67227,129.76442 662.40845,129.38941 662.65625,127.5 z"
       id="rect11705" />
    <path
       id="path11689"
       d="M 458.15601,27.03125 C 446.27264,27.031249 435.43954,25.010831 453.28251,37.539094 L 461.17111,42.343625 C 468.57949,41.367874 475.28837,38.770385 483.81631,37.78125 C 518.18691,33.79469 558.99145,30.471642 581.6045,32.46875 C 587.96782,33.030738 591.50117,34.94762 598.89335,37.96875 C 606.28553,40.98988 616.60309,44.499893 633.44073,46.34375 C 648.97925,48.045345 685.40366,46.930175 716.40625,45.21875 L 700.89817,36.343875 C 690.62491,30.190114 670.80236,27.031251 658.91904,27.03125 L 655.0063,27.03125 L 648.97036,27.03125 L 458.15601,27.03125 z"
       style="fill:#f4d7d7;fill-opacity:1;fill-rule:evenodd;stroke:none;stroke-width:20;stroke-linecap:butt;stroke-linejoin:miter;stroke-miterlimit:4;stroke-dasharray:none;stroke-opacity:1"
       sodipodi:nodetypes="cccsssscccccc" />
    <path
       id="path12043"
       d="M 753.03125,717.78125 C 747.22069,721.97884 739.83648,738.39811 739.84375,736.625 C 739.40191,736.81085 739.09117,736.92634 738.6875,737.09375 C 738.64973,737.13457 738.63584,737.17526 738.59375,737.21875 C 741.25098,741.04861 730.05527,741.05246 733.125,747 C 730.366,748.84294 724.67715,746.30815 717.5625,751.4375 L 717.5625,952.8125 C 717.5625,966.24836 728.15789,976.84375 741.59375,976.84375 L 952.59375,976.84375 C 956.1397,976.84375 959.4923,976.08343 962.5,974.75 C 962.59339,974.13647 959.52026,974.95554 961.28125,973.15625 C 963.61239,971.59806 965.68167,971.70855 967.71875,971.59375 C 973.1721,967.21737 976.625,960.47468 976.625,952.8125 L 976.625,741.8125 C 976.625,728.37664 966.02961,717.78125 952.59375,717.78125 L 753.03125,717.78125 z M 738.6875,737.09375 C 743.02548,732.40537 719.31172,745.12938 738.6875,737.09375 z"
       style="fill:#c83737;fill-opacity:1;stroke:none;stroke-width:20;stroke-miterlimit:4;stroke-opacity:1;display:inline" />
    <path
       style="fill:#e3dbdb;fill-opacity:1;fill-rule:evenodd;stroke:none;stroke-width:1px;stroke-linecap:butt;stroke-linejoin:miter;stroke-opacity:1"
       d="M 948.47983,820.77934 C 948.51907,814.39671 936.33422,801.00633 931.01951,799.35076 C 924.03954,797.17645 910.12291,820.0927 901.65443,822.36664 C 893.01959,824.68526 863.54226,812.80316 846.89253,831.89045 C 829.85318,851.4244 844.98992,868.00823 839.74967,880.30315 C 834.50942,892.59807 813.75027,907.14171 815.1465,912.04918 C 816.33257,916.21799 825.46986,930.43154 831.81316,930.30315 C 838.18994,930.17408 861.6667,902.30064 871.4957,905.69998 C 881.05393,909.00567 888.33504,909.20571 897.4387,907.28693 C 910.94132,904.44097 914.87103,923.33402 926.25761,912.04918 C 938.0478,900.36434 936.48094,890.80191 927.34882,880.27447 C 921.07176,873.03833 922.79884,858.04786 925.46396,848.55712 C 928.12908,839.06638 948.44026,827.21596 948.47983,820.77934 z"
       id="path12039"
       sodipodi:nodetypes="czzzzzzzszszz" />
    <path
       sodipodi:type="arc"
       style="opacity:1;fill:#916f6f;fill-opacity:1;stroke:none;stroke-width:20;stroke-miterlimit:4;stroke-dasharray:none;stroke-opacity:1"
       id="path12041"
       sodipodi:cx="884.5238"
       sodipodi:cy="867.46033"
       sodipodi:rx="15.476191"
       sodipodi:ry="14.285714"
       d="M 899.99999,867.46033 A 15.476191,14.285714 0 1 1 869.04761,867.46033 A 15.476191,14.285714 0 1 1 899.99999,867.46033 z"
       transform="matrix(1.2777778,0,0,1.2777778,-246.95767,-244.92946)" />
    <path
       id="path12381"
       d="M 331.09375 233.75 C 331.20288 233.87001 331.27759 233.96303 331.40625 234.09375 C 326.80376 238.84285 327.45374 239.58338 319.96875 237.15625 C 328.36303 246.12885 310.67535 239.69091 305.78125 244.84375 C 305.81558 245.19795 305.74607 245.36565 305.53125 245.125 C 305.61089 245.02446 305.69307 244.93659 305.78125 244.84375 C 305.65213 243.51163 303.91875 239.22578 301.78125 241.34375 C 298.72377 241.28779 301.29501 253.90821 294.125 244.65625 C 293.53441 246.12101 288.89892 247.97189 284.09375 250.03125 C 280.96873 250.98701 276.56641 246.63422 273.9375 251.28125 C 270.55092 249.32848 266.3465 258.82437 264.59375 256.375 C 264.6081 250.7595 248.56213 244.62547 252.6875 251.40625 C 259.83335 251.24238 249.7038 254.62758 246.78125 256.21875 C 243.16635 257.22426 240.98814 252.19725 231.65625 255.75 C 228.62307 256.42377 219.78274 272.13147 221.03125 275.53125 C 211.02683 277.49146 214.49795 265.42084 214.71875 262.375 C 212.31781 266.05511 206.465 273.65838 206.84375 270.84375 C 207.95684 271.08309 204.07895 269.13236 199.625 267 L 143.15625 370.53125 C 146.59224 374.23448 148.07298 385.00084 149.21875 385.84375 C 149.19067 387.54914 142.89779 385.5293 147.34375 391.9375 C 149.33802 393.71742 152.87391 400.17989 157.15625 401.0625 C 154.65886 399.35565 153.02714 395.76859 159.4375 400.9375 C 159.87919 400.80579 160.32895 400.62547 160.78125 400.34375 C 160.61168 400.88156 160.37915 401.2335 160.09375 401.46875 C 160.80571 402.05947 161.57533 402.73878 162.46875 403.53125 C 162.13558 407.31398 162.40716 410.48844 168.15625 405.25 C 168.10982 405.2154 168.13283 405.17913 168.25 405.15625 C 168.21476 405.18861 168.19109 405.21826 168.15625 405.25 C 168.75585 405.6968 181.87264 407.47637 178.96875 419.8125 C 173.78203 424.4726 175.29886 423.95536 177.25 426.4375 C 171.48322 431.48585 198.4365 418.16892 199.1875 428.09375 C 204.9743 428.51286 193.82075 435.42544 201.09375 436.1875 C 199.55205 441.05168 207.96797 439.86441 203.0625 446.5 C 205.73641 454.73655 209.00387 448.52127 211.1875 451.09375 C 212.04254 451.45288 212.51186 452.03659 212.78125 452.75 L 389.625 452.75 C 390.53551 451.72824 391.46203 451.0372 392.6875 451.15625 C 392.96808 450.67903 393.2373 450.6448 393.375 451.3125 C 393.13774 451.23926 392.90441 451.17732 392.6875 451.15625 C 392.48811 451.49537 392.28557 452.05029 392.09375 452.75 L 421.4375 452.75 C 421.78974 451.77661 421.78294 451.11474 421.28125 451.09375 C 422.31259 442.46479 423.148 447.36765 427.5625 445.84375 C 425.2091 442.41819 441.44469 436.50301 441.5 435.84375 C 443.55988 434.57231 443.28394 453.95375 449.3125 443.0625 C 452.58619 443.80828 447.96125 445.08491 460.59375 440 C 460.22188 433.79738 462.32064 442.81888 471.59375 436.59375 C 478.40029 426.97438 479.92055 439.56299 480.15625 442.9375 C 480.14281 442.66981 480.14042 442.62471 480.125 442.0625 C 482.29644 441.74778 478.80457 448.13844 483.46875 443.84375 C 485.63954 443.08446 503.54037 432.95525 504.84375 432.5625 C 507.73046 433.34799 510.07363 424.6934 511.71875 426.5 C 511.98943 428.77997 511.73881 426.94785 514.21875 426 C 509.77648 430.07706 522.76016 419.75286 525.1875 420.65625 C 526.61272 424.29664 523.73576 416.99086 525.65625 414.5 C 527.92172 405.83568 538.50609 392.35074 536.5 398.5625 C 539.18818 395.7939 542.38606 393.37189 538.28125 395.96875 C 538.31734 394.97716 538.31935 394.13194 538.28125 393.375 C 533.40517 393.9686 530.15379 393.62333 532.8125 392.125 C 531.83912 391.99861 537.79835 383.78136 538.28125 393.375 C 545.83024 392.45601 557.29622 389.29874 556.96875 384.625 C 555.60448 386.18209 540.11796 370.56552 545.875 368.09375 C 542.2605 368.08963 541.60412 363.14384 546.03125 362.9375 C 551.36456 363.17963 553.9353 358.76379 547.9375 356.59375 C 545.82329 352.08802 542.70745 357.37128 551.90625 348.25 C 553.58059 346.12214 555.08324 341.6792 556.65625 336.78125 L 512.90625 259.5 C 505.36117 246.16767 484.10046 233.75002 468.78125 233.75 L 331.09375 233.75 z M 536.5 398.5625 C 534.58585 400.53392 532.93835 402.67032 534.375 403.34375 C 535.49446 401.11948 536.16766 399.59157 536.5 398.5625 z M 160.09375 401.46875 C 159.84991 401.26644 159.66127 401.11793 159.4375 400.9375 C 158.65736 401.17014 157.89666 401.2151 157.15625 401.0625 C 158.16853 401.75435 159.30462 402.11923 160.09375 401.46875 z M 214.71875 262.375 C 215.93878 260.50496 216.29908 259.59356 214.40625 261.71875 C 214.67802 261.53671 214.75874 261.82332 214.71875 262.375 z M 294.125 244.65625 C 294.33295 244.14049 294.06313 243.66884 293.09375 243.25 C 293.47373 243.7826 293.78942 244.22323 294.125 244.65625 z "
       style="fill:#c83737;fill-opacity:1;fill-rule:evenodd;stroke:none;stroke-width:14.77562237;stroke-linecap:round;stroke-miterlimit:4;stroke-opacity:1" />
    <path
       id="path12609"
       d="M 496.40625 243.28125 C 493.75014 244.36144 491.08211 245.50631 488.4375 246.75 C 472.363 254.30943 458.28999 265.79878 446.8125 276.3125 C 435.33501 286.82622 425.92304 296.83836 422.3125 299.84375 C 389.01885 327.55707 354.84077 367.36974 330.53125 380.0625 C 306.91398 392.39381 268.72507 386.68988 227.65625 398.125 C 204.74968 404.50306 173.7243 422.8187 146.96875 439.6875 C 139.69221 444.2752 132.93329 448.6861 126.78125 452.75 L 166.15625 452.75 C 190.60223 437.74751 218.00594 422.80188 233.34375 418.53125 C 268.71219 408.68333 307.45308 416.04825 340.34375 398.875 C 372.54215 382.06321 405.04269 341.78954 435.875 316.125 C 442.33468 310.74801 450.41617 301.74711 461.125 291.9375 C 471.83383 282.12789 484.64848 271.96654 497.46875 265.9375 C 502.59253 263.52792 507.83097 261.46728 513.03125 259.71875 L 512.90625 259.5 C 509.54786 253.56565 503.46591 247.83876 496.40625 243.28125 z "
       style="fill:#f4d7d7;fill-opacity:1;fill-rule:evenodd;stroke:none;stroke-width:21.20000076;stroke-linecap:butt;stroke-linejoin:miter;stroke-miterlimit:4;stroke-dasharray:none;stroke-opacity:1" />
    <path
       style="fill:#c83737;fill-opacity:1;stroke:none;stroke-width:17.79999924;stroke-miterlimit:4;stroke-opacity:1"
       d="M 682.625 231.03125 C 682.50901 231.10703 682.40098 231.16843 682.28125 231.25 C 679.15905 233.1981 671.25608 234.68517 667.5625 233.3125 C 661.26659 231.96249 669.89728 247.05654 671.5 248.65625 C 667.50191 251.52739 661.709 251.27921 658.65625 250.5625 C 656.62322 253.17655 649.41554 258.35777 649.0625 257.0625 C 648.10026 259.39864 647.80743 257.26558 646.03125 259.125 C 646.62673 259.14704 641.41816 271.85368 642.4375 273.53125 C 637.90148 270.94672 635.61566 281.00921 634.875 284.53125 C 633.33672 284.64974 631.32677 284.93805 628.875 285.59375 C 627.61237 283.99352 622.4189 303.16081 623.21875 298.28125 C 622.12859 299.84387 619.87116 301.60881 622.09375 310.53125 C 624.90965 307.12331 626.55126 316.57014 623.6875 324.46875 C 619.15472 324.19114 618.41798 325.06036 618.59375 325.53125 C 616.35804 326.77942 614.42677 329.07149 613.28125 331.625 L 685.84375 453.8125 C 686.21957 454.44535 686.79518 454.78125 687.53125 454.78125 L 945.0625 454.78125 C 945.79865 454.78124 945.93835 454.44538 945.5625 453.8125 L 813.8125 231.96875 C 813.43666 231.33589 812.89232 231.03125 812.15625 231.03125 L 682.625 231.03125 z M 623.21875 298.28125 C 623.64691 297.66753 623.90166 297.05441 623.625 296.09375 C 623.39077 297.2173 623.30382 297.76226 623.21875 298.28125 z M 646.03125 259.125 C 645.96965 259.12272 645.85554 259.23516 645.65625 259.53125 C 645.79884 259.35456 645.90469 259.25749 646.03125 259.125 z M 658.65625 250.5625 C 659.64222 249.29475 659.43623 248.62382 656.59375 249.59375 C 656.53519 249.86744 657.35253 250.25642 658.65625 250.5625 z "
       id="path12642" />
    <path
       style="fill:#f4d7d7;fill-opacity:1;fill-rule:evenodd;stroke:none;stroke-width:17.79999924;stroke-linecap:butt;stroke-linejoin:miter;stroke-miterlimit:4;stroke-dasharray:none;stroke-opacity:1"
       d="M 577.96875 231.03125 C 582.15734 236.38109 586.86233 242.24457 591.9375 248.375 C 609.73871 269.87759 630.55783 293.46887 648.8125 303.78125 C 662.58951 311.56413 677.62507 325.9475 689.15625 340.1875 C 700.68743 354.4275 708.7439 369.84741 709.53125 373.90625 C 710.93486 381.14194 715.38509 386.19399 719.96875 390.625 C 724.55241 395.05601 729.717 399.07188 734.5 403.40625 C 744.06601 412.07499 751.73756 421.00341 752.21875 435.21875 C 752.42849 441.4147 753.73894 448.00558 755.8125 454.78125 L 775.125 454.78125 C 772.10792 446.74895 770.17043 439.65973 770 434.625 C 769.30024 413.95249 757.18668 399.95967 746.4375 390.21875 C 741.06291 385.34829 735.91809 381.29906 732.34375 377.84375 C 728.76941 374.38844 727.23268 371.73073 727 370.53125 C 724.663 358.48392 715.5402 344.48605 703 329 C 700.76596 326.24115 698.40445 323.48379 695.96875 320.75 C 719.43636 325.83292 743.12362 327.20436 759.96875 326.34375 C 775.34159 325.55836 786.96754 320.12636 797.3125 315.25 C 807.65746 310.37364 816.80956 306.03952 829.375 304.90625 C 838.33144 304.09848 868.94634 336.5023 890.21875 360.65625 L 852.21875 296.625 C 845.91025 291.93393 839.90285 288.07083 833.34375 287.15625 C 817.51997 284.94981 800.00764 294.27507 789.71875 299.125 C 779.42986 303.97493 770.77178 307.96428 759.0625 308.5625 C 733.70887 309.8578 685.51357 304.07132 657.5625 288.28125 C 645.0683 281.22306 623.02496 258.01142 605.65625 237.03125 C 603.96745 234.9913 602.3396 233.0027 600.75 231.03125 L 577.96875 231.03125 z "
       id="path12629" />
    <path
       style="fill:#f4d7d7;fill-opacity:1;fill-rule:evenodd;stroke:none;stroke-width:24.89999962;stroke-linecap:butt;stroke-linejoin:miter;stroke-miterlimit:4;stroke-dasharray:none;stroke-opacity:1"
       d="M 635.5 496.875 C 648.81479 499.75692 665.4351 503.46733 683.375 507.75 C 693.07937 510.06665 703.09392 512.57625 712.96875 515.15625 C 687.63902 507.15896 664.29434 501.37005 644.90625 497.375 C 644.05565 497.19973 643.24104 497.04354 642.40625 496.875 L 635.5 496.875 z M 524.4375 500.46875 C 524.31556 501.04611 524.32711 501.66188 524.5 502.34375 C 537.50642 504.65616 559.05377 508.67334 583.3125 513.9375 C 622.15215 522.36572 666.96605 534.63903 683.65625 544.25 C 722.03343 566.34932 758.11507 607.54506 808.3125 612.3125 C 827.52015 614.13673 859.99333 617.08685 890.375 619.8125 L 885.4375 614.75 C 848.92051 610.30637 809.18766 605.6076 788.3125 603.625 C 769.81941 601.86864 759.37938 594.20921 746.59375 582.40625 C 733.80812 570.60329 719.71644 554.58397 697.375 541.71875 C 672.53817 527.41658 625.70966 517.86768 582.8125 510.03125 C 559.88357 505.84261 539.22422 502.63665 524.4375 500.46875 z M 595.34375 553.25 C 610.02933 566.5373 623.95901 574.55042 638.375 582.28125 C 626.12096 570.92829 613.20451 560.1992 596.59375 553.71875 C 596.19244 553.56219 595.75242 553.40332 595.34375 553.25 z M 818.25 560.53125 C 823.74341 565.87124 828.60684 571.43704 833.375 577.03125 C 838.74195 583.32794 843.97276 589.7238 849.8125 595.625 C 847.84554 589.34374 843.88202 582.13042 836.40625 574.75 C 831.79307 570.19563 825.86823 565.47785 818.25 560.53125 z M 727.65625 637.6875 C 740.26256 643.05102 754.69342 646.72986 770.125 649.59375 C 795.45704 654.29507 823.47629 656.37853 849.75 657.15625 C 872.13383 657.81885 893.25511 657.51326 910.15625 656.9375 C 892.15642 655.96714 866.49758 654.39677 838.71875 652.09375 C 799.49279 648.84164 755.85784 643.66392 727.65625 637.6875 z "
       id="path13235" />
  </g>
  <g
     sodipodi:insensitive="true"
     style="display:none"
     inkscape:label="stencils"
     id="layer3"
     inkscape:groupmode="layer">
    <path
       style="fill:none;fill-rule:evenodd;stroke:#ff0000;stroke-width:2;stroke-linecap:butt;stroke-linejoin:round;stroke-miterlimit:4;stroke-dasharray:none;stroke-opacity:1;display:inline"
       d="M 7.812503,742.1875 L 148.4375,492.1875 L 445.3125,492.1875 L 585.9375,742.1875 L 445.3125,992.1875 L 148.4375,992.1875 L 7.812503,742.1875 z"
       id="path2419"
       inkscape:label="#path5308"
       sodipodi:nodetypes="ccccccc" />
    <path
       style="fill:none;fill-opacity:1;fill-rule:evenodd;stroke:#ff0000;stroke-width:2;stroke-linecap:butt;stroke-linejoin:round;stroke-miterlimit:4;stroke-dasharray:none;stroke-opacity:1;display:inline"
       d="M 70.312502,468.75 L 210.9375,218.75 L 507.8125,218.75 L 648.4375,468.75 L 70.312502,468.75 z"
       id="path2421"
       inkscape:label="#path5306"
       sodipodi:nodetypes="ccccc" />
    <path
       style="fill:none;fill-opacity:1;fill-rule:evenodd;stroke:#ff0000;stroke-width:2;stroke-linecap:butt;stroke-linejoin:round;stroke-miterlimit:4;stroke-dasharray:none;stroke-opacity:1;display:inline"
       d="M 703.125,992.1875 L 992.1875,992.1875 L 992.1875,703.125 L 703.125,703.125 L 703.125,992.1875 z"
       id="path2423"
       inkscape:label="#path5304"
       sodipodi:nodetypes="ccccc" />
    <path
       style="fill:none;fill-opacity:1;fill-rule:evenodd;stroke:#ff0000;stroke-width:2;stroke-linecap:butt;stroke-linejoin:round;stroke-miterlimit:4;stroke-dasharray:none;stroke-opacity:1;display:inline"
       d="M 390.625,15.625 L 687.5,15.625 L 945.3125,164.0625 L 648.4375,164.0625 L 390.625,15.625 z"
       id="path2425"
       sodipodi:nodetypes="ccccc"
       inkscape:label="#path5298" />
    <path
       style="fill:none;fill-opacity:1;fill-rule:evenodd;stroke:#ff0000;stroke-width:2;stroke-linecap:butt;stroke-linejoin:round;stroke-miterlimit:4;stroke-dasharray:none;stroke-opacity:1;display:inline"
       d="M 531.25,218.75 L 679.6875,468.75 L 968.75,468.75 L 820.3125,218.75 L 531.25,218.75 z"
       id="path2427"
       inkscape:label="#path5300"
       sodipodi:nodetypes="ccccc" />
    <path
       style="fill:none;fill-opacity:1;fill-rule:evenodd;stroke:#ff0000;stroke-width:2;stroke-linecap:butt;stroke-linejoin:round;stroke-miterlimit:4;stroke-dasharray:none;stroke-opacity:1;display:inline"
       d="M 164.0625,257.8125 L 15.625003,7.8125 L 312.5,7.8125 L 164.0625,257.8125 z"
       id="path2429"
       inkscape:label="#path5302"
       sodipodi:nodetypes="cccc" />
    <path
       style="fill:none;fill-opacity:1;fill-rule:evenodd;stroke:#ff0000;stroke-width:2;stroke-linecap:butt;stroke-linejoin:round;stroke-miterlimit:4;stroke-dasharray:none;stroke-opacity:1;display:inline"
       d="M 976.5625,687.5 L 773.4375,484.375 L 484.375,484.375 L 687.5,687.5 L 976.5625,687.5 z"
       id="path2431"
       sodipodi:nodetypes="ccccc"
       inkscape:label="#path6418" />
  </g>
</svg>
