<?xml version="1.0" encoding="UTF-8" standalone="no"?>
<!-- Created with Inkscape (http://www.inkscape.org/) -->
<svg
   xmlns:dc="http://purl.org/dc/elements/1.1/"
   xmlns:cc="http://creativecommons.org/ns#"
   xmlns:rdf="http://www.w3.org/1999/02/22-rdf-syntax-ns#"
   xmlns:svg="http://www.w3.org/2000/svg"
   xmlns="http://www.w3.org/2000/svg"
   xmlns:xlink="http://www.w3.org/1999/xlink"
   xmlns:sodipodi="http://sodipodi.sourceforge.net/DTD/sodipodi-0.dtd"
   xmlns:inkscape="http://www.inkscape.org/namespaces/inkscape"
   width="1000"
   height="1000"
   id="svg2"
   sodipodi:version="0.32"
   inkscape:version="0.46"
   sodipodi:docname="volcanic.svg"
   inkscape:output_extension="org.inkscape.output.svg.inkscape"
   version="1.0"
   inkscape:export-filename="/Users/joe/Documents/Code/BattleMints/volcanic-theme.png"
   inkscape:export-xdpi="23.040001"
   inkscape:export-ydpi="23.040001">
  <sodipodi:namedview
     id="base"
     pagecolor="#ffffff"
     bordercolor="#666666"
     borderopacity="1.0"
     gridtolerance="10000"
     guidetolerance="10"
     objecttolerance="10"
     inkscape:pageopacity="0.0"
     inkscape:pageshadow="2"
     inkscape:zoom="1.0610557"
     inkscape:cx="449.63969"
     inkscape:cy="316.66777"
     inkscape:document-units="px"
     inkscape:current-layer="layer5"
     showgrid="true"
     inkscape:snap-global="true"
     inkscape:object-nodes="true"
     inkscape:window-width="1247"
     inkscape:window-height="889"
     inkscape:window-x="1103"
     inkscape:window-y="52"
     inkscape:snap-nodes="true"
     inkscape:snap-bbox="true"
     showguides="true"
     inkscape:guide-bbox="true">
    <inkscape:grid
       empspacing="5"
       spacingy="7.8125px"
       spacingx="7.8125px"
       enabled="true"
       visible="true"
       id="grid2385"
       type="xygrid" />
    <inkscape:grid
       dotted="false"
       empopacity="0.25098039"
       empcolor="#ff00ff"
       opacity="0.1254902"
       color="#ff00ff"
       spacingy="86.6px"
       spacingx="86.6px"
       enabled="false"
       visible="true"
       id="grid2387"
       type="xygrid" />
  </sodipodi:namedview>
  <defs
     id="defs4">
    <linearGradient
       id="linearGradient3709">
      <stop
         id="stop3711"
         offset="0"
         style="stop-color:#ffffff;stop-opacity:1" />
      <stop
         style="stop-color:#e7b291;stop-opacity:1"
         offset="0.13265306"
         id="stop3721" />
      <stop
         style="stop-color:#c37d0b;stop-opacity:1;"
         offset="0.26530612"
         id="stop3719" />
      <stop
         style="stop-color:#320b0b;stop-opacity:1;"
         offset="0.5"
         id="stop3717" />
      <stop
         id="stop3713"
         offset="1"
         style="stop-color:#280b0b;stop-opacity:1;" />
    </linearGradient>
    <inkscape:perspective
       id="perspective10"
       inkscape:persp3d-origin="372.04724 : 350.78739 : 1"
       inkscape:vp_z="744.09448 : 526.18109 : 1"
       inkscape:vp_y="0 : 1000 : 0"
       inkscape:vp_x="0 : 526.18109 : 1"
       sodipodi:type="inkscape:persp3d" />
    <radialGradient
       inkscape:collect="always"
       xlink:href="#linearGradient3709"
       id="radialGradient4919"
       gradientUnits="userSpaceOnUse"
       gradientTransform="matrix(5.4154419,0.8813897,-0.9940919,6.1079077,-1008.6302,-4158.8616)"
       cx="393.99857"
       cy="744.21918"
       fx="393.99857"
       fy="744.21918"
       r="51.31392" />
  </defs>
  <metadata
     id="metadata7">
    <rdf:RDF>
      <cc:Work
         rdf:about="">
        <dc:format>image/svg+xml</dc:format>
        <dc:type
           rdf:resource="http://purl.org/dc/dcmitype/StillImage" />
      </cc:Work>
    </rdf:RDF>
  </metadata>
  <g
     inkscape:label="Theme"
     id="layer5"
     inkscape:groupmode="layer">
    <path
       style="fill:#280b0b;fill-rule:evenodd;stroke:none;stroke-width:1.95335126;stroke-linecap:butt;stroke-linejoin:round;stroke-miterlimit:4;stroke-dasharray:none;stroke-opacity:1;display:inline"
       d="M 101.5625,750 L 242.1875,500 L 539.0625,500 L 679.6875,750 L 539.0625,1000 L 242.1875,1000 L 101.5625,750 z"
       id="path13377"
       inkscape:label="#path5308"
       sodipodi:nodetypes="ccccccc" />
    <path
       style="fill:#280b0b;fill-opacity:1;fill-rule:evenodd;stroke:none;stroke-width:1.95335126;stroke-linecap:butt;stroke-linejoin:round;stroke-miterlimit:4;stroke-dasharray:none;stroke-opacity:1;display:inline"
       d="M 828.125,687.5 L 578.125,546.875 L 578.125,250 L 828.125,109.375 L 828.125,687.5 z"
       id="path13382"
       inkscape:label="#path5306"
       sodipodi:nodetypes="ccccc" />
    <path
       style="fill:#280b0b;fill-opacity:1;fill-rule:evenodd;stroke:none;stroke-width:1.95335126;stroke-linecap:butt;stroke-linejoin:round;stroke-miterlimit:4;stroke-dasharray:none;stroke-opacity:1;display:inline"
       d="M 250,492.1875 L 539.0625,492.1875 L 539.0625,203.125 L 250,203.125 L 250,492.1875 z"
       id="path13384"
       inkscape:label="#path5304"
       sodipodi:nodetypes="ccccc" />
    <path
       style="fill:#280b0b;fill-opacity:1;fill-rule:evenodd;stroke:none;stroke-width:1.95335126;stroke-linecap:butt;stroke-linejoin:round;stroke-miterlimit:4;stroke-dasharray:none;stroke-opacity:1;display:inline"
       d="M 851.5625,742.1875 L 851.5625,445.3125 L 1000,187.5 L 1000,484.375 L 851.5625,742.1875 z"
       id="path13386"
       sodipodi:nodetypes="ccccc"
       inkscape:label="#path5298" />
    <path
       style="fill:#280b0b;fill-opacity:1;fill-rule:evenodd;stroke:none;stroke-width:1.95335126;stroke-linecap:butt;stroke-linejoin:round;stroke-miterlimit:4;stroke-dasharray:none;stroke-opacity:1;display:inline"
       d="M 1000,750 L 851.5625,1000 L 562.5,1000 L 710.9375,750 L 1000,750 z"
       id="path13388"
       inkscape:label="#path5300"
       sodipodi:nodetypes="ccccc" />
    <path
       style="fill:#280b0b;fill-opacity:1;fill-rule:evenodd;stroke:none;stroke-width:1.95335126;stroke-linecap:butt;stroke-linejoin:round;stroke-miterlimit:4;stroke-dasharray:none;stroke-opacity:1;display:inline"
       d="M 0,0 L 296.875,0 L 148.4375,250 L 0,0 z"
       id="path13390"
       inkscape:label="#path5302"
       sodipodi:nodetypes="cccc" />
    <path
       style="fill:#280b0b;fill-opacity:1;fill-rule:evenodd;stroke:none;stroke-width:1.95335126;stroke-linecap:butt;stroke-linejoin:round;stroke-miterlimit:4;stroke-dasharray:none;stroke-opacity:1;display:inline"
       d="M 250,203.125 L 453.125,0 L 742.1875,0 L 539.0625,203.125 L 250,203.125 z"
       id="path13392"
       sodipodi:nodetypes="ccccc"
       inkscape:label="#path6418" />
    <path
       inkscape:transform-center-y="33.599269"
       inkscape:transform-center-x="10.237591"
       inkscape:label="#path5302"
       id="path2453"
       d="M 30.481321,21.884081 C 32.297158,21.649822 36.989201,20.720051 38.807424,19.669899 C 39.855877,18.55592 43.259712,18.757621 47.490373,19.272076 C 52.552708,26.73221 55.680888,19.974347 59.081541,15.219151 C 60.64202,22.29745 68.157445,17.103309 68.645858,18.931649 C 72.402737,19.259916 73.855935,15.997052 78.70565,14.851827 C 84.01657,9.418354 88.89261,17.487318 88.76187,17.205332 C 91.49216,20.029082 102.19112,17.10063 103.06836,16.242602 C 108.27897,11.212165 114.01397,9.75321 113.62804,9.950809 C 125.1273,9.338815 123.03772,16.713048 121.5104,17.976412 C 126.28592,20.131346 122.8162,18.470097 125.40754,20.097241 C 119.58423,19.258733 136.7571,13.071419 135.19411,12.41082 C 136.86335,16.674498 142.45766,17.623932 148.12504,15.91039 C 151.61855,11.835757 157.25783,13.879874 160.0304,14.373421 C 163.76147,12.162944 151.58114,13.871017 160.36523,14.77509 C 163.83348,14.705132 180.3608,20.058634 178.76526,17.514792 C 180.87861,18.21141 192.72363,12.848421 195.03238,15.012744 C 202.24127,17.97919 189.57699,6.503576 194.27476,14.166999 C 199.01281,11.850097 201.02744,15.133658 206.42648,14.841739 C 209.57031,14.395853 215.25014,14.631682 217.68504,13.451112 C 216.00357,15.444462 221.31659,13.760612 225.68459,11.898178 C 229.41097,12.186093 236.3736,17.283855 239.68298,16.813324 C 242.7222,18.311897 247.89301,8.325105 250.58637,10.119885 C 255.4387,6.500593 256.53062,17.008452 258.80197,13.157331 C 263.82784,21.541794 264.65531,11.261071 267.05538,10.476434 C 271.57258,-1.065343 266.99994,22.32281 264.14027,20.951836 C 259.63779,24.92246 269.6091,29.35133 259.05791,30.81193 C 262.16373,29.13499 250.7854,30.72683 251.0921,33.26317 C 250.83073,40.51098 248.68313,48.48717 246.52022,51.68379 C 245.46853,49.15073 252.46755,56.77698 249.14479,56.83221 C 244.79062,50.48366 238.23282,61.04875 237.02278,64.89937 C 235.68879,67.65011 231.52826,65.36154 232.46182,71.47834 C 231.06209,76.15401 232.37657,79.70597 228.60344,81.9008 C 227.79661,79.43239 228.54662,85.03189 224.20345,89.89941 C 222.46853,91.96496 211.67258,83.11189 215.45195,98.11716 C 209.14162,95.08392 214.40219,108.6057 211.54284,106.94644 C 212.20268,113.36321 208.34088,115.65325 206.80181,118.42631 C 202.25185,121.21252 211.31774,127.95595 209.47449,130.81938 C 208.4945,134.4587 206.05677,139.78884 203.02214,142.69599 C 195.28803,138.37015 197.53983,137.38337 195.74156,140.74403 C 195.72185,142.43035 188.62207,147.09061 188.93591,150.6248 C 194.78533,155.40181 181.88199,143.00116 182.17311,147.09726 C 180.04259,151.39254 181.14764,166.25488 180.38129,168.34526 C 181.1381,175.26157 187.58569,171.00365 181.16619,177.09999 C 176.54699,185.55388 162.36745,180.83501 165.92548,181.89043 C 165.73107,184.94978 166.29627,195.57881 164.39277,198.5633 C 161.02761,201.20174 163.20829,192.27901 161.04812,196.45697 C 159.20545,199.73869 154.47299,195.09226 160.35864,205.28092 C 148.48273,220.48002 151.39484,229.23948 151.46968,224.09655 C 154.2603,223.10623 143.4148,218.87592 145.57949,211.86771 C 150.80193,208.17192 140.19677,209.38724 142.92643,206.04652 C 145.71198,204.54872 130.1355,201.68256 129.61535,199.41005 C 125.91102,195.71143 143.40915,190.83457 137.89749,185.81908 C 137.12141,183.03335 121.5683,190.25483 120.17602,181.88829 C 118.305,183.2348 121.67409,180.20885 120.69517,168.84471 C 120.38858,163.53671 105.49728,166.57382 110.73956,159.14184 C 109.91948,152.62302 106.52726,162.81033 105.71259,159.39228 C 104.14333,158.64464 98.52826,146.8626 101.879,146.35837 C 107.58294,145.01955 100.08219,130.20714 98.2899,131.09938 C 94.51679,127.01429 96.97806,128.98488 95.71215,125.75667 C 91.67754,120.63375 87.57957,116.10508 88.15902,116.25612 C 86.91943,114.36501 90.37089,114.22722 84.61722,118.13725 C 81.13958,115.39762 84.46553,106.15405 82.69973,105.79364 C 79.86234,103.05042 74.995779,93.58302 72.218602,90.79102 C 72.058991,85.87767 73.549089,80.43616 74.396681,84.49915 C 70.541513,81.20758 75.602312,85.29254 65.531405,75.98644 C 59.089413,79.01768 61.961195,69.48267 60.17794,66.58993 C 60.109302,59.44971 54.190636,66.20896 52.114041,61.67847 C 48.455157,57.52045 59.551829,58.58863 47.74792,52.5449 C 46.064729,53.73003 49.425324,45.14359 48.099667,44.00903 C 54.05454,45.56615 43.719881,40.02086 38.871127,31.28837 C 45.856961,28.61442 36.651208,24.91368 35.338245,22.54062 C 31.689466,18.707275 28.555508,14.71579 29.412435,16.296584 C 26.763198,15.838999 28.369539,2.074859 25.776475,11.721496"
       style="fill:#483737;fill-opacity:1;fill-rule:evenodd;stroke:none;stroke-width:1.95335126;stroke-linecap:butt;stroke-linejoin:round;stroke-miterlimit:4;stroke-dasharray:none;stroke-opacity:1;display:inline" />
    <path
       inkscape:label="#path6418"
       sodipodi:nodetypes="ccccc"
       id="path2515"
       d="M 298.42621,183.72244 C 295.29085,181.66103 298.94957,181.0155 302.88983,175.03107 C 310.09182,172.20278 310.78485,178.41978 311.65099,173.55009 C 312.38716,166.48855 321.31759,164.69803 317.41828,164.66811 C 319.25544,161.9019 323.75888,158.17698 322.29354,157.9437 C 325.9705,152.61465 322.35585,154.6847 325.76953,147.72692 C 331.05235,149.23534 334.00066,155.39134 333.88216,153.55343 C 338.95193,158.22922 346.29856,145.46715 349.2237,143.49513 C 352.75719,136.05108 347.44255,130.28282 348.4662,132.93034 C 351.31282,126.48813 360.21503,130.86136 362.73695,127.99312 C 362.35909,130.10733 359.62171,117.75667 365.36658,116.01614 C 373.30711,109.39888 368.69171,112.60429 369.21078,114.11742 C 370.98011,111.49086 377.95031,108.30909 374.69267,107.80713 C 378.75401,103.07337 387.34367,100.09718 380.9516,95.195627 C 383.91812,92.987391 382.16564,94.176329 384.47628,92.064812 C 387.70394,92.341363 379.32507,92.847584 389.20363,90.172729 C 390.84863,87.804488 387.97281,83.626076 395.2679,81.381954 C 393.98706,74.173122 404.48413,75.758785 403.53737,74.26245 C 399.79633,65.774625 403.66715,75.227466 404.26612,69.589317 C 403.88244,63.185697 411.02689,68.72748 415.45892,67.477661 C 409.36736,63.088606 422.65618,53.716641 423.77552,51.447134 C 431.24762,47.338906 434.61651,51.363882 432.56894,50.878764 C 439.3032,54.301177 423.93827,51.167031 434.00098,50.974646 C 435.74913,42.847596 446.90241,40.585367 448.38657,37.692183 C 449.67146,40.672296 439.66672,31.859582 450.31366,32.214516 C 450.81068,36.558342 457.36463,21.453294 456.13058,24.399885 C 459.29002,24.918483 465.15491,20.167093 465.54744,20.020438 C 466.70293,20.027714 461.11994,15.159646 470.90549,14.94929 C 473.75435,15.506544 472.47226,21.841356 481.82619,13.649591 C 487.70933,14.429161 475.8104,7.2786164 480.93813,8.0759067 C 484.84673,8.2077069 497.54009,11.497329 500.43764,12.790219 C 502.55529,15.218181 506.44664,18.44498 509.88204,17.231611 C 519.16457,19.07079 511.34152,26.109399 514.34071,25.213795 C 526.4011,20.943142 516.95274,23.189047 522.3567,19.774819 C 527.65833,17.9436 531.51248,23.106526 533.2476,19.550609 C 536.83105,18.290944 542.89877,17.715473 545.16087,19.605417 C 544.20279,15.056276 544.42752,15.13311 547.6782,19.843229 C 539.52791,12.450295 556.48759,16.79472 561.52687,19.317683 C 564.15831,20.249542 562.43306,17.783258 567.16975,18.735554 C 570.1417,18.728462 579.09373,22.453912 580.43512,18.233466 C 584.44426,19.3606 585.64502,18.102605 587.43122,17.739731 C 597.44512,19.925243 598.24068,22.146139 601.10351,21.958426 C 596.823,19.008789 599.81984,16.135079 605.79301,19.407183 C 611.15027,20.240168 615.8099,15.91273 614.49012,19.510881 C 617.53125,19.77349 625.67635,20.534215 623.22095,18.883058 C 628.20153,18.835219 629.19248,16.960641 632.29259,18.776255 C 633.96329,16.166521 639.57995,21.841022 640.6206,21.629476 C 643.54067,20.534668 641.87266,17.991663 650.19356,19.920198 C 653.26217,19.762081 651.90701,18.304088 659.3483,20.118145 C 661.11357,31.416513 664.24398,17.873249 668.41618,15.451929 C 671.74309,15.172304 666.31938,16.268129 674.46347,15.816315 C 679.16545,16.644213 683.58458,21.270212 686.47812,18.983316 C 688.49739,11.862047 695.96642,22.115017 695.06187,19.337071 C 696.18338,16.222548 696.2177,14.68727 690.24089,25.834811 C 684.79538,22.725778 684.23419,27.817874 680.30503,31.673108 C 677.16125,32.421907 671.20175,45.370643 673.58327,44.272181 C 666.33275,46.606301 672.20059,42.395653 670.6126,44.225823 C 675.23135,50.3803 664.60497,46.511328 661.19084,48.592232 C 658.4014,50.541845 657.05653,54.626581 660.05033,56.579145 C 657.4532,53.187972 652.24204,60.628398 651.02994,66.603693 C 647.45768,72.618875 643.34982,71.721702 644.70571,69.712511 C 641.4492,71.122 643.38996,73.251265 638.23596,76.047298 C 633.67399,78.654871 632.46175,78.868772 629.39742,80.664966 C 626.61781,81.287423 626.83163,85.693808 625.05393,87.759825 C 624.59464,88.556987 636.62522,84.788671 625.27724,90.411709 C 623.52789,92.450673 623.58036,96.551987 619.3472,98.769095 C 617.27647,100.99413 599.31767,109.07739 604.89491,105.15845 C 599.29441,106.17826 607.88785,121.99656 598.56999,118.93642 C 598.38322,116.74439 596.39267,109.03431 596.18713,110.07507 C 594.55846,112.57356 590.45183,124.74354 587.76778,126.40592 C 589.32312,129.88843 589.22715,129.90347 585.74227,132.72425 C 583.02966,135.3499 586.02686,129.34142 578.36361,137.91474 C 578.72622,137.06854 578.70579,141.58382 575.81685,142.24948 C 576.56977,143.95821 570.56258,155.78864 566.40808,157.90474 C 560.07144,161.17774 562.07487,161.02448 561.56922,160.52863 C 562.90574,160.26089 554.89669,167.10257 550.31162,164.71606 C 551.29449,159.59466 542.5939,167.96939 539.85946,169.30938 C 536.68133,172.78807 536.1294,173.53178 534.40064,174.81853 C 530.13218,177.15543 525.0105,182.40783 526.29093,182.77101 C 530.19849,182.27304 529.44569,178.16808 517.89534,179.323 C 520.63972,181.71741 528.40463,167.82137 521.15627,178.57829 C 520.95906,175.49225 507.35317,186.79604 502.82772,186.84579 C 500.14818,187.18422 497.10159,182.98197 493.01069,180.52266 C 483.61598,188.10133 486.34857,189.02608 483.00066,188.21432 C 479.75391,182.70605 480.10182,186.98061 474.30296,183.50456 C 472.51766,183.02296 471.76339,192.83204 471.35508,185.93558 C 468.1184,186.99833 463.1084,180.37889 456.90245,178.94957 C 459.19451,190.45478 454.89882,179.64468 450.9364,182.57567 C 449.57111,189.98806 443.33003,186.57333 441.83517,185.95353 C 440.91382,183.20702 435.39472,185.97155 432.69138,185.15853 C 432.62523,184.29737 432.04439,182.10555 422.25249,183.32107 C 412.10147,175.19798 410.3079,192.63417 410.64366,185.97683 C 407.89141,185.8458 413.27819,171.97484 412.10122,180.90225 C 411.6226,179.08506 402.63661,181.79665 398.43047,186.50646 C 394.45796,186.89875 395.56236,181.7135 386.34254,183.06973 C 381.63933,180.95248 382.36652,178.42887 378.47767,180.23969 C 370.23411,185.33567 367.76744,176.11179 369.83316,186.54252 C 366.79216,186.55125 357.44221,184.88854 360.18168,185.74756 C 354.49353,188.29466 354.39412,191.472 359.54583,187.95427 C 362.73073,186.64727 345.97171,186.0917 342.97609,183.58019 C 340.74915,182.57468 341.98108,183.69126 338.07892,182.33575 C 335.84293,179.36088 331.65565,184.51807 327.06138,182.15051 C 322.8306,180.74953 315.16474,180.75264 312.275,183.41902 C 309.28503,183.76389 307.86851,192.54206 304.70341,188.56386 C 304.46228,191.80821 302.79319,181.52794 297.55004,185.62075 C 294.13076,176.21637 304.97792,187.21255 301.74688,189.49355"
       style="fill:#484537;fill-opacity:1;fill-rule:evenodd;stroke:none;stroke-width:1.95335126000000003;stroke-linecap:butt;stroke-linejoin:round;stroke-miterlimit:4;stroke-dasharray:none;stroke-opacity:1;display:inline" />
    <path
       inkscape:label="#path5304"
       id="path2581"
       d="M261.306371239 475.425123054C260.721665063 474.755436572 262.925314669 463.774737306 273.875982353 470.914005924C277.782437664 470.937090818 272.550322552 480.928245743 284.780556218 474.138182948C285.46057544 472.502969901 292.214852856 469.136721951 296.36323737 473.943736255C299.785980693 473.583736124 303.128643507 477.570886549 306.266596006 478.24352956C308.35754406 478.07564834 316.723710008 478.266304333 320.137689431 477.727302853C319.492916937 485.32775717 321.099894933 476.058662802 324.860074416 476.449429597C330.848668059 481.204269702 335.365901191 484.694421618 339.301699311 484.187277426C340.253872993 484.182750294 344.82968775 475.367640437 347.285571361 476.691282846C346.763108813 481.239369949 351.6272957 481.11446429 354.671786508 480.995141902C354.945304997 483.704427437 364.988522034 472.426726626 365.563375735 472.393290508C369.592713183 472.582451635 376.533643503 474.274646388 378.677561273 472.110213524C382.302555077 473.026573573 381.606788751 476.984594488 385.516893493 476.452115163C388.60199744 475.239707829 393.920793045 473.527853746 401.654655384 475.731766576C405.080516347 476.53905013 402.637432328 478.697726459 404.93989023 477.477111766C407.927003291 476.931505727 412.491982913 477.804723393 415.243205288 477.627421557C425.44017572 477.256311687 423.248342575 473.631770214 425.229470534 476.823893224C429.855403878 479.648023877 437.570808269 478.972788682 434.930210441 473.580408254C434.815297761 472.635439594 442.874373823 475.615320497 446.235206608 475.596380754C450.315073369 470.683386287 447.382393147 480.824818715 450.734704127 481.381982139C458.973303484 484.011961753 458.629396161 475.919429439 463.867523877 476.533954215C466.397001578 479.361989071 466.549254148 475.155936515 473.773102464 477.658920092C475.93248121 476.559041997 479.923314111 480.256847865 485.283539032 479.189874399C487.644142299 477.86998806 492.345329949 471.696896147 493.706179311 477.699990226C490.348767811 474.33727251 503.767626867 477.488961551 508.832350959 478.656263838C509.684180598 479.819804495 516.600645137 476.723889635 519.393958067 476.724139561C526.679160706 485.11792494 525.932433877 483.552683469 528.012700196 481.654102229C525.649589461 481.078604071 524.122447499 472.959098305 523.43403206 466.459472516C521.156928036 464.851650869 518.818366324 462.07677293 519.027297967 459.35712462C523.595137082 456.599690758 521.764999856 446.225219552 524.13672429 446.546661981C523.884244559 447.797022498 519.288095447 435.432201495 521.599055762 434.83106548C518.882266143 438.198596469 526.383721056 434.940615186 525.457760934 430.17435102C529.248879697 426.551713885 524.613001952 421.410513662 525.450528455 415.900980436C521.940124143 410.993267914 521.758598588 414.575558495 523.201343121 409.251941841C525.882552921 400.973886364 536.40646961 398.139730152 523.109218316 392.675981631C520.907067243 387.867324256 512.812073449 393.295765737 518.819308288 387.576237808C517.639204955 384.888587472 517.685700094 370.551338697 524.383801226 376.880487426C527.435712463 379.719587868 523.607270202 376.409274022 523.846112757 371.312761345C523.405697315 367.088088139 520.949699266 360.245382943 519.065753446 357.149148969C518.338834127 355.255594156 525.77719281 347.539251203 522.800119987 348.921471189C522.718688222 337.124246935 521.249648137 348.91594127 520.930306992 339.279992556C522.00094544 341.273844931 525.281677365 326.278748246 519.152895858 320.650359319C520.360757221 316.918323384 525.345829181 321.957835402 525.381311984 317.663320803C524.499517732 318.583348445 522.941367141 308.544165624 524.316971092 305.818997843C535.242834115 293.333827568 520.950436813 294.416403555 523.095879749 297.261776927C523.477135459 297.544561284 526.196266514 285.570882311 526.192657002 282.185371289C520.370832735 279.322409011 523.605278429 280.877387413 525.531521841 283.13064553C520.982639932 275.335501513 525.816162391 277.630141875 524.399754448 265.899358689C522.716774699 263.626283348 524.564202205 264.228482867 524.507418388 263.289874047C524.633096537 260.11737281 520.130539434 249.925168892 524.071497476 249.325216566C524.983685063 245.426995676 521.916175311 242.856837578 524.24632817 239.140620531C528.307842247 236.683857027 520.279729896 226.123613411 523.246841939 228.950651186C523.739914198 222.28286705 521.171323914 217.839165004 522.857623439 217.602662901C523.172819262 210.394709947 519.676782521 219.530362656 513.404980451 219.455130692C512.373053618 220.039768294 513.141810528 227.452419264 508.57271255 226.536497681C506.997887335 226.975179675 503.313818385 220.593071957 500.093433406 220.395418822C492.408813647 220.350776366 490.366193227 221.667170673 485.292517516 219.538348045C482.273090938 219.895301486 475.772009895 219.549834531 474.297769543 218.235056944C472.170567445 216.83885105 464.685298419 221.963441157 464.428967348 220.840228209C460.691380933 217.968736835 458.729049806 217.426948811 454.886145893 218.568067064C449.652225069 218.278230802 445.355388334 218.985251686 444.867420544 220.340598097C438.237566206 226.616749247 437.514490174 219.336890965 434.167187364 218.466705915C432.560000013 211.828760942 434.225113432 226.284710747 427.269707755 221.477348225C424.677298521 222.630098584 419.992594881 225.437033502 411.689824726 223.222559167C408.167974605 223.141914084 405.149093295 217.343332225 403.957645279 218.147106517C399.749241801 218.336639583 399.621036971 219.470409259 396.61842994 219.104586603C393.66294139 218.751220825 392.100136738 210.018134441 385.574741985 218.430771334C381.592608296 217.666181996 373.579231913 219.141932036 370.619093561 218.017246542C364.886008458 224.463201977 371.900071173 215.159252143 366.120459041 219.239515786C364.365557781 222.961875492 362.56565291 219.974286561 357.134167333 219.597105563C354.920274794 217.004956173 339.852325319 218.802031957 342.515743445 217.626121731C339.4855024 215.927487767 337.527539991 220.445179497 334.733513122 222.087477063C335.707448547 223.110609084 322.537892273 214.517204679 323.064523212 216.110974775C319.517489232 216.547932567 315.539223579 222.408925028 312.280653764 220.860312049C311.764463418 224.135424082 308.410961713 219.712920808 305.237171739 217.321506464C306.634104071 213.518828116 307.030522855 225.908954739 300.974426432 229.43534035C296.613250116 228.868054639 294.693908112 223.385517785 289.161272209 218.050450383C274.529245518 213.854364693 281.599201045 220.78175632 279.303585009 220.49783807C267.554241568 230.262656385 262.642965217 212.396438403 263.050654686 213.932730003C261.447104077 214.026056838 264.751898669 228.513172535 263.72042112 230.740135856C262.630972984 237.071286597 269.933766152 232.54888791 269.971631561 236.16181062C272.328491958 239.947789702 267.642687035 239.085598837 268.073339818 251.333727378C263.405810205 251.642438156 263.404100125 250.521452044 262.518543186 257.259513885C263.348339991 262.324690827 264.633944484 263.107760514 264.660975154 266.55445272C262.878100612 279.541227653 269.332238618 275.119262936 267.499573032 277.572825152C265.304115887 278.517222562 259.889130601 299.790481054 264.975007759 291.727656591C264.531041904 292.422727033 264.576243384 295.537924006 261.860825051 298.449953799C257.803894173 297.254265445 268.72497694 303.458754527 265.520330543 307.455655738C263.56887978 311.640133978 268.060569983 315.3277546 268.338471224 317.071139971C269.518395173 317.795799214 267.614281074 327.801850602 268.010140697 331.187827872C272.628131895 332.864353776 258.232317178 338.567536003 265.212096252 340.262522658C260.728415436 341.405055996 267.99995 352.059061369 265.98708838 347.58224367C262.061175569 350.697668014 268.986570482 345.029578953 270.318384838 355.560946456C268.829468324 358.195299185 272.229070558 348.481503012 272.030278832 363.937708269C273.830391617 367.134778511 259.559754104 364.670318961 265.632088467 377.391836188C273.415664839 386.156316382 261.473184218 384.253778035 264.162262589 388.56058487C268.135525551 386.185550054 264.19341622 392.284260957 267.728048841 395.33760049C266.800192812 402.010772329 256.17379533 396.453304682 257.878003729 403.817144014C261.817985802 410.98403147 271.790408537 418.434447733 271.411087776 417.538574716C268.1065277 423.785636417 258.957490923 424.041570463 259.364401309 427.000837246C261.212477332 439.169504866 270.246651333 429.895066817 266.403324074 437.377649317C265.870327924 442.527373432 266.714538256 439.725218201 265.639224671 440.996020674C265.614318432 449.63448835 271.371431967 455.103070502 264.198706049 457.202684833C268.329086879 463.671440411 266.524226664 461.690786945 264.760610133 467.157249046C263.156417608 472.416900077 264.758751064 485.243454944 265.930871346 478.717827801C256.575483601 478.019097136 269.817319927 470.978181264 272.262955412 475.074459311"
       style="fill:#483e37;fill-opacity:1;fill-rule:evenodd;stroke:none;stroke-width:1.95335126;stroke-linecap:butt;stroke-linejoin:round;stroke-miterlimit:4;stroke-dasharray:none;stroke-opacity:1;display:inline" />
    <path
       style="fill:#48373e;fill-rule:evenodd;stroke:none;stroke-width:1.95335126;stroke-linecap:butt;stroke-linejoin:round;stroke-miterlimit:4;stroke-dasharray:none;stroke-opacity:1;display:inline"
       d="M 265.125,509.5625 C 265.09278,510.10605 265.02049,510.58081 264.96875,510.96875 C 264.7771,512.40575 264.44433,513.29504 264.125,514.125 C 263.69591,515.24023 263.08617,516.28621 262.5,517.34375 C 264.0234,517.38819 265.82165,517.68648 267.40625,518.625 C 269.37633,519.79183 270.54647,521.42308 271.15625,522.5625 C 271.51636,523.2354 271.406,523.26203 271.625,523.75 L 278.5,519.28125 C 277.87709,519.52678 277.35588,519.84744 276.9375,520.1875 C 278.25943,517.94189 276.75503,512.36346 274.03125,512.375 C 271.34222,512.37484 268.09064,510.91527 265.125,509.5625 z M 525.5625,512.6875 C 517.37087,516.08293 519.42695,523.23156 512.875,523.71875 C 507.39903,523.62598 503.42792,518.90256 505.65625,518.0625 C 502.93519,518.39814 496.55767,520.56782 493.875,520.34375 C 489.68242,520.61616 485.05455,525.98534 485.03125,520.34375 C 481.11024,520.46056 482.51469,516.70258 477.03125,520.5 C 475.82316,519.80457 468.32359,520.47422 466.03125,520.1875 C 460.10049,520.36402 459.03597,520.8597 456.6875,520.1875 C 455.6015,519.73799 455.88279,512.6536 451.90625,515.65625 C 440.37885,508.18408 438.67273,528.26529 437.6875,524.28125 C 436.92593,523.30934 430.53476,523.28165 427.78125,524.1875 C 425.40439,524.11124 425.31421,518.26332 418.84375,520.125 C 411.22995,525.24778 408.4558,522.89038 406.75,523.03125 C 402.7989,526.84529 399.03348,524.77879 397.6875,522.875 C 394.42634,522.72158 400.67782,518.85186 394.15625,521.6875 C 394.91614,520.53319 388.66416,521.15538 380.53125,521.5625 C 381.81359,525.20423 372.52098,519.74617 370.25,520.28125 C 364.88164,518.94067 365.35937,523.27577 361.78125,522.78125 C 354.88006,521.94774 361.63642,514.69805 355.3125,520.65625 C 348.04633,517.19281 344.62316,518.32575 343.625,519.125 C 343.81808,519.08964 343.98611,519.06997 344.1875,519.03125 C 343.32232,519.96699 343.01736,519.63586 343.59375,519.15625 C 333.82942,520.93878 334.55967,518.47161 331,519.3125 C 332.72791,523.3368 330.05702,517.51967 325.90625,517.28125 C 321.42804,513.53574 319.86568,525.7506 317.8125,526.3125 C 314.25075,522.88751 306.09325,520.83915 302.34375,522.90625 C 302.3923,525.01663 298.60252,518.90831 294.96875,518.375 C 289.27531,519.54197 288.28366,529.56693 289.25,522.375 C 287.26143,520.78754 285.47212,519.85831 283.90625,519.34375 C 274.31221,606.20349 308.88744,563.66264 248.84375,538.78125 C 248.4969,538.58932 248.17785,538.38955 247.84375,538.1875 C 244.14912,543.3442 243.29768,541.97587 243.96875,544.6875 C 238.00593,547.68901 231.61259,555.97701 234.90625,561.125 C 238.75588,560.68438 238.33396,565.12001 235.03125,561.34375 C 234.98314,561.27531 234.95079,561.19462 234.90625,561.125 C 234.73492,561.14461 234.56337,561.17866 234.375,561.21875 C 232.6404,557.28987 227.37468,557.39993 231.6875,565.84375 C 228.1329,565.6991 224.29602,573.90036 219.875,578.8125 C 213.5683,584.46302 211.63885,582.38857 214.96875,589.25 C 218.7405,591.43966 214.95723,590.21165 212.125,594.0625 C 208.37759,597.00611 218.33717,600.96166 214.21875,602.59375 C 217.84631,615.13157 208.08253,611.94911 205.59375,615.0625 C 204.25942,614.60799 199.8683,621.68607 198.0625,623.1875 C 197.99391,625.40841 196.64294,630.39512 193.34375,631.8125 C 186.40222,638.62854 187.04465,630.87415 187.53125,629.6875 C 185.68243,632.37327 188.27399,638.87709 188.3125,640.71875 C 185.25366,643.88057 184.55745,645.80956 182.84375,648.875 C 181.87775,651.21366 184.51841,648.35029 176.9375,652.21875 C 177.40238,658.71579 176.90862,665.671 173.90625,667.1875 C 167.74215,672.58446 163.18306,670.27171 170.75,673.09375 C 168.50056,675.76578 162.76723,671.071 161.0625,676.15625 C 159.29299,678.62792 160.01065,687.87237 158.96875,691.25 C 157.21037,694.72291 155.08141,698.86389 153.09375,701.125 C 149.36681,703.28418 148.43373,699.37478 147.90625,707.5 C 144.00354,708.57224 150.85337,719.82987 147.21875,719.6875 C 148.00474,719.99903 143.55813,723.72012 138.59375,727.5625 C 132.99051,735.11043 139.79991,730.04941 137.46875,732.625 C 137.69984,735.8149 135.46236,740.02736 136.3125,743.25 L 140.9375,758.6875 L 140.09375,758.125 C 139.49386,757.71015 138.91899,757.26618 138.34375,756.71875 C 136.64101,756.71546 135.63404,756.77378 134.03125,756.6875 C 132.26436,758.95933 130.73853,762.09989 131.625,766.8125 C 129.21762,761.90291 133.86294,775.18818 140.40625,778.125 C 141.66073,774.8993 139.42273,778.97663 145.59375,779.34375 C 144.26297,777.56432 156.47251,776.23644 152.3125,783.21875 C 158.84735,785.95257 158.27156,798.07289 152.65625,798.34375 C 149.89389,795.46134 150.08898,802.03981 156.1875,805.40625 C 154.65193,805.69261 159.04376,811.6482 161.375,814.5625 C 166.53832,816.06016 170.20669,827.81566 165.8125,824.34375 C 166.68538,830.06022 169.6206,827.31607 172.53125,831.96875 C 174.34862,831.17623 176.64919,830.46814 179,838.8125 C 189.96627,834.95943 185.44652,842.08354 186.6875,842.71875 C 189.1351,849.54688 189.66887,852.33579 189.75,853.34375 C 189.86353,852.91584 190.19368,852.34412 191.03125,852.09375 C 196.05867,859.07029 189.831,853.58327 188.78125,861.3125 C 190.64221,864.05095 193.35013,871.54305 195.8125,874.625 C 197.19852,879.81775 197.34336,881.52633 197.34375,881.90625 C 197.38784,881.53365 197.64219,880.67857 198.71875,880.53125 C 200.50976,883.83592 203.26986,885.57695 205.28125,888.25 C 208.14759,894.83209 213.6257,896.1351 215.5,898.6875 C 218.83162,893.73809 218.69391,902.66713 215.625,905.3125 C 217.59043,907.5998 224.64187,917.42721 219.28125,915.1875 C 214.3839,916.8717 224.23626,924.44438 225.375,923.8125 C 225.34721,923.58844 225.31478,923.35205 225.3125,923.125 C 225.5077,923.51195 225.52237,923.73073 225.375,923.8125 C 225.70181,926.44766 227.74021,928.89668 230.625,931.40625 C 232.47077,938.227 234.4391,934.31252 235.0625,938.03125 C 235.20294,939.48851 234.00641,946.09378 235.53125,942 C 237.20621,944.74216 245.10369,947.0991 246.6875,949.53125 C 247.48683,952.05921 247.02122,958.86259 248.25,962.375 C 249.45399,965.85925 248.02604,969.32111 248.46875,974.4375 C 250.4006,979.4141 255.97703,983.68317 254.53125,982.65625 C 247.00544,982.43025 251.05879,986.91291 259.46875,987.90625 C 258.99822,985.44516 264.95331,981.75117 271.46875,979 C 269.82796,978.46302 274.83177,975.86662 281.5,974.1875 C 284.00775,974.52481 282.09531,979.19986 296.0625,980.75 C 295.79102,981.13817 295.53462,981.46206 295.28125,981.78125 C 297.60832,980.65982 301.2993,979.45147 306.875,978.71875 C 318.18592,980.68685 312.35126,979.80167 314.65625,979.15625 C 318.30821,977.94429 323.81593,984.51095 327,985.6875 C 328.70752,983.41482 329.6081,974.33946 335.03125,970.75 C 337.01694,969.6362 343.4084,975.48224 343.125,979.15625 C 343.86583,979.07565 344.36129,978.98172 344.71875,978.90625 C 344.1027,978.26718 346.56019,978.51748 344.71875,978.90625 C 344.85234,979.04483 345.08899,979.23911 345.59375,979.46875 C 348.66696,981.12417 361.37535,976.97097 366.125,976.6875 C 368.53105,976.70117 369.55547,979.29372 370.78125,979.03125 C 369.58602,981.49841 379.27672,979.42839 380.6875,979.3125 C 385.99026,972.70469 386.45031,974.81322 390.9375,979.875 C 387.06113,981.14337 402.12151,980.88803 403.0625,982.375 C 406.33686,982.30893 407.54717,992.36209 411.71875,988 C 414.22256,986.60831 410.62439,980.98937 414.90625,981.5625 C 418.52262,979.14724 421.36585,980.82604 428.25,980.625 C 426.34757,982.27137 432.02096,980.25425 434.625,981.34375 C 434.70217,985.94503 444.07189,983.08549 447.15625,981.59375 C 447.60108,980.70538 449.83951,986.24751 452.3125,986.25 C 455.73021,986.1203 460.56918,978.96787 460.0625,978.625 C 467.04163,976.95843 470.3889,981.9007 473.78125,979.28125 C 477.71908,976.08165 482.02729,978.3507 485.71875,979.25 C 483.90919,982.15762 493.7776,975.53425 494.34375,977.875 C 497.08929,979.49253 499.1606,978.14186 501,976.96875 C 500.34729,976.39739 499.58552,975.88543 498.46875,973.9375 C 525.77686,978.34149 516.11382,963.82421 530.65625,971.78125 C 530.84121,971.8827 530.95294,971.9673 531.125,972.0625 C 532.36434,969.90217 534.4803,967.59955 538.9375,965.625 C 538.4896,964.30564 533.40085,965.72273 535.40625,961.625 C 537.88555,959.226 538.94613,967.14492 539.59375,958.9375 C 543.60542,956.51638 536.52843,947.19756 540.9375,945.15625 C 544.40944,944.48107 547.32701,923.62822 545.65625,934.28125 C 547.9375,935.13864 552.263,931.19393 554.59375,928.0625 C 553.88637,928.21328 553.04319,928.28215 552.0625,928.25 C 546.70353,928.41728 558.78888,923.75131 555.96875,925.8125 C 555.71561,926.42737 555.22288,927.21724 554.59375,928.0625 C 560.30757,926.8446 557.8702,920.17698 559.40625,916.625 C 564.1236,911.55692 564.02265,902.12615 567.09375,905.53125 C 569.17286,904.22143 572.06739,907.77321 573.78125,897.5625 C 569.45585,895.31489 566.18622,891.90496 571.4375,890.15625 C 575.01644,885.56272 580.30867,889.64867 580.65625,887.78125 C 584.0717,884.5169 583.2425,870.74612 584.21875,874.6875 C 584.88612,873.43553 590.31411,866.72606 593.15625,865.1875 C 600.72649,865.89831 593.71749,852.74302 587.40625,854.0625 C 590.22037,849.85737 595.09395,854.40245 599.21875,848.125 C 603.22891,846.75834 599.88368,840.59093 599.09375,838.875 C 602.84491,838.55572 597.83836,832.52389 600.5625,833.15625 C 601.38226,833.62086 608.37969,826.77644 611.84375,824.15625 C 609.71933,816.13803 616.99541,815.94284 616.4375,817 C 620.01694,818.46289 615.9902,808.55341 616.21875,804.125 C 615.77343,802.81009 616.0215,801.72191 616.8125,802.3125 C 616.40745,802.64969 616.26074,803.31138 616.21875,804.125 C 616.92301,806.20449 619.4246,808.85573 624.59375,806.375 C 621.60321,803.33914 633.21179,787.63077 636.15625,782.65625 C 636.10348,782.61963 636.05574,782.57076 636,782.53125 C 635.48416,782.92596 634.96355,783.19241 635.53125,782.21875 C 635.71286,782.35395 635.84272,782.41976 636,782.53125 C 636.15409,782.41334 636.31743,782.30171 636.4375,782.1875 C 636.47885,782.11351 636.55806,781.97333 636.59375,781.90625 C 636.79077,781.81587 636.66227,781.9737 636.4375,782.1875 C 636.36719,782.31333 636.242,782.51137 636.15625,782.65625 C 641.7474,786.53647 630.83563,774.35595 629.78125,773.46875 C 629.42415,771.25118 645.22025,776.97651 645.65625,771.53125 C 646.29394,770.16288 647.01288,769.05377 647.75,768.09375 C 646.93292,767.82473 646.05916,767.43363 645,766.78125 C 647.31334,760.63094 635.6441,755.37099 648.0625,752 C 649.10538,752.31612 649.87782,752.56678 650.71875,752.90625 C 651.13921,753.07598 650.94889,752.36167 653.15625,754.40625 C 653.44071,754.66973 653.90766,755.05316 654.34375,755.71875 C 654.73058,755.78916 655.21037,755.84045 655.625,755.90625 C 656.28526,752.62638 656.50174,749.6231 655.84375,748.59375 C 651.39581,752.89856 644.09836,753.09699 648.3125,747.34375 C 651.12501,748.4164 649.37442,744.33221 648.28125,733.3125 C 637.61159,727.75139 641.39688,727.21841 641.21875,723.34375 C 639.40085,721.57361 633.76601,717.2806 638.90625,715.46875 C 637.83853,712.8512 629.62197,711.37892 629.46875,708.25 C 632.93248,699.37889 628.64533,702.0094 627.03125,700.4375 C 627.44127,686.72702 626.80051,694.92431 628.25,692.65625 C 627.31397,686.11311 617.49073,688.65234 616.8125,690.46875 C 614.94046,685.42005 607.38329,680.18458 606.5,676.9375 C 612.55688,676.05744 617.85393,670.42608 607.78125,667.34375 C 606.02881,664.91032 603.77972,664.81465 605.6875,661 C 602.48181,661.64149 600.64932,654.2948 599.59375,649.59375 C 597.58829,637.24408 590.25619,642.58273 587.03125,638.6875 C 590.66971,633.62654 598.3314,636.299 592.25,634.59375 C 591.49501,626.85552 583.04258,629.65962 581.5625,626.3125 C 580.2979,625.46812 577.75887,618.98238 575.90625,618.46875 C 577.00853,612.46756 570.3281,614.88112 571.71875,613 C 570.5921,603.27605 571.25704,604.92266 573.0625,603.09375 C 565.51038,599.19555 567.42836,591.29747 568.25,589.75 C 564.63793,586.6102 559.85375,589.52082 559.65625,585.375 C 559.31143,584.07605 559.21725,581.14514 558.40625,579.25 C 558.03843,579.16229 557.31372,578.64303 556.09375,577.5 C 557.23163,577.36946 557.9342,578.14691 558.40625,579.25 C 559.88196,579.6019 555.57423,572.91994 554.09375,570.75 C 552.29341,567.9588 543.13206,565.91175 546.78125,561.28125 C 551.16901,557.42203 549.74102,559.39425 545.75,559.6875 C 547.53479,552.7808 538.20406,549.99195 536.96875,548.34375 C 538.02088,554.66909 534.68919,542.1577 533.53125,538.625 C 535.36674,533.193 531.29007,539.8174 530.625,537.21875 C 526.4167,533.59137 527.58941,516.64634 525.5625,512.6875 z M 380.6875,979.3125 C 380.63419,979.37893 380.58555,979.4318 380.53125,979.5 C 381.04231,979.32226 380.96325,979.28985 380.6875,979.3125 z M 295.28125,981.78125 C 290.18613,984.23662 291.75806,986.21968 295.28125,981.78125 z M 198.0625,623.1875 C 198.09695,622.07211 197.77945,621.64256 197.25,622.75 C 197.19048,623.60298 197.53289,623.62784 198.0625,623.1875 z M 257.1875,516.21875 C 257.13001,517.02352 257.06626,517.83528 256.96875,518.65625 C 256.99373,518.64543 257.02014,518.63473 257.0625,518.625 C 257.49316,518.32118 258.32149,518.00473 259.5,517.6875 C 259.52347,517.671 259.5719,517.67195 259.59375,517.65625 L 257.1875,516.21875 z M 258.28125,521.1875 C 258.26107,521.21411 258.26738,521.45727 258.28125,521.6875 C 258.29352,521.65605 258.31113,521.62722 258.3125,521.625 C 258.48029,521.71784 258.3418,521.10768 258.28125,521.1875 z M 258.28125,521.6875 C 258.26386,521.73206 258.25036,521.78306 258.25,521.78125 L 258.3125,522.0625 C 258.29592,521.90938 258.2873,521.7879 258.28125,521.6875 z M 252.625,528.84375 C 252.61178,528.84323 252.59945,528.85812 252.59375,528.875 C 252.57821,528.921 252.95823,529.65887 253.03125,529.875 C 253.02605,529.82036 253.00471,529.67514 253,529.625 C 252.9652,529.25439 252.71752,528.84739 252.625,528.84375 z M 381.65625,699.03125 C 383.43644,697.9159 384.61448,697.05693 385.34375,696.4375 C 384.75508,696.10731 384.15461,695.99454 383.46875,696.3125 C 384.64582,694.93958 388.04669,694.1578 385.375,696.4375 C 387.16477,697.46264 388.64664,700.40476 390.53125,698.78125 C 396.88382,695.34314 395.26387,692.14284 404.5,687.78125 C 402.62314,689.23734 411.24445,692.39682 419.0625,703.5 C 421.54193,705.09704 420.45981,702.35147 419.46875,700.71875 C 422.29233,699.80064 424.08206,705.99146 425.65625,708.34375 C 427.75596,714.51854 435.47266,714.25341 432.65625,715.28125 C 433.79827,715.9268 435.43039,716.37415 436.96875,716.84375 L 441.71875,715.5625 L 444.03125,719.40625 C 444.06472,719.4068 444.05367,719.404 444.09375,719.40625 C 445.05291,719.46021 447.0762,718.6376 450.8125,720.1875 C 450.84116,720.19647 450.87787,720.17809 450.90625,720.1875 L 450.90625,720.21875 C 451.22335,720.35284 451.46944,720.39056 451.8125,720.5625 L 446.65625,733 C 448.16348,733.49995 450.20802,733.2309 451.375,732.65625 C 452.54198,732.0816 453.04076,731.49575 453.3125,731.15625 C 453.85597,730.47725 453.71407,730.51505 453.59375,730.8125 C 453.35311,731.4074 452.8586,733.00971 452.34375,734.75 C 451.8289,736.49029 451.24702,738.4325 450.4375,740.375 C 449.78653,741.93705 449.33803,743.80712 447.0625,745.53125 C 449.04626,747.31186 449.97527,749.36481 450.375,751.28125 C 450.98894,754.22471 450.67928,757.26496 449.5625,760.25 C 449.6434,760.6561 449.80197,760.94607 449.8125,761.46875 C 449.85567,763.61095 448.22811,766.29199 446.8125,767.28125 C 446.26885,767.66117 446.06803,767.60343 445.65625,767.8125 C 445.80077,768.60689 445.95264,769.33804 446.09375,770.125 C 446.38193,771.73215 446.65147,773.02544 446.84375,774 C 441.99444,776.31828 435.7135,765.51297 433.1875,780.9375 C 431.87609,781.21436 430.12574,781.49087 427.6875,781.71875 C 424.7176,778.39442 420.51252,782.19662 419.5,780.1875 C 420.03489,781.7123 419.84547,782.99374 419.0625,784 C 414.93547,792.73976 413.5359,771.88476 401.71875,795.40625 C 401.27863,796.41308 400.75497,797.0581 400.03125,796.9375 C 396.12191,800.78775 389.24029,789.00376 387.03125,790.53125 C 384.5429,790.1189 382.55675,794.45003 382.25,797.65625 C 382.80624,799.3623 382.62463,800.53055 384.15625,800.84375 C 382.56299,801.38934 382.04855,799.76181 382.25,797.65625 C 381.74713,796.11388 380.65488,794.12913 377.09375,791.875 C 374.39163,789.13634 379.054,790.30515 369.9375,789.4375 C 373.44067,788.23463 362.55475,785.84809 360.25,784.90625 C 352.70599,773.8627 360.94915,793.48328 342.15625,767.53125 C 342.66307,767.13019 343.70318,766.29039 345.28125,765.03125 C 345.75467,764.65351 346.2637,764.26791 347.0625,763.8125 C 347.0922,763.79557 347.12576,763.76788 347.15625,763.75 C 346.65567,763.42346 346.1559,763.13298 345.65625,762.84375 L 345.40625,763.625 C 345.41624,763.70639 345.39884,763.76171 345.34375,763.78125 L 345.40625,763.625 C 345.38053,763.41543 345.16461,762.97243 344.90625,762.40625 C 344.07216,761.94414 343.47176,761.62659 343.09375,761.4375 C 343.56351,760.98366 343.9446,760.84076 344.28125,760.8125 C 343.80302,759.22498 343.59648,757.15052 344.8125,754.84375 C 345.78712,751.73721 351.82538,743.49212 352.90625,740.375 C 352.08453,735.92306 340.41746,732.30482 347.09375,728.8125 C 345.55664,723.54452 346.89437,719.03116 347.8125,716.6875 C 347.6507,716.23005 347.67986,715.81529 348.03125,715.46875 C 348.28317,715.17025 348.44497,715.03755 348.5,715 C 348.44598,715.17422 348.15567,715.8115 347.8125,716.6875 C 349.03136,720.13361 362.37346,725.62997 351.59375,716.46875 C 351.61558,716.36062 354.95247,707.12794 353.875,707.3125 C 354.12244,707.20464 354.35083,707.10571 354.5625,707 C 386.54945,707.54029 387.41563,686.19104 381.65625,699.03125 z M 344.28125,760.8125 C 344.47092,761.44212 344.70142,761.95737 344.90625,762.40625 C 345.14225,762.537 345.40559,762.69865 345.65625,762.84375 L 346.9375,758.9375 C 345.79329,761.50058 345.20704,760.73477 344.28125,760.8125 z M 418.5625,699.625 C 418.6844,699.56651 419.04528,700.07461 419.4375,700.71875 C 419.25697,700.77993 419.0642,700.8779 418.875,701 C 418.51721,700.07354 418.46314,699.67267 418.5625,699.625 z M 436.25,732.375 C 435.78838,732.6602 435.3064,732.97343 434.8125,733.28125 C 435.00852,733.33813 435.50146,733.17527 436.4375,732.65625 C 436.34105,732.59172 436.28525,732.4928 436.25,732.375 z M 648,752.53125 C 647.94324,752.53226 647.72599,752.64748 647.65625,752.65625 L 648.65625,752.6875 C 648.50051,752.68249 648.40033,752.52415 648,752.53125 z M 645.21875,765.28125 C 645.60956,765.51626 645.65783,765.43814 645.65625,765.4375 C 645.6548,765.43692 645.31976,765.31641 645.21875,765.28125 z M 446.28125,773.53125 C 446.19237,773.38845 446.20825,773.35277 446.0625,773.15625 L 446.28125,773.53125 z M 189.75,853.375 C 189.62153,853.90585 189.80257,854.094 189.75,853.375 z M 584.21875,874.71875 C 584.14421,874.86849 584.13782,874.9455 584.25,874.875 C 584.23458,874.8073 584.23335,874.77854 584.21875,874.71875 z"
       id="path2787"
       sodipodi:nodetypes="csscssccccccccccccccccccccccccccccccccccccccccccccccccccccccccccccccccccccccccccccccccccccccccccccccccccccccccccccccccccccccccccccccccccccccccccccccccccccccccccccccccsscccccccsscccccccccccccccccccccccccccccccccccccccccccsccccssccccccsssccccccccccccccscccccssssscscsscscccccccccccccccsscccccccccccccscccccccccccccccccccccccscccccccsc" />
    <path
       style="fill:#3e3748;fill-opacity:1;fill-rule:evenodd;stroke:none;stroke-width:1.95335126;stroke-linecap:butt;stroke-linejoin:round;stroke-miterlimit:4;stroke-dasharray:none;stroke-opacity:1;display:inline"
       d="M 803.375,143.21875 C 801.79668,143.23701 800.58307,143.61883 800.71875,144.78125 C 792.41979,152.01342 796.94848,152.70082 794.09375,155.1875 C 782.53507,157.4153 790.91264,156.14729 785.96875,159.5625 C 778.34558,168.39955 790.01418,163.25007 780.8125,166.0625 C 783.81913,163.04875 769.59862,168.22133 767.25,168.4375 C 765.72901,169.74066 769.10242,174.42054 761.28125,173.28125 C 759.8139,175.05315 756.12433,163.94074 753.59375,172.09375 C 749.20917,175.76839 752.82049,178.90662 745.21875,187.15625 C 741.90098,182.67437 737.48208,186.56238 736.46875,190.625 C 733.82774,189.88172 727.38463,190.29831 724.28125,193.59375 C 720.01583,195.07565 719.99054,195.52069 721.84375,199.78125 C 716.84446,201.39423 710.86511,200.83838 707.875,201.96875 C 705.10513,203.53425 699.80072,219.63649 698.96875,210.5 C 691.59582,216.55822 694.89626,210.02201 691.25,212.8125 C 688.4858,214.42583 687.31918,215.41873 685.84375,216.96875 C 680.28934,218.74344 680.57363,223.26076 678.78125,223.1875 C 673.59504,221.38633 682.39293,228.29677 677.3125,233.09375 C 666.355,236.04108 661.83722,219.67595 659.4375,228.65625 C 656.64079,230.30396 656.10581,230.56475 649.65625,232.75 C 647.7932,234.50547 650.51725,240.29035 647.15625,241.15625 C 646.43497,243.14308 635.77286,246.36751 631.90625,247.40625 C 630.03792,254.62114 632.35133,254.31279 626.8125,257.6875 C 620.3961,262.49273 624.20255,251.11026 621.40625,251.78125 C 624.64388,256.47855 617.4987,250.603 612.21875,257.90625 C 607.54969,260.43953 618.99617,254.76487 613.125,260.53125 C 608.46964,258.28233 596.84611,265.14317 594.8125,267 C 597.6618,269.02694 600.87151,281.7923 596.8125,288 C 597.4335,287.69249 597.35269,288.03137 595.6875,289.375 C 596.1202,288.96494 596.48096,288.50705 596.8125,288 C 595.59349,288.60363 591.55125,291.75383 590.71875,295.03125 C 592.63404,294.38897 602.81016,296.59465 602.625,300.0625 C 603.98914,304.27255 591.65025,304.84433 596.28125,307.53125 C 598.98866,306.52903 597.92879,312.3207 595.25,317.53125 C 595.24322,320.39148 593.93827,328.26867 598.875,327.0625 C 598.63639,329.12043 588.36638,335.03005 587.78125,338.03125 C 587.90822,341.7098 598.42278,343.97571 596.21875,346.65625 C 596.65182,347.7912 599.40197,354.11734 597.90625,357.59375 C 597.69645,364.29189 603.38609,352.80164 604.875,362 C 608.45651,369.0266 592.62233,366.33388 589.40625,368.78125 C 590.06807,375.37372 597.04125,384.39927 595.53125,384.15625 C 596.27186,388.83798 602.59923,399.23073 595.21875,396.84375 C 592.24124,402.04716 594.27617,400.79579 592.75,404.53125 C 596.27588,411.60793 597.97613,411.74612 598.625,411.1875 C 598.58135,411.31925 598.55112,411.46924 598.5,411.65625 C 599.605,413.60713 596.33892,426.80267 598.9375,424.5625 C 600.48031,428.31654 602.51591,428.60147 600.84375,433.28125 C 610.19692,444.08832 600.52922,435.53847 603.65625,444.375 C 604.30523,444.68503 604.66136,444.82955 604.90625,444.90625 C 603.83326,444.78404 600.29389,444.96627 596.84375,450.40625 C 598.17119,453.48599 608.53318,452.59977 593.5,456.5 C 591.34394,459.16096 593.82439,469.2516 596.8125,470.34375 C 596.38681,470.7078 595.70184,471.06348 594.96875,471.40625 C 596.23389,473.42524 593.35299,484.99943 593.25,488.875 C 595.65594,496.86741 593.66155,490.05 592.4375,502.21875 C 592.35344,505.72069 596.83106,503.19815 594.4375,508.28125 C 594.20266,511.02929 591.25953,511.17133 590.53125,516.09375 C 590.14132,523.88476 590.82422,529.07621 594.96875,526.03125 C 601.08603,525.41745 601.98534,532.91289 605.3125,536.84375 C 609.21201,537.55671 611.31955,530.60992 612.125,536.75 C 612.15698,542.29985 618.31326,538.47178 618.71875,537.6875 C 622.64558,547.30643 623.16184,540.78438 626.875,541.875 C 630.68976,544.39649 627.11355,543.21611 629.84375,546.15625 C 633.49503,543.02405 645.40321,552.59505 647.5625,561.3125 C 649.65167,563.88596 652.99196,545.54642 657.84375,552.25 C 656.15147,554.30573 659.57923,561.75162 660.65625,566.0625 C 666.15497,570.99759 665.31211,573.22568 667.75,570.25 C 673.37208,571.69645 676.91857,575.51812 679.6875,577.15625 C 686.051,578.08648 681.23389,583.72636 686.125,582.125 C 686.35917,586.86901 692.66304,585.17834 692.4375,586.59375 C 695.91897,585.36553 692.31668,589.62424 695.3125,590.46875 C 700.85846,592.85805 711.34038,583.13219 711.1875,586.5 C 717.40479,586.15534 709.6381,601.98486 715.71875,601.84375 C 720.59896,605.21032 727.11131,596.18271 730.65625,601.0625 C 733.1301,599.63354 724.01728,610.00497 735.28125,608.46875 C 741.20682,612.90512 740.1087,611.99871 744.21875,613.5625 C 746.95306,615.80556 750.78269,618.26015 753.625,619.625 C 755.02167,620.23318 756.92566,620.36339 758.4375,620.53125 C 758.57961,620.35941 758.73155,620.19899 758.875,620.03125 C 759.37554,619.44596 759.94083,618.90939 760.5625,618.375 C 761.80585,617.30623 763.29083,616.27353 764.90625,615.4375 C 766.14173,614.7981 767.49903,614.29361 769.125,614.1875 C 770.1911,613.71248 771.2765,613.44787 772.09375,613.46875 C 772.97778,613.49134 773.37677,613.58704 773.78125,613.65625 C 775.11638,609.33957 778.45635,606.3275 780.84375,604.09375 C 781.79801,603.2009 782.37858,602.69922 782.8125,602.3125 L 782.625,602.0625 C 783.90381,600.77923 784.96831,599.34832 786,598.09375 C 786.51584,597.46647 786.96997,596.88218 787.75,596.25 C 788.14001,595.93391 788.63446,595.57573 789.4375,595.3125 C 789.46272,595.30423 789.50514,595.32034 789.53125,595.3125 C 789.62677,595.21447 789.9404,594.95864 790.40625,594.0625 C 790.95417,593.00848 791.50805,591.5052 792.03125,589.96875 C 792.55445,588.4323 793.0351,586.91117 793.75,585.4375 C 794.10745,584.70067 794.48693,583.94408 795.28125,583.15625 C 796.07557,582.36842 797.68311,581.50601 799.3125,581.71875 L 804.6875,582.4375 L 802.4375,586.53125 C 802.50885,586.68193 802.53979,586.7673 802.75,587.0625 C 803.41901,588.00201 804.7701,589.3338 806.15625,590.4375 C 806.42293,590.64984 806.57549,590.7088 806.84375,590.90625 C 807.04914,590.43879 807.20957,589.95978 807.4375,589.5 C 807.76414,588.84111 808.12956,588.20308 808.5,587.5625 C 805.67523,584.10867 803.65446,581.35644 806.21875,578.6875 C 804.55439,578.63095 797.33259,574.56566 800.40625,572.34375 C 799.46058,567.28395 810.17643,569.7046 810.65625,566.15625 C 810.78697,558.90403 804.97465,567.82473 809.5625,555.46875 C 809.02543,556.24174 807.42676,553.37239 806.8125,550.53125 C 805.9842,545.4863 809.27986,537.76318 809.75,534.34375 C 809.47352,534.64741 818.41656,518.51321 809.125,520.28125 C 809.27027,517.14069 819.31556,518.78581 811.96875,517.75 C 812.34771,514.71062 807.79811,503.62994 811.75,508.46875 C 814.19174,507.84164 811.25707,503.38074 810.46875,498.5625 C 809.84045,497.54067 810.65639,498.14477 802.6875,492.28125 C 812.91794,487.4459 806.07577,479.54455 806.03125,476.28125 C 804.64189,471.90203 814.82203,476.04154 811.3125,468.40625 C 810.19866,462.67617 806.77409,458.88859 808.53125,455.875 C 807.26963,455.85063 807.96567,458.93082 807,451.71875 C 800.65618,448.23528 810.60277,444.65375 810.6875,441.3125 C 818.75001,440.98361 812.89265,434.48784 811.46875,433.03125 C 817.90101,429.88138 797.70544,435.00839 805.09375,423.625 C 808.97286,425.65623 813.42426,418.31225 813.84375,414.4375 C 811.68968,411.4969 808.27551,406.03724 808.9375,404.625 C 809.77621,399.54923 807.58175,396.11423 811.1875,393.875 C 809.32559,389.36334 810.80236,383.85795 810.625,383.21875 C 807.14869,382.87809 806.01132,372.47543 808.8125,371.1875 C 806.22053,366.59487 807.53282,368.44385 804.40625,364.3125 C 808.6978,362.5551 815.19459,358.39298 812.78125,355.375 C 820.435,348.69657 808.86802,342.57118 808.53125,339.21875 C 809.0664,336.50894 812.44511,347.61227 812.84375,336.0625 C 813.61632,331.75091 812.61648,329.44184 812.21875,325.84375 C 811.73773,322.7964 811.6523,321.89682 810.34375,317.78125 C 810.20472,314.2723 812.86682,315.13203 812.09375,311.1875 C 811.29017,306.54274 811.44413,310.90917 811,306.28125 C 812.46668,302.24892 813.15345,287.65083 808.90625,287.3125 C 809.99764,280.11382 810.08154,279.01793 804.9375,278.9375 C 799.56009,273.40422 809.22194,273.56726 810.09375,270.40625 C 805.33386,267.23272 809.17853,263.55579 809.03125,260.40625 C 809.80882,256.59325 812.96901,253.64053 813.15625,250.34375 C 813.13174,247.06683 810.71107,241.42697 811.25,240.78125 C 807.95362,236.97843 808.38678,237.83069 810.78125,232.84375 C 810.67478,229.16364 815.33567,224.89589 811.6875,221.40625 C 818.90555,223.69745 802.03402,216.767 809.1875,212.59375 C 799.72586,206.48321 810.74142,206.16752 810.8125,202.96875 C 812.09779,197.96801 817.50415,200.35474 819.53125,200.53125 C 817.71932,198.7634 814.54841,181.49646 809.8125,179.15625 C 810.16519,176.49441 812.6505,174.88828 812.4375,173.84375 C 812.03858,173.51257 809.52291,171.59108 811.21875,165.65625 C 807.72929,167.2057 814.13469,156.92548 814.25,153.96875 C 810.86042,142.63972 808.96774,143.07436 808.34375,143.75 C 809.95757,144.23065 809.64205,144.13374 808.28125,143.84375 C 808.25576,143.87689 808.2069,143.90701 808.1875,143.9375 C 808.20155,143.90203 808.19793,143.87223 808.21875,143.8125 C 806.93537,143.54194 804.96962,143.2003 803.375,143.21875 z M 808.21875,143.8125 C 808.24782,143.81863 808.25288,143.8377 808.28125,143.84375 C 808.30287,143.81563 808.31771,143.77819 808.34375,143.75 C 808.2424,143.71981 808.36865,143.75435 808.25,143.71875 C 808.22993,143.78118 808.23482,143.76639 808.21875,143.8125 z M 819.53125,200.53125 C 819.72591,200.72118 819.89924,200.73774 820.0625,200.53125 C 819.93361,200.57134 819.74146,200.54955 819.53125,200.53125 z M 820.0625,200.53125 C 820.25847,200.47029 820.35342,200.3209 820.3125,200.0625 C 820.23772,200.28371 820.14527,200.42657 820.0625,200.53125 z M 813.84375,414.4375 C 815.56291,416.7844 816.50459,417.55747 813.8125,413.15625 C 813.89252,413.50477 813.89561,413.95848 813.84375,414.4375 z M 809.5625,555.46875 C 809.62056,555.38518 809.65633,555.26738 809.6875,555.09375 C 809.63576,555.23152 809.61181,555.33595 809.5625,555.46875 z M 806.21875,578.6875 C 806.48765,578.69664 806.62024,578.59908 806.53125,578.375 C 806.41171,578.48326 806.32292,578.57908 806.21875,578.6875 z M 594.96875,471.40625 C 594.67078,470.93073 594.16455,470.96884 593.3125,471.78125 C 589.45343,473.31295 592.50923,472.55623 594.96875,471.40625 z M 598.9375,410.59375 C 599.02286,410.55018 598.9378,410.93056 598.65625,411.1875 C 598.78757,410.7927 598.88963,410.61818 598.9375,410.59375 z M 798.5625,593.53125 C 798.10704,594.82673 797.66396,596.16264 796.96875,597.5 C 796.07072,599.2275 794.88855,601.04219 792.65625,602.15625 L 792,602.5 C 791.87705,602.63443 791.88533,602.60993 791.71875,602.8125 C 791.28886,603.33526 790.41007,604.29876 789.75,605.09375 C 789.67085,605.36757 789.56831,605.62905 789.5,605.78125 C 789.32648,606.16788 789.2245,606.33194 789.125,606.46875 C 788.72699,607.01599 788.59783,607.03509 788.4375,607.1875 C 787.79618,607.79712 786.97605,608.49905 785.90625,609.5 C 783.76666,611.5019 781.19979,614.69959 780.84375,615.90625 L 780.8125,615.96875 L 780.8125,616 C 780.25735,617.70847 779.31698,619.30047 777.78125,620.25 C 776.24552,621.19953 774.60594,621.1919 773.625,621.09375 C 772.7516,621.00636 772.30866,620.9306 772.09375,620.90625 L 771.1875,621.65625 L 769.5625,621.4375 C 770.18303,621.52884 769.28143,621.49855 768.3125,622 C 767.88243,622.22257 767.45486,622.57067 767,622.875 C 767.27108,623.36704 767.58745,623.8481 767.71875,624.34375 C 767.94834,625.21046 768.00553,626.05369 767.9375,626.875 C 770.07929,627.675 772.16899,628.26215 773.65625,628.1875 C 774.32014,629.61082 778.86634,636.42862 779.125,638.34375 C 781.91176,639.00337 781.71319,633.84213 785,635.53125 C 785.65931,634.75488 803.5788,639.73086 798.90625,644.4375 C 804.62695,653.66001 799.36771,643.9604 800.84375,645.59375 C 807.48985,648.34238 806.63948,650.70958 808.25,648.1875 C 807.15267,645.66796 805.99317,642.32384 805.46875,638.59375 C 810.26307,635.27935 808.38598,640.78929 804.84375,631.21875 C 803.16474,631.25814 801.58516,630.58998 804.84375,631.21875 C 806.24471,631.18588 807.72176,630.66885 806.5625,628.4375 C 806.72825,625.54409 807.04291,608.86719 810.34375,609.8125 C 809.8717,611.51956 812.26877,613.12416 810.4375,604.84375 C 817.28526,606.72657 813.88353,602.4524 812.125,599.03125 C 811.84847,599.33227 811.55704,599.61056 811.25,599.78125 C 810.42444,600.24019 809.76824,600.28006 809.3125,600.28125 C 807.48953,600.28601 807.17797,599.83776 806.4375,599.46875 C 804.95655,598.73074 803.27175,597.60459 801.53125,596.21875 C 800.50486,595.40151 799.5058,594.51061 798.5625,593.53125 z M 808.25,648.1875 C 808.80275,649.45665 809.29558,650.45609 809.71875,651.25 C 811.14813,650.74743 815.48093,652.45894 813.9375,647.4375 L 808.84375,647.25 C 808.60552,647.63368 808.42067,647.92023 808.25,648.1875 z M 809.71875,651.25 C 809.60366,651.29047 809.51028,651.33219 809.4375,651.40625 C 811.20873,653.62878 810.77747,653.23628 809.71875,651.25 z M 813.4375,594.34375 C 813.28294,594.83814 813.22349,595.09594 813.1875,595.3125 C 813.42418,595.31671 813.67916,595.34011 813.96875,595.375 C 813.796,595.02195 813.62734,594.68392 813.4375,594.34375 z M 782.9375,602.46875 C 782.88035,602.56342 782.82685,602.57876 782.75,602.75 C 782.5841,603.11966 782.17426,603.79928 782.5625,605.21875 C 782.95074,606.63822 784.7044,607.73613 785.53125,607.875 C 786.3581,608.01387 786.67134,607.89596 786.90625,607.84375 C 787.08832,607.80328 786.92873,607.84024 787.03125,607.8125 L 782.9375,602.46875 z"
       id="path3723" />
    <path
       inkscape:label="#path5298"
       sodipodi:nodetypes="ccccc"
       id="path4006"
       d="M 865.94079,677.17112 C 867.01517,683.42837 862.33801,664.39107 869.78673,668.46179 C 868.6627,663.57084 862.56512,665.54697 863.21717,664.54484 C 858.89145,657.02072 861.78695,652.21891 869.30961,646.90712 C 864.87478,640.82754 874.80134,636.87194 872.51515,636.47845 C 868.79603,631.43631 863.55442,640.47473 863.67994,636.92656 C 866.78003,630.72715 867.8682,622.53036 868.67903,618.39561 C 873.23183,616.46137 859.67839,614.59836 868.7109,608.84296 C 867.18628,604.90701 867.13931,603.50181 870.69808,598.5291 C 871.99923,599.97746 864.43961,589.73734 863.87353,589.05248 C 863.86619,586.73427 865.61824,584.22434 868.43594,578.65165 C 867.7934,576.33472 872.80236,561.54324 870.79753,560.65199 C 870.65569,557.11487 869.01071,573.09329 870.38516,563.30383 C 861.38693,561.23982 873.73978,540.86058 870.21917,543.74572 C 868.94728,552.6092 867.41483,537.86979 868.92714,539.66508 C 863.69318,541.70956 864.59888,527.66794 864.75781,523.78717 C 868.00753,525.38322 867.44603,524.87763 866.82014,522.1167 C 867.44615,517.26455 861.95288,516.76969 865.06186,510.46063 C 870.8537,500.65907 868.05688,507.05916 867.64303,500.77698 C 867.22947,498.08316 865.18036,498.02353 867.65198,495.96318 C 869.31959,499.81192 874.90862,483.72549 874.64498,479.16083 C 877.9924,468.08968 865.41596,473.54241 865.95282,471.55087 C 864.8338,476.25168 879.69079,462.84937 876.4556,461.83928 C 876.2061,452.12296 861.19772,446.43734 868.31737,450.17827 C 865.18297,450.7595 873.78385,440.9075 873.06672,440.5697 C 869.64198,444.12332 878.64339,439.78551 882.86663,435.54286 C 885.861,432.16522 875.10172,428.75812 884.08083,427.1194 C 880.04005,430.40025 881.3451,427.87737 882.62481,424.5385 C 882.26652,415.56043 890.77098,418.28521 890.45239,410.47374 C 891.38396,409.34957 883.86174,395.44453 891.21462,394.08911 C 891.91401,397.7772 906.68169,388.08858 908.86743,385.64031 C 913.92151,375.57008 912.50702,384.10041 914.13127,380.94771 C 920.72359,374.43001 914.32543,371.1415 915.85667,370.86811 C 912.37365,369.91713 915.30458,364.52369 918.93439,363.558 C 922.5413,353.60094 916.70936,357.20864 924.40015,355.54632 C 927.20012,351.63215 925.67942,355.5181 929.61513,346.47775 C 931.54973,344.47205 927.67583,341.31806 931.37162,334.79573 C 931.25039,328.36365 932.05469,329.58589 934.61794,326.95565 C 932.77664,325.11868 940.10158,324.45644 941.94295,325.3917 C 943.86559,323.45236 944.92363,311.95343 943.25387,310.31171 C 952.32961,304.09408 951.62354,310.2923 953.25558,307.43796 C 955.78896,303.11153 960.23206,295.06 956.84539,290.63998 C 964.62483,288.55313 966.72773,294.58673 964.2131,287.99039 C 961.62796,283.25748 962.80672,279.70515 964.41589,276.14718 C 970.57651,267.31145 976.80413,263.76487 975.77062,269.02565 C 972.61671,268.32221 976.03551,259.766 977.88386,261.25537 C 975.10355,254.10209 983.14177,254.83077 984.19494,254.83348 C 984.2483,254.81881 978.48824,252.35678 982.79205,262.4548 C 985.35627,264.99473 986.5973,272.32428 984.50005,272.79991 C 978.87805,275.27764 995.45744,268.55727 987.68996,276.0816 C 995.80226,273.58965 981.83272,293.01457 981.01171,293.20186 C 982.35031,298.03574 982.74766,298.01283 981.47337,301.4208 C 977.13233,305.23094 982.52545,311.6718 985.30327,313.22403 C 986.59179,315.97265 977.31483,320.23048 977.56997,322.70233 C 977.59454,326.16355 983.74206,322.94596 985.57591,329.79635 C 984.28038,336.34183 984.33668,341.18597 983.32753,342.64745 C 980.80488,342.49033 989.85523,349.66227 988.07005,351.6175 C 987.80636,354.87454 991.77961,362.25152 982.06736,362.97105 C 982.61017,364.89303 989.76092,369.48035 992.27265,375.89204 C 983.01939,384.18182 986.74992,378.01466 985.1252,379.13509 C 994.76411,382.88659 985.09513,380.52124 984.84136,383.981 C 986.33372,384.21858 985.21374,396.49565 984.60251,399.66074 C 977.20803,401.88688 978.3719,409.26672 982.93599,411.04875 C 990.62069,415.32698 996.67739,425.31098 984.26262,423.0103 C 983.46017,434.57499 982.05522,425.83207 980.76324,431.72553 C 980.96023,434.56988 983.76304,438.56603 984.54602,442.0001 C 985.85215,450.17762 983.33336,445.46383 982.87118,450.46595 C 985.04531,455.38681 982.58755,455.26725 980.74748,459.64302 C 982.31395,456.91729 984.02493,468.68778 982.81907,470.51029 C 982.79058,476.51538 972.12364,482.24834 981.92767,480.96673 C 982.12886,476.98364 986.26601,479.68011 983.37389,484.99069 C 985.07822,494.11408 978.66331,487.67043 971.7293,490.08189 C 971.19732,491.72853 969.3903,504.5957 968.12365,506.22495 C 966.54757,508.91247 964.23413,515.89908 962.85025,517.33823 C 960.78016,519.01676 961.95297,521.51077 958.29837,526.12032 C 956.00591,528.31189 956.54016,524.96249 953.70824,527.81109 C 952.1197,534.72098 938.57692,533.296 945.62973,540.72045 C 942.90674,540.55745 935.65731,542.05607 936.67818,549.60929 C 934.97638,551.64865 939.67539,555.22624 938.07341,558.1136 C 937.25031,561.35716 949.18149,567.57645 937.65394,563.72222 C 931.57705,573.1415 927.89198,574.94149 925.41296,578.37551 C 924.21052,581.34389 913.1399,577.23321 916.84051,583.04322 C 914.79878,586.02043 918.50368,585.48623 917.30976,591.19505 C 916.77205,594.01781 922.87934,591.31379 911.7431,600.32969 C 910.15156,608.76028 909.64775,606.16321 908.9162,609.1241 C 899.32217,617.08163 903.82613,610.02138 900.97767,614.88299 C 899.42774,620.822 900.13484,623.68507 901.07742,624.74514 C 903.30308,627.93192 903.34154,622.62514 900.98608,628.24091 C 900.64088,633.71811 895.74695,638.02538 890.02804,641.16849 C 881.26197,651.14156 878.56893,647.92292 879.10929,649.46265 C 873.41386,653.91674 886.3746,656.35838 885.58383,659.89859 C 884.04672,665.29408 874.6481,667.77888 873.61928,669.24753 C 871.33001,672.99663 864.50477,681.29176 863.67835,677.81905 C 865.31758,681.44381 868.70843,679.40929 868.16851,675.01525"
       style="fill:#373748;fill-opacity:1;fill-rule:evenodd;stroke:none;stroke-width:1.95335126;stroke-linecap:butt;stroke-linejoin:round;stroke-miterlimit:4;stroke-dasharray:none;stroke-opacity:1;display:inline" />
    <path
       inkscape:label="#path5300"
       id="path4120"
       d="M 971.96162,765.07247 C 971.66597,765.82561 973.65508,771.04225 967.91951,776.69674 C 965.49322,783.92531 958.07957,775.80546 963.41502,782.61138 C 968.01502,782.84168 963.17039,797.48099 957.77117,793.57495 C 957.34801,799.10597 946.9084,795.46616 954.09372,803.85858 C 952.1646,806.30231 939.65649,810.25247 938.98824,811.87383 C 936.62934,815.28078 939.95709,803.52179 934.85424,813.35092 C 933.52609,814.93721 945.99128,818.57172 944.5891,820.13145 C 943.03218,825.04286 938.88061,822.82601 937.19283,826.22906 C 936.54414,829.45101 938.65382,853.43156 931.24742,851.29843 C 929.16666,854.34874 929.30595,857.11703 927.41576,858.40222 C 924.83415,862.71756 918.12952,855.38309 916.9466,857.49652 C 915.51528,860.35647 920.64146,863.12562 916.10851,864.45217 C 912.3235,868.31941 909.97892,871.55133 908.38365,874.4601 C 908.34116,874.31401 898.22373,885.79319 900.08099,887.30633 C 895.56014,887.2265 899.52422,887.45973 898.88638,890.56185 C 896.80383,893.64047 898.90545,886.90407 892.92468,896.81622 C 886.14638,906.59844 896.2229,903.87873 893.45395,910.7651 C 887.9756,916.54781 890.35553,914.82465 892.16851,921.27453 C 892.37546,921.32464 875.61682,912.75853 880.43941,921.63669 C 878.64109,922.47936 869.13331,933.78832 869.2187,937.24516 C 873.15499,944.75128 870.82367,942.51572 871.39618,944.10413 C 869.51683,946.99117 864.53486,944.45903 863.28606,946.4952 C 861.8493,949.3867 862.79058,955.3696 861.23182,958.42051 C 858.55373,960.93826 860.66929,968.8928 857.38199,968.75876 C 850.94072,972.69563 848.14485,976.41007 847.11525,975.18686 C 842.76678,980.92738 835.84206,980.75972 835.99336,982.46179 C 840.59326,986.01415 842.55865,986.26305 837.93391,984.47512 C 843.17714,988.88025 833.23447,982.36104 830.30089,982.11593 C 827.60578,983.16695 826.29538,989.86269 821.68584,977.82464 C 819.06431,978.69092 820.29701,986.00637 816.90499,985.86769 C 804.76333,987.5378 805.14815,990.25412 797.68466,983.58634 C 796.44752,982.6431 793.41706,984.42043 788.92911,984.21944 C 789.39723,986.90427 781.60557,984.61715 776.14669,981.35169 C 775.30762,980.59868 768.70226,986.22497 767.50116,984.50123 C 759.67432,982.39966 764.15227,983.64933 760.89586,983.63732 C 753.36172,991.81648 747.29067,984.20143 743.67619,980.1559 C 741.64822,983.65391 742.85748,983.12126 739.48297,983.03926 C 736.86729,979.21841 730.26126,983.25667 729.98677,977.69464 C 728.89907,978.03955 724.96405,990.12683 727.15881,986.77852 C 723.36095,990.09134 711.67977,990.62881 708.80673,991.7973 C 706.83584,993.74942 703.42184,983.77107 699.77634,983.92172 C 695.37912,984.02173 699.45034,981.4891 694.36797,982.26823 C 691.2641,983.34695 681.38118,983.53548 678.09924,983.32903 C 673.91687,988.57947 676.1688,986.46074 674.43203,984.55677 C 670.50155,986.71806 666.23585,989.54394 662.29645,984.43837 C 658.84003,984.22323 658.04407,987.44483 650.08578,986.26787 C 646.21074,987.41755 645.35528,980.40678 638.83497,980.79743 C 635.57188,978.63557 633.87753,986.66525 632.24138,984.16336 C 627.21724,983.26264 630.51452,981.40797 624.24012,981.73837 C 624.47826,981.56385 620.80146,981.46609 612.80796,985.31436 C 604.11797,986.90008 609.32807,988.11545 605.38697,987.4623 C 594.09596,981.77875 607.60059,982.17932 600.29276,987.4016 C 599.00195,990.17978 603.50809,980.09978 603.3558,971.30674 C 603.84648,976.89845 603.50155,961.43306 603.90646,962.10763 C 602.48361,958.29126 600.70152,959.51177 604.10416,959.9622 C 603.40773,955.71821 611.95663,940.7843 613.45112,937.48553 C 613.68158,939.12465 611.80199,956.0327 613.96018,946.92903 C 612.55363,933.0441 617.46805,931.19281 619.76959,929.69177 C 622.47198,926.79651 624.413,933.81156 626.55172,930.9484 C 630.79478,936.44587 638.15833,917.95704 638.32228,913.99232 C 642.29663,909.45234 631.6186,910.30096 637.61111,907.15341 C 639.00855,901.31977 652.60253,893.58463 645.99772,899.7269 C 652.68787,896.46159 639.96249,902.86505 641.24882,896.07157 C 636.25761,887.66318 650.57151,882.57848 652.33548,883.17924 C 657.23522,883.56127 651.08834,876.92241 652.44563,875.42382 C 654.08476,872.6912 660.15672,874.60656 662.73304,866.66476 C 666.90611,860.8908 664.5271,858.66256 666.21716,855.63766 C 659.01021,851.60348 670.07631,846.01401 671.07692,846.43596 C 671.14739,842.38523 672.77308,838.17317 677.1283,840.80955 C 683.40259,834.0552 679.52205,844.98124 684.74238,833.07467 C 690.2843,830.51301 685.54035,826.94474 687.56874,823.70068 C 697.99064,815.84642 691.66383,814.11693 695.16769,812.80222 C 698.11397,809.40716 697.07298,806.45417 695.56615,805.07495 C 698.16099,800.75391 704.0168,798.13286 704.30372,796.45279 C 707.76982,790.91847 709.01472,793.12325 710.49158,790.01276 C 718.6006,797.31246 710.49448,782.48745 710.22595,783.6444 C 711.96686,781.40027 713.27789,775.3364 717.00387,773.01903 C 722.32499,768.4511 721.15037,762.23055 722.55256,762.22735 C 724.41664,763.47218 725.19827,766.61759 730.64031,766.00747 C 738.32767,767.44629 739.51436,758.94384 743.2086,758.93035 C 748.47863,757.59668 747.94764,768.93644 752.2828,768.94093 C 751.85735,765.2531 760.28403,749.10741 761.53885,759.97829 C 762.53695,762.58676 766.73487,760.3741 770.37617,766.68529 C 776.58409,766.26236 773.17504,755.53143 778.57818,760.44253 C 781.79483,759.77304 786.3852,761.3901 788.21766,763.7954 C 786.10034,771.43518 797.55381,771.91856 798.27977,765.27666 C 799.87818,761.97353 804.37663,767.46247 807.4733,767.78833 C 810.24089,768.31002 810.66437,765.65079 814.6713,762.79223 C 817.3757,766.25889 820.23406,767.56303 824.39557,763.88134 C 832.74336,758.72227 830.21092,761.43586 834.85778,762.80683 C 840.58132,758.6602 846.64946,765.52221 850.52452,765.94856 C 854.50174,769.20583 854.46196,771.72929 860.43529,768.66118 C 863.94531,768.40785 860.61022,758.27251 863.716,758.78976 C 868.09554,759.00967 871.83298,774.77545 873.44465,774.6769 C 876.92581,770.26728 876.83122,763.64477 879.98925,763.72734 C 882.8924,767.2629 888.75101,762.94861 891.50103,762.60369 C 899.32776,755.47531 900.68259,765.62029 903.84069,768.71024 C 906.25864,768.32319 904.78973,773.98336 907.99374,774.16208 C 912.98754,772.2345 922.91357,770.53688 922.85565,764.49532 C 923.48772,759.07082 918.61127,764.14771 931.94723,766.8204 C 933.50618,770.84561 942.81766,768.98896 945.93333,766.43931 C 952.83123,765.41938 947.6999,759.95772 950.97727,758.27406 C 965.66068,759.64475 962.65602,770.4635 966.83724,766.4324 C 977.09852,761.05054 974.91945,763.22348 974.94984,762.823 C 975.12271,753.93759 971.78911,769.83748 971.91571,769.91033"
       style="fill:#3e4837;fill-opacity:1;fill-rule:evenodd;stroke:none;stroke-width:1.95335126;stroke-linecap:butt;stroke-linejoin:round;stroke-miterlimit:4;stroke-dasharray:none;stroke-opacity:1;display:inline" />
  </g>
</svg>
