<?xml version="1.0" encoding="UTF-8" standalone="no"?>
<!-- Created with Inkscape (http://www.inkscape.org/) -->
<svg
   xmlns:dc="http://purl.org/dc/elements/1.1/"
   xmlns:cc="http://creativecommons.org/ns#"
   xmlns:rdf="http://www.w3.org/1999/02/22-rdf-syntax-ns#"
   xmlns:svg="http://www.w3.org/2000/svg"
   xmlns="http://www.w3.org/2000/svg"
   xmlns:xlink="http://www.w3.org/1999/xlink"
   xmlns:sodipodi="http://sodipodi.sourceforge.net/DTD/sodipodi-0.dtd"
   xmlns:inkscape="http://www.inkscape.org/namespaces/inkscape"
   width="1000"
   height="1000"
   id="svg2"
   sodipodi:version="0.32"
   inkscape:version="0.46"
   sodipodi:docname="volcanic.svg"
   inkscape:output_extension="org.inkscape.output.svg.inkscape"
   version="1.0"
   inkscape:export-filename="/Users/joe/Documents/Code/BattleMints/volcanic-theme.png"
   inkscape:export-xdpi="23.040001"
   inkscape:export-ydpi="23.040001">
  <sodipodi:namedview
     id="base"
     pagecolor="#ffffff"
     bordercolor="#666666"
     borderopacity="1.0"
     gridtolerance="10000"
     guidetolerance="10"
     objecttolerance="10"
     inkscape:pageopacity="0.0"
     inkscape:pageshadow="2"
     inkscape:zoom="1.0610557"
     inkscape:cx="176.4885"
     inkscape:cy="807.62691"
     inkscape:document-units="px"
     inkscape:current-layer="layer5"
     showgrid="true"
     inkscape:snap-global="true"
     inkscape:object-nodes="true"
     inkscape:window-width="1077"
     inkscape:window-height="832"
     inkscape:window-x="315"
     inkscape:window-y="36"
     inkscape:snap-nodes="true"
     inkscape:snap-bbox="true"
     showguides="true"
     inkscape:guide-bbox="true">
    <inkscape:grid
       empspacing="5"
       spacingy="7.8125px"
       spacingx="7.8125px"
       enabled="true"
       visible="true"
       id="grid2385"
       type="xygrid" />
    <inkscape:grid
       dotted="false"
       empopacity="0.25098039"
       empcolor="#ff00ff"
       opacity="0.1254902"
       color="#ff00ff"
       spacingy="86.6px"
       spacingx="86.6px"
       enabled="false"
       visible="true"
       id="grid2387"
       type="xygrid" />
  </sodipodi:namedview>
  <defs
     id="defs4">
    <linearGradient
       id="linearGradient3709">
      <stop
         id="stop3711"
         offset="0"
         style="stop-color:#ffffff;stop-opacity:1" />
      <stop
         style="stop-color:#e7b291;stop-opacity:1"
         offset="0.13265306"
         id="stop3721" />
      <stop
         style="stop-color:#c37d0b;stop-opacity:1;"
         offset="0.26530612"
         id="stop3719" />
      <stop
         style="stop-color:#320b0b;stop-opacity:1;"
         offset="0.5"
         id="stop3717" />
      <stop
         id="stop3713"
         offset="1"
         style="stop-color:#280b0b;stop-opacity:1;" />
    </linearGradient>
    <inkscape:perspective
       id="perspective10"
       inkscape:persp3d-origin="372.04724 : 350.78739 : 1"
       inkscape:vp_z="744.09448 : 526.18109 : 1"
       inkscape:vp_y="0 : 1000 : 0"
       inkscape:vp_x="0 : 526.18109 : 1"
       sodipodi:type="inkscape:persp3d" />
    <radialGradient
       inkscape:collect="always"
       xlink:href="#linearGradient3709"
       id="radialGradient4919"
       gradientUnits="userSpaceOnUse"
       gradientTransform="matrix(5.4154419,0.8813897,-0.9940919,6.1079077,-1008.6302,-4158.8616)"
       cx="393.99857"
       cy="744.21918"
       fx="393.99857"
       fy="744.21918"
       r="51.31392" />
  </defs>
  <metadata
     id="metadata7">
    <rdf:RDF>
      <cc:Work
         rdf:about="">
        <dc:format>image/svg+xml</dc:format>
        <dc:type
           rdf:resource="http://purl.org/dc/dcmitype/StillImage" />
      </cc:Work>
    </rdf:RDF>
  </metadata>
  <g
     inkscape:label="Theme"
     id="layer5"
     inkscape:groupmode="layer">
    <path
       style="fill:#280b0b;fill-rule:evenodd;stroke:none;stroke-width:1.95335126;stroke-linecap:butt;stroke-linejoin:round;stroke-miterlimit:4;stroke-dasharray:none;stroke-opacity:1;display:inline"
       d="M 0,742.1875 L 140.625,484.375 L 453.125,484.375 L 593.75,742.1875 L 453.125,1000 L 140.625,1000 L 0,742.1875 z"
       id="path13377"
       inkscape:label="#path5308"
       sodipodi:nodetypes="ccccccc" />
    <path
       style="fill:#280b0b;fill-opacity:1;fill-rule:evenodd;stroke:none;stroke-width:1.95335126;stroke-linecap:butt;stroke-linejoin:round;stroke-miterlimit:4;stroke-dasharray:none;stroke-opacity:1;display:inline"
       d="M 54.6875,476.5625 L 203.125,210.9375 L 515.625,210.9375 L 664.0625,476.5625 L 54.6875,476.5625 z"
       id="path13382"
       inkscape:label="#path5306"
       sodipodi:nodetypes="ccccc" />
    <path
       style="fill:#280b0b;fill-opacity:1;fill-rule:evenodd;stroke:none;stroke-width:1.95335126;stroke-linecap:butt;stroke-linejoin:round;stroke-miterlimit:4;stroke-dasharray:none;stroke-opacity:1;display:inline"
       d="M 695.3125,1000 L 1000,1000 L 1000,695.3125 L 695.3125,695.3125 L 695.3125,1000 z"
       id="path13384"
       inkscape:label="#path5304"
       sodipodi:nodetypes="ccccc" />
    <path
       style="fill:#280b0b;fill-opacity:1;fill-rule:evenodd;stroke:none;stroke-width:1.95335126;stroke-linecap:butt;stroke-linejoin:round;stroke-miterlimit:4;stroke-dasharray:none;stroke-opacity:1;display:inline"
       d="M 359.375,7.8125 L 695.3125,7.8125 L 976.5625,171.875 L 640.625,171.875 L 359.375,7.8125 z"
       id="path13386"
       sodipodi:nodetypes="ccccc"
       inkscape:label="#path5298" />
    <path
       style="fill:#280b0b;fill-opacity:1;fill-rule:evenodd;stroke:none;stroke-width:1.95335126;stroke-linecap:butt;stroke-linejoin:round;stroke-miterlimit:4;stroke-dasharray:none;stroke-opacity:1;display:inline"
       d="M 515.625,210.9375 L 671.875,476.5625 L 984.375,476.5625 L 828.125,210.9375 L 515.625,210.9375 z"
       id="path13388"
       inkscape:label="#path5300"
       sodipodi:nodetypes="ccccc" />
    <path
       style="fill:#280b0b;fill-opacity:1;fill-rule:evenodd;stroke:none;stroke-width:1.95335126;stroke-linecap:butt;stroke-linejoin:round;stroke-miterlimit:4;stroke-dasharray:none;stroke-opacity:1;display:inline"
       d="M 0,-1.1368684e-13 L 328.125,-1.1368684e-13 L 164.0625,273.4375 L 0,-1.1368684e-13 z"
       id="path13390"
       inkscape:label="#path5302"
       sodipodi:nodetypes="cccc" />
    <path
       style="fill:#280b0b;fill-opacity:1;fill-rule:evenodd;stroke:none;stroke-width:1.95335126;stroke-linecap:butt;stroke-linejoin:round;stroke-miterlimit:4;stroke-dasharray:none;stroke-opacity:1;display:inline"
       d="M 1000,695.3125 L 781.25,476.5625 L 460.9375,476.5625 L 679.6875,695.3125 L 1000,695.3125 z"
       id="path13392"
       sodipodi:nodetypes="ccccc"
       inkscape:label="#path6418" />
    <path
       inkscape:transform-center-y="33.599269"
       inkscape:transform-center-x="10.237591"
       inkscape:label="#path5302"
       id="path2453"
       d="M 46.106321,29.696581 C 47.922158,29.462322 52.614201,28.532551 54.432424,27.482399 C 55.480877,26.36842 58.884712,26.570121 63.115373,27.084576 C 68.177708,34.54471 71.305888,27.786847 74.706541,23.031651 C 76.26702,30.10995 83.782445,24.915809 84.270858,26.744149 C 88.027737,27.072416 89.480935,23.809552 94.33065,22.664327 C 99.64157,17.230854 104.51761,25.299818 104.38687,25.017832 C 107.11716,27.841582 117.81612,24.91313 118.69336,24.055102 C 123.90397,19.024665 129.63897,17.56571 129.25304,17.763309 C 140.7523,17.151315 138.66272,24.525548 137.1354,25.788912 C 141.91092,27.943846 138.4412,26.282597 141.03254,27.909741 C 135.20923,27.071233 152.3821,20.883919 150.81911,20.22332 C 152.48835,24.486998 158.08266,25.436432 163.75004,23.72289 C 167.24355,19.648257 172.88283,21.692374 175.6554,22.185921 C 179.38647,19.975444 167.20614,21.683517 175.99023,22.58759 C 179.45848,22.517632 195.9858,27.871134 194.39026,25.327292 C 196.50361,26.02391 208.34863,20.660921 210.65738,22.825244 C 217.86627,25.79169 205.20199,14.316076 209.89976,21.979499 C 214.63781,19.662597 216.65244,22.946158 222.05148,22.654239 C 225.19531,22.208353 230.87514,22.444182 233.31004,21.263612 C 231.62857,23.256962 236.94159,21.573112 241.30959,19.710678 C 245.03597,19.998593 251.9986,25.096355 255.30798,24.625824 C 258.3472,26.124397 263.51801,16.137605 266.21137,17.932385 C 271.0637,14.313093 272.15562,24.820952 274.42697,20.969831 C 279.45284,29.354294 280.28031,19.073571 282.68038,18.288934 C 287.19758,6.747157 282.62494,30.13531 279.76527,28.764336 C 275.26279,32.73496 285.2341,37.16383 274.68291,38.62443 C 277.78873,36.94749 266.4104,38.53933 266.7171,41.07567 C 266.45573,48.32348 264.30813,56.29967 262.14522,59.49629 C 261.09353,56.96323 268.09255,64.58948 264.76979,64.64471 C 260.41562,58.29616 253.85782,68.86125 252.64778,72.71187 C 251.31379,75.46261 247.15326,73.17404 248.08682,79.29084 C 246.68709,83.96651 248.00157,87.51847 244.22844,89.7133 C 243.42161,87.24489 244.17162,92.84439 239.82845,97.71191 C 238.09353,99.77746 227.29758,90.92439 231.07695,105.92966 C 224.76662,102.89642 230.02719,116.4182 227.16784,114.75894 C 227.82768,121.17571 223.96588,123.46575 222.42681,126.23881 C 217.87685,129.02502 226.94274,135.76845 225.09949,138.63188 C 224.1195,142.2712 221.68177,147.60134 218.64714,150.50849 C 210.91303,146.18265 213.16483,145.19587 211.36656,148.55653 C 211.34685,150.24285 204.24707,154.90311 204.56091,158.4373 C 210.41033,163.21431 197.50699,150.81366 197.79811,154.90976 C 195.66759,159.20504 196.77264,174.06738 196.00629,176.15776 C 196.7631,183.07407 203.21069,178.81615 196.79119,184.91249 C 192.17199,193.36638 177.99245,188.64751 181.55048,189.70293 C 181.35607,192.76228 181.92127,203.39131 180.01777,206.3758 C 176.65261,209.01424 178.83329,200.09151 176.67312,204.26947 C 174.83045,207.55119 170.09799,202.90476 175.98364,213.09342 C 164.10773,228.29252 167.01984,237.05198 167.09468,231.90905 C 169.8853,230.91873 159.0398,226.68842 161.20449,219.68021 C 166.42693,215.98442 155.82177,217.19974 158.55143,213.85902 C 161.33698,212.36122 145.7605,209.49506 145.24035,207.22255 C 141.53602,203.52393 159.03415,198.64707 153.52249,193.63158 C 152.74641,190.84585 137.1933,198.06733 135.80102,189.70079 C 133.93,191.0473 137.29909,188.02135 136.32017,176.65721 C 136.01358,171.34921 121.12228,174.38632 126.36456,166.95434 C 125.54448,160.43552 122.15226,170.62283 121.33759,167.20478 C 119.76833,166.45714 114.15326,154.6751 117.504,154.17087 C 123.20794,152.83205 115.70719,138.01964 113.9149,138.91188 C 110.14179,134.82679 112.60306,136.79738 111.33715,133.56917 C 107.30254,128.44625 103.20457,123.91758 103.78402,124.06862 C 102.54443,122.17751 105.99589,122.03972 100.24222,125.94975 C 96.76458,123.21012 100.09053,113.96655 98.32473,113.60614 C 95.48734,110.86292 90.620779,101.39552 87.843602,98.60352 C 87.683991,93.69017 89.174089,88.24866 90.021681,92.31165 C 86.166513,89.02008 91.227312,93.10504 81.156405,83.79894 C 74.714413,86.83018 77.586195,77.29517 75.80294,74.40243 C 75.734302,67.26221 69.815636,74.02146 67.739041,69.49097 C 64.080157,65.33295 75.176829,66.40113 63.37292,60.3574 C 61.689729,61.54253 65.050324,52.95609 63.724667,51.82153 C 69.67954,53.37865 59.344881,47.83336 54.496127,39.10087 C 61.481961,36.42692 52.276208,32.72618 50.963245,30.35312 C 47.314466,26.519775 44.180508,22.52829 45.037435,24.109084 C 42.388198,23.651499 43.994539,9.887359 41.401475,19.533996"
       style="fill:#483737;fill-opacity:1;fill-rule:evenodd;stroke:none;stroke-width:1.95335126;stroke-linecap:butt;stroke-linejoin:round;stroke-miterlimit:4;stroke-dasharray:none;stroke-opacity:1;display:inline" />
    <path
       inkscape:label="#path6418"
       sodipodi:nodetypes="ccccc"
       id="path2515"
       d="M 928.13629,668.09744 C 931.27165,666.03603 927.61293,665.3905 923.67267,659.40607 C 916.47068,656.57778 915.77765,662.79478 914.91151,657.92509 C 914.17534,650.86355 905.24491,649.07303 909.14422,649.04311 C 907.30706,646.2769 902.80362,642.55198 904.26896,642.3187 C 900.592,636.98965 904.20665,639.0597 900.79297,632.10192 C 895.51015,633.61034 892.56184,639.76634 892.68034,637.92843 C 887.61057,642.60422 880.26394,629.84215 877.3388,627.87013 C 873.80531,620.42608 879.11995,614.65782 878.0963,617.30534 C 875.24968,610.86313 866.34747,615.23636 863.82555,612.36812 C 864.20341,614.48233 866.94079,602.13167 861.19592,600.39114 C 853.25539,593.77388 857.87079,596.97929 857.35172,598.49242 C 855.58239,595.86586 848.61219,592.68409 851.86983,592.18213 C 847.80849,587.44837 839.21883,584.47218 845.6109,579.57063 C 842.64438,577.36239 844.39686,578.55133 842.08622,576.43981 C 838.85856,576.71636 847.23743,577.22258 837.35887,574.54773 C 835.71387,572.17949 838.58969,568.00108 831.2946,565.75695 C 832.57544,558.54812 822.07837,560.13378 823.02513,558.63745 C 826.76617,550.14962 822.89535,559.60247 822.29638,553.96432 C 822.68006,547.5607 815.53561,553.10248 811.10358,551.85266 C 817.19514,547.46361 803.90632,538.09164 802.78698,535.82213 C 795.31488,531.71391 791.94599,535.73888 793.99356,535.25376 C 787.2593,538.67618 802.62423,535.54203 792.56152,535.34965 C 790.81337,527.2226 779.66009,524.96037 778.17593,522.06718 C 776.89104,525.0473 786.89578,516.23458 776.24884,516.58952 C 775.75182,520.93334 769.19787,505.82829 770.43192,508.77488 C 767.27248,509.29348 761.40759,504.54209 761.01506,504.39544 C 759.85957,504.40271 765.44256,499.53465 755.65701,499.32429 C 752.80815,499.88154 754.09024,506.21636 744.73631,498.02459 C 738.85317,498.80416 750.7521,491.65362 745.62437,492.45091 C 741.71577,492.58271 729.02241,495.87233 726.12486,497.16522 C 724.00721,499.59318 720.11586,502.81998 716.68046,501.60661 C 707.39793,503.44579 715.22098,510.4844 712.22179,509.58879 C 700.1614,505.31814 709.60976,507.56405 704.2058,504.14982 C 698.90417,502.3186 695.05002,507.48153 693.3149,503.92561 C 689.73145,502.66594 683.66373,502.09047 681.40163,503.98042 C 682.35971,499.43128 682.13498,499.50811 678.8843,504.21823 C 687.03459,496.82529 670.07491,501.16972 665.03563,503.69268 C 662.40419,504.62454 664.12944,502.15826 659.39275,503.11055 C 656.4208,503.10346 647.46877,506.82891 646.12738,502.60847 C 642.11824,503.7356 640.91748,502.4776 639.13128,502.11473 C 629.11738,504.30024 628.32182,506.52114 625.45899,506.33343 C 629.7395,503.38379 626.74266,500.51008 620.76949,503.78218 C 615.41223,504.61517 610.7526,500.28773 612.07238,503.88588 C 609.03125,504.14849 600.88615,504.90921 603.34155,503.25806 C 598.36097,503.21022 597.37002,501.33564 594.26991,503.15125 C 592.59921,500.54152 586.98255,506.21602 585.9419,506.00448 C 583.02183,504.90967 584.68984,502.36666 576.36894,504.2952 C 573.30033,504.13708 574.65549,502.67909 567.2142,504.49314 C 565.44893,515.79151 562.31852,502.24825 558.14632,499.82693 C 554.81941,499.5473 560.24312,500.64313 552.09903,500.19131 C 547.39705,501.01921 542.97792,505.64521 540.08438,503.35832 C 538.06511,496.23705 530.59608,506.49002 531.50063,503.71207 C 530.37912,500.59755 530.3448,499.06227 536.32161,510.20981 C 541.76712,507.10078 542.32831,512.19287 546.25747,516.04811 C 549.40125,516.79691 555.36075,529.74564 552.97923,528.64718 C 560.22975,530.9813 554.36191,526.77065 555.9499,528.60082 C 551.33115,534.7553 561.95753,530.88633 565.37166,532.96723 C 568.1611,534.91684 569.50597,539.00158 566.51217,540.95414 C 569.1093,537.56297 574.32046,545.0034 575.53256,550.97869 C 579.10482,556.99387 583.21268,556.0967 581.85679,554.08751 C 585.1133,555.497 583.17254,557.62626 588.32654,560.4223 C 592.88851,563.02987 594.10075,563.24377 597.16508,565.03997 C 599.94469,565.66242 599.73087,570.06881 601.50857,572.13482 C 601.96786,572.93199 589.93728,569.16367 601.28526,574.78671 C 603.03461,576.82567 602.98214,580.92699 607.2153,583.14409 C 609.28603,585.36913 627.24483,593.45239 621.66759,589.53345 C 627.26809,590.55326 618.67465,606.37156 627.99251,603.31142 C 628.17928,601.11939 630.16983,593.40931 630.37537,594.45007 C 632.00404,596.94856 636.11067,609.11854 638.79472,610.78092 C 637.23938,614.26343 637.33535,614.27847 640.82023,617.09925 C 643.53284,619.7249 640.53564,613.71642 648.19889,622.28974 C 647.83628,621.44354 647.85671,625.95882 650.74565,626.62448 C 649.99273,628.33321 655.99992,640.16364 660.15442,642.27974 C 666.49106,645.55274 664.48763,645.39948 664.99328,644.90363 C 663.65676,644.63589 671.66581,651.47757 676.25088,649.09106 C 675.26801,643.96966 683.9686,652.34439 686.70304,653.68438 C 689.88117,657.16307 690.4331,657.90678 692.16186,659.19353 C 696.43032,661.53043 701.552,666.78283 700.27157,667.14601 C 696.36401,666.64804 697.11681,662.54308 708.66716,663.698 C 705.92278,666.09241 698.15787,652.19637 705.40623,662.95329 C 705.60344,659.86725 719.20933,671.17104 723.73478,671.22079 C 726.41432,671.55922 729.46091,667.35697 733.55181,664.89766 C 742.94652,672.47633 740.21393,673.40108 743.56184,672.58932 C 746.80859,667.08105 746.46068,671.35561 752.25954,667.87956 C 754.04484,667.39796 754.79911,677.20704 755.20742,670.31058 C 758.4441,671.37333 763.4541,664.75389 769.66005,663.32457 C 767.36799,674.82978 771.66368,664.01968 775.6261,666.95067 C 776.99139,674.36306 783.23247,670.94833 784.72733,670.32853 C 785.64868,667.58202 791.16778,670.34655 793.87112,669.53353 C 793.93727,668.67237 794.51811,666.48055 804.31001,667.69607 C 814.46103,659.57298 816.2546,677.00917 815.91884,670.35183 C 818.67109,670.2208 813.28431,656.34984 814.46128,665.27725 C 814.9399,663.46006 823.92589,666.17165 828.13203,670.88146 C 832.10454,671.27375 831.00014,666.0885 840.21996,667.44473 C 844.92317,665.32748 844.19598,662.80387 848.08483,664.61469 C 856.32839,669.71067 858.79506,660.48679 856.72934,670.91752 C 859.77034,670.92625 869.12029,669.26354 866.38082,670.12256 C 872.06897,672.66966 872.16838,675.847 867.01667,672.32927 C 863.83177,671.02227 880.59079,670.4667 883.58641,667.95519 C 885.81335,666.94968 884.58142,668.06626 888.48358,666.71075 C 890.71957,663.73588 894.90685,668.89307 899.50112,666.52551 C 903.7319,665.12453 911.39776,665.12764 914.2875,667.79402 C 917.27747,668.13889 918.69399,676.91706 921.85909,672.93886 C 922.10022,676.18321 923.76931,665.90294 929.01246,669.99575 C 932.43174,660.59137 921.58458,671.58755 924.81562,673.86855"
       style="fill:#484537;fill-opacity:1;fill-rule:evenodd;stroke:none;stroke-width:1.95335126;stroke-linecap:butt;stroke-linejoin:round;stroke-miterlimit:4;stroke-dasharray:none;stroke-opacity:1;display:inline" />
    <path
       inkscape:label="#path5304"
       id="path2581"
       d="M 714.43137,975.42512 C 713.84667,974.75544 716.05031,963.77474 727.00098,970.91401 C 730.90744,970.93709 725.67532,980.92825 737.90556,974.13818 C 738.58558,972.50297 745.33985,969.13672 749.48824,973.94374 C 752.91098,973.58374 756.25364,977.57089 759.3916,978.24353 C 761.48254,978.07565 769.84871,978.2663 773.26269,977.7273 C 772.61792,985.32776 774.22489,976.05866 777.98507,976.44943 C 783.97367,981.20427 788.4909,984.69442 792.4267,984.18728 C 793.37887,984.18275 797.95469,975.36764 800.41057,976.69128 C 799.88811,981.23937 804.7523,981.11446 807.79679,980.99514 C 808.0703,983.70443 818.11352,972.42673 818.68838,972.39329 C 822.71771,972.58245 829.65864,974.27465 831.80256,972.11021 C 835.42756,973.02657 834.73179,976.98459 838.64189,976.45212 C 841.727,975.23971 847.04579,973.52785 854.77966,975.73177 C 858.20552,976.53905 855.76243,978.69773 858.06489,977.47711 C 861.052,976.93151 865.61698,977.80472 868.36821,977.62742 C 878.56518,977.25631 876.37334,973.63177 878.35447,976.82389 C 882.9804,979.64802 890.69581,978.97279 888.05521,973.58041 C 887.9403,972.63544 895.99937,975.61532 899.36021,975.59638 C 903.44007,970.68339 900.50739,980.82482 903.8597,981.38198 C 912.0983,984.01196 911.7544,975.91943 916.99252,976.53395 C 919.522,979.36199 919.67425,975.15594 926.8981,977.65892 C 929.05748,976.55904 933.04831,980.25685 938.40854,979.18987 C 940.76914,977.86999 945.47033,971.6969 946.83118,977.69999 C 943.47377,974.33727 956.89263,977.48896 961.95735,978.65626 C 962.80918,979.8198 969.72565,976.72389 972.51896,976.72414 C 979.80416,985.11792 979.05743,983.55268 981.1377,981.6541 C 978.77459,981.0786 977.24745,972.9591 976.55903,966.45947 C 974.28193,964.85165 971.94337,962.07677 972.1523,959.35712 C 976.72014,956.59969 974.89,946.22522 977.26172,946.54666 C 977.00924,947.79702 972.4131,935.4322 974.72406,934.83107 C 972.00727,938.1986 979.50872,934.94062 978.58276,930.17435 C 982.37388,926.55171 977.738,921.41051 978.57553,915.90098 C 975.06512,910.99327 974.8836,914.57556 976.32634,909.25194 C 979.00755,900.97389 989.53147,898.13973 976.23422,892.67598 C 974.03207,887.86732 965.93707,893.29577 971.94431,887.57624 C 970.7642,884.88859 970.8107,870.55134 977.5088,876.88049 C 980.56071,879.71959 976.73227,876.40927 976.97111,871.31276 C 976.5307,867.08809 974.0747,860.24538 972.19075,857.14915 C 971.46383,855.25559 978.90219,847.53925 975.92512,848.92147 C 975.84369,837.12425 974.37465,848.91594 974.05531,839.27999 C 975.12595,841.27384 978.40668,826.27875 972.2779,820.65036 C 973.48576,816.91832 978.47083,821.95784 978.50631,817.66332 C 977.62452,818.58335 976.06637,808.54417 977.44197,805.819 C 988.36783,793.33383 974.07544,794.4164 976.22088,797.26178 C 976.60214,797.54456 979.32127,785.57088 979.31766,782.18537 C 973.49583,779.32241 976.73028,780.87739 978.65652,783.13065 C 974.10764,775.3355 978.94116,777.63014 977.52475,765.89936 C 975.84177,763.62628 977.6892,764.22848 977.63242,763.28987 C 977.7581,760.11737 973.25554,749.92517 977.1965,749.32522 C 978.10869,745.427 975.04118,742.85684 977.37133,739.14062 C 981.43284,736.68386 973.40473,726.12361 976.37184,728.95065 C 976.86491,722.28287 974.29632,717.83917 975.98262,717.60266 C 976.29782,710.39471 972.80178,719.53036 966.52998,719.45513 C 965.49805,720.03977 966.26681,727.45242 961.69771,726.5365 C 960.12289,726.97518 956.43882,720.59307 953.21843,720.39542 C 945.53381,720.35078 943.49119,721.66717 938.41752,719.53835 C 935.39809,719.8953 928.89701,719.54983 927.42277,718.23506 C 925.29557,716.83885 917.8103,721.96344 917.55397,720.84023 C 913.81638,717.96874 911.85405,717.42695 908.01115,718.56807 C 902.77723,718.27823 898.48039,718.98525 897.99242,720.3406 C 891.36257,726.61675 890.63949,719.33689 887.29219,718.46671 C 885.685,711.82876 887.35011,726.28471 880.39471,721.47735 C 877.8023,722.6301 873.11759,725.43703 864.81482,723.22256 C 861.29297,723.14191 858.27409,717.34333 857.08265,718.14711 C 852.87424,718.33664 852.74604,719.47041 849.74343,719.10459 C 846.78794,718.75122 845.22514,710.01813 838.69974,718.43077 C 834.71761,717.66618 826.70423,719.14193 823.74409,718.01725 C 818.01101,724.4632 825.02507,715.15925 819.24546,719.23952 C 817.49056,722.96188 815.69065,719.97429 810.25917,719.59711 C 808.04527,717.00496 792.97733,718.80203 795.64074,717.62612 C 792.6105,715.92749 790.65254,720.44518 787.85851,722.08748 C 788.83245,723.11061 775.66289,714.5172 776.18952,716.11097 C 772.64249,716.54793 768.66422,722.40893 765.40565,720.86031 C 764.88946,724.13542 761.53596,719.71292 758.36217,717.32151 C 759.7591,713.51883 760.15552,725.90895 754.09943,729.43534 C 749.73825,728.86805 747.81891,723.38552 742.28627,718.05045 C 727.65425,713.85436 734.7242,720.78176 732.42859,720.49784 C 720.67924,730.26266 715.76797,712.39644 716.17565,713.93273 C 714.5721,714.02606 717.8769,728.51317 716.84542,730.74014 C 715.75597,737.07129 723.05877,732.54889 723.09663,736.16181 C 725.45349,739.94779 720.76769,739.0856 721.19834,751.33373 C 716.53081,751.64244 716.5291,750.52145 715.64354,757.25951 C 716.47334,762.32469 717.75894,763.10776 717.78598,766.55445 C 716.0031,779.54123 722.45724,775.11926 720.62457,777.57283 C 718.42912,778.51722 713.01413,799.79048 718.10001,791.72766 C 717.65604,792.42273 717.70124,795.53792 714.98583,798.44995 C 710.92889,797.25427 721.84998,803.45875 718.64533,807.45566 C 716.69388,811.64013 721.18557,815.32775 721.46347,817.07114 C 722.6434,817.7958 720.73928,827.80185 721.13514,831.18783 C 725.75313,832.86435 711.35732,838.56754 718.3371,840.26252 C 713.85342,841.40506 721.12495,852.05906 719.11209,847.58224 C 715.18618,850.69767 722.11157,845.02958 723.44338,855.56095 C 721.95447,858.1953 725.35407,848.4815 725.15528,863.93771 C 726.95539,867.13478 712.68475,864.67032 718.75709,877.39184 C 726.54066,886.15632 714.59818,884.25378 717.28726,888.56058 C 721.26053,886.18555 717.31842,892.28426 720.85305,895.3376 C 719.92519,902.01077 709.2988,896.4533 711.003,903.81714 C 714.94299,910.98403 724.91541,918.43445 724.53609,917.53857 C 721.23153,923.78564 712.08249,924.04157 712.4894,927.00084 C 714.33748,939.1695 723.37165,929.89507 719.52832,937.37765 C 718.99533,942.52737 719.83954,939.72522 718.76422,940.99602 C 718.73932,949.63449 724.49643,955.10307 717.32371,957.20268 C 721.45409,963.67144 719.64923,961.69079 717.88561,967.15725 C 716.28142,972.4169 717.88375,985.24345 719.05587,978.71783 C 709.70048,978.0191 722.94232,970.97818 725.38796,975.07446"
       style="fill:#483e37;fill-opacity:1;fill-rule:evenodd;stroke:none;stroke-width:1.95335126;stroke-linecap:butt;stroke-linejoin:round;stroke-miterlimit:4;stroke-dasharray:none;stroke-opacity:1;display:inline" />
    <path
       style="fill:#48373e;fill-rule:evenodd;stroke:none;stroke-width:1.95335126;stroke-linecap:butt;stroke-linejoin:round;stroke-miterlimit:4;stroke-dasharray:none;stroke-opacity:1;display:inline"
       d="M 171.375,501.75 C 171.34278,502.29355 171.27049,502.76831 171.21875,503.15625 C 171.0271,504.59325 170.69433,505.48254 170.375,506.3125 C 169.94591,507.42773 169.33617,508.47371 168.75,509.53125 C 170.2734,509.57569 172.07165,509.87398 173.65625,510.8125 C 175.62633,511.97933 176.79647,513.61058 177.40625,514.75 C 177.76636,515.4229 177.656,515.44953 177.875,515.9375 L 184.75,511.46875 C 184.12709,511.71428 183.60588,512.03494 183.1875,512.375 C 184.50943,510.12939 183.00503,504.55096 180.28125,504.5625 C 177.59222,504.56234 174.34064,503.10277 171.375,501.75 z M 431.8125,504.875 C 423.62087,508.27043 425.67695,515.41906 419.125,515.90625 C 413.64903,515.81348 409.67792,511.09006 411.90625,510.25 C 409.18519,510.58564 402.80767,512.75532 400.125,512.53125 C 395.93242,512.80366 391.30455,518.17284 391.28125,512.53125 C 387.36024,512.64806 388.76469,508.89008 383.28125,512.6875 C 382.07316,511.99207 374.57359,512.66172 372.28125,512.375 C 366.35049,512.55152 365.28597,513.0472 362.9375,512.375 C 361.8515,511.92549 362.13279,504.8411 358.15625,507.84375 C 346.62885,500.37158 344.92273,520.45279 343.9375,516.46875 C 343.17593,515.49684 336.78476,515.46915 334.03125,516.375 C 331.65439,516.29874 331.56421,510.45082 325.09375,512.3125 C 317.47995,517.43528 314.7058,515.07788 313,515.21875 C 309.0489,519.03279 305.28348,516.96629 303.9375,515.0625 C 300.67634,514.90908 306.92782,511.03936 300.40625,513.875 C 301.16614,512.72069 294.91416,513.34288 286.78125,513.75 C 288.06359,517.39173 278.77098,511.93367 276.5,512.46875 C 271.13164,511.12817 271.60937,515.46327 268.03125,514.96875 C 261.13006,514.13524 267.88642,506.88555 261.5625,512.84375 C 254.29633,509.38031 250.87316,510.51325 249.875,511.3125 C 250.06808,511.27714 250.23611,511.25747 250.4375,511.21875 C 249.57232,512.15449 249.26736,511.82336 249.84375,511.34375 C 240.07942,513.12628 240.80967,510.65911 237.25,511.5 C 238.97791,515.5243 236.30702,509.70717 232.15625,509.46875 C 227.67804,505.72324 226.11568,517.9381 224.0625,518.5 C 220.50075,515.07501 212.34325,513.02665 208.59375,515.09375 C 208.6423,517.20413 204.85252,511.09581 201.21875,510.5625 C 195.52531,511.72947 194.53366,521.75443 195.5,514.5625 C 193.51143,512.97504 191.72212,512.04581 190.15625,511.53125 C 180.56221,598.39099 215.13744,555.85014 155.09375,530.96875 C 154.7469,530.77682 154.42785,530.57705 154.09375,530.375 C 150.39912,535.5317 149.54768,534.16337 150.21875,536.875 C 144.25593,539.87651 137.86259,548.16451 141.15625,553.3125 C 145.00588,552.87188 144.58396,557.30751 141.28125,553.53125 C 141.23314,553.46281 141.20079,553.38212 141.15625,553.3125 C 140.98492,553.33211 140.81337,553.36616 140.625,553.40625 C 138.8904,549.47737 133.62468,549.58743 137.9375,558.03125 C 134.3829,557.8866 130.54602,566.08786 126.125,571 C 119.8183,576.65052 117.88885,574.57607 121.21875,581.4375 C 124.9905,583.62716 121.20723,582.39915 118.375,586.25 C 114.62759,589.19361 124.58717,593.14916 120.46875,594.78125 C 124.09631,607.31907 114.33253,604.13661 111.84375,607.25 C 110.50942,606.79549 106.1183,613.87357 104.3125,615.375 C 104.24391,617.59591 102.89294,622.58262 99.59375,624 C 92.65222,630.81604 93.29465,623.06165 93.78125,621.875 C 91.93243,624.56077 94.52399,631.06459 94.5625,632.90625 C 91.50366,636.06807 90.80745,637.99706 89.09375,641.0625 C 88.12775,643.40116 90.76841,640.53779 83.1875,644.40625 C 83.65238,650.90329 83.15862,657.8585 80.15625,659.375 C 73.99215,664.77196 69.43306,662.45921 77,665.28125 C 74.75056,667.95328 69.01723,663.2585 67.3125,668.34375 C 65.54299,670.81542 66.26065,680.05987 65.21875,683.4375 C 63.46037,686.91041 61.33141,691.05139 59.34375,693.3125 C 55.61681,695.47168 54.68373,691.56228 54.15625,699.6875 C 50.25354,700.75974 57.10337,712.01737 53.46875,711.875 C 54.25474,712.18653 49.80813,715.90762 44.84375,719.75 C 39.24051,727.29793 46.04991,722.23691 43.71875,724.8125 C 43.94984,728.0024 41.71236,732.21486 42.5625,735.4375 L 47.1875,750.875 L 46.34375,750.3125 C 45.74386,749.89765 45.16899,749.45368 44.59375,748.90625 C 42.89101,748.90296 41.88404,748.96128 40.28125,748.875 C 38.51436,751.14683 36.98853,754.28739 37.875,759 C 35.46762,754.09041 40.11294,767.37568 46.65625,770.3125 C 47.91073,767.0868 45.67273,771.16413 51.84375,771.53125 C 50.51297,769.75182 62.72251,768.42394 58.5625,775.40625 C 65.09735,778.14007 64.52156,790.26039 58.90625,790.53125 C 56.14389,787.64884 56.33898,794.22731 62.4375,797.59375 C 60.90193,797.88011 65.29376,803.8357 67.625,806.75 C 72.78832,808.24766 76.45669,820.00316 72.0625,816.53125 C 72.93538,822.24772 75.8706,819.50357 78.78125,824.15625 C 80.59862,823.36373 82.89919,822.65564 85.25,831 C 96.21627,827.14693 91.69652,834.27104 92.9375,834.90625 C 95.3851,841.73438 95.91887,844.52329 96,845.53125 C 96.11353,845.10334 96.44368,844.53162 97.28125,844.28125 C 102.30867,851.25779 96.081,845.77077 95.03125,853.5 C 96.89221,856.23845 99.60013,863.73055 102.0625,866.8125 C 103.44852,872.00525 103.59336,873.71383 103.59375,874.09375 C 103.63784,873.72115 103.89219,872.86607 104.96875,872.71875 C 106.75976,876.02342 109.51986,877.76445 111.53125,880.4375 C 114.39759,887.01959 119.8757,888.3226 121.75,890.875 C 125.08162,885.92559 124.94391,894.85463 121.875,897.5 C 123.84043,899.7873 130.89187,909.61471 125.53125,907.375 C 120.6339,909.0592 130.48626,916.63188 131.625,916 C 131.59721,915.77594 131.56478,915.53955 131.5625,915.3125 C 131.7577,915.69945 131.77237,915.91823 131.625,916 C 131.95181,918.63516 133.99021,921.08418 136.875,923.59375 C 138.72077,930.4145 140.6891,926.50002 141.3125,930.21875 C 141.45294,931.67601 140.25641,938.28128 141.78125,934.1875 C 143.45621,936.92966 151.35369,939.2866 152.9375,941.71875 C 153.73683,944.24671 153.27122,951.05009 154.5,954.5625 C 155.70399,958.04675 154.27604,961.50861 154.71875,966.625 C 156.6506,971.6016 162.22703,975.87067 160.78125,974.84375 C 153.25544,974.61775 157.30879,979.10041 165.71875,980.09375 C 165.24822,977.63266 171.20331,973.93867 177.71875,971.1875 C 176.07796,970.65052 181.08177,968.05412 187.75,966.375 C 190.25775,966.71231 188.34531,971.38736 202.3125,972.9375 C 202.04102,973.32567 201.78462,973.64956 201.53125,973.96875 C 203.85832,972.84732 207.5493,971.63897 213.125,970.90625 C 224.43592,972.87435 218.60126,971.98917 220.90625,971.34375 C 224.55821,970.13179 230.06593,976.69845 233.25,977.875 C 234.95752,975.60232 235.8581,966.52696 241.28125,962.9375 C 243.26694,961.8237 249.6584,967.66974 249.375,971.34375 C 250.11583,971.26315 250.61129,971.16922 250.96875,971.09375 C 250.3527,970.45468 252.81019,970.70498 250.96875,971.09375 C 251.10234,971.23233 251.33899,971.42661 251.84375,971.65625 C 254.91696,973.31167 267.62535,969.15847 272.375,968.875 C 274.78105,968.88867 275.80547,971.48122 277.03125,971.21875 C 275.83602,973.68591 285.52672,971.61589 286.9375,971.5 C 292.24026,964.89219 292.70031,967.00072 297.1875,972.0625 C 293.31113,973.33087 308.37151,973.07553 309.3125,974.5625 C 312.58686,974.49643 313.79717,984.54959 317.96875,980.1875 C 320.47256,978.79581 316.87439,973.17687 321.15625,973.75 C 324.77262,971.33474 327.61585,973.01354 334.5,972.8125 C 332.59757,974.45887 338.27096,972.44175 340.875,973.53125 C 340.95217,978.13253 350.32189,975.27299 353.40625,973.78125 C 353.85108,972.89288 356.08951,978.43501 358.5625,978.4375 C 361.98021,978.3078 366.81918,971.15537 366.3125,970.8125 C 373.29163,969.14593 376.6389,974.0882 380.03125,971.46875 C 383.96908,968.26915 388.27729,970.5382 391.96875,971.4375 C 390.15919,974.34512 400.0276,967.72175 400.59375,970.0625 C 403.33929,971.68003 405.4106,970.32936 407.25,969.15625 C 406.59729,968.58489 405.83552,968.07293 404.71875,966.125 C 432.02686,970.52899 422.36382,956.01171 436.90625,963.96875 C 437.09121,964.0702 437.20294,964.1548 437.375,964.25 C 438.61434,962.08967 440.7303,959.78705 445.1875,957.8125 C 444.7396,956.49314 439.65085,957.91023 441.65625,953.8125 C 444.13555,951.4135 445.19613,959.33242 445.84375,951.125 C 449.85542,948.70388 442.77843,939.38506 447.1875,937.34375 C 450.65944,936.66857 453.57701,915.81572 451.90625,926.46875 C 454.1875,927.32614 458.513,923.38143 460.84375,920.25 C 460.13637,920.40078 459.29319,920.46965 458.3125,920.4375 C 452.95353,920.60478 465.03888,915.93881 462.21875,918 C 461.96561,918.61487 461.47288,919.40474 460.84375,920.25 C 466.55757,919.0321 464.1202,912.36448 465.65625,908.8125 C 470.3736,903.74442 470.27265,894.31365 473.34375,897.71875 C 475.42286,896.40893 478.31739,899.96071 480.03125,889.75 C 475.70585,887.50239 472.43622,884.09246 477.6875,882.34375 C 481.26644,877.75022 486.55867,881.83617 486.90625,879.96875 C 490.3217,876.7044 489.4925,862.93362 490.46875,866.875 C 491.13612,865.62303 496.56411,858.91356 499.40625,857.375 C 506.97649,858.08581 499.96749,844.93052 493.65625,846.25 C 496.47037,842.04487 501.34395,846.58995 505.46875,840.3125 C 509.47891,838.94584 506.13368,832.77843 505.34375,831.0625 C 509.09491,830.74322 504.08836,824.71139 506.8125,825.34375 C 507.63226,825.80836 514.62969,818.96394 518.09375,816.34375 C 515.96933,808.32553 523.24541,808.13034 522.6875,809.1875 C 526.26694,810.65039 522.2402,800.74091 522.46875,796.3125 C 522.02343,794.99759 522.2715,793.90941 523.0625,794.5 C 522.65745,794.83719 522.51074,795.49888 522.46875,796.3125 C 523.17301,798.39199 525.6746,801.04323 530.84375,798.5625 C 527.85321,795.52664 539.46179,779.81827 542.40625,774.84375 C 542.35348,774.80713 542.30574,774.75826 542.25,774.71875 C 541.73416,775.11346 541.21355,775.37991 541.78125,774.40625 C 541.96286,774.54145 542.09272,774.60726 542.25,774.71875 C 542.40409,774.60084 542.56743,774.48921 542.6875,774.375 C 542.72885,774.30101 542.80806,774.16083 542.84375,774.09375 C 543.04077,774.00337 542.91227,774.1612 542.6875,774.375 C 542.61719,774.50083 542.492,774.69887 542.40625,774.84375 C 547.9974,778.72397 537.08563,766.54345 536.03125,765.65625 C 535.67415,763.43868 551.47025,769.16401 551.90625,763.71875 C 552.54394,762.35038 553.26288,761.24127 554,760.28125 C 553.18292,760.01223 552.30916,759.62113 551.25,758.96875 C 553.56334,752.81844 541.8941,747.55849 554.3125,744.1875 C 555.35538,744.50362 556.12782,744.75428 556.96875,745.09375 C 557.38921,745.26348 557.19889,744.54917 559.40625,746.59375 C 559.69071,746.85723 560.15766,747.24066 560.59375,747.90625 C 560.98058,747.97666 561.46037,748.02795 561.875,748.09375 C 562.53526,744.81388 562.75174,741.8106 562.09375,740.78125 C 557.64581,745.08606 550.34836,745.28449 554.5625,739.53125 C 557.37501,740.6039 555.62442,736.51971 554.53125,725.5 C 543.86159,719.93889 547.64688,719.40591 547.46875,715.53125 C 545.65085,713.76111 540.01601,709.4681 545.15625,707.65625 C 544.08853,705.0387 535.87197,703.56642 535.71875,700.4375 C 539.18248,691.56639 534.89533,694.1969 533.28125,692.625 C 533.69127,678.91452 533.05051,687.11181 534.5,684.84375 C 533.56397,678.30061 523.74073,680.83984 523.0625,682.65625 C 521.19046,677.60755 513.63329,672.37208 512.75,669.125 C 518.80688,668.24494 524.10393,662.61358 514.03125,659.53125 C 512.27881,657.09782 510.02972,657.00215 511.9375,653.1875 C 508.73181,653.82899 506.89932,646.4823 505.84375,641.78125 C 503.83829,629.43158 496.50619,634.77023 493.28125,630.875 C 496.91971,625.81404 504.5814,628.4865 498.5,626.78125 C 497.74501,619.04302 489.29258,621.84712 487.8125,618.5 C 486.5479,617.65562 484.00887,611.16988 482.15625,610.65625 C 483.25853,604.65506 476.5781,607.06862 477.96875,605.1875 C 476.8421,595.46355 477.50704,597.11016 479.3125,595.28125 C 471.76038,591.38305 473.67836,583.48497 474.5,581.9375 C 470.88793,578.7977 466.10375,581.70832 465.90625,577.5625 C 465.56143,576.26355 465.46725,573.33264 464.65625,571.4375 C 464.28843,571.34979 463.56372,570.83053 462.34375,569.6875 C 463.48163,569.55696 464.1842,570.33441 464.65625,571.4375 C 466.13196,571.7894 461.82423,565.10744 460.34375,562.9375 C 458.54341,560.1463 449.38206,558.09925 453.03125,553.46875 C 457.41901,549.60953 455.99102,551.58175 452,551.875 C 453.78479,544.9683 444.45406,542.17945 443.21875,540.53125 C 444.27088,546.85659 440.93919,534.3452 439.78125,530.8125 C 441.61674,525.3805 437.54007,532.0049 436.875,529.40625 C 432.6667,525.77887 433.83941,508.83384 431.8125,504.875 z M 286.9375,971.5 C 286.88419,971.56643 286.83555,971.6193 286.78125,971.6875 C 287.29231,971.50976 287.21325,971.47735 286.9375,971.5 z M 201.53125,973.96875 C 196.43613,976.42412 198.00806,978.40718 201.53125,973.96875 z M 104.3125,615.375 C 104.34695,614.25961 104.02945,613.83006 103.5,614.9375 C 103.44048,615.79048 103.78289,615.81534 104.3125,615.375 z M 163.4375,508.40625 C 163.38001,509.21102 163.31626,510.02278 163.21875,510.84375 C 163.24373,510.83293 163.27014,510.82223 163.3125,510.8125 C 163.74316,510.50868 164.57149,510.19223 165.75,509.875 C 165.77347,509.8585 165.8219,509.85945 165.84375,509.84375 L 163.4375,508.40625 z M 164.53125,513.375 C 164.51107,513.40161 164.51738,513.64477 164.53125,513.875 C 164.54352,513.84355 164.56113,513.81472 164.5625,513.8125 C 164.73029,513.90534 164.5918,513.29518 164.53125,513.375 z M 164.53125,513.875 C 164.51386,513.91956 164.50036,513.97056 164.5,513.96875 L 164.5625,514.25 C 164.54592,514.09688 164.5373,513.9754 164.53125,513.875 z M 158.875,521.03125 C 158.86178,521.03073 158.84945,521.04562 158.84375,521.0625 C 158.82821,521.1085 159.20823,521.84637 159.28125,522.0625 C 159.27605,522.00786 159.25471,521.86264 159.25,521.8125 C 159.2152,521.44189 158.96752,521.03489 158.875,521.03125 z M 287.90625,691.21875 C 289.68644,690.1034 290.86448,689.24443 291.59375,688.625 C 291.00508,688.29481 290.40461,688.18204 289.71875,688.5 C 290.89582,687.12708 294.29669,686.3453 291.625,688.625 C 293.41477,689.65014 294.89664,692.59226 296.78125,690.96875 C 303.13382,687.53064 301.51387,684.33034 310.75,679.96875 C 308.87314,681.42484 317.49445,684.58432 325.3125,695.6875 C 327.79193,697.28454 326.70981,694.53897 325.71875,692.90625 C 328.54233,691.98814 330.33206,698.17896 331.90625,700.53125 C 334.00596,706.70604 341.72266,706.44091 338.90625,707.46875 C 340.04827,708.1143 341.68039,708.56165 343.21875,709.03125 L 347.96875,707.75 L 350.28125,711.59375 C 350.31472,711.5943 350.30367,711.5915 350.34375,711.59375 C 351.30291,711.64771 353.3262,710.8251 357.0625,712.375 C 357.09116,712.38397 357.12787,712.36559 357.15625,712.375 L 357.15625,712.40625 C 357.47335,712.54034 357.71944,712.57806 358.0625,712.75 L 352.90625,725.1875 C 354.41348,725.68745 356.45802,725.4184 357.625,724.84375 C 358.79198,724.2691 359.29076,723.68325 359.5625,723.34375 C 360.10597,722.66475 359.96407,722.70255 359.84375,723 C 359.60311,723.5949 359.1086,725.19721 358.59375,726.9375 C 358.0789,728.67779 357.49702,730.62 356.6875,732.5625 C 356.03653,734.12455 355.58803,735.99462 353.3125,737.71875 C 355.29626,739.49936 356.22527,741.55231 356.625,743.46875 C 357.23894,746.41221 356.92928,749.45246 355.8125,752.4375 C 355.8934,752.8436 356.05197,753.13357 356.0625,753.65625 C 356.10567,755.79845 354.47811,758.47949 353.0625,759.46875 C 352.51885,759.84867 352.31803,759.79093 351.90625,760 C 352.05077,760.79439 352.20264,761.52554 352.34375,762.3125 C 352.63193,763.91965 352.90147,765.21294 353.09375,766.1875 C 348.24444,768.50578 341.9635,757.70047 339.4375,773.125 C 338.12609,773.40186 336.37574,773.67837 333.9375,773.90625 C 330.9676,770.58192 326.76252,774.38412 325.75,772.375 C 326.28489,773.8998 326.09547,775.18124 325.3125,776.1875 C 321.18547,784.92726 319.7859,764.07226 307.96875,787.59375 C 307.52863,788.60058 307.00497,789.2456 306.28125,789.125 C 302.37191,792.97525 295.49029,781.19126 293.28125,782.71875 C 290.7929,782.3064 288.80675,786.63753 288.5,789.84375 C 289.05624,791.5498 288.87463,792.71805 290.40625,793.03125 C 288.81299,793.57684 288.29855,791.94931 288.5,789.84375 C 287.99713,788.30138 286.90488,786.31663 283.34375,784.0625 C 280.64163,781.32384 285.304,782.49265 276.1875,781.625 C 279.69067,780.42213 268.80475,778.03559 266.5,777.09375 C 258.95599,766.0502 267.19915,785.67078 248.40625,759.71875 C 248.91307,759.31769 249.95318,758.47789 251.53125,757.21875 C 252.00467,756.84101 252.5137,756.45541 253.3125,756 C 253.3422,755.98307 253.37576,755.95538 253.40625,755.9375 C 252.90567,755.61096 252.4059,755.32048 251.90625,755.03125 L 251.65625,755.8125 C 251.66624,755.89389 251.64884,755.94921 251.59375,755.96875 L 251.65625,755.8125 C 251.63053,755.60293 251.41461,755.15993 251.15625,754.59375 C 250.32216,754.13164 249.72176,753.81409 249.34375,753.625 C 249.81351,753.17116 250.1946,753.02826 250.53125,753 C 250.05302,751.41248 249.84648,749.33802 251.0625,747.03125 C 252.03712,743.92471 258.07538,735.67962 259.15625,732.5625 C 258.33453,728.11056 246.66746,724.49232 253.34375,721 C 251.80664,715.73202 253.14437,711.21866 254.0625,708.875 C 253.9007,708.41755 253.92986,708.00279 254.28125,707.65625 C 254.53317,707.35775 254.69497,707.22505 254.75,707.1875 C 254.69598,707.36172 254.40567,707.999 254.0625,708.875 C 255.28136,712.32111 268.62346,717.81747 257.84375,708.65625 C 257.86558,708.54812 261.20247,699.31544 260.125,699.5 C 260.37244,699.39214 260.60083,699.29321 260.8125,699.1875 C 292.79945,699.72779 293.66563,678.37854 287.90625,691.21875 z M 250.53125,753 C 250.72092,753.62962 250.95142,754.14487 251.15625,754.59375 C 251.39225,754.7245 251.65559,754.88615 251.90625,755.03125 L 253.1875,751.125 C 252.04329,753.68808 251.45704,752.92227 250.53125,753 z M 324.8125,691.8125 C 324.9344,691.75401 325.29528,692.26211 325.6875,692.90625 C 325.50697,692.96743 325.3142,693.0654 325.125,693.1875 C 324.76721,692.26104 324.71314,691.86017 324.8125,691.8125 z M 342.5,724.5625 C 342.03838,724.8477 341.5564,725.16093 341.0625,725.46875 C 341.25852,725.52563 341.75146,725.36277 342.6875,724.84375 C 342.59105,724.77922 342.53525,724.6803 342.5,724.5625 z M 554.25,744.71875 C 554.19324,744.71976 553.97599,744.83498 553.90625,744.84375 L 554.90625,744.875 C 554.75051,744.86999 554.65033,744.71165 554.25,744.71875 z M 551.46875,757.46875 C 551.85956,757.70376 551.90783,757.62564 551.90625,757.625 C 551.9048,757.62442 551.56976,757.50391 551.46875,757.46875 z M 352.53125,765.71875 C 352.44237,765.57595 352.45825,765.54027 352.3125,765.34375 L 352.53125,765.71875 z M 96,845.5625 C 95.87153,846.09335 96.05257,846.2815 96,845.5625 z M 490.46875,866.90625 C 490.39421,867.05599 490.38782,867.133 490.5,867.0625 C 490.48458,866.9948 490.48335,866.96604 490.46875,866.90625 z"
       id="path2787"
       sodipodi:nodetypes="csscssccccccccccccccccccccccccccccccccccccccccccccccccccccccccccccccccccccccccccccccccccccccccccccccccccccccccccccccccccccccccccccccccccccccccccccccccccccccccccccccccsscccccccsscccccccccccccccccccccccccccccccccccccccccccsccccssccccccsssccccccccccccccscccccssssscscsscscccccccccccccccsscccccccccccccscccccccccccccccccccccccscccccccsc" />
    <path
       style="fill:#3e3748;fill-opacity:1;fill-rule:evenodd;stroke:none;stroke-width:1.95335126;stroke-linecap:butt;stroke-linejoin:round;stroke-miterlimit:4;stroke-dasharray:none;stroke-opacity:1;display:inline"
       d="M 621.1876,448.46877 C 621.1692,446.89042 620.7874,445.6768 619.625,445.81251 C 612.3929,437.51356 611.7055,442.04224 609.2188,439.18751 C 606.9909,427.62879 608.259,436.00642 604.8437,431.0625 C 596.00674,423.43933 601.1561,435.10792 598.34378,425.90626 C 601.3575,428.91287 588.43493,414.94237 588.21876,412.59376 C 586.91561,411.07276 584.76697,420.00867 585.90627,412.1875 C 584.13435,410.72016 594.09052,393.15559 585.93752,390.62501 C 582.26287,386.24043 578.56214,382.60174 570.31251,375 C 574.7944,371.68223 570.90638,367.26334 566.84376,366.24999 C 567.58704,363.60899 567.17046,357.16588 563.875,354.0625 C 562.39313,349.79709 561.94808,349.7718 557.68752,351.625 C 556.07453,346.62571 558.81789,343.95887 557.68752,340.96874 C 556.12201,338.19889 540.05103,328.86323 549.18751,328.03124 C 543.12929,320.65832 549.66549,323.95876 546.87501,320.3125 C 545.26169,317.54831 544.26878,316.38167 542.71878,314.90625 C 540.94408,309.35184 550.77051,308.19863 550.84375,306.40626 C 552.64492,301.22006 545.73449,310.01794 540.93752,304.93751 C 537.99018,293.98 538.13656,302.46222 529.15627,300.0625 C 527.50855,297.26579 527.24777,296.73081 525.06251,290.28124 C 523.30705,288.41821 517.52215,291.14226 516.65626,287.78124 C 514.66944,287.05998 511.445,276.39786 510.40626,272.53125 C 503.19136,270.66293 503.49972,272.97633 500.12501,267.4375 C 495.31977,261.0211 506.70225,264.82755 506.03126,262.03125 C 501.33395,265.26889 507.20951,258.12369 499.90626,252.84374 C 497.37297,248.1747 503.04764,259.62118 497.28126,253.74999 C 499.53017,249.09464 492.66935,237.4711 490.81251,235.43751 C 488.78558,238.28681 476.02021,241.49652 469.8125,237.43751 C 470.12002,238.05849 469.78114,237.9777 468.43752,236.31251 C 468.84757,236.7452 469.30546,237.10596 469.8125,237.43751 C 469.20887,236.21849 466.05867,232.17625 462.78127,231.34376 C 463.42355,233.25903 461.21786,243.43516 457.75001,243.25001 C 453.53997,244.61414 452.96819,232.27525 450.28126,236.90625 C 451.28347,239.61367 445.4918,238.55379 440.28126,235.875 C 437.42104,235.86822 429.54385,234.56328 430.75001,239.49999 C 428.69208,239.26138 422.78246,228.99139 419.78126,228.40625 C 416.10272,228.53323 413.8368,239.04777 411.15627,236.84376 C 410.02131,237.27682 403.69516,240.02697 400.21876,238.53124 C 393.52062,238.32144 405.01088,244.01108 395.81251,245.50002 C 388.78591,249.08151 391.47864,233.24733 389.03126,230.03125 C 382.43879,230.69307 373.41325,237.66626 373.65626,236.15626 C 368.97453,236.89686 358.58179,243.22423 360.96876,235.84374 C 355.76535,232.86625 357.01672,234.90116 353.28125,233.37501 C 346.20458,236.90088 346.06639,238.60114 346.62502,239.25 C 346.49326,239.20636 346.34327,239.17612 346.15626,239.125 C 344.20539,240.23001 331.00984,236.96392 333.25002,239.5625 C 329.49597,241.10531 329.21104,243.14092 324.53126,241.46874 C 313.72419,250.82193 322.27405,241.15422 313.43752,244.28124 C 313.12747,244.93023 312.98296,245.28635 312.90627,245.53126 C 313.02847,244.45827 312.84623,240.9189 307.40625,237.46876 C 304.32653,238.79619 305.21274,249.15818 301.31251,234.12501 C 298.65155,231.96895 288.56092,234.44939 287.46877,237.4375 C 287.10472,237.01181 286.74903,236.32684 286.40625,235.59374 C 284.38726,236.85889 272.81308,233.97799 268.93752,233.875 C 260.94512,236.28094 267.76252,234.28656 255.59376,233.06251 C 252.09183,232.97845 254.61436,237.45607 249.53126,235.0625 C 246.78323,234.82766 246.64118,231.88453 241.71876,231.15625 C 233.92776,230.76633 228.73631,231.44922 231.78126,235.59374 C 232.39506,241.71103 224.89961,242.61034 220.96876,245.9375 C 220.25581,249.83701 227.20258,251.94456 221.06251,252.75 C 215.51267,252.78198 219.34073,258.93826 220.12501,259.34374 C 210.50609,263.2706 217.02814,263.78685 215.93751,267.5 C 213.41602,271.31476 214.5964,267.73856 211.65626,270.46875 C 214.78847,274.12003 205.21746,286.02821 196.50001,288.1875 C 193.92655,290.27667 212.26608,293.61696 205.5625,298.46876 C 203.5068,296.77647 196.06089,300.20424 191.75,301.28126 C 186.81492,306.77999 184.58684,305.93711 187.56252,308.37502 C 186.11606,313.99707 182.2944,317.54358 180.65627,320.31251 C 179.72604,326.676 174.08615,321.8589 175.68751,326.75 C 170.94349,326.98418 172.63418,333.28805 171.21876,333.0625 C 172.44698,336.54397 168.18828,332.94169 167.34375,335.9375 C 164.95446,341.48346 174.68032,351.96537 171.31252,351.8125 C 171.65718,358.0298 155.82765,350.2631 155.96877,356.34376 C 152.60219,361.22396 161.6298,367.73632 156.75001,371.28126 C 158.17899,373.75509 147.80754,364.64227 149.34376,375.90626 C 144.9074,381.83183 145.81382,380.73369 144.25,384.84375 C 142.00695,387.57806 139.55237,391.4077 138.18752,394.25001 C 137.57934,395.64668 137.44913,397.55066 137.28125,399.0625 C 137.4531,399.20461 137.61352,399.35657 137.78127,399.5 C 138.36655,400.00054 138.90312,400.56585 139.4375,401.18751 C 140.50628,402.43084 141.53899,403.91584 142.37501,405.53125 C 143.01443,406.76673 143.5189,408.12404 143.62501,409.75 C 144.10002,410.81609 144.36464,411.90151 144.34377,412.71875 C 144.32117,413.60278 144.22549,414.00176 144.15627,414.40626 C 148.47293,415.74139 151.48501,419.08136 153.71875,421.46874 C 154.61161,422.42301 155.11331,423.00359 155.50002,423.4375 L 155.75001,423.25002 C 157.03328,424.52881 158.46419,425.59331 159.71876,426.625 C 160.34604,427.14084 160.93032,427.59498 161.56251,428.375 C 161.8786,428.76501 162.23678,429.25946 162.5,430.06249 C 162.50827,430.08772 162.49218,430.13014 162.50002,430.15625 C 162.59804,430.25178 162.85388,430.5654 163.75001,431.03125 C 164.80402,431.57918 166.30731,432.13305 167.84375,432.65626 C 169.38021,433.17945 170.90134,433.6601 172.37501,434.37501 C 173.11184,434.73246 173.86843,435.11192 174.65626,435.90626 C 175.4441,436.70059 176.30651,438.30811 176.09377,439.9375 L 175.37501,445.3125 L 171.28127,443.06249 C 171.13058,443.13384 171.0452,443.16478 170.75,443.375 C 169.81049,444.04403 168.47872,445.3951 167.37502,446.78126 C 167.16268,447.04792 167.10371,447.20049 166.90627,447.46875 C 167.37372,447.67414 167.85274,447.83457 168.31251,448.06251 C 168.9714,448.38915 169.60944,448.75456 170.25001,449.125 C 173.70384,446.30023 176.45607,444.27947 179.12501,446.84375 C 179.18157,445.17939 183.24686,437.95758 185.46876,441.03125 C 190.52856,440.08558 188.10791,450.80144 191.65627,451.28126 C 198.90849,451.41199 189.98777,445.59966 202.34376,450.18751 C 201.57077,449.65043 204.44012,448.05176 207.28126,447.43749 C 212.3262,446.60921 220.04934,449.90487 223.46877,450.37501 C 223.1651,450.09853 239.29929,459.04156 237.53127,449.75001 C 240.67183,449.89527 239.0267,459.94056 240.0625,452.59375 C 243.10188,452.97271 254.18256,448.42312 249.34376,452.375 C 249.97087,454.81674 254.43177,451.88207 259.25002,451.09375 C 260.27184,450.46545 259.66774,451.2814 265.53126,443.3125 C 270.36661,453.54295 278.26797,446.70076 281.53126,446.65626 C 285.91048,445.2669 281.77096,455.44702 289.40626,451.9375 C 295.13634,450.82365 298.92391,447.3991 301.9375,449.15626 C 301.96189,447.89463 298.88169,448.59067 306.09375,447.62499 C 309.57724,441.28118 313.15878,451.22777 316.50002,451.31251 C 316.8289,459.37501 323.32467,453.51764 324.78127,452.09375 C 327.93114,458.52602 322.80411,438.33044 334.18751,445.71875 C 332.15627,449.59787 339.50027,454.04926 343.37502,454.46876 C 346.31561,452.31469 351.77527,448.90053 353.18751,449.56251 C 358.26329,450.40121 361.69829,448.20676 363.9375,451.8125 C 368.44916,449.9506 373.95457,451.42737 374.59377,451.25001 C 374.93442,447.77369 385.33707,446.63632 386.62502,449.4375 C 391.21764,446.84553 389.36866,448.15781 393.50002,445.03125 C 395.25741,449.3228 399.41953,455.8196 402.4375,453.40626 C 409.11595,461.06001 415.24132,449.49302 418.59378,449.15625 C 421.30357,449.69141 410.20025,453.07011 421.75001,453.46875 C 426.0616,454.24133 428.37068,453.24149 431.96875,452.84375 C 435.01612,452.36273 435.91569,452.2773 440.03125,450.96875 C 443.54022,450.82972 442.68048,453.49182 446.62501,452.71876 C 451.26978,451.91517 446.90334,452.06914 451.53126,451.625 C 455.56358,453.09168 470.16169,453.77846 470.50001,449.53125 C 477.69869,450.62264 478.79458,450.70653 478.87501,445.5625 C 484.40829,440.18509 484.24525,449.84695 487.40626,450.71875 C 490.5798,445.95886 494.25672,449.80354 497.40625,449.65626 C 501.21927,450.43381 504.17199,453.59402 507.46876,453.78125 C 510.74568,453.75674 516.38554,451.33608 517.03127,451.875 C 520.83408,448.57862 519.98182,449.01179 524.96876,451.40625 C 528.64887,451.29978 532.91661,455.96068 536.40625,452.3125 C 534.11506,459.53056 558.32676,445.97152 562.5,453.12501 C 568.61055,443.66337 564.17625,452.33517 567.375,452.40625 C 572.37575,453.69154 580.73902,452.00415 580.56251,454.03126 C 582.33035,452.21933 582.90979,459.64215 585.24998,454.90624 C 587.91189,455.25895 589.51797,457.74426 590.56249,457.53126 C 590.89372,457.13235 592.8152,454.61667 598.75,456.31249 C 592.5312,457.59373 607.4807,459.22842 610.4375,459.34375 C 621.7665,455.95416 621.3319,454.06149 620.6562,453.43751 C 620.1756,455.0513 620.2726,454.73581 620.5624,453.37498 C 620.5294,453.34952 620.4993,453.30069 620.4688,453.28127 C 620.5042,453.29528 620.534,453.29169 620.5938,453.31252 C 620.8644,452.02914 621.206,450.06339 621.1876,448.46877 z M 620.5938,453.31252 C 620.5876,453.34159 620.5686,453.34663 620.5624,453.37498 C 620.5906,453.39661 620.628,453.41145 620.6562,453.43751 C 620.6865,453.33618 620.652,453.46243 620.6876,453.34378 C 620.6251,453.32371 620.6399,453.32857 620.5938,453.31252 z M 580.56251,454.03126 C 580.37258,454.22591 580.35601,454.39925 580.56252,454.5625 C 580.52243,454.43362 580.54421,454.24146 580.56251,454.03126 z M 580.56252,454.5625 C 580.62347,454.75847 580.77286,454.85342 581.03126,454.81251 C 580.81006,454.73772 580.6672,454.64528 580.56252,454.5625 z M 343.37502,454.46876 C 341.02812,456.18791 340.25504,457.12959 344.65627,454.4375 C 344.30774,454.51753 343.85403,454.52062 343.37502,454.46876 z M 202.34376,450.18751 C 202.42733,450.24557 202.54513,450.28133 202.71876,450.31251 C 202.58098,450.26077 202.47657,450.23681 202.34376,450.18751 z M 179.12501,446.84375 C 179.11588,447.11265 179.21343,447.24524 179.4375,447.15625 C 179.32925,447.03671 179.23343,446.94793 179.12501,446.84375 z M 286.40625,235.59374 C 286.88178,235.29578 286.84369,234.78955 286.03126,233.93751 C 284.49956,230.07843 285.25628,233.13423 286.40625,235.59374 z M 347.21876,239.5625 C 347.26234,239.64786 346.88195,239.5628 346.62502,239.28125 C 347.01981,239.41257 347.19434,239.51463 347.21876,239.5625 z M 164.28127,439.1875 C 162.98578,438.73204 161.64988,438.28896 160.31252,437.59376 C 158.58501,436.69573 156.77032,435.51356 155.65626,433.28126 L 155.31252,432.62501 C 155.17808,432.50205 155.20258,432.51033 155.00001,432.34375 C 154.47725,431.91387 153.51375,431.03508 152.71877,430.37501 C 152.44494,430.29586 152.18347,430.19331 152.03126,430.12501 C 151.64463,429.95148 151.48057,429.8495 151.34376,429.75 C 150.79651,429.35201 150.77742,429.22283 150.62501,429.06249 C 150.01538,428.42118 149.31346,427.60104 148.31252,426.53126 C 146.31062,424.39166 143.11293,421.82479 141.90627,421.46876 L 141.84376,421.4375 L 141.81251,421.43751 C 140.10405,420.88236 138.51204,419.94198 137.56251,418.40625 C 136.61299,416.87051 136.6206,415.23094 136.71876,414.25 C 136.80615,413.3766 136.88192,412.93366 136.90627,412.71876 L 136.15626,411.8125 L 136.37501,410.18749 C 136.28367,410.80802 136.31397,409.90643 135.81251,408.9375 C 135.58994,408.50744 135.24185,408.07986 134.93751,407.62501 C 134.44547,407.89608 133.96441,408.21246 133.46876,408.34375 C 132.60205,408.57335 131.75882,408.63052 130.93751,408.5625 C 130.13752,410.7043 129.55038,412.79399 129.62502,414.28126 C 128.20169,414.94514 121.38389,419.49134 119.46877,419.75001 C 118.80913,422.53677 123.97038,422.33819 122.28126,425.62501 C 123.05765,426.2843 118.08165,444.2038 113.37502,439.53125 C 104.15251,445.25196 113.85212,439.99272 112.21876,441.46876 C 109.47012,448.11486 107.10293,447.26449 109.62502,448.875 C 112.14455,447.77767 115.48867,446.61818 119.21876,446.09375 C 122.53317,450.88808 117.02323,449.01099 126.59375,445.46876 C 126.55436,443.78973 127.22253,442.21016 126.59375,445.46876 C 126.62663,446.86972 127.14367,448.34675 129.37501,447.18749 C 132.26843,447.35325 148.94532,447.66791 148.00001,450.96876 C 146.29296,450.49671 144.68834,452.89378 152.96876,451.06251 C 151.08595,457.91027 155.3601,454.50854 158.78126,452.75001 C 158.48024,452.47348 158.20196,452.18204 158.03125,451.87501 C 157.57232,451.04945 157.53245,450.39324 157.53126,449.9375 C 157.52649,448.11453 157.97475,447.80297 158.34376,447.06251 C 159.08176,445.58155 160.20793,443.89676 161.59376,442.15625 C 162.411,441.12986 163.30191,440.13081 164.28127,439.1875 z M 109.62502,448.875 C 108.35586,449.42775 107.35642,449.92057 106.56251,450.34376 C 107.06508,451.77314 105.35357,456.10592 110.37502,454.5625 L 110.56252,449.46875 C 110.17884,449.23052 109.89228,449.04569 109.62502,448.875 z M 106.56251,450.34376 C 106.52204,450.22866 106.48032,450.13528 106.40626,450.0625 C 104.18372,451.83372 104.57624,451.40247 106.56251,450.34376 z M 163.46876,454.0625 C 162.97437,453.90794 162.71658,453.8485 162.50002,453.81251 C 162.4958,454.04918 162.4724,454.30415 162.43751,454.59376 C 162.79057,454.42101 163.12859,454.25233 163.46876,454.0625 z M 155.34377,423.56251 C 155.2491,423.50535 155.23375,423.45186 155.06251,423.375 C 154.69287,423.2091 154.01323,422.79927 152.59378,423.1875 C 151.17431,423.57573 150.07638,425.32941 149.93751,426.15627 C 149.79864,426.9831 149.91656,427.29635 149.96875,427.53126 C 150.00924,427.71333 149.97226,427.55373 150,427.65626 L 155.34377,423.56251 z"
       id="path3723"
       sodipodi:nodetypes="ccccccccccccccccccccccccccccccccccccccccccccccccccccccccccccccccccccccccccccccssscscsccsssssssscccsscscccccccccccccccccccccccccccccccccccccccccccccccccscccssscccccccccccscccccccccccsccscsssscccsscccscsccccccccccccccssssccccccccccccccsssscc" />
    <path
       inkscape:label="#path5298"
       sodipodi:nodetypes="ccccc"
       id="path4006"
       d="M 455.64147,30.0033 C 449.38423,31.07767 468.42153,26.40051 464.35079,33.84923 C 469.24175,32.7252 467.2656,26.62763 468.26775,27.27967 C 475.79187,22.95395 480.59368,25.84946 485.90546,33.37211 C 491.98505,28.93728 495.94065,38.86386 496.33414,36.57765 C 501.37627,32.85853 492.33786,27.61692 495.88603,27.74245 C 502.08543,30.84253 510.28222,31.93071 514.41698,32.74154 C 516.35122,37.29433 518.21423,23.7409 523.96964,32.77341 C 527.90558,31.24879 529.31078,31.20181 534.28348,34.76059 C 532.83513,36.06174 543.07526,28.50212 543.76011,27.93604 C 546.07834,27.9287 548.58824,29.68075 554.16093,32.49844 C 556.47787,31.8559 571.26934,36.86486 572.16061,34.86003 C 575.69772,34.71818 559.7193,33.07321 569.50876,34.44766 C 571.57277,25.44943 591.952,37.80229 589.06687,34.28168 C 580.20339,33.00977 594.9428,31.47734 593.14751,32.98965 C 591.10303,27.75568 605.14466,28.66138 609.02542,28.82032 C 607.42936,32.07003 607.93496,31.50853 610.6959,30.88264 C 615.54804,31.50865 616.0429,26.01539 622.35196,29.12437 C 632.15352,34.9162 625.75344,32.11939 632.03561,31.70554 C 634.72943,31.29196 634.78906,29.24286 636.84942,31.71448 C 633.00067,33.38209 649.0871,38.97112 653.65176,38.70749 C 664.72291,42.0549 659.27018,29.47847 661.26171,30.01533 C 656.56091,28.8963 669.96321,43.75329 670.9733,40.5181 C 680.68963,40.26861 686.37525,25.26023 682.63433,32.37988 C 682.05309,29.24548 691.90509,37.84636 692.24288,37.12923 C 688.68927,33.70449 693.02709,42.70588 697.26974,46.92915 C 700.64737,49.9235 704.05447,39.16422 705.6932,48.14334 C 702.41234,44.10255 704.93523,45.40761 708.27409,46.68732 C 717.25216,46.32903 714.52737,54.83347 722.33885,54.5149 C 723.46302,55.44646 737.36807,47.92424 738.72349,55.27713 C 735.0354,55.97652 744.724,70.74419 747.1723,72.92994 C 757.2426,77.98402 748.7122,76.56952 751.8649,78.1938 C 758.3826,84.78609 761.6711,78.38794 761.9444,79.91915 C 762.8955,76.43616 768.2889,79.36707 769.2545,82.99687 C 779.2117,86.60382 775.604,80.77186 777.2663,88.46264 C 781.1805,91.26263 777.2945,89.74198 786.3348,93.67761 C 788.3405,95.6122 791.4945,91.73832 798.0169,95.43413 C 804.4489,95.31287 803.2267,96.1172 805.8568,98.68038 C 807.6939,96.83915 808.3562,104.16412 807.4209,106.00544 C 809.3602,107.92808 820.8591,108.9861 822.5009,107.31636 C 828.7185,116.39208 822.5203,115.68607 825.3746,117.31806 C 829.7011,119.85152 837.7526,124.29456 842.1726,120.9079 C 844.2595,128.68735 838.2258,130.79026 844.8222,128.27564 C 849.555,125.69038 853.1074,126.86914 856.6654,128.47838 C 865.5012,134.63909 869.0477,140.86663 863.7869,139.83304 C 864.4904,136.67919 873.0467,140.09808 871.5573,141.94648 C 878.7106,139.16613 877.9818,147.20429 877.9791,148.2574 C 877.9938,148.31075 880.4558,142.55082 870.3577,146.85458 C 867.8178,149.41869 860.4883,150.65977 860.0128,148.56265 C 857.535,142.94051 864.2554,159.52001 856.731,151.75244 C 859.2229,159.86481 839.798,145.8953 839.6108,145.07423 C 834.7769,146.41286 834.7998,146.81021 831.3917,145.53585 C 827.5817,141.19488 821.1408,146.58799 819.5886,149.3658 C 816.8399,150.65432 812.582,141.37722 810.1102,141.63248 C 806.649,141.65706 809.8665,147.80443 803.0162,149.63837 C 796.4707,148.34284 791.6266,148.39914 790.1651,147.38997 C 790.3222,144.86735 783.1503,153.91774 781.1951,152.13251 C 777.938,151.86876 770.5611,155.84212 769.8415,146.12986 C 767.9196,146.67271 763.3322,153.82333 756.9206,156.33517 C 748.6308,147.08189 754.7979,150.81238 753.6775,149.18768 C 749.926,158.82654 752.2914,149.15761 748.8315,148.90389 C 748.594,150.39622 736.31686,149.27617 733.15179,148.665 C 730.92572,141.27054 723.5458,142.43434 721.76388,146.99853 C 717.48567,154.6832 707.50162,160.73992 709.80229,148.32512 C 698.2376,147.52268 706.98052,146.11772 701.08707,144.82575 C 698.24272,145.02274 694.24656,147.82554 690.81249,148.60853 C 682.63497,149.91467 687.34877,147.39586 682.34665,146.93369 C 677.42579,149.10781 677.54535,146.65006 673.16957,144.80998 C 675.89529,146.37645 664.12482,148.08745 662.3023,146.88157 C 656.29721,146.85308 650.56425,136.18614 651.84586,145.99017 C 655.82896,146.19137 653.13248,150.32851 647.82191,147.4364 C 638.69851,149.14072 645.14217,142.72581 642.7307,135.79181 C 641.08406,135.25983 628.21689,133.45281 626.58765,132.18616 C 623.90012,130.61008 616.91351,128.29663 615.47436,126.91275 C 613.79584,124.84267 611.30182,126.01547 606.69227,122.36087 C 604.50071,120.06843 607.85009,120.60267 605.00151,117.77074 C 598.09161,116.1822 599.51659,102.63942 592.09214,109.69223 C 592.25514,106.96925 590.75652,99.71982 583.2033,100.74068 C 581.16394,99.03887 577.58636,103.73789 574.69899,102.13592 C 571.45543,101.31282 565.23614,113.24399 569.09036,101.71646 C 559.67109,95.63954 557.8711,91.95449 554.43708,89.47546 C 551.4687,88.27302 555.57938,77.2024 549.76936,80.90302 C 546.79217,78.8613 547.32636,82.56618 541.61755,81.37228 C 538.79477,80.83455 541.49879,86.94186 532.48291,75.80561 C 524.05232,74.21406 526.64939,73.71026 523.68849,72.9787 C 515.73095,63.38467 522.79121,67.88864 517.92959,65.04018 C 511.99059,63.49023 509.12753,64.19735 508.06745,65.13993 C 504.88066,67.36558 510.18745,67.40405 504.57168,65.0486 C 499.09449,64.70338 494.78722,59.80946 491.64409,54.09054 C 481.67103,45.32449 484.88967,42.63142 483.34994,43.1718 C 478.89584,37.47635 476.4542,50.43711 472.91401,49.64635 C 467.51851,48.10922 465.03371,38.7106 463.56506,37.68178 C 459.81596,35.3925 451.52083,28.56726 454.99355,27.74085 C 451.36878,29.38009 453.40331,32.77094 457.79733,32.23101"
       style="fill:#373748;fill-opacity:1;fill-rule:evenodd;stroke:none;stroke-width:1.95335126;stroke-linecap:butt;stroke-linejoin:round;stroke-miterlimit:4;stroke-dasharray:none;stroke-opacity:1;display:inline" />
    <path
       inkscape:label="#path5300"
       id="path4120"
       d="M 559.28838,233.82247 C 559.58403,234.57561 557.59492,239.79225 563.33049,245.44674 C 565.75678,252.67531 573.17043,244.55546 567.83498,251.36138 C 563.23498,251.59168 568.07961,266.23099 573.47883,262.32495 C 573.90199,267.85597 584.3416,264.21616 577.15628,272.60858 C 579.0854,275.05231 591.59351,279.00247 592.26176,280.62383 C 594.62066,284.03078 591.29291,272.27179 596.39576,282.10092 C 597.72391,283.68721 585.25872,287.32172 586.6609,288.88145 C 588.21782,293.79286 592.36939,291.57601 594.05717,294.97906 C 594.70586,298.20101 592.59618,322.18156 600.00258,320.04843 C 602.08334,323.09874 601.94405,325.86703 603.83424,327.15222 C 606.41585,331.46756 613.12048,324.13309 614.3034,326.24652 C 615.73472,329.10647 610.60854,331.87562 615.14149,333.20217 C 618.9265,337.06941 621.27108,340.30133 622.86635,343.2101 C 622.90884,343.06401 633.02627,354.54319 631.16901,356.05633 C 635.68986,355.9765 631.72578,356.20973 632.36362,359.31185 C 634.44617,362.39047 632.34455,355.65407 638.32532,365.56622 C 645.10362,375.34844 635.0271,372.62873 637.79605,379.5151 C 643.2744,385.29781 640.89447,383.57465 639.08149,390.02453 C 638.87454,390.07464 655.63318,381.50853 650.81059,390.38669 C 652.60891,391.22936 662.11669,402.53832 662.0313,405.99516 C 658.09501,413.50128 660.42633,411.26572 659.85382,412.85413 C 661.73317,415.74117 666.71514,413.20903 667.96394,415.2452 C 669.4007,418.1367 668.45942,424.1196 670.01818,427.17051 C 672.69627,429.68826 670.58071,437.6428 673.86801,437.50876 C 680.30928,441.44563 683.10515,445.16007 684.13475,443.93686 C 688.48322,449.67738 695.40794,449.50972 695.25664,451.21179 C 690.65674,454.76415 688.69135,455.01305 693.31609,453.22512 C 688.07286,457.63025 698.01553,451.11104 700.94911,450.86593 C 703.64422,451.91695 704.95462,458.61269 709.56416,446.57464 C 712.18569,447.44092 710.95299,454.75637 714.34501,454.61769 C 726.48667,456.2878 726.10185,459.00412 733.56534,452.33634 C 734.80248,451.3931 737.83294,453.17043 742.32089,452.96944 C 741.85277,455.65427 749.64443,453.36715 755.10331,450.10169 C 755.94238,449.34868 762.54774,454.97497 763.74884,453.25123 C 771.57568,451.14966 767.09773,452.39933 770.35414,452.38732 C 777.88828,460.56648 783.95933,452.95143 787.57381,448.9059 C 789.60178,452.40391 788.39252,451.87126 791.76703,451.78926 C 794.38271,447.96841 800.98874,452.00667 801.26323,446.44464 C 802.35093,446.78955 806.28595,458.87683 804.09119,455.52852 C 807.88905,458.84134 819.57023,459.37881 822.44327,460.5473 C 824.41416,462.49942 827.82816,452.52107 831.47366,452.67172 C 835.87088,452.77173 831.79966,450.2391 836.88203,451.01823 C 839.9859,452.09695 849.86882,452.28548 853.15076,452.07903 C 857.33313,457.32947 855.0812,455.21074 856.81797,453.30677 C 860.74845,455.46806 865.01415,458.29394 868.95355,453.18837 C 872.40997,452.97323 873.20593,456.19483 881.16422,455.01787 C 885.03926,456.16755 885.89472,449.15678 892.41503,449.54743 C 895.67812,447.38557 897.37247,455.41525 899.00862,452.91336 C 904.03276,452.01264 900.73548,450.15797 907.00988,450.48837 C 906.77174,450.31385 910.44854,450.21609 918.44204,454.06436 C 927.13203,455.65008 921.92193,456.86545 925.86303,456.2123 C 937.15404,450.52875 923.64941,450.92932 930.95724,456.1516 C 932.24805,458.92978 927.74191,448.84978 927.8942,440.05674 C 927.40352,445.64845 927.74845,430.18306 927.34354,430.85763 C 928.76639,427.04126 930.54848,428.26177 927.14584,428.7122 C 927.84227,424.46821 919.29337,409.5343 917.79888,406.23553 C 917.56842,407.87465 919.44801,424.7827 917.28982,415.67903 C 918.69637,401.7941 913.78195,399.94281 911.48041,398.44177 C 908.77802,395.54651 906.837,402.56156 904.69828,399.6984 C 900.45522,405.19587 893.09167,386.70704 892.92772,382.74232 C 888.95337,378.20234 899.6314,379.05096 893.63889,375.90341 C 892.24145,370.06977 878.64747,362.33463 885.25228,368.4769 C 878.56213,365.21159 891.28751,371.61505 890.00118,364.82157 C 894.99239,356.41318 880.67849,351.32848 878.91452,351.92924 C 874.01478,352.31127 880.16166,345.67241 878.80437,344.17382 C 877.16524,341.4412 871.09328,343.35656 868.51696,335.41476 C 864.34389,329.6408 866.7229,327.41256 865.03284,324.38766 C 872.23979,320.35348 861.17369,314.76401 860.17308,315.18596 C 860.10261,311.13523 858.47692,306.92317 854.1217,309.55955 C 847.84741,302.8052 851.72795,313.73124 846.50762,301.82467 C 840.9657,299.26301 845.70965,295.69474 843.68126,292.45068 C 833.25936,284.59642 839.58617,282.86693 836.08231,281.55222 C 833.13603,278.15716 834.17702,275.20417 835.68385,273.82495 C 833.08901,269.50391 827.2332,266.88286 826.94628,265.20279 C 823.48018,259.66847 822.23528,261.87325 820.75842,258.76276 C 812.6494,266.06246 820.75552,251.23745 821.02405,252.3944 C 819.28314,250.15027 817.97211,244.0864 814.24613,241.76903 C 808.92501,237.2011 810.09963,230.98055 808.69744,230.97735 C 806.83336,232.22218 806.05173,235.36759 800.60969,234.75747 C 792.92233,236.19629 791.73564,227.69384 788.0414,227.68035 C 782.77137,226.34668 783.30236,237.68644 778.9672,237.69093 C 779.39265,234.0031 770.96597,217.85741 769.71115,228.72829 C 768.71305,231.33676 764.51513,229.1241 760.87383,235.43529 C 754.66591,235.01236 758.07496,224.28143 752.67182,229.19253 C 749.45517,228.52304 744.8648,230.1401 743.03234,232.5454 C 745.14966,240.18518 733.69619,240.66856 732.97023,234.02666 C 731.37182,230.72353 726.87337,236.21247 723.7767,236.53833 C 721.00911,237.06002 720.58563,234.40079 716.5787,231.54223 C 713.8743,235.00889 711.01594,236.31303 706.85443,232.63134 C 698.50664,227.47227 701.03908,230.18586 696.39222,231.55683 C 690.66868,227.4102 684.60054,234.27221 680.72548,234.69856 C 676.74826,237.95583 676.78804,240.47929 670.81471,237.41118 C 667.30469,237.15785 670.63978,227.02251 667.534,227.53976 C 663.15446,227.75967 659.41702,243.52545 657.80535,243.4269 C 654.32419,239.01728 654.41878,232.39477 651.26075,232.47734 C 648.3576,236.0129 642.49899,231.69861 639.74897,231.35369 C 631.92224,224.22531 630.56741,234.37029 627.40931,237.46024 C 624.99136,237.07319 626.46027,242.73336 623.25626,242.91208 C 618.26246,240.9845 608.33643,239.28688 608.39435,233.24532 C 607.76228,227.82082 612.63873,232.89771 599.30277,235.5704 C 597.74382,239.59561 588.43234,237.73896 585.31667,235.18931 C 578.41877,234.16938 583.5501,228.70772 580.27273,227.02406 C 565.58932,228.39475 568.59398,239.2135 564.41276,235.1824 C 554.15148,229.80054 556.33055,231.97348 556.30016,231.573 C 556.12729,222.68759 559.46089,238.58748 559.33429,238.66033"
       style="fill:#3e4837;fill-opacity:1;fill-rule:evenodd;stroke:none;stroke-width:1.95335126;stroke-linecap:butt;stroke-linejoin:round;stroke-miterlimit:4;stroke-dasharray:none;stroke-opacity:1;display:inline" />
  </g>
  <g
     inkscape:groupmode="layer"
     id="layer2"
     inkscape:label="stencils"
     style="display:none">
    <path
       sodipodi:nodetypes="ccccccc"
       inkscape:label="#path5308"
       id="path2419"
       d="M 6.8125006,741.1875 L 147.4375,491.1875 L 444.3125,491.1875 L 584.9375,741.1875 L 444.3125,991.1875 L 147.4375,991.1875 L 6.8125006,741.1875 z"
       style="fill:none;fill-rule:evenodd;stroke:#005700;stroke-width:2;stroke-linecap:butt;stroke-linejoin:round;stroke-miterlimit:4;stroke-dasharray:none;stroke-opacity:1;display:inline" />
    <path
       sodipodi:nodetypes="ccccc"
       inkscape:label="#path5306"
       id="path2421"
       d="M 70.312501,468.75 L 210.9375,218.75 L 507.8125,218.75 L 648.4375,468.75 L 70.312501,468.75 z"
       style="fill:none;fill-opacity:1;fill-rule:evenodd;stroke:#005700;stroke-width:2;stroke-linecap:butt;stroke-linejoin:round;stroke-miterlimit:4;stroke-dasharray:none;stroke-opacity:1;display:inline" />
    <path
       sodipodi:nodetypes="ccccc"
       inkscape:label="#path5304"
       id="path2423"
       d="M 702.125,991.1875 L 991.1875,991.1875 L 991.1875,702.125 L 702.125,702.125 L 702.125,991.1875 z"
       style="fill:none;fill-opacity:1;fill-rule:evenodd;stroke:#005700;stroke-width:2;stroke-linecap:butt;stroke-linejoin:round;stroke-miterlimit:4;stroke-dasharray:none;stroke-opacity:1;display:inline" />
    <path
       inkscape:label="#path5298"
       sodipodi:nodetypes="ccccc"
       id="path2425"
       d="M 389.625,14.625 L 686.5,14.625 L 944.3125,163.0625 L 647.4375,163.0625 L 389.625,14.625 z"
       style="fill:none;fill-opacity:1;fill-rule:evenodd;stroke:#005700;stroke-width:2;stroke-linecap:butt;stroke-linejoin:round;stroke-miterlimit:4;stroke-dasharray:none;stroke-opacity:1;display:inline" />
    <path
       sodipodi:nodetypes="ccccc"
       inkscape:label="#path5300"
       id="path2427"
       d="M 531.25,218.75 L 678.6875,467.75 L 967.75,467.75 L 819.3125,217.75 L 531.25,218.75 z"
       style="fill:none;fill-opacity:1;fill-rule:evenodd;stroke:#005700;stroke-width:2;stroke-linecap:butt;stroke-linejoin:round;stroke-miterlimit:4;stroke-dasharray:none;stroke-opacity:1;display:inline" />
    <path
       sodipodi:nodetypes="cccc"
       inkscape:label="#path5302"
       id="path2429"
       d="M 163.0625,256.8125 L 14.625001,6.8125 L 311.5,6.8125 L 163.0625,256.8125 z"
       style="fill:none;fill-opacity:1;fill-rule:evenodd;stroke:#005700;stroke-width:2;stroke-linecap:butt;stroke-linejoin:round;stroke-miterlimit:4;stroke-dasharray:none;stroke-opacity:1;display:inline" />
    <path
       inkscape:label="#path6418"
       sodipodi:nodetypes="ccccc"
       id="path2431"
       d="M 975.5625,686.5 L 772.4375,483.375 L 483.375,483.375 L 686.5,686.5 L 975.5625,686.5 z"
       style="fill:none;fill-opacity:1;fill-rule:evenodd;stroke:#005700;stroke-width:2;stroke-linecap:butt;stroke-linejoin:round;stroke-miterlimit:4;stroke-dasharray:none;stroke-opacity:1;display:inline" />
  </g>
</svg>
